G04 #@! TF.GenerationSoftware,KiCad,Pcbnew,8.0.3+1*
G04 #@! TF.CreationDate,2024-07-17T12:21:26-06:00*
G04 #@! TF.ProjectId,CH375_Serial,43483337-355f-4536-9572-69616c2e6b69,rev?*
G04 #@! TF.SameCoordinates,Original*
G04 #@! TF.FileFunction,Copper,L1,Top*
G04 #@! TF.FilePolarity,Positive*
%FSLAX46Y46*%
G04 Gerber Fmt 4.6, Leading zero omitted, Abs format (unit mm)*
G04 Created by KiCad (PCBNEW 8.0.3+1) date 2024-07-17 12:21:26*
%MOMM*%
%LPD*%
G01*
G04 APERTURE LIST*
G04 Aperture macros list*
%AMRoundRect*
0 Rectangle with rounded corners*
0 $1 Rounding radius*
0 $2 $3 $4 $5 $6 $7 $8 $9 X,Y pos of 4 corners*
0 Add a 4 corners polygon primitive as box body*
4,1,4,$2,$3,$4,$5,$6,$7,$8,$9,$2,$3,0*
0 Add four circle primitives for the rounded corners*
1,1,$1+$1,$2,$3*
1,1,$1+$1,$4,$5*
1,1,$1+$1,$6,$7*
1,1,$1+$1,$8,$9*
0 Add four rect primitives between the rounded corners*
20,1,$1+$1,$2,$3,$4,$5,0*
20,1,$1+$1,$4,$5,$6,$7,0*
20,1,$1+$1,$6,$7,$8,$9,0*
20,1,$1+$1,$8,$9,$2,$3,0*%
%AMFreePoly0*
4,1,19,0.500000,-0.750000,0.000000,-0.750000,0.000000,-0.744911,-0.071157,-0.744911,-0.207708,-0.704816,-0.327430,-0.627875,-0.420627,-0.520320,-0.479746,-0.390866,-0.500000,-0.250000,-0.500000,0.250000,-0.479746,0.390866,-0.420627,0.520320,-0.327430,0.627875,-0.207708,0.704816,-0.071157,0.744911,0.000000,0.744911,0.000000,0.750000,0.500000,0.750000,0.500000,-0.750000,0.500000,-0.750000,
$1*%
%AMFreePoly1*
4,1,19,0.000000,0.744911,0.071157,0.744911,0.207708,0.704816,0.327430,0.627875,0.420627,0.520320,0.479746,0.390866,0.500000,0.250000,0.500000,-0.250000,0.479746,-0.390866,0.420627,-0.520320,0.327430,-0.627875,0.207708,-0.704816,0.071157,-0.744911,0.000000,-0.744911,0.000000,-0.750000,-0.500000,-0.750000,-0.500000,0.750000,0.000000,0.750000,0.000000,0.744911,0.000000,0.744911,
$1*%
G04 Aperture macros list end*
G04 #@! TA.AperFunction,EtchedComponent*
%ADD10C,0.000000*%
G04 #@! TD*
G04 #@! TA.AperFunction,SMDPad,CuDef*
%ADD11RoundRect,0.250000X-1.500000X-0.550000X1.500000X-0.550000X1.500000X0.550000X-1.500000X0.550000X0*%
G04 #@! TD*
G04 #@! TA.AperFunction,SMDPad,CuDef*
%ADD12RoundRect,0.250000X-0.475000X0.337500X-0.475000X-0.337500X0.475000X-0.337500X0.475000X0.337500X0*%
G04 #@! TD*
G04 #@! TA.AperFunction,SMDPad,CuDef*
%ADD13RoundRect,0.250000X0.475000X-0.337500X0.475000X0.337500X-0.475000X0.337500X-0.475000X-0.337500X0*%
G04 #@! TD*
G04 #@! TA.AperFunction,SMDPad,CuDef*
%ADD14RoundRect,0.150000X-0.825000X-0.150000X0.825000X-0.150000X0.825000X0.150000X-0.825000X0.150000X0*%
G04 #@! TD*
G04 #@! TA.AperFunction,ComponentPad*
%ADD15R,3.500000X3.500000*%
G04 #@! TD*
G04 #@! TA.AperFunction,ComponentPad*
%ADD16RoundRect,0.750000X-1.000000X0.750000X-1.000000X-0.750000X1.000000X-0.750000X1.000000X0.750000X0*%
G04 #@! TD*
G04 #@! TA.AperFunction,ComponentPad*
%ADD17RoundRect,0.875000X-0.875000X0.875000X-0.875000X-0.875000X0.875000X-0.875000X0.875000X0.875000X0*%
G04 #@! TD*
G04 #@! TA.AperFunction,ComponentPad*
%ADD18C,4.000000*%
G04 #@! TD*
G04 #@! TA.AperFunction,ComponentPad*
%ADD19R,1.600000X1.600000*%
G04 #@! TD*
G04 #@! TA.AperFunction,ComponentPad*
%ADD20C,1.600000*%
G04 #@! TD*
G04 #@! TA.AperFunction,ComponentPad*
%ADD21C,1.500000*%
G04 #@! TD*
G04 #@! TA.AperFunction,SMDPad,CuDef*
%ADD22RoundRect,0.250000X-0.337500X-0.475000X0.337500X-0.475000X0.337500X0.475000X-0.337500X0.475000X0*%
G04 #@! TD*
G04 #@! TA.AperFunction,ComponentPad*
%ADD23R,1.800000X1.800000*%
G04 #@! TD*
G04 #@! TA.AperFunction,ComponentPad*
%ADD24C,1.800000*%
G04 #@! TD*
G04 #@! TA.AperFunction,SMDPad,CuDef*
%ADD25RoundRect,0.150000X-0.650000X-0.150000X0.650000X-0.150000X0.650000X0.150000X-0.650000X0.150000X0*%
G04 #@! TD*
G04 #@! TA.AperFunction,SMDPad,CuDef*
%ADD26FreePoly0,270.000000*%
G04 #@! TD*
G04 #@! TA.AperFunction,SMDPad,CuDef*
%ADD27FreePoly1,270.000000*%
G04 #@! TD*
G04 #@! TA.AperFunction,SMDPad,CuDef*
%ADD28RoundRect,0.250000X0.450000X-0.350000X0.450000X0.350000X-0.450000X0.350000X-0.450000X-0.350000X0*%
G04 #@! TD*
G04 #@! TA.AperFunction,SMDPad,CuDef*
%ADD29RoundRect,0.150000X-0.987500X-0.150000X0.987500X-0.150000X0.987500X0.150000X-0.987500X0.150000X0*%
G04 #@! TD*
G04 #@! TA.AperFunction,SMDPad,CuDef*
%ADD30RoundRect,0.250000X0.350000X0.450000X-0.350000X0.450000X-0.350000X-0.450000X0.350000X-0.450000X0*%
G04 #@! TD*
G04 #@! TA.AperFunction,SMDPad,CuDef*
%ADD31RoundRect,0.250000X-0.450000X0.325000X-0.450000X-0.325000X0.450000X-0.325000X0.450000X0.325000X0*%
G04 #@! TD*
G04 #@! TA.AperFunction,SMDPad,CuDef*
%ADD32RoundRect,0.250000X-0.450000X0.350000X-0.450000X-0.350000X0.450000X-0.350000X0.450000X0.350000X0*%
G04 #@! TD*
G04 #@! TA.AperFunction,ComponentPad*
%ADD33R,1.500000X1.600000*%
G04 #@! TD*
G04 #@! TA.AperFunction,ComponentPad*
%ADD34C,3.000000*%
G04 #@! TD*
G04 #@! TA.AperFunction,ViaPad*
%ADD35C,0.762000*%
G04 #@! TD*
G04 #@! TA.AperFunction,ViaPad*
%ADD36C,1.270000*%
G04 #@! TD*
G04 #@! TA.AperFunction,Conductor*
%ADD37C,0.635000*%
G04 #@! TD*
G04 #@! TA.AperFunction,Conductor*
%ADD38C,1.270000*%
G04 #@! TD*
G04 APERTURE END LIST*
D10*
G04 #@! TA.AperFunction,EtchedComponent*
G36*
X179878000Y-74545000D02*
G01*
X179278000Y-74545000D01*
X179278000Y-74045000D01*
X179878000Y-74045000D01*
X179878000Y-74545000D01*
G37*
G04 #@! TD.AperFunction*
D11*
X138805000Y-73660000D03*
X144405000Y-73660000D03*
X138965000Y-62865000D03*
X144565000Y-62865000D03*
D12*
X150342500Y-84052500D03*
X150342500Y-86127500D03*
D13*
X166852500Y-85895000D03*
X166852500Y-83820000D03*
D14*
X172150000Y-67945000D03*
X172150000Y-69215000D03*
X172150000Y-70485000D03*
X172150000Y-71755000D03*
X172150000Y-73025000D03*
X172150000Y-74295000D03*
X172150000Y-75565000D03*
X172150000Y-76835000D03*
X177100000Y-76835000D03*
X177100000Y-75565000D03*
X177100000Y-74295000D03*
X177100000Y-73025000D03*
X177100000Y-71755000D03*
X177100000Y-70485000D03*
X177100000Y-69215000D03*
X177100000Y-67945000D03*
D15*
X127635000Y-68230000D03*
D16*
X127635000Y-62230000D03*
D17*
X122935000Y-65230000D03*
D13*
X168275000Y-74465000D03*
X168275000Y-72390000D03*
D18*
X185270000Y-85870000D03*
X185270000Y-60870000D03*
D19*
X183850000Y-67830000D03*
D20*
X183850000Y-70600000D03*
X183850000Y-73370000D03*
X183850000Y-76140000D03*
X183850000Y-78910000D03*
X186690000Y-69215000D03*
X186690000Y-71985000D03*
X186690000Y-74755000D03*
X186690000Y-77525000D03*
D13*
X168275000Y-79142500D03*
X168275000Y-77067500D03*
D12*
X149860000Y-65405000D03*
X149860000Y-67480000D03*
D21*
X156257500Y-85090000D03*
X161137500Y-85090000D03*
D22*
X153035000Y-60960000D03*
X155110000Y-60960000D03*
D12*
X134620000Y-73892500D03*
X134620000Y-75967500D03*
D23*
X146685000Y-85725000D03*
D24*
X144145000Y-85725000D03*
D25*
X141250000Y-78965000D03*
X141250000Y-79915000D03*
X141250000Y-80865000D03*
X143550000Y-80865000D03*
X143550000Y-79915000D03*
X143550000Y-78965000D03*
D22*
X175725000Y-64135000D03*
X177800000Y-64135000D03*
D26*
X179578000Y-73645000D03*
D27*
X179578000Y-74945000D03*
D13*
X168275000Y-70020000D03*
X168275000Y-67945000D03*
D22*
X170412500Y-64135000D03*
X172487500Y-64135000D03*
D28*
X147320000Y-67405000D03*
X147320000Y-65405000D03*
D29*
X153187500Y-64135000D03*
X153187500Y-65405000D03*
X153187500Y-66675000D03*
X153187500Y-67945000D03*
X153187500Y-69215000D03*
X153187500Y-70485000D03*
X153187500Y-71755000D03*
X153187500Y-73025000D03*
X153187500Y-74295000D03*
X153187500Y-75565000D03*
X153187500Y-76835000D03*
X153187500Y-78105000D03*
X153187500Y-79375000D03*
X153187500Y-80645000D03*
X164312500Y-80645000D03*
X164312500Y-79375000D03*
X164312500Y-78105000D03*
X164312500Y-76835000D03*
X164312500Y-75565000D03*
X164312500Y-74295000D03*
X164312500Y-73025000D03*
X164312500Y-71755000D03*
X164312500Y-70485000D03*
X164312500Y-69215000D03*
X164312500Y-67945000D03*
X164312500Y-66675000D03*
X164312500Y-65405000D03*
X164312500Y-64135000D03*
D30*
X141335000Y-85725000D03*
X139335000Y-85725000D03*
D31*
X137160000Y-67301000D03*
X137160000Y-69351000D03*
D32*
X134620000Y-69485000D03*
X134620000Y-71485000D03*
D33*
X130175000Y-76145000D03*
D20*
X130175000Y-78645000D03*
X130175000Y-80645000D03*
X130175000Y-83145000D03*
D34*
X127465000Y-73075000D03*
X127465000Y-86215000D03*
D22*
X162560000Y-60960000D03*
X164635000Y-60960000D03*
D35*
X137160000Y-83185000D03*
X136525000Y-64770000D03*
X170307000Y-60706000D03*
X144272000Y-69215000D03*
X139700000Y-68580000D03*
X158115000Y-78105000D03*
X164465000Y-86487000D03*
D36*
X147955000Y-73660000D03*
D35*
X155575000Y-65532000D03*
X179959000Y-78232000D03*
X184023000Y-82423000D03*
X122936000Y-76073000D03*
X162941000Y-82550000D03*
X174244000Y-79883000D03*
X122936000Y-85090000D03*
X147955000Y-71247000D03*
X158115000Y-60960000D03*
X133604000Y-83312000D03*
X161163000Y-65532000D03*
X187960000Y-64135000D03*
D36*
X147955000Y-62865000D03*
D35*
X155321000Y-74549000D03*
X188087000Y-82550000D03*
D36*
X147955000Y-58964357D03*
D35*
X138049000Y-58928000D03*
X153289000Y-86360000D03*
X122809000Y-59817000D03*
X129667000Y-59182000D03*
X149860000Y-78867000D03*
X158750000Y-86360000D03*
X122936000Y-80391000D03*
X158115000Y-65532000D03*
X122936000Y-71501000D03*
X182626000Y-64135000D03*
X158115000Y-70485000D03*
X132715000Y-76200000D03*
X151765000Y-60960000D03*
X151130000Y-74295000D03*
X175895000Y-60325000D03*
X156845000Y-67945000D03*
X135890000Y-74295000D03*
X144780000Y-80010000D03*
X146685000Y-81280000D03*
X139700000Y-81280000D03*
X179070000Y-71755000D03*
X179070000Y-70485000D03*
X175260000Y-74295000D03*
X159385000Y-69215000D03*
X146685000Y-75565000D03*
X140970000Y-78105000D03*
X145415000Y-76835000D03*
X149860000Y-64135000D03*
X166370000Y-66675000D03*
X172085000Y-78740000D03*
X177165000Y-78740000D03*
X173990000Y-73025000D03*
X159385000Y-71755000D03*
X173990000Y-75565000D03*
D37*
X163331271Y-63423924D02*
X164312500Y-64135000D01*
X140652500Y-61595000D02*
X139065000Y-62865000D01*
X138247500Y-85725000D02*
X139335000Y-85725000D01*
X136525000Y-64770000D02*
X136525000Y-63817500D01*
X137160000Y-83185000D02*
X137160000Y-84637500D01*
D38*
X135572500Y-62865000D02*
X137477500Y-62865000D01*
X140978274Y-65269726D02*
X137160000Y-67301000D01*
D37*
X161607500Y-62865000D02*
X152608551Y-62865000D01*
X162560000Y-61912500D02*
X162560000Y-60960000D01*
X144272991Y-60325000D02*
X146476448Y-60325000D01*
D38*
X147320000Y-65405000D02*
X141754903Y-65405000D01*
X137477500Y-62865000D02*
X139065000Y-62865000D01*
X139065000Y-62865000D02*
X139700000Y-64135000D01*
X147320000Y-65405000D02*
X149860000Y-65405000D01*
X133864603Y-63445200D02*
X127635000Y-68230000D01*
D37*
X149542500Y-61595000D02*
G75*
G03*
X152608551Y-62865020I3066100J3066100D01*
G01*
X149542500Y-61595000D02*
G75*
G03*
X146476448Y-60324980I-3066100J-3066100D01*
G01*
X136525000Y-63817500D02*
G75*
G03*
X135572500Y-62865000I-952500J0D01*
G01*
X137160000Y-84637500D02*
G75*
G03*
X138247500Y-85725000I1087500J0D01*
G01*
X163331271Y-63423924D02*
G75*
G03*
X161607500Y-62865001I-1723771J-2378676D01*
G01*
X162560000Y-61912500D02*
G75*
G03*
X163331264Y-63423934I1866600J0D01*
G01*
X161607500Y-62865000D02*
G75*
G03*
X162560000Y-61912500I0J952500D01*
G01*
X144272991Y-60325000D02*
G75*
G03*
X140652505Y-61595006I9J-5795600D01*
G01*
X137477500Y-62865000D02*
G75*
G03*
X136525000Y-63817500I0J-952500D01*
G01*
D38*
X135572500Y-62865000D02*
G75*
G03*
X133864605Y-63445202I0J-2803800D01*
G01*
X139700000Y-64135000D02*
G75*
G03*
X141754903Y-65404970I2054900J1027500D01*
G01*
X147955000Y-73660000D02*
X144305000Y-73660000D01*
X147955000Y-62865000D02*
X144465000Y-62865000D01*
X145169000Y-87765000D02*
X145161000Y-87757000D01*
X179705000Y-85765001D02*
X179705000Y-84549998D01*
D37*
X180340000Y-72390000D02*
X179578000Y-73645000D01*
X158115000Y-70485000D02*
X164312500Y-70485000D01*
X158115000Y-60960000D02*
X155110000Y-60960000D01*
D38*
X182323829Y-82550000D02*
X181704998Y-82550000D01*
X127465000Y-86215000D02*
X127465000Y-73075000D01*
X140532348Y-87719722D02*
X137897589Y-87668800D01*
X188638043Y-64135000D02*
X187960000Y-64135000D01*
X127465000Y-86215000D02*
X130175000Y-83145000D01*
X180340000Y-66114951D02*
X180340000Y-67595000D01*
X183896000Y-82550000D02*
X182323829Y-82550000D01*
D37*
X139152253Y-77966603D02*
X139690712Y-79283651D01*
D38*
X163488547Y-59011534D02*
X165441452Y-59017465D01*
X123783144Y-70844355D02*
X124969433Y-71563066D01*
X177705001Y-87765000D02*
X168592500Y-87765000D01*
X131357509Y-60074006D02*
X127635000Y-62230000D01*
D37*
X140594423Y-79902788D02*
X141250000Y-79915000D01*
D38*
X176212507Y-59050178D02*
X172159630Y-59037869D01*
X166852500Y-85895000D02*
X166878000Y-87765000D01*
X170271930Y-61049632D02*
X170412500Y-64135000D01*
X147955000Y-58964357D02*
X138049000Y-58928000D01*
X133887156Y-83170981D02*
X133604000Y-83312000D01*
X185976170Y-82550000D02*
X184150000Y-82550000D01*
X153949137Y-58982561D02*
X155930862Y-58988580D01*
X150368000Y-87765000D02*
X145169000Y-87765000D01*
X184000000Y-80730000D02*
X183850000Y-78910000D01*
X187960000Y-64135000D02*
X182626000Y-64135000D01*
D37*
X178720000Y-69215000D02*
X177100000Y-69215000D01*
D38*
X164550000Y-59987250D02*
X164635000Y-60960000D01*
D37*
X136525000Y-76083750D02*
X134620000Y-75967500D01*
D38*
X145154414Y-87763586D02*
X144046579Y-87763586D01*
X156527500Y-58990392D02*
X159702500Y-59000035D01*
X122935000Y-65230000D02*
X127635000Y-62230000D01*
X168592500Y-87765000D02*
X167957500Y-87765000D01*
X167836866Y-59024740D02*
X172159630Y-59037869D01*
X167322500Y-87765000D02*
X166878000Y-87765000D01*
D37*
X180340000Y-70835000D02*
X180340000Y-72390000D01*
D38*
X133604000Y-83312000D02*
X130175000Y-83145000D01*
X190620360Y-66131902D02*
X190514683Y-80547024D01*
D37*
X158115000Y-78105000D02*
X153187500Y-78105000D01*
X167957500Y-87765000D02*
X168275000Y-87447500D01*
D38*
X155025000Y-59972785D02*
X155110000Y-60960000D01*
X180975000Y-63425048D02*
X180975000Y-60642500D01*
X184023000Y-82423000D02*
X183896000Y-82550000D01*
X145161000Y-87757000D02*
X145154414Y-87763586D01*
X155930862Y-58988580D02*
X156527500Y-58990392D01*
D37*
X168275000Y-87447500D02*
X168275000Y-79142500D01*
D38*
X135890000Y-85622035D02*
X135890000Y-85187892D01*
X150342500Y-86127500D02*
X150368000Y-87765000D01*
X167957500Y-87765000D02*
X167322500Y-87765000D01*
D37*
X132715000Y-76200000D02*
X134620000Y-75967500D01*
D38*
X166878000Y-87765000D02*
X150368000Y-87765000D01*
X147955000Y-58964357D02*
X153949137Y-58982561D01*
X184150000Y-82550000D02*
X184023000Y-82423000D01*
X163488547Y-59011534D02*
X159702500Y-59000035D01*
X127465000Y-73075000D02*
X124969433Y-71563066D01*
X122935000Y-65230000D02*
X123156386Y-69792304D01*
X188087000Y-82550000D02*
X185976170Y-82550000D01*
X138049000Y-58928000D02*
X135652542Y-58926993D01*
X177800000Y-60642500D02*
X177800000Y-64135000D01*
X180340000Y-67595000D02*
X180340000Y-70835000D01*
X188496970Y-82550000D02*
X188087000Y-82550000D01*
X182626000Y-64135000D02*
X181684951Y-64135000D01*
X165441452Y-59017465D02*
X167836866Y-59024740D01*
X176212507Y-59050178D02*
G75*
G03*
X179387500Y-59055000I3175693J1045699478D01*
G01*
D37*
X136525000Y-76083750D02*
G75*
G02*
X139152233Y-77966611I-185100J-3032650D01*
G01*
D38*
X144046579Y-87763586D02*
G75*
G02*
X140532348Y-87719723I1648321J272857186D01*
G01*
X180657500Y-64770000D02*
G75*
G03*
X180975022Y-63425048I-2689900J1345000D01*
G01*
X180975000Y-60642500D02*
G75*
G03*
X179387500Y-59055000I-1587500J0D01*
G01*
X164550000Y-59987250D02*
G75*
G03*
X163488547Y-59011547I-1064700J-93050D01*
G01*
X179705000Y-85765001D02*
G75*
G02*
X177705001Y-87765000I-2000000J1D01*
G01*
X180657500Y-64770000D02*
G75*
G03*
X180340023Y-66114951I2689900J-1344900D01*
G01*
X135890000Y-85187892D02*
G75*
G03*
X133887156Y-83170950I-2017000J-8D01*
G01*
X123156386Y-69792304D02*
G75*
G03*
X123783150Y-70844346I1302414J63204D01*
G01*
X190620360Y-66131902D02*
G75*
G03*
X188638043Y-64134987I-1982360J14502D01*
G01*
D37*
X180340000Y-70835000D02*
G75*
G03*
X178720000Y-69215000I-1620000J0D01*
G01*
D38*
X170271930Y-61049632D02*
G75*
G03*
X167836866Y-59024742I-2291330J-278868D01*
G01*
X155930862Y-58988580D02*
G75*
G03*
X155025019Y-59972783I-2762J-906420D01*
G01*
X179387500Y-59055000D02*
G75*
G03*
X177800000Y-60642500I0J-1587500D01*
G01*
X180975000Y-63425048D02*
G75*
G03*
X181684951Y-64135000I710000J48D01*
G01*
X190514683Y-80547024D02*
G75*
G02*
X188496970Y-82549937I-2017683J14824D01*
G01*
X135652542Y-58926993D02*
G75*
G03*
X131357515Y-60074016I-25842J-8518107D01*
G01*
X177800000Y-60642500D02*
G75*
G03*
X176212507Y-59050207I-1592300J0D01*
G01*
X137897589Y-87668800D02*
G75*
G02*
X135889919Y-85622035I39511J2046800D01*
G01*
X170307000Y-60706000D02*
G75*
G03*
X170271929Y-61049632I2346600J-413100D01*
G01*
D37*
X178720000Y-69215000D02*
G75*
G03*
X180340000Y-67595000I0J1620000D01*
G01*
D38*
X181684951Y-64135000D02*
G75*
G03*
X180657471Y-64769986I-51J-1148700D01*
G01*
X182323829Y-82550000D02*
G75*
G03*
X184000021Y-80729998I-29J1681900D01*
G01*
X184000000Y-80730000D02*
G75*
G03*
X185976170Y-82550003I1976200J162900D01*
G01*
X165441452Y-59017465D02*
G75*
G03*
X164549947Y-59987255I-2752J-892135D01*
G01*
D37*
X139690712Y-79283651D02*
G75*
G03*
X140594423Y-79902812I922288J377051D01*
G01*
D38*
X172159630Y-59037869D02*
G75*
G03*
X170306955Y-60705995I-7430J-1854631D01*
G01*
X181704998Y-82550000D02*
G75*
G03*
X179705000Y-84549998I2J-2000000D01*
G01*
X155025000Y-59972785D02*
G75*
G03*
X153949137Y-58982513I-1079200J-92915D01*
G01*
D37*
X151765000Y-60960000D02*
X153035000Y-60960000D01*
X151130000Y-74295000D02*
X153187500Y-74295000D01*
X175725000Y-64135000D02*
X175895000Y-60325000D01*
X175725000Y-64135000D02*
X177100000Y-67945000D01*
X168275000Y-67945000D02*
X172150000Y-67945000D01*
X168275000Y-70020000D02*
X172150000Y-70485000D01*
X171165000Y-73025000D02*
X172150000Y-73025000D01*
X169394232Y-73618965D02*
X168275000Y-74465000D01*
X171165000Y-73025000D02*
G75*
G03*
X169394238Y-73618973I0J-2936500D01*
G01*
X171165000Y-71755000D02*
X172150000Y-71755000D01*
X169245546Y-72066484D02*
X168275000Y-72390000D01*
X171165000Y-71755000D02*
G75*
G03*
X169245547Y-72066487I0J-6069800D01*
G01*
X173238750Y-64770000D02*
X172487500Y-64135000D01*
X173070000Y-69215000D02*
X172150000Y-69215000D01*
X173990000Y-66388667D02*
X173990000Y-68295000D01*
X173990000Y-68295000D02*
G75*
G02*
X173070000Y-69215000I-920000J0D01*
G01*
X173238750Y-64770000D02*
G75*
G02*
X173990040Y-66388667I-1368150J-1618700D01*
G01*
X171482500Y-74295000D02*
X172150000Y-74295000D01*
X170343006Y-74766993D02*
X170180000Y-74930000D01*
X168965285Y-76250843D02*
X168275000Y-77067500D01*
X170180000Y-74930000D02*
G75*
G03*
X168965282Y-76250840I15170700J-15170800D01*
G01*
X171482500Y-74295000D02*
G75*
G03*
X170343004Y-74766991I0J-1611500D01*
G01*
X159134807Y-81397920D02*
X153187500Y-79375000D01*
X161137500Y-85090000D02*
X160896250Y-83502500D01*
X161137500Y-85090000D02*
X166852500Y-83820000D01*
X159134807Y-81397920D02*
G75*
G02*
X160896243Y-83502501I-850907J-2501580D01*
G01*
X156647487Y-81982651D02*
X153187500Y-80645000D01*
X157186250Y-83820000D02*
X156257500Y-85090000D01*
X156257500Y-85090000D02*
X150342500Y-84052500D01*
X156647487Y-81982651D02*
G75*
G02*
X157186291Y-83820030I-434987J-1125249D01*
G01*
X150530361Y-67055085D02*
X149860000Y-67480000D01*
X152474951Y-65405000D02*
X153187500Y-65405000D01*
X151447500Y-66040000D02*
G75*
G02*
X150530360Y-67055083I-2284600J1142300D01*
G01*
X152474951Y-65405000D02*
G75*
G03*
X151447471Y-66039986I-51J-1148700D01*
G01*
D38*
X137160000Y-69351000D02*
X134620000Y-69485000D01*
X137160000Y-69351000D02*
X138905000Y-73660000D01*
D37*
X144145000Y-85725000D02*
X141335000Y-85725000D01*
X156845000Y-67945000D02*
X158115000Y-67945000D01*
X160614809Y-68261967D02*
X164312500Y-69215000D01*
X160614809Y-68261967D02*
G75*
G03*
X158115000Y-67944998I-2499809J-9699033D01*
G01*
X135890000Y-74295000D02*
X134620000Y-73892500D01*
X144780000Y-80010000D02*
X143550000Y-79915000D01*
D38*
X134620000Y-73892500D02*
X132836634Y-73761907D01*
X130810000Y-74902500D02*
X130175000Y-76145000D01*
X134620000Y-73892500D02*
X134620000Y-71485000D01*
X132836634Y-73761907D02*
G75*
G03*
X130810005Y-74902502I-153634J-2097793D01*
G01*
D37*
X143550000Y-80865000D02*
X142895000Y-82025000D01*
X135572500Y-80645000D02*
X130175000Y-80645000D01*
X143550000Y-80865000D02*
X146685000Y-81280000D01*
X140907849Y-83185000D02*
X140652500Y-83185000D01*
X142895000Y-82025000D02*
G75*
G02*
X140907849Y-83185020I-1987200J1122100D01*
G01*
X138112500Y-81915000D02*
G75*
G03*
X135572500Y-80645000I-2540000J-1905000D01*
G01*
X138112500Y-81915000D02*
G75*
G03*
X140652500Y-83185000I2540000J1905000D01*
G01*
X137010190Y-78723660D02*
X130175000Y-78645000D01*
X139700000Y-81280000D02*
X141250000Y-80865000D01*
X139700000Y-81280000D02*
X139065000Y-80010000D01*
X137010190Y-78723660D02*
G75*
G02*
X139064995Y-80010002I-26790J-2327140D01*
G01*
X179070000Y-71755000D02*
X177100000Y-71755000D01*
X179070000Y-70485000D02*
X177100000Y-70485000D01*
X147637500Y-68310000D02*
X147320000Y-67405000D01*
X153187500Y-69215000D02*
X159385000Y-69215000D01*
X148914078Y-69215000D02*
X153187500Y-69215000D01*
X175260000Y-74295000D02*
X177100000Y-74295000D01*
X147637500Y-68310000D02*
G75*
G03*
X148914078Y-69214994I1276600J447900D01*
G01*
X146685000Y-75565000D02*
X153187500Y-75565000D01*
X146685000Y-75565000D02*
X145097500Y-75565000D01*
X143528675Y-77152390D02*
X143550000Y-78965000D01*
X145097500Y-75565000D02*
G75*
G03*
X143528709Y-77152390I0J-1568900D01*
G01*
X145415000Y-76835000D02*
X153187500Y-76835000D01*
X140970000Y-78105000D02*
X141250000Y-78965000D01*
X149860000Y-64135000D02*
X153187500Y-64135000D01*
X166370000Y-66675000D02*
X164312500Y-66675000D01*
X172085000Y-78740000D02*
X172150000Y-76835000D01*
X177165000Y-78740000D02*
X177100000Y-76835000D01*
X159385000Y-71755000D02*
X153187500Y-70485000D01*
X173990000Y-73025000D02*
X177100000Y-73025000D01*
X173990000Y-75565000D02*
X172150000Y-75565000D01*
X179578000Y-74945000D02*
X179162186Y-75565000D01*
X179162186Y-75565000D02*
X177100000Y-75565000D01*
G04 #@! TA.AperFunction,Conductor*
G36*
X183761362Y-58440284D02*
G01*
X183816778Y-58495700D01*
X183837062Y-58571400D01*
X183816778Y-58647100D01*
X183773529Y-58693984D01*
X183773730Y-58694241D01*
X183772154Y-58695475D01*
X183771677Y-58695993D01*
X183770134Y-58697057D01*
X183519142Y-58893697D01*
X183293697Y-59119142D01*
X183097064Y-59370126D01*
X183097053Y-59370142D01*
X182932120Y-59642974D01*
X182932114Y-59642985D01*
X182801262Y-59933729D01*
X182801258Y-59933737D01*
X182706406Y-60238129D01*
X182648933Y-60551744D01*
X182629683Y-60870000D01*
X182648933Y-61188255D01*
X182706406Y-61501870D01*
X182801258Y-61806262D01*
X182801260Y-61806266D01*
X182801261Y-61806269D01*
X182853794Y-61922993D01*
X182932114Y-62097014D01*
X182932120Y-62097025D01*
X183097053Y-62369857D01*
X183097057Y-62369863D01*
X183097062Y-62369871D01*
X183293694Y-62620854D01*
X183519146Y-62846306D01*
X183770129Y-63042938D01*
X183770140Y-63042944D01*
X183770142Y-63042946D01*
X184042974Y-63207879D01*
X184042984Y-63207885D01*
X184333731Y-63338739D01*
X184333736Y-63338740D01*
X184333737Y-63338741D01*
X184411964Y-63363117D01*
X184638131Y-63433594D01*
X184881376Y-63478170D01*
X184951744Y-63491066D01*
X184951743Y-63491066D01*
X184986089Y-63493143D01*
X185270000Y-63510317D01*
X185588255Y-63491066D01*
X185901869Y-63433594D01*
X186206269Y-63338739D01*
X186497016Y-63207885D01*
X186769871Y-63042938D01*
X187020854Y-62846306D01*
X187246306Y-62620854D01*
X187442938Y-62369871D01*
X187607885Y-62097016D01*
X187738739Y-61806269D01*
X187833594Y-61501869D01*
X187891066Y-61188255D01*
X187910317Y-60870000D01*
X187891066Y-60551745D01*
X187886431Y-60526455D01*
X187861889Y-60392531D01*
X187833594Y-60238131D01*
X187742697Y-59946432D01*
X187738741Y-59933737D01*
X187738740Y-59933736D01*
X187738739Y-59933731D01*
X187607885Y-59642984D01*
X187503092Y-59469635D01*
X187442946Y-59370142D01*
X187442944Y-59370140D01*
X187442938Y-59370129D01*
X187246306Y-59119146D01*
X187020854Y-58893694D01*
X186769871Y-58697062D01*
X186769865Y-58697057D01*
X186768323Y-58695993D01*
X186767957Y-58695562D01*
X186766270Y-58694241D01*
X186766539Y-58693896D01*
X186717551Y-58636294D01*
X186703430Y-58559206D01*
X186729745Y-58485385D01*
X186789444Y-58434613D01*
X186854338Y-58420000D01*
X192398389Y-58420000D01*
X192411583Y-58420575D01*
X192612346Y-58438140D01*
X192638321Y-58442720D01*
X192826576Y-58493163D01*
X192851361Y-58502183D01*
X192999795Y-58571400D01*
X193027993Y-58584549D01*
X193050849Y-58597744D01*
X193192681Y-58697057D01*
X193210492Y-58709528D01*
X193230708Y-58726492D01*
X193368507Y-58864291D01*
X193385471Y-58884507D01*
X193497255Y-59044151D01*
X193510450Y-59067006D01*
X193592813Y-59243631D01*
X193601839Y-59268431D01*
X193652277Y-59456670D01*
X193656860Y-59482660D01*
X193674424Y-59683416D01*
X193675000Y-59696611D01*
X193675000Y-86988388D01*
X193674424Y-87001583D01*
X193656860Y-87202339D01*
X193652277Y-87228329D01*
X193601839Y-87416568D01*
X193592813Y-87441368D01*
X193510450Y-87617993D01*
X193497255Y-87640848D01*
X193385471Y-87800492D01*
X193368507Y-87820708D01*
X193230708Y-87958507D01*
X193210492Y-87975471D01*
X193050848Y-88087255D01*
X193027993Y-88100450D01*
X192851368Y-88182813D01*
X192826568Y-88191839D01*
X192638329Y-88242277D01*
X192612340Y-88246860D01*
X192476086Y-88258780D01*
X192411582Y-88264424D01*
X192398389Y-88265000D01*
X186925170Y-88265000D01*
X186849470Y-88244716D01*
X186794054Y-88189300D01*
X186773770Y-88113600D01*
X186794054Y-88037900D01*
X186831797Y-87994422D01*
X187020854Y-87846306D01*
X187246306Y-87620854D01*
X187442938Y-87369871D01*
X187607885Y-87097016D01*
X187738739Y-86806269D01*
X187833594Y-86501869D01*
X187891066Y-86188255D01*
X187910317Y-85870000D01*
X187891066Y-85551745D01*
X187889266Y-85541925D01*
X187863840Y-85403178D01*
X187833594Y-85238131D01*
X187752857Y-84979037D01*
X187738741Y-84933737D01*
X187738740Y-84933736D01*
X187738739Y-84933731D01*
X187607885Y-84642984D01*
X187604570Y-84637500D01*
X187442946Y-84370142D01*
X187442944Y-84370140D01*
X187442938Y-84370129D01*
X187246306Y-84119146D01*
X187020854Y-83893694D01*
X186769871Y-83697062D01*
X186769863Y-83697057D01*
X186769857Y-83697053D01*
X186497025Y-83532120D01*
X186497014Y-83532114D01*
X186452326Y-83512001D01*
X186206269Y-83401261D01*
X186206266Y-83401260D01*
X186206262Y-83401258D01*
X185901870Y-83306406D01*
X185588255Y-83248933D01*
X185588256Y-83248933D01*
X185270000Y-83229683D01*
X184951744Y-83248933D01*
X184638129Y-83306406D01*
X184333737Y-83401258D01*
X184333731Y-83401261D01*
X184297998Y-83417343D01*
X184042985Y-83532114D01*
X184042974Y-83532120D01*
X183770142Y-83697053D01*
X183770126Y-83697064D01*
X183519142Y-83893697D01*
X183293697Y-84119142D01*
X183097064Y-84370126D01*
X183097053Y-84370142D01*
X182932120Y-84642974D01*
X182932114Y-84642985D01*
X182801262Y-84933729D01*
X182801258Y-84933737D01*
X182706406Y-85238129D01*
X182648933Y-85551744D01*
X182629683Y-85870000D01*
X182648933Y-86188255D01*
X182706406Y-86501870D01*
X182801258Y-86806262D01*
X182801260Y-86806266D01*
X182801261Y-86806269D01*
X182879403Y-86979894D01*
X182932114Y-87097014D01*
X182932120Y-87097025D01*
X183097053Y-87369857D01*
X183097057Y-87369863D01*
X183097062Y-87369871D01*
X183293694Y-87620854D01*
X183519146Y-87846306D01*
X183708202Y-87994421D01*
X183755282Y-88057073D01*
X183764728Y-88134872D01*
X183734010Y-88206971D01*
X183671357Y-88254052D01*
X183614830Y-88265000D01*
X128498901Y-88265000D01*
X128423201Y-88244716D01*
X128367785Y-88189300D01*
X128347501Y-88113600D01*
X128367785Y-88037900D01*
X128420236Y-87984241D01*
X128625677Y-87859310D01*
X128625682Y-87859306D01*
X128644766Y-87843779D01*
X128644766Y-87843778D01*
X128022567Y-87221579D01*
X128067731Y-87198568D01*
X128214175Y-87092171D01*
X128342171Y-86964175D01*
X128448568Y-86817731D01*
X128471579Y-86772567D01*
X129091616Y-87392604D01*
X129184681Y-87260764D01*
X129184682Y-87260762D01*
X129311064Y-87016857D01*
X129403056Y-86758015D01*
X129458944Y-86489070D01*
X129458945Y-86489064D01*
X129477692Y-86215000D01*
X129477692Y-86214999D01*
X129458945Y-85940935D01*
X129458944Y-85940929D01*
X129403056Y-85671984D01*
X129311064Y-85413142D01*
X129184680Y-85169235D01*
X129091617Y-85037394D01*
X129091616Y-85037394D01*
X128471579Y-85657431D01*
X128448568Y-85612269D01*
X128342171Y-85465825D01*
X128214175Y-85337829D01*
X128067731Y-85231432D01*
X128022566Y-85208419D01*
X128644767Y-84586219D01*
X128625683Y-84570693D01*
X128625668Y-84570683D01*
X128390973Y-84427963D01*
X128139008Y-84318518D01*
X127874489Y-84244404D01*
X127602350Y-84207000D01*
X127327650Y-84207000D01*
X127055510Y-84244404D01*
X126790991Y-84318518D01*
X126539027Y-84427963D01*
X126539026Y-84427963D01*
X126304331Y-84570682D01*
X126304318Y-84570692D01*
X126285232Y-84586219D01*
X126907432Y-85208419D01*
X126862269Y-85231432D01*
X126715825Y-85337829D01*
X126587829Y-85465825D01*
X126481432Y-85612269D01*
X126458420Y-85657432D01*
X125838382Y-85037394D01*
X125838381Y-85037394D01*
X125745321Y-85169231D01*
X125618935Y-85413142D01*
X125526943Y-85671984D01*
X125471055Y-85940929D01*
X125471054Y-85940935D01*
X125452308Y-86214999D01*
X125452308Y-86215000D01*
X125471054Y-86489064D01*
X125471055Y-86489070D01*
X125526943Y-86758015D01*
X125618935Y-87016857D01*
X125745321Y-87260768D01*
X125838380Y-87392604D01*
X125838382Y-87392604D01*
X126458419Y-86772566D01*
X126481432Y-86817731D01*
X126587829Y-86964175D01*
X126715825Y-87092171D01*
X126862269Y-87198568D01*
X126907431Y-87221579D01*
X126285232Y-87843778D01*
X126304322Y-87859310D01*
X126509762Y-87984240D01*
X126563903Y-88040904D01*
X126582459Y-88117046D01*
X126560458Y-88192264D01*
X126503794Y-88246405D01*
X126431098Y-88265000D01*
X122561611Y-88265000D01*
X122548416Y-88264424D01*
X122347660Y-88246860D01*
X122321670Y-88242277D01*
X122133431Y-88191839D01*
X122108631Y-88182813D01*
X121932006Y-88100450D01*
X121909151Y-88087255D01*
X121749507Y-87975471D01*
X121729291Y-87958507D01*
X121591492Y-87820708D01*
X121574528Y-87800492D01*
X121462744Y-87640848D01*
X121449549Y-87617993D01*
X121448860Y-87616516D01*
X121367183Y-87441361D01*
X121358163Y-87416576D01*
X121307720Y-87228321D01*
X121303140Y-87202346D01*
X121285576Y-87001583D01*
X121285000Y-86988388D01*
X121285000Y-73074999D01*
X125452308Y-73074999D01*
X125452308Y-73075000D01*
X125471054Y-73349064D01*
X125471055Y-73349070D01*
X125526943Y-73618015D01*
X125618935Y-73876857D01*
X125745321Y-74120768D01*
X125838380Y-74252604D01*
X125838382Y-74252604D01*
X126458419Y-73632566D01*
X126481432Y-73677731D01*
X126587829Y-73824175D01*
X126715825Y-73952171D01*
X126862269Y-74058568D01*
X126907431Y-74081579D01*
X126285232Y-74703778D01*
X126304322Y-74719310D01*
X126539032Y-74862039D01*
X126790991Y-74971481D01*
X127055510Y-75045595D01*
X127327649Y-75082999D01*
X127327650Y-75083000D01*
X127602350Y-75083000D01*
X127602350Y-75082999D01*
X127874489Y-75045595D01*
X128139008Y-74971481D01*
X128390969Y-74862038D01*
X128625677Y-74719310D01*
X128625682Y-74719306D01*
X128644766Y-74703779D01*
X128644766Y-74703778D01*
X128022567Y-74081579D01*
X128067731Y-74058568D01*
X128214175Y-73952171D01*
X128342171Y-73824175D01*
X128448568Y-73677731D01*
X128471579Y-73632567D01*
X129091616Y-74252604D01*
X129184681Y-74120764D01*
X129184682Y-74120762D01*
X129311064Y-73876857D01*
X129403056Y-73618015D01*
X129458944Y-73349070D01*
X129458945Y-73349064D01*
X129477692Y-73075000D01*
X129477692Y-73074999D01*
X129458945Y-72800935D01*
X129458944Y-72800929D01*
X129403056Y-72531984D01*
X129311064Y-72273142D01*
X129184680Y-72029235D01*
X129091617Y-71897394D01*
X129091616Y-71897394D01*
X128471579Y-72517431D01*
X128448568Y-72472269D01*
X128342171Y-72325825D01*
X128214175Y-72197829D01*
X128067731Y-72091432D01*
X128022566Y-72068419D01*
X128644767Y-71446219D01*
X128625683Y-71430693D01*
X128625668Y-71430683D01*
X128390973Y-71287963D01*
X128139008Y-71178518D01*
X127874489Y-71104404D01*
X127602350Y-71067000D01*
X127327650Y-71067000D01*
X127055510Y-71104404D01*
X126790991Y-71178518D01*
X126539027Y-71287963D01*
X126539026Y-71287963D01*
X126304331Y-71430682D01*
X126304318Y-71430692D01*
X126285232Y-71446219D01*
X126907432Y-72068419D01*
X126862269Y-72091432D01*
X126715825Y-72197829D01*
X126587829Y-72325825D01*
X126481432Y-72472269D01*
X126458420Y-72517432D01*
X125838382Y-71897394D01*
X125838381Y-71897394D01*
X125745321Y-72029231D01*
X125618935Y-72273142D01*
X125526943Y-72531984D01*
X125471055Y-72800929D01*
X125471054Y-72800935D01*
X125452308Y-73074999D01*
X121285000Y-73074999D01*
X121285000Y-67509690D01*
X121305284Y-67433990D01*
X121360700Y-67378574D01*
X121436400Y-67358290D01*
X121489857Y-67368041D01*
X121681824Y-67440487D01*
X121912953Y-67485189D01*
X121912958Y-67485190D01*
X121965873Y-67487999D01*
X122617500Y-67487999D01*
X122617500Y-66619606D01*
X122627993Y-66630099D01*
X122742007Y-66695925D01*
X122869174Y-66730000D01*
X123000826Y-66730000D01*
X123127993Y-66695925D01*
X123242007Y-66630099D01*
X123252500Y-66619606D01*
X123252500Y-67487999D01*
X123904142Y-67487999D01*
X123957043Y-67485189D01*
X124188174Y-67440487D01*
X124188180Y-67440486D01*
X124408433Y-67357365D01*
X124408439Y-67357362D01*
X124611478Y-67238214D01*
X124611479Y-67238214D01*
X124791459Y-67086468D01*
X124791468Y-67086459D01*
X124943214Y-66906479D01*
X124943215Y-66906477D01*
X124967522Y-66865056D01*
X125023328Y-66810032D01*
X125099170Y-66790284D01*
X125174724Y-66811102D01*
X125229748Y-66866908D01*
X125249500Y-66941680D01*
X125249500Y-70044173D01*
X125249501Y-70044183D01*
X125252335Y-70080202D01*
X125252336Y-70080211D01*
X125297129Y-70234389D01*
X125297130Y-70234391D01*
X125378862Y-70372594D01*
X125378865Y-70372598D01*
X125492402Y-70486135D01*
X125630607Y-70567869D01*
X125630609Y-70567869D01*
X125630610Y-70567870D01*
X125719334Y-70593646D01*
X125784796Y-70612665D01*
X125820819Y-70615500D01*
X129449180Y-70615499D01*
X129485204Y-70612665D01*
X129639393Y-70567869D01*
X129777598Y-70486135D01*
X129891135Y-70372598D01*
X129972869Y-70234393D01*
X130017665Y-70080204D01*
X130020500Y-70044181D01*
X130020499Y-68447160D01*
X130040783Y-68371461D01*
X130057305Y-68348216D01*
X131012955Y-67241428D01*
X131035321Y-67220307D01*
X134555015Y-64516920D01*
X134555019Y-64516918D01*
X134634586Y-64455803D01*
X134642595Y-64450059D01*
X134797108Y-64346720D01*
X134814241Y-64336821D01*
X134976431Y-64256771D01*
X134994711Y-64249192D01*
X135165985Y-64191008D01*
X135185099Y-64185882D01*
X135358986Y-64151269D01*
X135437186Y-64156384D01*
X135502355Y-64199915D01*
X135537027Y-64270199D01*
X135539417Y-64312329D01*
X135506766Y-64704153D01*
X135505129Y-64730188D01*
X135505090Y-64731098D01*
X135505320Y-64735859D01*
X135504766Y-64757974D01*
X135503582Y-64769998D01*
X135503582Y-64770003D01*
X135509828Y-64833429D01*
X135510381Y-64840974D01*
X135510665Y-64846872D01*
X135511282Y-64850787D01*
X135512396Y-64859500D01*
X135523208Y-64969269D01*
X135581332Y-65160878D01*
X135581333Y-65160880D01*
X135675720Y-65337466D01*
X135675722Y-65337469D01*
X135800420Y-65489416D01*
X135802748Y-65492252D01*
X135957531Y-65619278D01*
X136134120Y-65713667D01*
X136325731Y-65771792D01*
X136525000Y-65791418D01*
X136705484Y-65773642D01*
X136782808Y-65786408D01*
X136843389Y-65836126D01*
X136870995Y-65909473D01*
X136858229Y-65986797D01*
X136808511Y-66047378D01*
X136791431Y-66057976D01*
X136763635Y-66072763D01*
X136692531Y-66090500D01*
X136648024Y-66090500D01*
X136647996Y-66090502D01*
X136570716Y-66096583D01*
X136390916Y-66144761D01*
X136317776Y-66182028D01*
X136225065Y-66229266D01*
X136080408Y-66346408D01*
X135963266Y-66491065D01*
X135946554Y-66523865D01*
X135878761Y-66656916D01*
X135830583Y-66836715D01*
X135824500Y-66913999D01*
X135824500Y-67687976D01*
X135824502Y-67688003D01*
X135830583Y-67765283D01*
X135844442Y-67817003D01*
X135865584Y-67895908D01*
X135878763Y-67945089D01*
X135879828Y-67947864D01*
X135880035Y-67949837D01*
X135880815Y-67952747D01*
X135880354Y-67952870D01*
X135888017Y-68025806D01*
X135856138Y-68097399D01*
X135792733Y-68143461D01*
X135746458Y-68153305D01*
X134453214Y-68221532D01*
X134337445Y-68246181D01*
X134305918Y-68249500D01*
X134108024Y-68249500D01*
X134107996Y-68249502D01*
X134030716Y-68255583D01*
X133850916Y-68303761D01*
X133789834Y-68334884D01*
X133685065Y-68388266D01*
X133540408Y-68505408D01*
X133423266Y-68650065D01*
X133400792Y-68694173D01*
X133338761Y-68815916D01*
X133290583Y-68995715D01*
X133284500Y-69072999D01*
X133284500Y-69896976D01*
X133284502Y-69897003D01*
X133290583Y-69974283D01*
X133322694Y-70094120D01*
X133338761Y-70154083D01*
X133423266Y-70319935D01*
X133423268Y-70319938D01*
X133423269Y-70319939D01*
X133479778Y-70389721D01*
X133511654Y-70461315D01*
X133503462Y-70539257D01*
X133479778Y-70580279D01*
X133423269Y-70650060D01*
X133423267Y-70650063D01*
X133423266Y-70650065D01*
X133401401Y-70692978D01*
X133338761Y-70815916D01*
X133290583Y-70995715D01*
X133284500Y-71072999D01*
X133284500Y-71896976D01*
X133284502Y-71897003D01*
X133290583Y-71974283D01*
X133338760Y-72154081D01*
X133339443Y-72155858D01*
X133339905Y-72158351D01*
X133340815Y-72161747D01*
X133340547Y-72161818D01*
X133349500Y-72210118D01*
X133349500Y-72362668D01*
X133329216Y-72438368D01*
X133273800Y-72493784D01*
X133198100Y-72514068D01*
X133187043Y-72513664D01*
X132940980Y-72495645D01*
X132940937Y-72495642D01*
X132929432Y-72494796D01*
X132765060Y-72482712D01*
X132765057Y-72482712D01*
X132435526Y-72490792D01*
X132108352Y-72530951D01*
X131786639Y-72602811D01*
X131786637Y-72602811D01*
X131473487Y-72705677D01*
X131473479Y-72705680D01*
X131171835Y-72838580D01*
X130884566Y-73000256D01*
X130614434Y-73189153D01*
X130614430Y-73189156D01*
X130363993Y-73403485D01*
X130135651Y-73641188D01*
X130135629Y-73641214D01*
X129931537Y-73900048D01*
X129931536Y-73900049D01*
X129831027Y-74056830D01*
X129818467Y-74073712D01*
X129798400Y-74097096D01*
X129798396Y-74097101D01*
X129436605Y-74645033D01*
X129377967Y-74697028D01*
X129332191Y-74709751D01*
X129332409Y-74710945D01*
X129324788Y-74712336D01*
X129170610Y-74757129D01*
X129170608Y-74757130D01*
X129032405Y-74838862D01*
X129032401Y-74838865D01*
X128918865Y-74952401D01*
X128918862Y-74952405D01*
X128837130Y-75090608D01*
X128837129Y-75090610D01*
X128792337Y-75244786D01*
X128792334Y-75244798D01*
X128789500Y-75280805D01*
X128789500Y-77009173D01*
X128789501Y-77009183D01*
X128792335Y-77045202D01*
X128792336Y-77045211D01*
X128837129Y-77199389D01*
X128837130Y-77199391D01*
X128837131Y-77199393D01*
X128855411Y-77230304D01*
X128918862Y-77337594D01*
X128918865Y-77337598D01*
X129032401Y-77451134D01*
X129032407Y-77451139D01*
X129059472Y-77467145D01*
X129114305Y-77523138D01*
X129133795Y-77599046D01*
X129112719Y-77674530D01*
X129093793Y-77700000D01*
X129038306Y-77760275D01*
X128908186Y-77959437D01*
X128812624Y-78177298D01*
X128754225Y-78407913D01*
X128754224Y-78407919D01*
X128734580Y-78645000D01*
X128754224Y-78882080D01*
X128754225Y-78882086D01*
X128812624Y-79112701D01*
X128908186Y-79330562D01*
X129038306Y-79529724D01*
X129050031Y-79542461D01*
X129086377Y-79611893D01*
X129083137Y-79690197D01*
X129050031Y-79747539D01*
X129038306Y-79760275D01*
X128908186Y-79959437D01*
X128812624Y-80177298D01*
X128754225Y-80407913D01*
X128754224Y-80407919D01*
X128734580Y-80645000D01*
X128754224Y-80882080D01*
X128754225Y-80882086D01*
X128812624Y-81112701D01*
X128908186Y-81330562D01*
X128962055Y-81413014D01*
X129038306Y-81529724D01*
X129199430Y-81704751D01*
X129387165Y-81850871D01*
X129387168Y-81850873D01*
X129421606Y-81869510D01*
X129478528Y-81923378D01*
X129500890Y-81998491D01*
X129500371Y-82015858D01*
X129499928Y-82020915D01*
X130149013Y-82670000D01*
X130112465Y-82670000D01*
X129991657Y-82702370D01*
X129883343Y-82764905D01*
X129794905Y-82853343D01*
X129732370Y-82961657D01*
X129700000Y-83082465D01*
X129700000Y-83119013D01*
X129050916Y-82469929D01*
X129037912Y-82488502D01*
X129037911Y-82488504D01*
X128941187Y-82695926D01*
X128881950Y-82917000D01*
X128862004Y-83145000D01*
X128881950Y-83372999D01*
X128941187Y-83594073D01*
X129037913Y-83801499D01*
X129037917Y-83801506D01*
X129050915Y-83820069D01*
X129050916Y-83820069D01*
X129700000Y-83170985D01*
X129700000Y-83207535D01*
X129732370Y-83328343D01*
X129794905Y-83436657D01*
X129883343Y-83525095D01*
X129991657Y-83587630D01*
X130112465Y-83620000D01*
X130149013Y-83620000D01*
X129499929Y-84269083D01*
X129518494Y-84282083D01*
X129518499Y-84282086D01*
X129725927Y-84378812D01*
X129725926Y-84378812D01*
X129947000Y-84438049D01*
X130175000Y-84457995D01*
X130402999Y-84438049D01*
X130624073Y-84378812D01*
X130831496Y-84282088D01*
X130850069Y-84269082D01*
X130200987Y-83620000D01*
X130237535Y-83620000D01*
X130358343Y-83587630D01*
X130466657Y-83525095D01*
X130555095Y-83436657D01*
X130617630Y-83328343D01*
X130650000Y-83207535D01*
X130650000Y-83170987D01*
X131299082Y-83820069D01*
X131312088Y-83801496D01*
X131408812Y-83594073D01*
X131468049Y-83372999D01*
X131487995Y-83145000D01*
X131468049Y-82917000D01*
X131408812Y-82695926D01*
X131312086Y-82488499D01*
X131312083Y-82488494D01*
X131299083Y-82469929D01*
X130650000Y-83119012D01*
X130650000Y-83082465D01*
X130617630Y-82961657D01*
X130555095Y-82853343D01*
X130466657Y-82764905D01*
X130358343Y-82702370D01*
X130237535Y-82670000D01*
X130200985Y-82670000D01*
X130862495Y-82008490D01*
X130867072Y-81982536D01*
X130917447Y-81922500D01*
X130957379Y-81902569D01*
X131869207Y-81605449D01*
X131916113Y-81598000D01*
X135478638Y-81598000D01*
X135568109Y-81598000D01*
X135576877Y-81598253D01*
X135820720Y-81612401D01*
X135838129Y-81614429D01*
X136074357Y-81655921D01*
X136091419Y-81659948D01*
X136321282Y-81728486D01*
X136337752Y-81734456D01*
X136558150Y-81829121D01*
X136573813Y-81836953D01*
X136781784Y-81956472D01*
X136796446Y-81966070D01*
X136810271Y-81976310D01*
X136859029Y-82037667D01*
X136870577Y-82115182D01*
X136841820Y-82188085D01*
X136780463Y-82236843D01*
X136775990Y-82238486D01*
X136769119Y-82241333D01*
X136592533Y-82335720D01*
X136592530Y-82335722D01*
X136437748Y-82462747D01*
X136437747Y-82462748D01*
X136310722Y-82617530D01*
X136310720Y-82617533D01*
X136216333Y-82794119D01*
X136216332Y-82794121D01*
X136158208Y-82985730D01*
X136138582Y-83185000D01*
X136158207Y-83384267D01*
X136169276Y-83420754D01*
X136199643Y-83520862D01*
X136200481Y-83523622D01*
X136207000Y-83567572D01*
X136207000Y-84771241D01*
X136241914Y-85036438D01*
X136311142Y-85294800D01*
X136311146Y-85294812D01*
X136413498Y-85541913D01*
X136413504Y-85541925D01*
X136547245Y-85773572D01*
X136710078Y-85985781D01*
X136899218Y-86174921D01*
X137111427Y-86337754D01*
X137343074Y-86471495D01*
X137343086Y-86471501D01*
X137538533Y-86552457D01*
X137590196Y-86573857D01*
X137848564Y-86643086D01*
X137886722Y-86648109D01*
X137925104Y-86658425D01*
X138185743Y-86766843D01*
X138418600Y-86863705D01*
X138455731Y-86885833D01*
X138500060Y-86921730D01*
X138500065Y-86921734D01*
X138665917Y-87006239D01*
X138845714Y-87054416D01*
X138923019Y-87060500D01*
X139746980Y-87060499D01*
X139824286Y-87054416D01*
X140004083Y-87006239D01*
X140169935Y-86921734D01*
X140239721Y-86865221D01*
X140311314Y-86833345D01*
X140389255Y-86841536D01*
X140430276Y-86865220D01*
X140500065Y-86921734D01*
X140665917Y-87006239D01*
X140845714Y-87054416D01*
X140923019Y-87060500D01*
X141746980Y-87060499D01*
X141824286Y-87054416D01*
X142004083Y-87006239D01*
X142169935Y-86921734D01*
X142218126Y-86882707D01*
X142253465Y-86861339D01*
X142385106Y-86804592D01*
X142418233Y-86790312D01*
X142495778Y-86778972D01*
X142528576Y-86786582D01*
X143576869Y-87156754D01*
X143609689Y-87166275D01*
X143625421Y-87171796D01*
X143669037Y-87189863D01*
X143904052Y-87246285D01*
X143904057Y-87246285D01*
X143904060Y-87246286D01*
X144144995Y-87265248D01*
X144145000Y-87265248D01*
X144145005Y-87265248D01*
X144385939Y-87246286D01*
X144385940Y-87246285D01*
X144385948Y-87246285D01*
X144620963Y-87189863D01*
X144844258Y-87097371D01*
X145050335Y-86971087D01*
X145055147Y-86967591D01*
X145056488Y-86969438D01*
X145117650Y-86940254D01*
X145195780Y-86946390D01*
X145260374Y-86990770D01*
X145275580Y-87012044D01*
X145278862Y-87017595D01*
X145278865Y-87017598D01*
X145392402Y-87131135D01*
X145530607Y-87212869D01*
X145684796Y-87257665D01*
X145720819Y-87260500D01*
X147649180Y-87260499D01*
X147685204Y-87257665D01*
X147839393Y-87212869D01*
X147977598Y-87131135D01*
X148091135Y-87017598D01*
X148172869Y-86879393D01*
X148217665Y-86725204D01*
X148220500Y-86689181D01*
X148220500Y-86515510D01*
X149109500Y-86515510D01*
X149120105Y-86619323D01*
X149120106Y-86619324D01*
X149175839Y-86787518D01*
X149175841Y-86787524D01*
X149268863Y-86938336D01*
X149268866Y-86938340D01*
X149394159Y-87063633D01*
X149394163Y-87063636D01*
X149544975Y-87156658D01*
X149544981Y-87156660D01*
X149713175Y-87212393D01*
X149713176Y-87212394D01*
X149816989Y-87223000D01*
X150025000Y-87223000D01*
X150660000Y-87223000D01*
X150868011Y-87223000D01*
X150971823Y-87212394D01*
X150971824Y-87212393D01*
X151140018Y-87156660D01*
X151140024Y-87156658D01*
X151290836Y-87063636D01*
X151290840Y-87063633D01*
X151416133Y-86938340D01*
X151416136Y-86938336D01*
X151509158Y-86787524D01*
X151509160Y-86787518D01*
X151564893Y-86619324D01*
X151564894Y-86619323D01*
X151575500Y-86515510D01*
X151575500Y-86445000D01*
X150660000Y-86445000D01*
X150660000Y-87223000D01*
X150025000Y-87223000D01*
X150025000Y-86445000D01*
X149109500Y-86445000D01*
X149109500Y-86515510D01*
X148220500Y-86515510D01*
X148220499Y-84760820D01*
X148217665Y-84724796D01*
X148196461Y-84651813D01*
X148172870Y-84570610D01*
X148172869Y-84570608D01*
X148172869Y-84570607D01*
X148094475Y-84438049D01*
X148091137Y-84432405D01*
X148091134Y-84432401D01*
X147977598Y-84318865D01*
X147977594Y-84318862D01*
X147839391Y-84237130D01*
X147839389Y-84237129D01*
X147685213Y-84192337D01*
X147685201Y-84192334D01*
X147649187Y-84189500D01*
X145720826Y-84189500D01*
X145720816Y-84189501D01*
X145692000Y-84191768D01*
X145684796Y-84192335D01*
X145684795Y-84192335D01*
X145684788Y-84192336D01*
X145530610Y-84237129D01*
X145530608Y-84237130D01*
X145392405Y-84318862D01*
X145392401Y-84318865D01*
X145278862Y-84432404D01*
X145275578Y-84437959D01*
X145219582Y-84492789D01*
X145143673Y-84512277D01*
X145068190Y-84491199D01*
X145055399Y-84482061D01*
X145055147Y-84482409D01*
X145050335Y-84478912D01*
X144872815Y-84370129D01*
X144844258Y-84352629D01*
X144844256Y-84352628D01*
X144620970Y-84260139D01*
X144620964Y-84260137D01*
X144620963Y-84260137D01*
X144385948Y-84203715D01*
X144385947Y-84203714D01*
X144385939Y-84203713D01*
X144145005Y-84184752D01*
X144144995Y-84184752D01*
X143904060Y-84203713D01*
X143669038Y-84260136D01*
X143669026Y-84260140D01*
X143615127Y-84282466D01*
X143589321Y-84290541D01*
X143576884Y-84293241D01*
X143576858Y-84293249D01*
X142528577Y-84663414D01*
X142450443Y-84669493D01*
X142418233Y-84659685D01*
X142253468Y-84588659D01*
X142218122Y-84567287D01*
X142169939Y-84528269D01*
X142169938Y-84528268D01*
X142169935Y-84528266D01*
X142004083Y-84443761D01*
X141973779Y-84435641D01*
X141824284Y-84395583D01*
X141747000Y-84389500D01*
X141498195Y-84389500D01*
X141422495Y-84369216D01*
X141367079Y-84313800D01*
X141346795Y-84238100D01*
X141367079Y-84162400D01*
X141422495Y-84106984D01*
X141469277Y-84089487D01*
X141678294Y-84048822D01*
X141976498Y-83960411D01*
X142264846Y-83843803D01*
X142540680Y-83700075D01*
X142613097Y-83652999D01*
X148982000Y-83652999D01*
X148982000Y-84451976D01*
X148982002Y-84452003D01*
X148988083Y-84529283D01*
X149018547Y-84642974D01*
X149036261Y-84709083D01*
X149120766Y-84874935D01*
X149212924Y-84988739D01*
X149237910Y-85019594D01*
X149288485Y-85060549D01*
X149334549Y-85123952D01*
X149342741Y-85201893D01*
X149310864Y-85273488D01*
X149300262Y-85285263D01*
X149268867Y-85316658D01*
X149268863Y-85316663D01*
X149175841Y-85467475D01*
X149175839Y-85467481D01*
X149120106Y-85635675D01*
X149120105Y-85635676D01*
X149109500Y-85739489D01*
X149109500Y-85810000D01*
X151575500Y-85810000D01*
X151575500Y-85739489D01*
X151564894Y-85635676D01*
X151564893Y-85635675D01*
X151509162Y-85467486D01*
X151508640Y-85466366D01*
X151508467Y-85465389D01*
X151506385Y-85459104D01*
X151507305Y-85458799D01*
X151495024Y-85389187D01*
X151521821Y-85315541D01*
X151581851Y-85265159D01*
X151659030Y-85251543D01*
X151671984Y-85253242D01*
X154494343Y-85748288D01*
X154537736Y-85762933D01*
X155664927Y-86345968D01*
X155687964Y-86357288D01*
X155693212Y-86359996D01*
X155699044Y-86363152D01*
X155916214Y-86437707D01*
X156067200Y-86462902D01*
X156142693Y-86475500D01*
X156142694Y-86475500D01*
X156372307Y-86475500D01*
X156428926Y-86466051D01*
X156598786Y-86437707D01*
X156815956Y-86363152D01*
X157017894Y-86253869D01*
X157199089Y-86112839D01*
X157354601Y-85943908D01*
X157480187Y-85751685D01*
X157481678Y-85748287D01*
X157544456Y-85605166D01*
X157546943Y-85599783D01*
X157560976Y-85570932D01*
X157564003Y-85562005D01*
X157568727Y-85549830D01*
X157572421Y-85541413D01*
X157575172Y-85530546D01*
X157578560Y-85519087D01*
X157963951Y-84382867D01*
X157985118Y-84342133D01*
X158002135Y-84318862D01*
X158039119Y-84268286D01*
X158175002Y-84019832D01*
X158277278Y-83755762D01*
X158344197Y-83480598D01*
X158374611Y-83199052D01*
X158368002Y-82915945D01*
X158324481Y-82636125D01*
X158244794Y-82364383D01*
X158244788Y-82364369D01*
X158243844Y-82361788D01*
X158243761Y-82360860D01*
X158243399Y-82359625D01*
X158243644Y-82359552D01*
X158236883Y-82283727D01*
X158269885Y-82212644D01*
X158334007Y-82167585D01*
X158412068Y-82160624D01*
X158434774Y-82166431D01*
X158823025Y-82298491D01*
X158832672Y-82302144D01*
X158969935Y-82359552D01*
X159030958Y-82385074D01*
X159049421Y-82394322D01*
X159230116Y-82500836D01*
X159247134Y-82512502D01*
X159353975Y-82597000D01*
X159411648Y-82642613D01*
X159426935Y-82656499D01*
X159572205Y-82807781D01*
X159585459Y-82823618D01*
X159708794Y-82993267D01*
X159719771Y-83010761D01*
X159818864Y-83195606D01*
X159827358Y-83214431D01*
X159900378Y-83411054D01*
X159906231Y-83430859D01*
X159949120Y-83623494D01*
X159951070Y-83678807D01*
X159786645Y-84777434D01*
X159783681Y-84792188D01*
X159766213Y-84861171D01*
X159756822Y-84974491D01*
X159756306Y-84979029D01*
X159756370Y-84979037D01*
X159750800Y-85028690D01*
X159750670Y-85030413D01*
X159750815Y-85034842D01*
X159750378Y-85052264D01*
X159747252Y-85089998D01*
X159747252Y-85089999D01*
X159766212Y-85318822D01*
X159766213Y-85318828D01*
X159822577Y-85541410D01*
X159914811Y-85751683D01*
X159929113Y-85773573D01*
X160040399Y-85943908D01*
X160195911Y-86112839D01*
X160377106Y-86253869D01*
X160377108Y-86253870D01*
X160377111Y-86253872D01*
X160569683Y-86358086D01*
X160579044Y-86363152D01*
X160796214Y-86437707D01*
X160947200Y-86462902D01*
X161022693Y-86475500D01*
X161022694Y-86475500D01*
X161252307Y-86475500D01*
X161308926Y-86466051D01*
X161478786Y-86437707D01*
X161695956Y-86363152D01*
X161742845Y-86337775D01*
X161749962Y-86334381D01*
X161749924Y-86334304D01*
X161754175Y-86332213D01*
X161754196Y-86332205D01*
X161770975Y-86322600D01*
X161774050Y-86320888D01*
X161844045Y-86283010D01*
X165619500Y-86283010D01*
X165630105Y-86386823D01*
X165630106Y-86386824D01*
X165685839Y-86555018D01*
X165685841Y-86555024D01*
X165778863Y-86705836D01*
X165778866Y-86705840D01*
X165904159Y-86831133D01*
X165904163Y-86831136D01*
X166054975Y-86924158D01*
X166054981Y-86924160D01*
X166223175Y-86979893D01*
X166223176Y-86979894D01*
X166326989Y-86990500D01*
X166535000Y-86990500D01*
X167170000Y-86990500D01*
X167378011Y-86990500D01*
X167481823Y-86979894D01*
X167481824Y-86979893D01*
X167650018Y-86924160D01*
X167650024Y-86924158D01*
X167800836Y-86831136D01*
X167800840Y-86831133D01*
X167926133Y-86705840D01*
X167926136Y-86705836D01*
X168019158Y-86555024D01*
X168019160Y-86555018D01*
X168074893Y-86386824D01*
X168074894Y-86386823D01*
X168085500Y-86283010D01*
X168085500Y-86212500D01*
X167170000Y-86212500D01*
X167170000Y-86990500D01*
X166535000Y-86990500D01*
X166535000Y-86212500D01*
X165619500Y-86212500D01*
X165619500Y-86283010D01*
X161844045Y-86283010D01*
X161897894Y-86253869D01*
X161908402Y-86245689D01*
X161926178Y-86233769D01*
X162885272Y-85684832D01*
X162927631Y-85668440D01*
X165489545Y-85099126D01*
X165567841Y-85102505D01*
X165633959Y-85144581D01*
X165670182Y-85214078D01*
X165666803Y-85292375D01*
X165666103Y-85294542D01*
X165630105Y-85403178D01*
X165619500Y-85506989D01*
X165619500Y-85577500D01*
X168085500Y-85577500D01*
X168085500Y-85506989D01*
X168074894Y-85403176D01*
X168074893Y-85403175D01*
X168019160Y-85234981D01*
X168019158Y-85234975D01*
X167926136Y-85084163D01*
X167926133Y-85084159D01*
X167894738Y-85052764D01*
X167855553Y-84984893D01*
X167855553Y-84906523D01*
X167894738Y-84838652D01*
X167906505Y-84828056D01*
X167957092Y-84787092D01*
X168074234Y-84642435D01*
X168158739Y-84476583D01*
X168206916Y-84296786D01*
X168209800Y-84260137D01*
X168212999Y-84219500D01*
X168212999Y-84219493D01*
X168213000Y-84219481D01*
X168212999Y-83420520D01*
X168206916Y-83343214D01*
X168158739Y-83163417D01*
X168074234Y-82997565D01*
X167957092Y-82852908D01*
X167812435Y-82735766D01*
X167646583Y-82651261D01*
X167614309Y-82642613D01*
X167466784Y-82603083D01*
X167389490Y-82597000D01*
X166315523Y-82597000D01*
X166315496Y-82597002D01*
X166238216Y-82603083D01*
X166058416Y-82651261D01*
X165975491Y-82693513D01*
X165892565Y-82735766D01*
X165892562Y-82735767D01*
X165892559Y-82735770D01*
X165747907Y-82852909D01*
X165747905Y-82852910D01*
X165729629Y-82875479D01*
X165693098Y-82908026D01*
X165246617Y-83191379D01*
X165198334Y-83211344D01*
X162515023Y-83807635D01*
X162469322Y-83810693D01*
X162125201Y-83781362D01*
X162051497Y-83754723D01*
X162002083Y-83697087D01*
X161942655Y-83575714D01*
X161849424Y-83385304D01*
X161835720Y-83341474D01*
X161833824Y-83328996D01*
X161833828Y-83328961D01*
X161833819Y-83328963D01*
X161811628Y-83182713D01*
X161723208Y-82836576D01*
X161600914Y-82500907D01*
X161565780Y-82427925D01*
X169587500Y-82427925D01*
X169587500Y-82672075D01*
X169619368Y-82914135D01*
X169681228Y-83144999D01*
X169682559Y-83149964D01*
X169682562Y-83149973D01*
X169775986Y-83375521D01*
X169775993Y-83375535D01*
X169898066Y-83586972D01*
X169898069Y-83586976D01*
X170046693Y-83780665D01*
X170219334Y-83953306D01*
X170343809Y-84048820D01*
X170413030Y-84101935D01*
X170475466Y-84137982D01*
X170624464Y-84224006D01*
X170624478Y-84224013D01*
X170733288Y-84269083D01*
X170850035Y-84317441D01*
X171085865Y-84380632D01*
X171327925Y-84412500D01*
X171572075Y-84412500D01*
X171814135Y-84380632D01*
X172049965Y-84317441D01*
X172226292Y-84244404D01*
X172275521Y-84224013D01*
X172275524Y-84224011D01*
X172275530Y-84224009D01*
X172486970Y-84101935D01*
X172680666Y-83953306D01*
X172853306Y-83780666D01*
X173001935Y-83586970D01*
X173124009Y-83375530D01*
X173125058Y-83372999D01*
X173170726Y-83262744D01*
X173217441Y-83149965D01*
X173280632Y-82914135D01*
X173312500Y-82672075D01*
X173312500Y-82427925D01*
X173280632Y-82185865D01*
X173217441Y-81950035D01*
X173190914Y-81885993D01*
X173124013Y-81724478D01*
X173124006Y-81724464D01*
X173045827Y-81589054D01*
X173001935Y-81513030D01*
X172997452Y-81507188D01*
X172853306Y-81319334D01*
X172680665Y-81146693D01*
X172486976Y-80998069D01*
X172486972Y-80998066D01*
X172275535Y-80875993D01*
X172275521Y-80875986D01*
X172049973Y-80782562D01*
X172049969Y-80782560D01*
X172049965Y-80782559D01*
X171814135Y-80719368D01*
X171572075Y-80687500D01*
X171327925Y-80687500D01*
X171085864Y-80719368D01*
X170850035Y-80782559D01*
X170850026Y-80782562D01*
X170624478Y-80875986D01*
X170624464Y-80875993D01*
X170413027Y-80998066D01*
X170413023Y-80998069D01*
X170219334Y-81146693D01*
X170046693Y-81319334D01*
X169898069Y-81513023D01*
X169898066Y-81513027D01*
X169775993Y-81724464D01*
X169775986Y-81724478D01*
X169682562Y-81950026D01*
X169682559Y-81950035D01*
X169619368Y-82185864D01*
X169595866Y-82364383D01*
X169587500Y-82427925D01*
X161565780Y-82427925D01*
X161445952Y-82179013D01*
X161259846Y-81874065D01*
X161044431Y-81589064D01*
X161036508Y-81580500D01*
X160881566Y-81413013D01*
X160801828Y-81326819D01*
X160534425Y-81089912D01*
X160514380Y-81075428D01*
X160244865Y-80880682D01*
X160244859Y-80880678D01*
X160244857Y-80880677D01*
X159935976Y-80701174D01*
X159935975Y-80701173D01*
X159935969Y-80701170D01*
X159610837Y-80553177D01*
X159610834Y-80553175D01*
X159610825Y-80553172D01*
X159610823Y-80553171D01*
X159441700Y-80495686D01*
X159352838Y-80465460D01*
X159348161Y-80463869D01*
X159348145Y-80463864D01*
X154982601Y-78978965D01*
X154917465Y-78935385D01*
X154888452Y-78885636D01*
X154887190Y-78882030D01*
X154887189Y-78882028D01*
X154793014Y-78732150D01*
X154790756Y-78729892D01*
X154789556Y-78727813D01*
X154787711Y-78725500D01*
X154788059Y-78725221D01*
X154751571Y-78662021D01*
X154751571Y-78583651D01*
X154767498Y-78545764D01*
X154783681Y-78518400D01*
X154783683Y-78518396D01*
X154816628Y-78405000D01*
X151558372Y-78405000D01*
X151591315Y-78518393D01*
X151591316Y-78518396D01*
X151607505Y-78545770D01*
X151628579Y-78621254D01*
X151609087Y-78697162D01*
X151584249Y-78729886D01*
X151581991Y-78732143D01*
X151581984Y-78732152D01*
X151487812Y-78882024D01*
X151487811Y-78882025D01*
X151429349Y-79049103D01*
X151414500Y-79180888D01*
X151414500Y-79569111D01*
X151429348Y-79700892D01*
X151429349Y-79700896D01*
X151487811Y-79867973D01*
X151487811Y-79867974D01*
X151526440Y-79929451D01*
X151549540Y-80004339D01*
X151532101Y-80080745D01*
X151526440Y-80090549D01*
X151487811Y-80152025D01*
X151487811Y-80152026D01*
X151429349Y-80319103D01*
X151414500Y-80450888D01*
X151414500Y-80839111D01*
X151429348Y-80970892D01*
X151429349Y-80970896D01*
X151487811Y-81137974D01*
X151487812Y-81137975D01*
X151493291Y-81146694D01*
X151581986Y-81287850D01*
X151707150Y-81413014D01*
X151770086Y-81452559D01*
X151857024Y-81507187D01*
X151857025Y-81507188D01*
X151857028Y-81507189D01*
X152024104Y-81565651D01*
X152155891Y-81580500D01*
X152936181Y-81580499D01*
X152990775Y-81590685D01*
X153362666Y-81734460D01*
X156208557Y-82834697D01*
X156208605Y-82834720D01*
X156293063Y-82867370D01*
X156313912Y-82877319D01*
X156350525Y-82898363D01*
X156386515Y-82927137D01*
X156407164Y-82949589D01*
X156432831Y-82987856D01*
X156445769Y-83015477D01*
X156458739Y-83059706D01*
X156462767Y-83089943D01*
X156461832Y-83136005D01*
X156456580Y-83166050D01*
X156441789Y-83209783D01*
X156441112Y-83211086D01*
X156397147Y-83262744D01*
X155757429Y-83738777D01*
X155686299Y-83767487D01*
X154869920Y-83872150D01*
X154824511Y-83871102D01*
X151962127Y-83369036D01*
X151912608Y-83351044D01*
X151899043Y-83343216D01*
X151735668Y-83248933D01*
X151444485Y-83080893D01*
X151424880Y-83067421D01*
X151302440Y-82968270D01*
X151302439Y-82968269D01*
X151302435Y-82968266D01*
X151136583Y-82883761D01*
X151075412Y-82867370D01*
X150956784Y-82835583D01*
X150879490Y-82829500D01*
X149805523Y-82829500D01*
X149805496Y-82829502D01*
X149728216Y-82835583D01*
X149548416Y-82883761D01*
X149485246Y-82915948D01*
X149382565Y-82968266D01*
X149237908Y-83085408D01*
X149120766Y-83230065D01*
X149081869Y-83306406D01*
X149036261Y-83395916D01*
X148988083Y-83575715D01*
X148982000Y-83652999D01*
X142613097Y-83652999D01*
X142801456Y-83530552D01*
X143044768Y-83336797D01*
X143268374Y-83120596D01*
X143470210Y-82883945D01*
X143648417Y-82629024D01*
X143724032Y-82495017D01*
X144012961Y-81983325D01*
X144067841Y-81927385D01*
X144143343Y-81906377D01*
X144164649Y-81907678D01*
X145738705Y-82116046D01*
X145768479Y-82123109D01*
X145772454Y-82124489D01*
X145891873Y-82149749D01*
X145891878Y-82149750D01*
X146397169Y-82256627D01*
X146397188Y-82256631D01*
X146403515Y-82257811D01*
X146419703Y-82261762D01*
X146485731Y-82281792D01*
X146685000Y-82301418D01*
X146884269Y-82281792D01*
X147075880Y-82223667D01*
X147252469Y-82129278D01*
X147407252Y-82002252D01*
X147534278Y-81847469D01*
X147628667Y-81670880D01*
X147686792Y-81479269D01*
X147706418Y-81280000D01*
X147686792Y-81080731D01*
X147628667Y-80889120D01*
X147534278Y-80712531D01*
X147407252Y-80557748D01*
X147252469Y-80430722D01*
X147252466Y-80430720D01*
X147075880Y-80336333D01*
X147075878Y-80336332D01*
X146884269Y-80278207D01*
X146732328Y-80263243D01*
X146721238Y-80261735D01*
X146719253Y-80261390D01*
X146703628Y-80258673D01*
X146318654Y-80240769D01*
X146018225Y-80226797D01*
X146018209Y-80226797D01*
X146018183Y-80226796D01*
X146001646Y-80226845D01*
X145981333Y-80225536D01*
X145927930Y-80218466D01*
X145855547Y-80188423D01*
X145807883Y-80126213D01*
X145797129Y-80053538D01*
X145801418Y-80010000D01*
X145781792Y-79810731D01*
X145723667Y-79619120D01*
X145629278Y-79442531D01*
X145502252Y-79287748D01*
X145347469Y-79160722D01*
X145347466Y-79160720D01*
X145170880Y-79066333D01*
X145170874Y-79066330D01*
X145092948Y-79042691D01*
X145026396Y-79001306D01*
X144989454Y-78932189D01*
X144985499Y-78897811D01*
X144985499Y-78770889D01*
X144972212Y-78652962D01*
X144970651Y-78639104D01*
X144912189Y-78472028D01*
X144912188Y-78472026D01*
X144912188Y-78472025D01*
X144912187Y-78472024D01*
X144823988Y-78331658D01*
X144818014Y-78322150D01*
X144692850Y-78196986D01*
X144562417Y-78115029D01*
X144509113Y-78057580D01*
X144491578Y-77988617D01*
X144491320Y-77966647D01*
X144488316Y-77711357D01*
X144507708Y-77635427D01*
X144562469Y-77579362D01*
X144637925Y-77558189D01*
X144713858Y-77577581D01*
X144735753Y-77592545D01*
X144847531Y-77684278D01*
X145024120Y-77778667D01*
X145215731Y-77836792D01*
X145415000Y-77856418D01*
X145415003Y-77856418D01*
X145430652Y-77854876D01*
X145446817Y-77853283D01*
X145468085Y-77852691D01*
X145480828Y-77853234D01*
X146219462Y-77791682D01*
X146236962Y-77789338D01*
X146257053Y-77788000D01*
X151469958Y-77788000D01*
X151533402Y-77805000D01*
X154816628Y-77805000D01*
X154816628Y-77804999D01*
X154783683Y-77691603D01*
X154783681Y-77691599D01*
X154767496Y-77664231D01*
X154746420Y-77588748D01*
X154765910Y-77512840D01*
X154790762Y-77480101D01*
X154793014Y-77477850D01*
X154887189Y-77327972D01*
X154945651Y-77160896D01*
X154960500Y-77029109D01*
X154960499Y-76640892D01*
X154958992Y-76627518D01*
X154952014Y-76565584D01*
X154945651Y-76509104D01*
X154887189Y-76342028D01*
X154848558Y-76280548D01*
X154825459Y-76205662D01*
X154842898Y-76129256D01*
X154848554Y-76119458D01*
X154887189Y-76057972D01*
X154945651Y-75890896D01*
X154960500Y-75759109D01*
X154960499Y-75370892D01*
X154956487Y-75335285D01*
X154948768Y-75266773D01*
X154945651Y-75239104D01*
X154887189Y-75072028D01*
X154848558Y-75010548D01*
X154825459Y-74935662D01*
X154842898Y-74859256D01*
X154848554Y-74849458D01*
X154887189Y-74787972D01*
X154945651Y-74620896D01*
X154960500Y-74489109D01*
X154960499Y-74100892D01*
X154960072Y-74097104D01*
X154945651Y-73969107D01*
X154945651Y-73969104D01*
X154887189Y-73802028D01*
X154848558Y-73740548D01*
X154825459Y-73665662D01*
X154842898Y-73589256D01*
X154848554Y-73579458D01*
X154887189Y-73517972D01*
X154945651Y-73350896D01*
X154960500Y-73219109D01*
X154960499Y-72830892D01*
X154955607Y-72787475D01*
X154946392Y-72705680D01*
X154945651Y-72699104D01*
X154887189Y-72532028D01*
X154848558Y-72470548D01*
X154825459Y-72395662D01*
X154842898Y-72319256D01*
X154848554Y-72309458D01*
X154887189Y-72247972D01*
X154945651Y-72080896D01*
X154956046Y-71988638D01*
X154984676Y-71915688D01*
X155045949Y-71866825D01*
X155123444Y-71855144D01*
X155136876Y-71857272D01*
X158380382Y-72521935D01*
X158410404Y-72531431D01*
X158412277Y-72532246D01*
X158412283Y-72532247D01*
X158412286Y-72532249D01*
X158651102Y-72602181D01*
X159049146Y-72718741D01*
X159102664Y-72731942D01*
X159102672Y-72731942D01*
X159104936Y-72732501D01*
X159112591Y-72734604D01*
X159185731Y-72756792D01*
X159385000Y-72776418D01*
X159584269Y-72756792D01*
X159775880Y-72698667D01*
X159952469Y-72604278D01*
X160107252Y-72477252D01*
X160234278Y-72322469D01*
X160328667Y-72145880D01*
X160386792Y-71954269D01*
X160406418Y-71755000D01*
X160387300Y-71560888D01*
X162539500Y-71560888D01*
X162539500Y-71949111D01*
X162554348Y-72080892D01*
X162554349Y-72080896D01*
X162612811Y-72247973D01*
X162612811Y-72247974D01*
X162651440Y-72309451D01*
X162674540Y-72384339D01*
X162657101Y-72460745D01*
X162651440Y-72470549D01*
X162612811Y-72532025D01*
X162612811Y-72532026D01*
X162554349Y-72699103D01*
X162539500Y-72830888D01*
X162539500Y-73219111D01*
X162554348Y-73350892D01*
X162554349Y-73350896D01*
X162612811Y-73517973D01*
X162612811Y-73517974D01*
X162651440Y-73579451D01*
X162674540Y-73654339D01*
X162657101Y-73730745D01*
X162651440Y-73740549D01*
X162612811Y-73802025D01*
X162612811Y-73802026D01*
X162554349Y-73969103D01*
X162539500Y-74100888D01*
X162539500Y-74489111D01*
X162554348Y-74620892D01*
X162554349Y-74620896D01*
X162612811Y-74787973D01*
X162612811Y-74787974D01*
X162651440Y-74849451D01*
X162674540Y-74924339D01*
X162657101Y-75000745D01*
X162651440Y-75010549D01*
X162612811Y-75072025D01*
X162612811Y-75072026D01*
X162554349Y-75239103D01*
X162539500Y-75370888D01*
X162539500Y-75759111D01*
X162554348Y-75890892D01*
X162554349Y-75890896D01*
X162612811Y-76057973D01*
X162612811Y-76057974D01*
X162651440Y-76119451D01*
X162674540Y-76194339D01*
X162657101Y-76270745D01*
X162651440Y-76280549D01*
X162612811Y-76342025D01*
X162612811Y-76342026D01*
X162554349Y-76509103D01*
X162539500Y-76640888D01*
X162539500Y-77029111D01*
X162554348Y-77160892D01*
X162554349Y-77160896D01*
X162612811Y-77327973D01*
X162612811Y-77327974D01*
X162651440Y-77389451D01*
X162674540Y-77464339D01*
X162657101Y-77540745D01*
X162651440Y-77550549D01*
X162612811Y-77612025D01*
X162612811Y-77612026D01*
X162554349Y-77779103D01*
X162539500Y-77910888D01*
X162539500Y-78299111D01*
X162554348Y-78430892D01*
X162554349Y-78430896D01*
X162612811Y-78597973D01*
X162612811Y-78597974D01*
X162651440Y-78659451D01*
X162674540Y-78734339D01*
X162657101Y-78810745D01*
X162651440Y-78820549D01*
X162612811Y-78882025D01*
X162612811Y-78882026D01*
X162554349Y-79049103D01*
X162539500Y-79180888D01*
X162539500Y-79569111D01*
X162554348Y-79700892D01*
X162554349Y-79700896D01*
X162612811Y-79867973D01*
X162612811Y-79867974D01*
X162651440Y-79929451D01*
X162674540Y-80004339D01*
X162657101Y-80080745D01*
X162651440Y-80090549D01*
X162612811Y-80152025D01*
X162612811Y-80152026D01*
X162554349Y-80319103D01*
X162539500Y-80450888D01*
X162539500Y-80839111D01*
X162554348Y-80970892D01*
X162554349Y-80970896D01*
X162612811Y-81137974D01*
X162612812Y-81137975D01*
X162618291Y-81146694D01*
X162706986Y-81287850D01*
X162832150Y-81413014D01*
X162895086Y-81452559D01*
X162982024Y-81507187D01*
X162982025Y-81507188D01*
X162982028Y-81507189D01*
X163149104Y-81565651D01*
X163280891Y-81580500D01*
X165344108Y-81580499D01*
X165344110Y-81580499D01*
X165388037Y-81575549D01*
X165475896Y-81565651D01*
X165642972Y-81507189D01*
X165792850Y-81413014D01*
X165918014Y-81287850D01*
X166012189Y-81137972D01*
X166070651Y-80970896D01*
X166085500Y-80839109D01*
X166085499Y-80450892D01*
X166083843Y-80436197D01*
X166072517Y-80335667D01*
X166070651Y-80319104D01*
X166012189Y-80152028D01*
X165973558Y-80090548D01*
X165950459Y-80015662D01*
X165967898Y-79939256D01*
X165973554Y-79929458D01*
X166012189Y-79867972D01*
X166070651Y-79700896D01*
X166085500Y-79569109D01*
X166085500Y-79530510D01*
X167042000Y-79530510D01*
X167052605Y-79634323D01*
X167052606Y-79634324D01*
X167108339Y-79802518D01*
X167108341Y-79802524D01*
X167201363Y-79953336D01*
X167201366Y-79953340D01*
X167326659Y-80078633D01*
X167326663Y-80078636D01*
X167477475Y-80171658D01*
X167477481Y-80171660D01*
X167645675Y-80227393D01*
X167645676Y-80227394D01*
X167749489Y-80238000D01*
X167957500Y-80238000D01*
X168592500Y-80238000D01*
X168800511Y-80238000D01*
X168904323Y-80227394D01*
X168904324Y-80227393D01*
X169072518Y-80171660D01*
X169072524Y-80171658D01*
X169223336Y-80078636D01*
X169223340Y-80078633D01*
X169348633Y-79953340D01*
X169348636Y-79953336D01*
X169441658Y-79802524D01*
X169441660Y-79802518D01*
X169497393Y-79634324D01*
X169497394Y-79634323D01*
X169508000Y-79530510D01*
X169508000Y-79460000D01*
X168592500Y-79460000D01*
X168592500Y-80238000D01*
X167957500Y-80238000D01*
X167957500Y-79460000D01*
X167042000Y-79460000D01*
X167042000Y-79530510D01*
X166085500Y-79530510D01*
X166085499Y-79180892D01*
X166083226Y-79160720D01*
X166072592Y-79066330D01*
X166070651Y-79049104D01*
X166012189Y-78882028D01*
X165973558Y-78820548D01*
X165950459Y-78745662D01*
X165967898Y-78669256D01*
X165973554Y-78659458D01*
X166012189Y-78597972D01*
X166070651Y-78430896D01*
X166085500Y-78299109D01*
X166085499Y-77910892D01*
X166085021Y-77906651D01*
X166075585Y-77822897D01*
X166070651Y-77779104D01*
X166012189Y-77612028D01*
X165973558Y-77550548D01*
X165950459Y-77475662D01*
X165967898Y-77399256D01*
X165973554Y-77389458D01*
X166012189Y-77327972D01*
X166070651Y-77160896D01*
X166085500Y-77029109D01*
X166085499Y-76640892D01*
X166083992Y-76627518D01*
X166077014Y-76565584D01*
X166070651Y-76509104D01*
X166012189Y-76342028D01*
X165973558Y-76280548D01*
X165950459Y-76205662D01*
X165967898Y-76129256D01*
X165973554Y-76119458D01*
X166012189Y-76057972D01*
X166070651Y-75890896D01*
X166085500Y-75759109D01*
X166085499Y-75370892D01*
X166081487Y-75335285D01*
X166073768Y-75266773D01*
X166070651Y-75239104D01*
X166012189Y-75072028D01*
X165973558Y-75010548D01*
X165950459Y-74935662D01*
X165967898Y-74859256D01*
X165973554Y-74849458D01*
X166012189Y-74787972D01*
X166070651Y-74620896D01*
X166085500Y-74489109D01*
X166085499Y-74100892D01*
X166085072Y-74097104D01*
X166070651Y-73969107D01*
X166070651Y-73969104D01*
X166012189Y-73802028D01*
X165973558Y-73740548D01*
X165950459Y-73665662D01*
X165967898Y-73589256D01*
X165973554Y-73579458D01*
X166012189Y-73517972D01*
X166070651Y-73350896D01*
X166085500Y-73219109D01*
X166085499Y-72830892D01*
X166080607Y-72787475D01*
X166071392Y-72705680D01*
X166070651Y-72699104D01*
X166012189Y-72532028D01*
X165973558Y-72470548D01*
X165950459Y-72395662D01*
X165967898Y-72319256D01*
X165973554Y-72309458D01*
X166012189Y-72247972D01*
X166070651Y-72080896D01*
X166085500Y-71949109D01*
X166085499Y-71560892D01*
X166084917Y-71555730D01*
X166070829Y-71430683D01*
X166070651Y-71429104D01*
X166012189Y-71262028D01*
X166012188Y-71262026D01*
X166012188Y-71262025D01*
X166012187Y-71262024D01*
X165926504Y-71125662D01*
X165918014Y-71112150D01*
X165915756Y-71109892D01*
X165914556Y-71107813D01*
X165912711Y-71105500D01*
X165913059Y-71105221D01*
X165876571Y-71042021D01*
X165876571Y-70963651D01*
X165892498Y-70925764D01*
X165908681Y-70898400D01*
X165908683Y-70898396D01*
X165941628Y-70785000D01*
X162683372Y-70785000D01*
X162716315Y-70898393D01*
X162716316Y-70898396D01*
X162732505Y-70925770D01*
X162753579Y-71001254D01*
X162734087Y-71077162D01*
X162709249Y-71109886D01*
X162706991Y-71112143D01*
X162706984Y-71112152D01*
X162612812Y-71262024D01*
X162612811Y-71262025D01*
X162554349Y-71429103D01*
X162539500Y-71560888D01*
X160387300Y-71560888D01*
X160386792Y-71555731D01*
X160328667Y-71364120D01*
X160234278Y-71187531D01*
X160107252Y-71032748D01*
X160040505Y-70977971D01*
X159952469Y-70905722D01*
X159952466Y-70905720D01*
X159775880Y-70811333D01*
X159775878Y-70811332D01*
X159584269Y-70753208D01*
X159483967Y-70743328D01*
X159461982Y-70739510D01*
X159451476Y-70736875D01*
X159451472Y-70736874D01*
X159451469Y-70736874D01*
X158796888Y-70657869D01*
X158796871Y-70657868D01*
X158796863Y-70657867D01*
X158778630Y-70656589D01*
X158758821Y-70653878D01*
X157850373Y-70467718D01*
X157780286Y-70432650D01*
X157737122Y-70367237D01*
X157732448Y-70289007D01*
X157767516Y-70218920D01*
X157832929Y-70175756D01*
X157880766Y-70168000D01*
X158547296Y-70168000D01*
X158578678Y-70171287D01*
X158580538Y-70171682D01*
X159319171Y-70233234D01*
X159345159Y-70234868D01*
X159345932Y-70234900D01*
X159346097Y-70234908D01*
X159346098Y-70234907D01*
X159346100Y-70234908D01*
X159350824Y-70234680D01*
X159372969Y-70235232D01*
X159385000Y-70236418D01*
X159448472Y-70230165D01*
X159456013Y-70229613D01*
X159461880Y-70229332D01*
X159461894Y-70229328D01*
X159465745Y-70228722D01*
X159474474Y-70227605D01*
X159584269Y-70216792D01*
X159775880Y-70158667D01*
X159952469Y-70064278D01*
X160107252Y-69937252D01*
X160234278Y-69782469D01*
X160328667Y-69605880D01*
X160386792Y-69414269D01*
X160391266Y-69368837D01*
X160418871Y-69295491D01*
X160479451Y-69245773D01*
X160556775Y-69233006D01*
X160579722Y-69237067D01*
X162594274Y-69756293D01*
X162662516Y-69794828D01*
X162684680Y-69822351D01*
X162706986Y-69857850D01*
X162709242Y-69860106D01*
X162710440Y-69862182D01*
X162712289Y-69864500D01*
X162711939Y-69864778D01*
X162748427Y-69927977D01*
X162748427Y-70006347D01*
X162732505Y-70044227D01*
X162716318Y-70071598D01*
X162716316Y-70071603D01*
X162683371Y-70184999D01*
X162683372Y-70185000D01*
X165941628Y-70185000D01*
X165941628Y-70184999D01*
X165908683Y-70071603D01*
X165908681Y-70071599D01*
X165892496Y-70044231D01*
X165871420Y-69968748D01*
X165890910Y-69892840D01*
X165915762Y-69860101D01*
X165918014Y-69857850D01*
X166012189Y-69707972D01*
X166070651Y-69540896D01*
X166085500Y-69409109D01*
X166085499Y-69020892D01*
X166084825Y-69014914D01*
X166074387Y-68922266D01*
X166070651Y-68889104D01*
X166012189Y-68722028D01*
X165973558Y-68660548D01*
X165950459Y-68585662D01*
X165967898Y-68509256D01*
X165973559Y-68499450D01*
X166012189Y-68437972D01*
X166070651Y-68270896D01*
X166085500Y-68139109D01*
X166085499Y-67839551D01*
X166105783Y-67763852D01*
X166161199Y-67708436D01*
X166236899Y-67688152D01*
X166249452Y-67688674D01*
X166304171Y-67693234D01*
X166330159Y-67694868D01*
X166330932Y-67694900D01*
X166331097Y-67694908D01*
X166331098Y-67694907D01*
X166331100Y-67694908D01*
X166335824Y-67694680D01*
X166357969Y-67695232D01*
X166370000Y-67696418D01*
X166433472Y-67690165D01*
X166441013Y-67689613D01*
X166446880Y-67689332D01*
X166446894Y-67689328D01*
X166450745Y-67688722D01*
X166459474Y-67687605D01*
X166569269Y-67676792D01*
X166719152Y-67631324D01*
X166797479Y-67628761D01*
X166866595Y-67665704D01*
X166907981Y-67732256D01*
X166914500Y-67776206D01*
X166914500Y-68344476D01*
X166914502Y-68344503D01*
X166920583Y-68421783D01*
X166924922Y-68437975D01*
X166968761Y-68601583D01*
X167053266Y-68767435D01*
X167053268Y-68767438D01*
X167053269Y-68767439D01*
X167150267Y-68887221D01*
X167182143Y-68958816D01*
X167173951Y-69036757D01*
X167150267Y-69077779D01*
X167053269Y-69197560D01*
X167053267Y-69197563D01*
X167053266Y-69197565D01*
X167019410Y-69264012D01*
X166968761Y-69363416D01*
X166920583Y-69543215D01*
X166914500Y-69620499D01*
X166914500Y-70419476D01*
X166914502Y-70419503D01*
X166920583Y-70496783D01*
X166920584Y-70496786D01*
X166968761Y-70676583D01*
X167053266Y-70842435D01*
X167170408Y-70987092D01*
X167294205Y-71087342D01*
X167340268Y-71150744D01*
X167348460Y-71228685D01*
X167316584Y-71300280D01*
X167294208Y-71322655D01*
X167170408Y-71422908D01*
X167053266Y-71567565D01*
X167011013Y-71650491D01*
X166968761Y-71733416D01*
X166920583Y-71913215D01*
X166914500Y-71990499D01*
X166914500Y-72789476D01*
X166914502Y-72789503D01*
X166920583Y-72866783D01*
X166933048Y-72913302D01*
X166968761Y-73046583D01*
X167053266Y-73212435D01*
X167053268Y-73212438D01*
X167053269Y-73212439D01*
X167150267Y-73332221D01*
X167182143Y-73403816D01*
X167173951Y-73481757D01*
X167150267Y-73522779D01*
X167053269Y-73642560D01*
X167053267Y-73642563D01*
X167053266Y-73642565D01*
X167011013Y-73725491D01*
X166968761Y-73808416D01*
X166920583Y-73988215D01*
X166914500Y-74065499D01*
X166914500Y-74864476D01*
X166914502Y-74864503D01*
X166920583Y-74941783D01*
X166945022Y-75032989D01*
X166968761Y-75121583D01*
X167053266Y-75287435D01*
X167170408Y-75432092D01*
X167315065Y-75549234D01*
X167315073Y-75549238D01*
X167476230Y-75631352D01*
X167534471Y-75683792D01*
X167558689Y-75758326D01*
X167542394Y-75834984D01*
X167489954Y-75893225D01*
X167476230Y-75901148D01*
X167315073Y-75983261D01*
X167315065Y-75983266D01*
X167170408Y-76100408D01*
X167053266Y-76245065D01*
X167031771Y-76287252D01*
X166968761Y-76410916D01*
X166920583Y-76590715D01*
X166914500Y-76667999D01*
X166914500Y-77466976D01*
X166914502Y-77467003D01*
X166920583Y-77544283D01*
X166955483Y-77674530D01*
X166968761Y-77724083D01*
X167053266Y-77889935D01*
X167141854Y-77999331D01*
X167170410Y-78034594D01*
X167220985Y-78075549D01*
X167267049Y-78138952D01*
X167275241Y-78216893D01*
X167243364Y-78288488D01*
X167232762Y-78300263D01*
X167201367Y-78331658D01*
X167201363Y-78331663D01*
X167108341Y-78482475D01*
X167108339Y-78482481D01*
X167052606Y-78650675D01*
X167052605Y-78650676D01*
X167042000Y-78754489D01*
X167042000Y-78825000D01*
X169508000Y-78825000D01*
X169508000Y-78754489D01*
X169497394Y-78650676D01*
X169497393Y-78650675D01*
X169441660Y-78482481D01*
X169441658Y-78482475D01*
X169348636Y-78331663D01*
X169348633Y-78331659D01*
X169317238Y-78300264D01*
X169278053Y-78232393D01*
X169278053Y-78154023D01*
X169317238Y-78086152D01*
X169329005Y-78075556D01*
X169379592Y-78034592D01*
X169496734Y-77889935D01*
X169581239Y-77724083D01*
X169629416Y-77544286D01*
X169631891Y-77512840D01*
X169635499Y-77467000D01*
X169635499Y-77466993D01*
X169635500Y-77466981D01*
X169635499Y-77256504D01*
X169642365Y-77211428D01*
X169772491Y-76794182D01*
X169802772Y-76739922D01*
X169938213Y-76584145D01*
X170066876Y-76436164D01*
X170069624Y-76433089D01*
X170398183Y-76075827D01*
X170464354Y-76033840D01*
X170542656Y-76030563D01*
X170612106Y-76066876D01*
X170637813Y-76097764D01*
X170651439Y-76119449D01*
X170674540Y-76194337D01*
X170657102Y-76270743D01*
X170651440Y-76280549D01*
X170612811Y-76342025D01*
X170612811Y-76342026D01*
X170554349Y-76509103D01*
X170539500Y-76640888D01*
X170539500Y-77029111D01*
X170554348Y-77160892D01*
X170554349Y-77160896D01*
X170612811Y-77327974D01*
X170612812Y-77327975D01*
X170700168Y-77467000D01*
X170706986Y-77477850D01*
X170832150Y-77603014D01*
X170883735Y-77635427D01*
X170982024Y-77697187D01*
X170982027Y-77697189D01*
X171059736Y-77724380D01*
X171124489Y-77768527D01*
X171158493Y-77839136D01*
X171161049Y-77872322D01*
X171161022Y-77873133D01*
X171156715Y-77904294D01*
X171156137Y-77906643D01*
X171156135Y-77906650D01*
X171070917Y-78639107D01*
X171069301Y-78652999D01*
X171066114Y-78689437D01*
X171066038Y-78690728D01*
X171066038Y-78690753D01*
X171066311Y-78697570D01*
X171065703Y-78718460D01*
X171063582Y-78739998D01*
X171063582Y-78740000D01*
X171070615Y-78811411D01*
X171070970Y-78816549D01*
X171071665Y-78822077D01*
X171083208Y-78939269D01*
X171141332Y-79130878D01*
X171141333Y-79130880D01*
X171235720Y-79307466D01*
X171235722Y-79307469D01*
X171359235Y-79457972D01*
X171362748Y-79462252D01*
X171517531Y-79589278D01*
X171694120Y-79683667D01*
X171885731Y-79741792D01*
X172085000Y-79761418D01*
X172284269Y-79741792D01*
X172475880Y-79683667D01*
X172652469Y-79589278D01*
X172807252Y-79462252D01*
X172934278Y-79307469D01*
X173028667Y-79130880D01*
X173086792Y-78939269D01*
X173106418Y-78740000D01*
X173105038Y-78725997D01*
X173104739Y-78699786D01*
X173105066Y-78695449D01*
X173081884Y-78236239D01*
X173068447Y-77970069D01*
X173068445Y-77970047D01*
X173066760Y-77953262D01*
X173066090Y-77932984D01*
X173067657Y-77887066D01*
X173090509Y-77812106D01*
X173147782Y-77758611D01*
X173168960Y-77749330D01*
X173317972Y-77697189D01*
X173467850Y-77603014D01*
X173593014Y-77477850D01*
X173687189Y-77327972D01*
X173745651Y-77160896D01*
X173760500Y-77029109D01*
X173760499Y-76734136D01*
X173780783Y-76658436D01*
X173836199Y-76603020D01*
X173911898Y-76582736D01*
X173922630Y-76583183D01*
X173922633Y-76583137D01*
X173924153Y-76583232D01*
X173924171Y-76583234D01*
X173950159Y-76584868D01*
X173950932Y-76584900D01*
X173951097Y-76584908D01*
X173951098Y-76584907D01*
X173951100Y-76584908D01*
X173955824Y-76584680D01*
X173977969Y-76585232D01*
X173990000Y-76586418D01*
X174053472Y-76580165D01*
X174061013Y-76579613D01*
X174066880Y-76579332D01*
X174066894Y-76579328D01*
X174070745Y-76578722D01*
X174079474Y-76577605D01*
X174189269Y-76566792D01*
X174380880Y-76508667D01*
X174557469Y-76414278D01*
X174712252Y-76287252D01*
X174839278Y-76132469D01*
X174933667Y-75955880D01*
X174991792Y-75764269D01*
X175011418Y-75565000D01*
X175002342Y-75472851D01*
X175015108Y-75395530D01*
X175064826Y-75334948D01*
X175138173Y-75307342D01*
X175167848Y-75307342D01*
X175260000Y-75316418D01*
X175260000Y-75316417D01*
X175260001Y-75316418D01*
X175260003Y-75316418D01*
X175275652Y-75314876D01*
X175291817Y-75313283D01*
X175313085Y-75312691D01*
X175325828Y-75313234D01*
X175325842Y-75313232D01*
X175330588Y-75313137D01*
X175330609Y-75314181D01*
X175402624Y-75327173D01*
X175462461Y-75377785D01*
X175488975Y-75451534D01*
X175489500Y-75464134D01*
X175489500Y-75759111D01*
X175504348Y-75890892D01*
X175504349Y-75890896D01*
X175562811Y-76057973D01*
X175562811Y-76057974D01*
X175601440Y-76119451D01*
X175624540Y-76194339D01*
X175607101Y-76270745D01*
X175601440Y-76280549D01*
X175562811Y-76342025D01*
X175562811Y-76342026D01*
X175504349Y-76509103D01*
X175489500Y-76640888D01*
X175489500Y-77029111D01*
X175504348Y-77160892D01*
X175504349Y-77160896D01*
X175562811Y-77327974D01*
X175562812Y-77327975D01*
X175650168Y-77467000D01*
X175656986Y-77477850D01*
X175782150Y-77603014D01*
X175833735Y-77635427D01*
X175932024Y-77697187D01*
X175932027Y-77697189D01*
X176003534Y-77722209D01*
X176081033Y-77749327D01*
X176145785Y-77793474D01*
X176179789Y-77864083D01*
X176182341Y-77887067D01*
X176184046Y-77937023D01*
X176182035Y-77965325D01*
X176182091Y-77965332D01*
X176181941Y-77966647D01*
X176181796Y-77968694D01*
X176181553Y-77970058D01*
X176181552Y-77970064D01*
X176144934Y-78695411D01*
X176144345Y-78710714D01*
X176144331Y-78711232D01*
X176144331Y-78711256D01*
X176144433Y-78713073D01*
X176143942Y-78736340D01*
X176143582Y-78739999D01*
X176143582Y-78740003D01*
X176148757Y-78792556D01*
X176149248Y-78798907D01*
X176150256Y-78816873D01*
X176151516Y-78824668D01*
X176151091Y-78824736D01*
X176152901Y-78834628D01*
X176163208Y-78939269D01*
X176221332Y-79130878D01*
X176221333Y-79130880D01*
X176315720Y-79307466D01*
X176315722Y-79307469D01*
X176439235Y-79457972D01*
X176442748Y-79462252D01*
X176597531Y-79589278D01*
X176774120Y-79683667D01*
X176965731Y-79741792D01*
X177165000Y-79761418D01*
X177364269Y-79741792D01*
X177555880Y-79683667D01*
X177732469Y-79589278D01*
X177887252Y-79462252D01*
X178014278Y-79307469D01*
X178108667Y-79130880D01*
X178166792Y-78939269D01*
X178186418Y-78740000D01*
X178181236Y-78687390D01*
X178180515Y-78671079D01*
X178180694Y-78652962D01*
X178093864Y-77906651D01*
X178091433Y-77892153D01*
X178098918Y-77814142D01*
X178144407Y-77750324D01*
X178190744Y-77724212D01*
X178203344Y-77719803D01*
X178267972Y-77697189D01*
X178417850Y-77603014D01*
X178543014Y-77477850D01*
X178637189Y-77327972D01*
X178695651Y-77160896D01*
X178710500Y-77029109D01*
X178710499Y-76669399D01*
X178730783Y-76593700D01*
X178786199Y-76538284D01*
X178861899Y-76518000D01*
X179161131Y-76518000D01*
X179254410Y-76518160D01*
X179254410Y-76518159D01*
X179254413Y-76518160D01*
X179254954Y-76518107D01*
X179255238Y-76518080D01*
X179256030Y-76518003D01*
X179256045Y-76518000D01*
X179256048Y-76518000D01*
X179347425Y-76499824D01*
X179347426Y-76499831D01*
X179347636Y-76499782D01*
X179438590Y-76481853D01*
X179438593Y-76481851D01*
X179438596Y-76481851D01*
X179440151Y-76481379D01*
X179440166Y-76481377D01*
X179526170Y-76445752D01*
X179526189Y-76445800D01*
X179526409Y-76445653D01*
X179612149Y-76410313D01*
X179612158Y-76410306D01*
X179612258Y-76410254D01*
X179613593Y-76409542D01*
X179613595Y-76409540D01*
X179613601Y-76409538D01*
X179690644Y-76358058D01*
X179768415Y-76306287D01*
X179768424Y-76306277D01*
X179769677Y-76305253D01*
X179769684Y-76305245D01*
X179769688Y-76305243D01*
X179835337Y-76239593D01*
X179901384Y-76173773D01*
X179901388Y-76173766D01*
X179901695Y-76173394D01*
X179901812Y-76173252D01*
X179902422Y-76172510D01*
X179902424Y-76172506D01*
X179902429Y-76172502D01*
X179928472Y-76133524D01*
X179987392Y-76081854D01*
X180032805Y-76067781D01*
X180061468Y-76063661D01*
X180083140Y-76060165D01*
X180236390Y-76012298D01*
X180239189Y-76011020D01*
X180259260Y-76001853D01*
X180367175Y-75952570D01*
X180386977Y-75943114D01*
X180520535Y-75854012D01*
X180629196Y-75759858D01*
X180645540Y-75745198D01*
X180748585Y-75622077D01*
X180826317Y-75501123D01*
X180826320Y-75501119D01*
X180828866Y-75497001D01*
X180837865Y-75482457D01*
X180902049Y-75335293D01*
X180930292Y-75239107D01*
X180942556Y-75197339D01*
X180944157Y-75191517D01*
X180948378Y-75176175D01*
X180958216Y-75098301D01*
X180968499Y-75016901D01*
X180968500Y-75016888D01*
X180968500Y-74444992D01*
X180968021Y-74429751D01*
X180967236Y-74404783D01*
X180937152Y-74247075D01*
X180868792Y-74101803D01*
X180766452Y-73978096D01*
X180754074Y-73969103D01*
X180636565Y-73883727D01*
X180636563Y-73883726D01*
X180487286Y-73824622D01*
X180487283Y-73824621D01*
X180328009Y-73804500D01*
X180328000Y-73804500D01*
X179917774Y-73804500D01*
X179898809Y-73803307D01*
X179897377Y-73803126D01*
X179897370Y-73803126D01*
X179859853Y-73803768D01*
X179818440Y-73804478D01*
X179815864Y-73804500D01*
X179417777Y-73804500D01*
X179398800Y-73803306D01*
X179398498Y-73803267D01*
X179397378Y-73803126D01*
X179397375Y-73803126D01*
X179318483Y-73804478D01*
X179315907Y-73804500D01*
X178827992Y-73804500D01*
X178787780Y-73805764D01*
X178787777Y-73805764D01*
X178756955Y-73811643D01*
X178678795Y-73805901D01*
X178613978Y-73761848D01*
X178600399Y-73743477D01*
X178598561Y-73740552D01*
X178575459Y-73665664D01*
X178592896Y-73589258D01*
X178598552Y-73579461D01*
X178637189Y-73517972D01*
X178695651Y-73350896D01*
X178710500Y-73219109D01*
X178710499Y-72913301D01*
X178730783Y-72837602D01*
X178786199Y-72782186D01*
X178861899Y-72761902D01*
X178874452Y-72762424D01*
X179004171Y-72773234D01*
X179030159Y-72774868D01*
X179030932Y-72774900D01*
X179031097Y-72774908D01*
X179031098Y-72774907D01*
X179031100Y-72774908D01*
X179035824Y-72774680D01*
X179057969Y-72775232D01*
X179070000Y-72776418D01*
X179133472Y-72770165D01*
X179141013Y-72769613D01*
X179146880Y-72769332D01*
X179146894Y-72769328D01*
X179150745Y-72768722D01*
X179159474Y-72767605D01*
X179269269Y-72756792D01*
X179460880Y-72698667D01*
X179637469Y-72604278D01*
X179792252Y-72477252D01*
X179919278Y-72322469D01*
X180013667Y-72145880D01*
X180071792Y-71954269D01*
X180091418Y-71755000D01*
X180071792Y-71555731D01*
X180031500Y-71422908D01*
X180013668Y-71364122D01*
X179991506Y-71322660D01*
X179921328Y-71191366D01*
X179903533Y-71115047D01*
X179921328Y-71048633D01*
X180013667Y-70875880D01*
X180071792Y-70684269D01*
X180080092Y-70600000D01*
X182409580Y-70600000D01*
X182429224Y-70837080D01*
X182429225Y-70837086D01*
X182487624Y-71067701D01*
X182583186Y-71285562D01*
X182688149Y-71446219D01*
X182713306Y-71484724D01*
X182874430Y-71659751D01*
X182996806Y-71755000D01*
X183062168Y-71805873D01*
X183147122Y-71851848D01*
X183204044Y-71905716D01*
X183226406Y-71980829D01*
X183208215Y-72057059D01*
X183154347Y-72113981D01*
X183147122Y-72118152D01*
X183062168Y-72164126D01*
X182874432Y-72310247D01*
X182874430Y-72310248D01*
X182874430Y-72310249D01*
X182826233Y-72362605D01*
X182713304Y-72485278D01*
X182583186Y-72684437D01*
X182487624Y-72902298D01*
X182429225Y-73132913D01*
X182429224Y-73132919D01*
X182409580Y-73370000D01*
X182429224Y-73607080D01*
X182429225Y-73607086D01*
X182487624Y-73837701D01*
X182583186Y-74055562D01*
X182638841Y-74140747D01*
X182713306Y-74254724D01*
X182874430Y-74429751D01*
X183045896Y-74563208D01*
X183062168Y-74575873D01*
X183147122Y-74621848D01*
X183204044Y-74675716D01*
X183226406Y-74750829D01*
X183208215Y-74827059D01*
X183154347Y-74883981D01*
X183147122Y-74888152D01*
X183062168Y-74934126D01*
X182874432Y-75080247D01*
X182874430Y-75080248D01*
X182874430Y-75080249D01*
X182857812Y-75098301D01*
X182713304Y-75255278D01*
X182583186Y-75454437D01*
X182487624Y-75672298D01*
X182429225Y-75902913D01*
X182429224Y-75902919D01*
X182409580Y-76140000D01*
X182429224Y-76377080D01*
X182429225Y-76377086D01*
X182487624Y-76607701D01*
X182583186Y-76825562D01*
X182703160Y-77009194D01*
X182713306Y-77024724D01*
X182874430Y-77199751D01*
X183062165Y-77345871D01*
X183062168Y-77345873D01*
X183062170Y-77345874D01*
X183271382Y-77459094D01*
X183271385Y-77459095D01*
X183271390Y-77459098D01*
X183271394Y-77459099D01*
X183271545Y-77459166D01*
X183271609Y-77459217D01*
X183276897Y-77462079D01*
X183276379Y-77463035D01*
X183332726Y-77508143D01*
X183361222Y-77581149D01*
X183349397Y-77658622D01*
X183300420Y-77719803D01*
X183274729Y-77735034D01*
X183193509Y-77772908D01*
X183193502Y-77772912D01*
X183174929Y-77785916D01*
X183799013Y-78410000D01*
X183784174Y-78410000D01*
X183657007Y-78444075D01*
X183542993Y-78509901D01*
X183449901Y-78602993D01*
X183384075Y-78717007D01*
X183350000Y-78844174D01*
X183350000Y-78859013D01*
X182725916Y-78234929D01*
X182712912Y-78253502D01*
X182712911Y-78253504D01*
X182616187Y-78460926D01*
X182556950Y-78682000D01*
X182537004Y-78910000D01*
X182556951Y-79137998D01*
X182616187Y-79359073D01*
X182712913Y-79566499D01*
X182712917Y-79566506D01*
X182725915Y-79585069D01*
X182725916Y-79585069D01*
X183350000Y-78960985D01*
X183350000Y-78975826D01*
X183384075Y-79102993D01*
X183449901Y-79217007D01*
X183542993Y-79310099D01*
X183657007Y-79375925D01*
X183784174Y-79410000D01*
X183799013Y-79410000D01*
X183174929Y-80034083D01*
X183193494Y-80047083D01*
X183193499Y-80047086D01*
X183400927Y-80143812D01*
X183400926Y-80143812D01*
X183622000Y-80203049D01*
X183850000Y-80222995D01*
X184077999Y-80203049D01*
X184299073Y-80143812D01*
X184506496Y-80047088D01*
X184525069Y-80034082D01*
X183900987Y-79410000D01*
X183915826Y-79410000D01*
X184042993Y-79375925D01*
X184157007Y-79310099D01*
X184250099Y-79217007D01*
X184315925Y-79102993D01*
X184350000Y-78975826D01*
X184350000Y-78960987D01*
X184974082Y-79585069D01*
X184987088Y-79566496D01*
X185083812Y-79359073D01*
X185143049Y-79137998D01*
X185162995Y-78910000D01*
X185143049Y-78682000D01*
X185083812Y-78460926D01*
X184987086Y-78253499D01*
X184987083Y-78253494D01*
X184974083Y-78234929D01*
X184350000Y-78859012D01*
X184350000Y-78844174D01*
X184315925Y-78717007D01*
X184250099Y-78602993D01*
X184157007Y-78509901D01*
X184042993Y-78444075D01*
X183915826Y-78410000D01*
X183900985Y-78410000D01*
X184525069Y-77785916D01*
X184525069Y-77785915D01*
X184506506Y-77772917D01*
X184506494Y-77772910D01*
X184425270Y-77735034D01*
X184365236Y-77684658D01*
X184338432Y-77611014D01*
X184352042Y-77533834D01*
X184402418Y-77473800D01*
X184423142Y-77462151D01*
X184423103Y-77462079D01*
X184427654Y-77459615D01*
X184428462Y-77459162D01*
X184428599Y-77459101D01*
X184428610Y-77459098D01*
X184428619Y-77459092D01*
X184428626Y-77459090D01*
X184637829Y-77345874D01*
X184637827Y-77345874D01*
X184637835Y-77345871D01*
X184825570Y-77199751D01*
X184986694Y-77024724D01*
X185068326Y-76899776D01*
X185126709Y-76847498D01*
X185203412Y-76831415D01*
X185277879Y-76855838D01*
X185330159Y-76914222D01*
X185346242Y-76990925D01*
X185333723Y-77043395D01*
X185327624Y-77057299D01*
X185269225Y-77287913D01*
X185269224Y-77287919D01*
X185249580Y-77525000D01*
X185269224Y-77762080D01*
X185269225Y-77762086D01*
X185327624Y-77992701D01*
X185423186Y-78210562D01*
X185550220Y-78405000D01*
X185553306Y-78409724D01*
X185714430Y-78584751D01*
X185902165Y-78730871D01*
X185902168Y-78730873D01*
X185902170Y-78730874D01*
X186111375Y-78844091D01*
X186111382Y-78844093D01*
X186111390Y-78844098D01*
X186219556Y-78881232D01*
X186336384Y-78921340D01*
X186336389Y-78921340D01*
X186336398Y-78921344D01*
X186539433Y-78955224D01*
X186571050Y-78960500D01*
X186571051Y-78960500D01*
X186808950Y-78960500D01*
X186840567Y-78955224D01*
X187043602Y-78921344D01*
X187043612Y-78921340D01*
X187043615Y-78921340D01*
X187112151Y-78897811D01*
X187268610Y-78844098D01*
X187268620Y-78844092D01*
X187268624Y-78844091D01*
X187434193Y-78754489D01*
X187477835Y-78730871D01*
X187665570Y-78584751D01*
X187826694Y-78409724D01*
X187956812Y-78210564D01*
X187962768Y-78196987D01*
X188002052Y-78107427D01*
X188052374Y-77992704D01*
X188110775Y-77762085D01*
X188130420Y-77525000D01*
X188110775Y-77287915D01*
X188055527Y-77069746D01*
X188052375Y-77057298D01*
X187956813Y-76839437D01*
X187848775Y-76674073D01*
X187826694Y-76640276D01*
X187665570Y-76465249D01*
X187477835Y-76319129D01*
X187477832Y-76319127D01*
X187477829Y-76319125D01*
X187392878Y-76273152D01*
X187335956Y-76219284D01*
X187313593Y-76144172D01*
X187331784Y-76067942D01*
X187385652Y-76011020D01*
X187392878Y-76006848D01*
X187477829Y-75960874D01*
X187477827Y-75960874D01*
X187477835Y-75960871D01*
X187665570Y-75814751D01*
X187826694Y-75639724D01*
X187956812Y-75440564D01*
X188052374Y-75222704D01*
X188110775Y-74992085D01*
X188130420Y-74755000D01*
X188110775Y-74517915D01*
X188071880Y-74364323D01*
X188052375Y-74287298D01*
X187956813Y-74069437D01*
X187835481Y-73883726D01*
X187826694Y-73870276D01*
X187665570Y-73695249D01*
X187477835Y-73549129D01*
X187477832Y-73549127D01*
X187477829Y-73549125D01*
X187392878Y-73503152D01*
X187335956Y-73449284D01*
X187313593Y-73374172D01*
X187331784Y-73297942D01*
X187385652Y-73241020D01*
X187392878Y-73236848D01*
X187477829Y-73190874D01*
X187477827Y-73190874D01*
X187477835Y-73190871D01*
X187665570Y-73044751D01*
X187826694Y-72869724D01*
X187956812Y-72670564D01*
X187973047Y-72633553D01*
X188020612Y-72525114D01*
X188052374Y-72452704D01*
X188056005Y-72438368D01*
X188085355Y-72322466D01*
X188110775Y-72222085D01*
X188130420Y-71985000D01*
X188110775Y-71747915D01*
X188052374Y-71517296D01*
X187956813Y-71299437D01*
X187848775Y-71134073D01*
X187826694Y-71100276D01*
X187665570Y-70925249D01*
X187477835Y-70779129D01*
X187477832Y-70779127D01*
X187477829Y-70779125D01*
X187392878Y-70733152D01*
X187335956Y-70679284D01*
X187313593Y-70604172D01*
X187331784Y-70527942D01*
X187385652Y-70471020D01*
X187392878Y-70466848D01*
X187477829Y-70420874D01*
X187477827Y-70420874D01*
X187477835Y-70420871D01*
X187665570Y-70274751D01*
X187826694Y-70099724D01*
X187956812Y-69900564D01*
X187974559Y-69860106D01*
X188013498Y-69771332D01*
X188052374Y-69682704D01*
X188066128Y-69628393D01*
X188071829Y-69605878D01*
X188110775Y-69452085D01*
X188130420Y-69215000D01*
X188110775Y-68977915D01*
X188067541Y-68807189D01*
X188052375Y-68747298D01*
X187956813Y-68529437D01*
X187855030Y-68373647D01*
X187826694Y-68330276D01*
X187665570Y-68155249D01*
X187477835Y-68009129D01*
X187477832Y-68009127D01*
X187477829Y-68009125D01*
X187268624Y-67895908D01*
X187268613Y-67895903D01*
X187268610Y-67895902D01*
X187255598Y-67891435D01*
X187043615Y-67818659D01*
X187043605Y-67818657D01*
X187043602Y-67818656D01*
X186867612Y-67789289D01*
X186808950Y-67779500D01*
X186808949Y-67779500D01*
X186571051Y-67779500D01*
X186571050Y-67779500D01*
X186492833Y-67792552D01*
X186336398Y-67818656D01*
X186336395Y-67818656D01*
X186336384Y-67818659D01*
X186111398Y-67895899D01*
X186111375Y-67895908D01*
X185902170Y-68009125D01*
X185714432Y-68155247D01*
X185714430Y-68155248D01*
X185714430Y-68155249D01*
X185553306Y-68330276D01*
X185553305Y-68330278D01*
X185549065Y-68334884D01*
X185547275Y-68333237D01*
X185493784Y-68373647D01*
X185416010Y-68383292D01*
X185343832Y-68352758D01*
X185296592Y-68290225D01*
X185285499Y-68233343D01*
X185285499Y-66965820D01*
X185282665Y-66929796D01*
X185281511Y-66925825D01*
X185237870Y-66775610D01*
X185237869Y-66775608D01*
X185237869Y-66775607D01*
X185157345Y-66639448D01*
X185156137Y-66637405D01*
X185156134Y-66637401D01*
X185042598Y-66523865D01*
X185042594Y-66523862D01*
X184935304Y-66460411D01*
X184904393Y-66442131D01*
X184904392Y-66442130D01*
X184904391Y-66442130D01*
X184904389Y-66442129D01*
X184750213Y-66397337D01*
X184750201Y-66397334D01*
X184714187Y-66394500D01*
X182985826Y-66394500D01*
X182985816Y-66394501D01*
X182957000Y-66396768D01*
X182949796Y-66397335D01*
X182949795Y-66397335D01*
X182949788Y-66397336D01*
X182795610Y-66442129D01*
X182795608Y-66442130D01*
X182657405Y-66523862D01*
X182657401Y-66523865D01*
X182543865Y-66637401D01*
X182543862Y-66637405D01*
X182462130Y-66775608D01*
X182462129Y-66775610D01*
X182417337Y-66929786D01*
X182417334Y-66929798D01*
X182414500Y-66965805D01*
X182414500Y-68694173D01*
X182414501Y-68694183D01*
X182417335Y-68730202D01*
X182417336Y-68730211D01*
X182462129Y-68884389D01*
X182462130Y-68884391D01*
X182462131Y-68884393D01*
X182464917Y-68889104D01*
X182543862Y-69022594D01*
X182543865Y-69022598D01*
X182657402Y-69136135D01*
X182795607Y-69217869D01*
X182795609Y-69217869D01*
X182795610Y-69217870D01*
X182869857Y-69239441D01*
X182936892Y-69280038D01*
X182974648Y-69348715D01*
X182973006Y-69427068D01*
X182932409Y-69494103D01*
X182920611Y-69504304D01*
X182874433Y-69540246D01*
X182874430Y-69540248D01*
X182874430Y-69540249D01*
X182814014Y-69605878D01*
X182713304Y-69715278D01*
X182583186Y-69914437D01*
X182487624Y-70132298D01*
X182429225Y-70362913D01*
X182429224Y-70362919D01*
X182409580Y-70600000D01*
X180080092Y-70600000D01*
X180091418Y-70485000D01*
X180071792Y-70285731D01*
X180013667Y-70094120D01*
X179919278Y-69917531D01*
X179792252Y-69762748D01*
X179784386Y-69756293D01*
X179637469Y-69635722D01*
X179637466Y-69635720D01*
X179460880Y-69541333D01*
X179460878Y-69541332D01*
X179269269Y-69483208D01*
X179070001Y-69463582D01*
X179070000Y-69463582D01*
X179062197Y-69464350D01*
X179038181Y-69466715D01*
X179016924Y-69467307D01*
X179005897Y-69466838D01*
X179004170Y-69466765D01*
X179004169Y-69466765D01*
X179004164Y-69466765D01*
X178431628Y-69514477D01*
X178419055Y-69515000D01*
X175633372Y-69515000D01*
X175666315Y-69628393D01*
X175666316Y-69628396D01*
X175682505Y-69655770D01*
X175703579Y-69731254D01*
X175684087Y-69807162D01*
X175659249Y-69839886D01*
X175656991Y-69842143D01*
X175656984Y-69842152D01*
X175562812Y-69992024D01*
X175562811Y-69992025D01*
X175504349Y-70159103D01*
X175489500Y-70290888D01*
X175489500Y-70679111D01*
X175504348Y-70810892D01*
X175504349Y-70810896D01*
X175562811Y-70977973D01*
X175562811Y-70977974D01*
X175601440Y-71039451D01*
X175624540Y-71114339D01*
X175607101Y-71190745D01*
X175601440Y-71200549D01*
X175562811Y-71262025D01*
X175562811Y-71262026D01*
X175504349Y-71429103D01*
X175490082Y-71555730D01*
X175489500Y-71560891D01*
X175489500Y-71747919D01*
X175489501Y-71920600D01*
X175469217Y-71996300D01*
X175413801Y-72051716D01*
X175338101Y-72072000D01*
X174827705Y-72072000D01*
X174796318Y-72068711D01*
X174794462Y-72068317D01*
X174055840Y-72006764D01*
X174029270Y-72005105D01*
X174028365Y-72005068D01*
X174028363Y-72005068D01*
X174028361Y-72005068D01*
X174025986Y-72005183D01*
X174023869Y-72005286D01*
X174001707Y-72004734D01*
X173990007Y-72003582D01*
X173989996Y-72003582D01*
X173926735Y-72009811D01*
X173849411Y-71997043D01*
X173788832Y-71947324D01*
X173761228Y-71873976D01*
X173760499Y-71859155D01*
X173760499Y-71560892D01*
X173759917Y-71555730D01*
X173745829Y-71430683D01*
X173745651Y-71429104D01*
X173687189Y-71262028D01*
X173648558Y-71200548D01*
X173625459Y-71125662D01*
X173642898Y-71049256D01*
X173648554Y-71039458D01*
X173687189Y-70977972D01*
X173745651Y-70810896D01*
X173760500Y-70679109D01*
X173760499Y-70290892D01*
X173759917Y-70285730D01*
X173745851Y-70160881D01*
X173757532Y-70083386D01*
X173806395Y-70022114D01*
X173838359Y-70004055D01*
X173900184Y-69978447D01*
X174112816Y-69855684D01*
X174307605Y-69706218D01*
X174481218Y-69532605D01*
X174630684Y-69337816D01*
X174753447Y-69125184D01*
X174847406Y-68898348D01*
X174910953Y-68661188D01*
X174943000Y-68417763D01*
X174943000Y-68295000D01*
X174943000Y-68201138D01*
X174943000Y-66482519D01*
X174943001Y-66482514D01*
X174943000Y-66451405D01*
X174943037Y-66451269D01*
X174943039Y-66388652D01*
X174943044Y-66240194D01*
X174914413Y-65944661D01*
X174872679Y-65731279D01*
X174878055Y-65653096D01*
X174921804Y-65588074D01*
X174992203Y-65553636D01*
X175070389Y-65559012D01*
X175135411Y-65602761D01*
X175139950Y-65608223D01*
X175314871Y-65829086D01*
X175338595Y-65871689D01*
X175769725Y-67066313D01*
X175776343Y-67144404D01*
X175743029Y-67215341D01*
X175734372Y-67224763D01*
X175656986Y-67302149D01*
X175562812Y-67452024D01*
X175562811Y-67452025D01*
X175504349Y-67619103D01*
X175489500Y-67750888D01*
X175489500Y-68139111D01*
X175504348Y-68270892D01*
X175504349Y-68270896D01*
X175562811Y-68437974D01*
X175562812Y-68437975D01*
X175656986Y-68587850D01*
X175659242Y-68590106D01*
X175660440Y-68592182D01*
X175662289Y-68594500D01*
X175661939Y-68594778D01*
X175698427Y-68657977D01*
X175698427Y-68736347D01*
X175682505Y-68774227D01*
X175666318Y-68801598D01*
X175666316Y-68801603D01*
X175633371Y-68914999D01*
X175633372Y-68915000D01*
X178566628Y-68915000D01*
X178566628Y-68914999D01*
X178533683Y-68801603D01*
X178533681Y-68801599D01*
X178517496Y-68774231D01*
X178496420Y-68698748D01*
X178515910Y-68622840D01*
X178540762Y-68590101D01*
X178543014Y-68587850D01*
X178637189Y-68437972D01*
X178695651Y-68270896D01*
X178710500Y-68139109D01*
X178710499Y-67750892D01*
X178709917Y-67745730D01*
X178696555Y-67627129D01*
X178695651Y-67619104D01*
X178637189Y-67452028D01*
X178637188Y-67452026D01*
X178637188Y-67452025D01*
X178637187Y-67452024D01*
X178551504Y-67315662D01*
X178543014Y-67302150D01*
X178417850Y-67176986D01*
X178389452Y-67159142D01*
X178267975Y-67082812D01*
X178267974Y-67082811D01*
X178100896Y-67024349D01*
X177969111Y-67009500D01*
X177969109Y-67009500D01*
X177881866Y-67009500D01*
X177806166Y-66989216D01*
X177750750Y-66933800D01*
X177739456Y-66909495D01*
X177269837Y-65608223D01*
X177256116Y-65570206D01*
X177249499Y-65492116D01*
X177282813Y-65421179D01*
X177347132Y-65376402D01*
X177408081Y-65368923D01*
X177408138Y-65367804D01*
X177411987Y-65368000D01*
X177482500Y-65368000D01*
X178117500Y-65368000D01*
X178188011Y-65368000D01*
X178291823Y-65357394D01*
X178291824Y-65357393D01*
X178460018Y-65301660D01*
X178460024Y-65301658D01*
X178610836Y-65208636D01*
X178610840Y-65208633D01*
X178736133Y-65083340D01*
X178736136Y-65083336D01*
X178829158Y-64932524D01*
X178829160Y-64932518D01*
X178884893Y-64764324D01*
X178884894Y-64764323D01*
X178895500Y-64660510D01*
X178895500Y-64452500D01*
X178117500Y-64452500D01*
X178117500Y-65368000D01*
X177482500Y-65368000D01*
X177482500Y-63817500D01*
X178117500Y-63817500D01*
X178895500Y-63817500D01*
X178895500Y-63609489D01*
X178884894Y-63505676D01*
X178884893Y-63505675D01*
X178829160Y-63337481D01*
X178829158Y-63337475D01*
X178736136Y-63186663D01*
X178736133Y-63186659D01*
X178610840Y-63061366D01*
X178610836Y-63061363D01*
X178460024Y-62968341D01*
X178460018Y-62968339D01*
X178291824Y-62912606D01*
X178291823Y-62912605D01*
X178188011Y-62902000D01*
X178117500Y-62902000D01*
X178117500Y-63817500D01*
X177482500Y-63817500D01*
X177482500Y-62902000D01*
X177411989Y-62902000D01*
X177308176Y-62912605D01*
X177308175Y-62912606D01*
X177139981Y-62968338D01*
X177019714Y-63042520D01*
X176944635Y-63064996D01*
X176868378Y-63046922D01*
X176811373Y-62993141D01*
X176793888Y-62952456D01*
X176783324Y-62912605D01*
X176746606Y-62774097D01*
X176741702Y-62728562D01*
X176809884Y-61200492D01*
X176814495Y-61169579D01*
X176815145Y-61167051D01*
X176895061Y-60534887D01*
X176896783Y-60524309D01*
X176896787Y-60524282D01*
X176896792Y-60524269D01*
X176897958Y-60512423D01*
X176898408Y-60508424D01*
X176909781Y-60418464D01*
X176913305Y-60381442D01*
X176913530Y-60379073D01*
X176913620Y-60377659D01*
X176913621Y-60377638D01*
X176913348Y-60370362D01*
X176913971Y-60349837D01*
X176916418Y-60325002D01*
X176916418Y-60325000D01*
X176896792Y-60125731D01*
X176892238Y-60110720D01*
X176838667Y-59934120D01*
X176744278Y-59757531D01*
X176617252Y-59602748D01*
X176613295Y-59599501D01*
X176462469Y-59475722D01*
X176462466Y-59475720D01*
X176285880Y-59381333D01*
X176285878Y-59381332D01*
X176094269Y-59323208D01*
X175895000Y-59303582D01*
X175695730Y-59323208D01*
X175504121Y-59381332D01*
X175504119Y-59381333D01*
X175327533Y-59475720D01*
X175327530Y-59475722D01*
X175172748Y-59602747D01*
X175172747Y-59602748D01*
X175045722Y-59757530D01*
X175045720Y-59757533D01*
X174951333Y-59934119D01*
X174951332Y-59934121D01*
X174893208Y-60125730D01*
X174873582Y-60324998D01*
X174874449Y-60333803D01*
X174874605Y-60358176D01*
X174874615Y-60358177D01*
X174874607Y-60358505D01*
X174874627Y-60361530D01*
X174874507Y-60362926D01*
X174874507Y-60362928D01*
X174903568Y-61084156D01*
X174903568Y-61084165D01*
X174905068Y-61100827D01*
X174905527Y-61121144D01*
X174838202Y-62630012D01*
X174827187Y-62680325D01*
X174571083Y-63309728D01*
X174570997Y-63309693D01*
X174564706Y-63324341D01*
X174556261Y-63340915D01*
X174556260Y-63340918D01*
X174508083Y-63520715D01*
X174502000Y-63597999D01*
X174502000Y-64328141D01*
X174481716Y-64403841D01*
X174426300Y-64459257D01*
X174350600Y-64479541D01*
X174274900Y-64459257D01*
X174232491Y-64422863D01*
X174174556Y-64350624D01*
X174174547Y-64350614D01*
X174112834Y-64287292D01*
X174093926Y-64263528D01*
X174086755Y-64252380D01*
X173899247Y-63960871D01*
X173734566Y-63704850D01*
X173710673Y-63630210D01*
X173710499Y-63622945D01*
X173710499Y-63598023D01*
X173710497Y-63597996D01*
X173707058Y-63554286D01*
X173704416Y-63520714D01*
X173656239Y-63340917D01*
X173571734Y-63175065D01*
X173454592Y-63030408D01*
X173309935Y-62913266D01*
X173144083Y-62828761D01*
X172964284Y-62780583D01*
X172886990Y-62774500D01*
X172088023Y-62774500D01*
X172087996Y-62774502D01*
X172010716Y-62780583D01*
X171830916Y-62828761D01*
X171747991Y-62871013D01*
X171665065Y-62913266D01*
X171520404Y-63030411D01*
X171479449Y-63080986D01*
X171416046Y-63127050D01*
X171338105Y-63135241D01*
X171266510Y-63103363D01*
X171254735Y-63092761D01*
X171223340Y-63061366D01*
X171223336Y-63061363D01*
X171072524Y-62968341D01*
X171072518Y-62968339D01*
X170904324Y-62912606D01*
X170904323Y-62912605D01*
X170800511Y-62902000D01*
X170730000Y-62902000D01*
X170730000Y-65368000D01*
X170800511Y-65368000D01*
X170904323Y-65357394D01*
X170904324Y-65357393D01*
X171072518Y-65301660D01*
X171072524Y-65301658D01*
X171223336Y-65208636D01*
X171223339Y-65208634D01*
X171254734Y-65177239D01*
X171322604Y-65138053D01*
X171400974Y-65138052D01*
X171468846Y-65177237D01*
X171479450Y-65189014D01*
X171520405Y-65239589D01*
X171520406Y-65239590D01*
X171520408Y-65239592D01*
X171665065Y-65356734D01*
X171830917Y-65441239D01*
X172010714Y-65489416D01*
X172088019Y-65495500D01*
X172291180Y-65495499D01*
X172338381Y-65503044D01*
X172720346Y-65628374D01*
X172785948Y-65671246D01*
X172793505Y-65680384D01*
X172840008Y-65741327D01*
X172852003Y-65759660D01*
X172923293Y-65888019D01*
X172932518Y-65907893D01*
X172984539Y-66045211D01*
X172990798Y-66066207D01*
X172999922Y-66107533D01*
X173016368Y-66182028D01*
X173022454Y-66209591D01*
X173025616Y-66231273D01*
X173033971Y-66346408D01*
X173036603Y-66382672D01*
X173037000Y-66393629D01*
X173037000Y-66858100D01*
X173016716Y-66933800D01*
X172961300Y-66989216D01*
X172885600Y-67009500D01*
X172346754Y-67009500D01*
X172317218Y-67006591D01*
X172290783Y-67001333D01*
X172243862Y-66992000D01*
X169732606Y-66992000D01*
X169684087Y-66984015D01*
X169057796Y-66772132D01*
X169057798Y-66772132D01*
X168996361Y-66756753D01*
X168993942Y-66756126D01*
X168889285Y-66728083D01*
X168811990Y-66722000D01*
X167738023Y-66722000D01*
X167737996Y-66722002D01*
X167660714Y-66728083D01*
X167575801Y-66750836D01*
X167497431Y-66750836D01*
X167429560Y-66711651D01*
X167390375Y-66643780D01*
X167385945Y-66619434D01*
X167371792Y-66475731D01*
X167345377Y-66388652D01*
X167313667Y-66284120D01*
X167219278Y-66107531D01*
X167092252Y-65952748D01*
X167082389Y-65944654D01*
X166937469Y-65825722D01*
X166937466Y-65825720D01*
X166760880Y-65731333D01*
X166760878Y-65731332D01*
X166569269Y-65673208D01*
X166370001Y-65653582D01*
X166370000Y-65653582D01*
X166362197Y-65654350D01*
X166338181Y-65656715D01*
X166316924Y-65657307D01*
X166305897Y-65656838D01*
X166304170Y-65656765D01*
X166304169Y-65656765D01*
X166304159Y-65656765D01*
X166249469Y-65661322D01*
X166172346Y-65647394D01*
X166112520Y-65596770D01*
X166086022Y-65523015D01*
X166085499Y-65510463D01*
X166085499Y-65210892D01*
X166085244Y-65208633D01*
X166072626Y-65096632D01*
X166070651Y-65079104D01*
X166012189Y-64912028D01*
X165973558Y-64850548D01*
X165950459Y-64775662D01*
X165967898Y-64699256D01*
X165973554Y-64689458D01*
X165991744Y-64660510D01*
X169317000Y-64660510D01*
X169327605Y-64764323D01*
X169327606Y-64764324D01*
X169383339Y-64932518D01*
X169383341Y-64932524D01*
X169476363Y-65083336D01*
X169476366Y-65083340D01*
X169601659Y-65208633D01*
X169601663Y-65208636D01*
X169752475Y-65301658D01*
X169752481Y-65301660D01*
X169920675Y-65357393D01*
X169920676Y-65357394D01*
X170024489Y-65368000D01*
X170095000Y-65368000D01*
X170095000Y-64452500D01*
X169317000Y-64452500D01*
X169317000Y-64660510D01*
X165991744Y-64660510D01*
X166012189Y-64627972D01*
X166070651Y-64460896D01*
X166085500Y-64329109D01*
X166085499Y-63940892D01*
X166084917Y-63935730D01*
X166077014Y-63865584D01*
X166070651Y-63809104D01*
X166012189Y-63642028D01*
X166012188Y-63642025D01*
X166012187Y-63642024D01*
X165991744Y-63609489D01*
X169317000Y-63609489D01*
X169317000Y-63817500D01*
X170095000Y-63817500D01*
X170095000Y-62902000D01*
X170024489Y-62902000D01*
X169920676Y-62912605D01*
X169920675Y-62912606D01*
X169752481Y-62968339D01*
X169752475Y-62968341D01*
X169601663Y-63061363D01*
X169601659Y-63061366D01*
X169476366Y-63186659D01*
X169476363Y-63186663D01*
X169383341Y-63337475D01*
X169383339Y-63337481D01*
X169327606Y-63505675D01*
X169327605Y-63505676D01*
X169317000Y-63609489D01*
X165991744Y-63609489D01*
X165935963Y-63520716D01*
X165918014Y-63492150D01*
X165792850Y-63366986D01*
X165642975Y-63272812D01*
X165642974Y-63272811D01*
X165475896Y-63214349D01*
X165344111Y-63199500D01*
X165344109Y-63199500D01*
X164694744Y-63199500D01*
X164619044Y-63179216D01*
X164605903Y-63170694D01*
X163966492Y-62707326D01*
X163936676Y-62685719D01*
X163895323Y-62655750D01*
X163885969Y-62648394D01*
X163853655Y-62620857D01*
X163790324Y-62566888D01*
X163773490Y-62550088D01*
X163771276Y-62547500D01*
X163695678Y-62459148D01*
X163681686Y-62439923D01*
X163619076Y-62337915D01*
X163608267Y-62316732D01*
X163599595Y-62295826D01*
X163562410Y-62206178D01*
X163555052Y-62183562D01*
X163553339Y-62176437D01*
X163555365Y-62098093D01*
X163566920Y-62069867D01*
X163572810Y-62058813D01*
X163626304Y-62001547D01*
X163701269Y-61978698D01*
X163777616Y-61996392D01*
X163813480Y-62022954D01*
X163824159Y-62033633D01*
X163824163Y-62033636D01*
X163974975Y-62126658D01*
X163974981Y-62126660D01*
X164143175Y-62182393D01*
X164143176Y-62182394D01*
X164246989Y-62193000D01*
X164317500Y-62193000D01*
X164952500Y-62193000D01*
X165023011Y-62193000D01*
X165126823Y-62182394D01*
X165126824Y-62182393D01*
X165295018Y-62126660D01*
X165295024Y-62126658D01*
X165445836Y-62033636D01*
X165445840Y-62033633D01*
X165571133Y-61908340D01*
X165571136Y-61908336D01*
X165664158Y-61757524D01*
X165664160Y-61757518D01*
X165719893Y-61589324D01*
X165719894Y-61589323D01*
X165730500Y-61485510D01*
X165730500Y-61277500D01*
X164952500Y-61277500D01*
X164952500Y-62193000D01*
X164317500Y-62193000D01*
X164317500Y-60642500D01*
X164952500Y-60642500D01*
X165730500Y-60642500D01*
X165730500Y-60434489D01*
X165719894Y-60330676D01*
X165719893Y-60330675D01*
X165664160Y-60162481D01*
X165664158Y-60162475D01*
X165571136Y-60011663D01*
X165571133Y-60011659D01*
X165445840Y-59886366D01*
X165445836Y-59886363D01*
X165295024Y-59793341D01*
X165295018Y-59793339D01*
X165126824Y-59737606D01*
X165126823Y-59737605D01*
X165023011Y-59727000D01*
X164952500Y-59727000D01*
X164952500Y-60642500D01*
X164317500Y-60642500D01*
X164317500Y-59727000D01*
X164246989Y-59727000D01*
X164143176Y-59737605D01*
X164143175Y-59737606D01*
X163974981Y-59793339D01*
X163974975Y-59793341D01*
X163824163Y-59886363D01*
X163824158Y-59886367D01*
X163792763Y-59917762D01*
X163724891Y-59956947D01*
X163646521Y-59956946D01*
X163578651Y-59917760D01*
X163568049Y-59905985D01*
X163527094Y-59855410D01*
X163527092Y-59855408D01*
X163382435Y-59738266D01*
X163216583Y-59653761D01*
X163176367Y-59642985D01*
X163036784Y-59605583D01*
X162959490Y-59599500D01*
X162160523Y-59599500D01*
X162160496Y-59599502D01*
X162083216Y-59605583D01*
X161903416Y-59653761D01*
X161845215Y-59683416D01*
X161737565Y-59738266D01*
X161592908Y-59855408D01*
X161475766Y-60000065D01*
X161453976Y-60042831D01*
X161391261Y-60165916D01*
X161343083Y-60345715D01*
X161337000Y-60422999D01*
X161337000Y-61496976D01*
X161337002Y-61497003D01*
X161343083Y-61574283D01*
X161343084Y-61574286D01*
X161382508Y-61721416D01*
X161382508Y-61799784D01*
X161343324Y-61867655D01*
X161275453Y-61906841D01*
X161236267Y-61912000D01*
X156297635Y-61912000D01*
X156221935Y-61891716D01*
X156166519Y-61836300D01*
X156146235Y-61760600D01*
X156153920Y-61712978D01*
X156194893Y-61589324D01*
X156194894Y-61589323D01*
X156205500Y-61485510D01*
X156205500Y-61277500D01*
X154943900Y-61277500D01*
X154868200Y-61257216D01*
X154812784Y-61201800D01*
X154792500Y-61126100D01*
X154792500Y-60642500D01*
X155427500Y-60642500D01*
X156205500Y-60642500D01*
X156205500Y-60434489D01*
X156194894Y-60330676D01*
X156194893Y-60330675D01*
X156139160Y-60162481D01*
X156139158Y-60162475D01*
X156046136Y-60011663D01*
X156046133Y-60011659D01*
X155920840Y-59886366D01*
X155920836Y-59886363D01*
X155770024Y-59793341D01*
X155770018Y-59793339D01*
X155601824Y-59737606D01*
X155601823Y-59737605D01*
X155498011Y-59727000D01*
X155427500Y-59727000D01*
X155427500Y-60642500D01*
X154792500Y-60642500D01*
X154792500Y-59727000D01*
X154721989Y-59727000D01*
X154618176Y-59737605D01*
X154618175Y-59737606D01*
X154449981Y-59793339D01*
X154449975Y-59793341D01*
X154299163Y-59886363D01*
X154299158Y-59886367D01*
X154267763Y-59917762D01*
X154199891Y-59956947D01*
X154121521Y-59956946D01*
X154053651Y-59917760D01*
X154043049Y-59905985D01*
X154002094Y-59855410D01*
X154002092Y-59855408D01*
X153857435Y-59738266D01*
X153691583Y-59653761D01*
X153651367Y-59642985D01*
X153511784Y-59605583D01*
X153434490Y-59599500D01*
X152635523Y-59599500D01*
X152635496Y-59599502D01*
X152558216Y-59605583D01*
X152378416Y-59653761D01*
X152320215Y-59683416D01*
X152212565Y-59738266D01*
X152212563Y-59738267D01*
X152212560Y-59738269D01*
X152091257Y-59836499D01*
X152056610Y-59857568D01*
X151893361Y-59928916D01*
X151823300Y-59941293D01*
X151804290Y-59940106D01*
X151803365Y-59940068D01*
X151803363Y-59940068D01*
X151803361Y-59940068D01*
X151800986Y-59940183D01*
X151798869Y-59940286D01*
X151776707Y-59939734D01*
X151765007Y-59938582D01*
X151764996Y-59938582D01*
X151701612Y-59944823D01*
X151694148Y-59945372D01*
X151688126Y-59945665D01*
X151684248Y-59946277D01*
X151675511Y-59947395D01*
X151565730Y-59958208D01*
X151374121Y-60016332D01*
X151374119Y-60016333D01*
X151197533Y-60110720D01*
X151197530Y-60110722D01*
X151042748Y-60237747D01*
X151042747Y-60237748D01*
X150915722Y-60392530D01*
X150915720Y-60392533D01*
X150821333Y-60569119D01*
X150821332Y-60569121D01*
X150763208Y-60760730D01*
X150743582Y-60960000D01*
X150751821Y-61043655D01*
X150739055Y-61120978D01*
X150689337Y-61181559D01*
X150615989Y-61209165D01*
X150538666Y-61196399D01*
X150510962Y-61180100D01*
X150506499Y-61176790D01*
X150468353Y-61148498D01*
X150456872Y-61139077D01*
X150218840Y-60923336D01*
X150213459Y-60918213D01*
X150144860Y-60849615D01*
X150144552Y-60849336D01*
X150069422Y-60774205D01*
X150069421Y-60774204D01*
X150069417Y-60774200D01*
X149753383Y-60504281D01*
X149417146Y-60259989D01*
X149417142Y-60259987D01*
X149417140Y-60259985D01*
X149417137Y-60259983D01*
X149062786Y-60042835D01*
X149062783Y-60042833D01*
X149062779Y-60042831D01*
X148896699Y-59958208D01*
X148692470Y-59854146D01*
X148308495Y-59695097D01*
X148308490Y-59695095D01*
X147913220Y-59566661D01*
X147913216Y-59566660D01*
X147913213Y-59566659D01*
X147913210Y-59566658D01*
X147509101Y-59469636D01*
X147163042Y-59414822D01*
X147098596Y-59404615D01*
X147098594Y-59404614D01*
X147098589Y-59404614D01*
X146684271Y-59372002D01*
X146684251Y-59372001D01*
X146570316Y-59372000D01*
X146570314Y-59372000D01*
X146570312Y-59372000D01*
X146476460Y-59372000D01*
X146476446Y-59371999D01*
X146382596Y-59371999D01*
X146382595Y-59371999D01*
X146375130Y-59371999D01*
X146375110Y-59372000D01*
X144335712Y-59372000D01*
X144335689Y-59371993D01*
X144045305Y-59371983D01*
X144045224Y-59371983D01*
X144045223Y-59371983D01*
X144045212Y-59371983D01*
X143590756Y-59402695D01*
X143590728Y-59402697D01*
X143365036Y-59433340D01*
X143139342Y-59463984D01*
X142693112Y-59555566D01*
X142693109Y-59555566D01*
X142693103Y-59555568D01*
X142693101Y-59555568D01*
X142254082Y-59677023D01*
X142254059Y-59677030D01*
X141824245Y-59827801D01*
X141824213Y-59827813D01*
X141405520Y-60007231D01*
X140999861Y-60214477D01*
X140999843Y-60214487D01*
X140609093Y-60448606D01*
X140235018Y-60708537D01*
X140059995Y-60848567D01*
X140059991Y-60848571D01*
X139375299Y-61396324D01*
X139303516Y-61427774D01*
X139280720Y-61429500D01*
X137403023Y-61429500D01*
X137402996Y-61429502D01*
X137325716Y-61435583D01*
X137145916Y-61483761D01*
X137059769Y-61527654D01*
X136980065Y-61568266D01*
X136980063Y-61568267D01*
X136980062Y-61568268D01*
X136977283Y-61570073D01*
X136975176Y-61570757D01*
X136972995Y-61571869D01*
X136972818Y-61571523D01*
X136902748Y-61594292D01*
X136894822Y-61594500D01*
X135635208Y-61594500D01*
X135635166Y-61594489D01*
X135558019Y-61594499D01*
X135557989Y-61594500D01*
X135467180Y-61594500D01*
X135466857Y-61594511D01*
X135405629Y-61594520D01*
X135072985Y-61621815D01*
X135072981Y-61621816D01*
X134743698Y-61676220D01*
X134743694Y-61676221D01*
X134419972Y-61757370D01*
X134116293Y-61860535D01*
X134103947Y-61864730D01*
X133993844Y-61912500D01*
X133797765Y-61997572D01*
X133603425Y-62101538D01*
X133503482Y-62155004D01*
X133503479Y-62155005D01*
X133503477Y-62155007D01*
X133503469Y-62155011D01*
X133223059Y-62335973D01*
X133174581Y-62373197D01*
X133174258Y-62373426D01*
X129491155Y-65202324D01*
X129462790Y-65219528D01*
X128149681Y-65830374D01*
X128085823Y-65844500D01*
X125820826Y-65844500D01*
X125820816Y-65844501D01*
X125792000Y-65846768D01*
X125784796Y-65847335D01*
X125784795Y-65847335D01*
X125784788Y-65847336D01*
X125630610Y-65892129D01*
X125630608Y-65892130D01*
X125492405Y-65973862D01*
X125492401Y-65973865D01*
X125451456Y-66014811D01*
X125383585Y-66053996D01*
X125305215Y-66053996D01*
X125237344Y-66014811D01*
X125198159Y-65946940D01*
X125193000Y-65907755D01*
X125193000Y-65547500D01*
X123435000Y-65547500D01*
X123435000Y-64912500D01*
X125192999Y-64912500D01*
X125192999Y-64260858D01*
X125190189Y-64207956D01*
X125145487Y-63976825D01*
X125145486Y-63976819D01*
X125062365Y-63756566D01*
X125062362Y-63756560D01*
X124943214Y-63553521D01*
X124943214Y-63553520D01*
X124791468Y-63373540D01*
X124791459Y-63373531D01*
X124611478Y-63221785D01*
X124408439Y-63102637D01*
X124408433Y-63102634D01*
X124188180Y-63019513D01*
X124188174Y-63019512D01*
X123957046Y-62974810D01*
X123957041Y-62974809D01*
X123904126Y-62972000D01*
X123252500Y-62972000D01*
X123252500Y-63840394D01*
X123242007Y-63829901D01*
X123127993Y-63764075D01*
X123000826Y-63730000D01*
X122869174Y-63730000D01*
X122742007Y-63764075D01*
X122627993Y-63829901D01*
X122617500Y-63840394D01*
X122617500Y-62972000D01*
X121965858Y-62972000D01*
X121912956Y-62974810D01*
X121681825Y-63019512D01*
X121681819Y-63019513D01*
X121489856Y-63091958D01*
X121411870Y-63099709D01*
X121340456Y-63067428D01*
X121294751Y-63003765D01*
X121285000Y-62950309D01*
X121285000Y-61415373D01*
X125377000Y-61415373D01*
X125377000Y-61912500D01*
X126245394Y-61912500D01*
X126234901Y-61922993D01*
X126169075Y-62037007D01*
X126135000Y-62164174D01*
X126135000Y-62295826D01*
X126169075Y-62422993D01*
X126234901Y-62537007D01*
X126245394Y-62547500D01*
X125377000Y-62547500D01*
X125377000Y-63044626D01*
X125387465Y-63177588D01*
X125442793Y-63397168D01*
X125536442Y-63603342D01*
X125665398Y-63789478D01*
X125665399Y-63789480D01*
X125825519Y-63949600D01*
X125825521Y-63949601D01*
X126011657Y-64078557D01*
X126217832Y-64172206D01*
X126217831Y-64172206D01*
X126437411Y-64227534D01*
X126570373Y-64237999D01*
X126570391Y-64238000D01*
X127317500Y-64238000D01*
X127317500Y-62730000D01*
X127952500Y-62730000D01*
X127952500Y-64238000D01*
X128699609Y-64238000D01*
X128699626Y-64237999D01*
X128832588Y-64227534D01*
X129052168Y-64172206D01*
X129258342Y-64078557D01*
X129444478Y-63949601D01*
X129444480Y-63949600D01*
X129604600Y-63789480D01*
X129604601Y-63789478D01*
X129733557Y-63603342D01*
X129827206Y-63397168D01*
X129882534Y-63177588D01*
X129892999Y-63044626D01*
X129893000Y-63044609D01*
X129893000Y-62547500D01*
X129024606Y-62547500D01*
X129035099Y-62537007D01*
X129100925Y-62422993D01*
X129135000Y-62295826D01*
X129135000Y-62164174D01*
X129100925Y-62037007D01*
X129035099Y-61922993D01*
X129024606Y-61912500D01*
X129893000Y-61912500D01*
X129893000Y-61415390D01*
X129892999Y-61415373D01*
X129882534Y-61282411D01*
X129827206Y-61062831D01*
X129733557Y-60856657D01*
X129604601Y-60670521D01*
X129604600Y-60670519D01*
X129444480Y-60510399D01*
X129444478Y-60510398D01*
X129258342Y-60381442D01*
X129052167Y-60287793D01*
X129052168Y-60287793D01*
X128832588Y-60232465D01*
X128699626Y-60222000D01*
X127952500Y-60222000D01*
X127952500Y-61730000D01*
X127317500Y-61730000D01*
X127317500Y-60222000D01*
X126570373Y-60222000D01*
X126437411Y-60232465D01*
X126217831Y-60287793D01*
X126011657Y-60381442D01*
X125825521Y-60510398D01*
X125825519Y-60510399D01*
X125665399Y-60670519D01*
X125665398Y-60670521D01*
X125536442Y-60856657D01*
X125442793Y-61062831D01*
X125387465Y-61282411D01*
X125377000Y-61415373D01*
X121285000Y-61415373D01*
X121285000Y-59696611D01*
X121285576Y-59683416D01*
X121292385Y-59605583D01*
X121303140Y-59482651D01*
X121307720Y-59456680D01*
X121358164Y-59268419D01*
X121367181Y-59243642D01*
X121449551Y-59067001D01*
X121462741Y-59044155D01*
X121574532Y-58884501D01*
X121591486Y-58864297D01*
X121729297Y-58726486D01*
X121749501Y-58709532D01*
X121909155Y-58597741D01*
X121932001Y-58584551D01*
X122108642Y-58502181D01*
X122133419Y-58493164D01*
X122321680Y-58442720D01*
X122347651Y-58438140D01*
X122548416Y-58420575D01*
X122561611Y-58420000D01*
X183685662Y-58420000D01*
X183761362Y-58440284D01*
G37*
G04 #@! TD.AperFunction*
G04 #@! TA.AperFunction,Conductor*
G36*
X141192201Y-66634267D02*
G01*
X141217590Y-66639449D01*
X141575193Y-66675562D01*
X141754905Y-66675500D01*
X141860181Y-66675500D01*
X145857641Y-66675500D01*
X145933341Y-66695784D01*
X145988757Y-66751200D01*
X146009041Y-66826900D01*
X146003882Y-66866084D01*
X145998290Y-66886951D01*
X145990583Y-66915716D01*
X145984500Y-66992999D01*
X145984500Y-67816976D01*
X145984502Y-67817003D01*
X145990583Y-67894283D01*
X145998207Y-67922734D01*
X146038761Y-68074083D01*
X146123266Y-68239935D01*
X146240408Y-68384592D01*
X146385065Y-68501734D01*
X146536795Y-68579043D01*
X146580516Y-68612573D01*
X146859862Y-68922485D01*
X146883013Y-68956531D01*
X146911996Y-69014916D01*
X146917072Y-69022594D01*
X147069024Y-69252460D01*
X147069031Y-69252468D01*
X147252737Y-69467307D01*
X147254087Y-69468885D01*
X147464366Y-69660898D01*
X147696670Y-69825584D01*
X147947470Y-69960440D01*
X147947474Y-69960441D01*
X147947475Y-69960442D01*
X147947483Y-69960446D01*
X148154978Y-70040929D01*
X148212954Y-70063417D01*
X148489091Y-70132952D01*
X148771684Y-70167988D01*
X148812669Y-70167991D01*
X148812836Y-70168000D01*
X148914063Y-70168000D01*
X149007925Y-70168001D01*
X149007930Y-70168000D01*
X151263100Y-70168000D01*
X151338800Y-70188284D01*
X151394216Y-70243700D01*
X151414500Y-70319400D01*
X151414500Y-70679111D01*
X151429348Y-70810892D01*
X151429349Y-70810896D01*
X151487811Y-70977973D01*
X151487811Y-70977974D01*
X151526440Y-71039451D01*
X151549540Y-71114339D01*
X151532101Y-71190745D01*
X151526440Y-71200549D01*
X151487811Y-71262025D01*
X151487811Y-71262026D01*
X151429349Y-71429103D01*
X151414500Y-71560888D01*
X151414500Y-71949111D01*
X151429348Y-72080892D01*
X151429349Y-72080896D01*
X151487811Y-72247973D01*
X151487811Y-72247974D01*
X151526440Y-72309451D01*
X151549540Y-72384339D01*
X151532101Y-72460745D01*
X151526440Y-72470549D01*
X151487811Y-72532025D01*
X151487811Y-72532026D01*
X151429349Y-72699103D01*
X151414500Y-72830888D01*
X151414500Y-73130445D01*
X151394216Y-73206145D01*
X151338800Y-73261561D01*
X151263100Y-73281845D01*
X151250527Y-73281322D01*
X151195840Y-73276764D01*
X151169270Y-73275105D01*
X151168365Y-73275068D01*
X151168363Y-73275068D01*
X151168361Y-73275068D01*
X151165986Y-73275183D01*
X151163869Y-73275286D01*
X151141707Y-73274734D01*
X151130007Y-73273582D01*
X151129996Y-73273582D01*
X151066612Y-73279823D01*
X151059148Y-73280372D01*
X151053126Y-73280665D01*
X151049248Y-73281277D01*
X151040511Y-73282395D01*
X150930730Y-73293208D01*
X150739121Y-73351332D01*
X150739119Y-73351333D01*
X150562533Y-73445720D01*
X150562530Y-73445722D01*
X150407748Y-73572747D01*
X150407747Y-73572748D01*
X150280722Y-73727530D01*
X150280720Y-73727533D01*
X150186333Y-73904119D01*
X150186332Y-73904121D01*
X150128208Y-74095730D01*
X150108582Y-74295000D01*
X150123430Y-74445761D01*
X150110664Y-74523084D01*
X150060946Y-74583665D01*
X149987598Y-74611271D01*
X149972759Y-74612000D01*
X147522705Y-74612000D01*
X147491318Y-74608711D01*
X147489462Y-74608317D01*
X146787244Y-74549798D01*
X146713490Y-74523298D01*
X146662867Y-74463471D01*
X146648940Y-74386348D01*
X146651774Y-74367216D01*
X146652394Y-74364317D01*
X146663000Y-74260510D01*
X146663000Y-73977500D01*
X142147000Y-73977500D01*
X142147000Y-74260510D01*
X142157605Y-74364323D01*
X142157606Y-74364324D01*
X142213339Y-74532518D01*
X142213341Y-74532524D01*
X142306363Y-74683336D01*
X142306366Y-74683340D01*
X142431659Y-74808633D01*
X142431663Y-74808636D01*
X142582475Y-74901658D01*
X142582481Y-74901660D01*
X142750675Y-74957393D01*
X142750676Y-74957394D01*
X142854489Y-74968000D01*
X143336927Y-74968000D01*
X143412627Y-74988284D01*
X143468043Y-75043700D01*
X143488327Y-75119400D01*
X143468043Y-75195100D01*
X143431920Y-75237289D01*
X143410823Y-75254289D01*
X143404086Y-75259718D01*
X143203487Y-75462695D01*
X143027062Y-75687009D01*
X142877066Y-75929791D01*
X142755413Y-76187942D01*
X142663656Y-76458172D01*
X142602967Y-76737019D01*
X142598769Y-76778336D01*
X142575314Y-77009194D01*
X142574119Y-77020953D01*
X142574587Y-77062082D01*
X142574557Y-77062894D01*
X142574637Y-77069743D01*
X142574637Y-77069746D01*
X142575741Y-77163621D01*
X142575741Y-77163624D01*
X142575740Y-77163624D01*
X142575864Y-77174136D01*
X142575864Y-77174141D01*
X142575865Y-77174141D01*
X142585573Y-77999411D01*
X142566181Y-78075344D01*
X142514734Y-78129385D01*
X142480551Y-78150864D01*
X142405662Y-78173965D01*
X142329257Y-78156527D01*
X142319450Y-78150865D01*
X142242972Y-78102811D01*
X142242974Y-78102811D01*
X142073412Y-78043479D01*
X142008659Y-77999331D01*
X141974655Y-77928722D01*
X141972745Y-77915410D01*
X141972300Y-77910891D01*
X141971792Y-77905731D01*
X141954250Y-77847908D01*
X141951918Y-77839315D01*
X141947976Y-77822897D01*
X141934645Y-77775500D01*
X141934643Y-77775494D01*
X141934640Y-77775483D01*
X141934085Y-77773766D01*
X141930877Y-77766621D01*
X141924112Y-77748553D01*
X141913667Y-77714120D01*
X141913666Y-77714119D01*
X141912191Y-77711360D01*
X141819278Y-77537531D01*
X141692252Y-77382748D01*
X141625505Y-77327971D01*
X141537469Y-77255722D01*
X141537466Y-77255720D01*
X141360880Y-77161333D01*
X141360878Y-77161332D01*
X141169269Y-77103208D01*
X140970000Y-77083582D01*
X140770730Y-77103208D01*
X140579121Y-77161332D01*
X140579119Y-77161333D01*
X140402533Y-77255720D01*
X140402530Y-77255722D01*
X140247748Y-77382747D01*
X140247747Y-77382748D01*
X140120722Y-77537530D01*
X140120720Y-77537533D01*
X140026333Y-77714119D01*
X140026332Y-77714121D01*
X139968208Y-77905730D01*
X139948582Y-78105000D01*
X139966521Y-78287144D01*
X139953755Y-78364467D01*
X139944044Y-78382532D01*
X139887811Y-78472025D01*
X139887811Y-78472026D01*
X139829349Y-78639103D01*
X139814500Y-78770888D01*
X139814500Y-78906622D01*
X139794216Y-78982322D01*
X139738800Y-79037738D01*
X139663100Y-79058022D01*
X139587400Y-79037738D01*
X139543761Y-78999789D01*
X139468455Y-78903329D01*
X139468454Y-78903328D01*
X139468451Y-78903324D01*
X139242592Y-78666857D01*
X139210221Y-78639104D01*
X138994339Y-78454021D01*
X138994333Y-78454017D01*
X138726155Y-78266930D01*
X138726151Y-78266927D01*
X138726143Y-78266922D01*
X138726139Y-78266920D01*
X138440696Y-78107430D01*
X138140777Y-77977103D01*
X137829411Y-77877253D01*
X137829399Y-77877249D01*
X137509652Y-77808857D01*
X137509634Y-77808854D01*
X137509633Y-77808854D01*
X137509629Y-77808853D01*
X137509619Y-77808852D01*
X137184657Y-77772595D01*
X137184648Y-77772594D01*
X137022315Y-77770736D01*
X137022311Y-77770734D01*
X137022307Y-77770736D01*
X131925501Y-77712081D01*
X131878556Y-77704049D01*
X131500579Y-77575681D01*
X131435423Y-77532131D01*
X131400771Y-77461838D01*
X131405908Y-77383636D01*
X131429645Y-77339518D01*
X131431131Y-77337601D01*
X131431135Y-77337598D01*
X131512869Y-77199393D01*
X131557665Y-77045204D01*
X131560500Y-77009181D01*
X131560499Y-76490156D01*
X131571256Y-76434109D01*
X131571684Y-76433036D01*
X131602579Y-76355510D01*
X133387000Y-76355510D01*
X133397605Y-76459323D01*
X133397606Y-76459324D01*
X133453339Y-76627518D01*
X133453341Y-76627524D01*
X133546363Y-76778336D01*
X133546366Y-76778340D01*
X133671659Y-76903633D01*
X133671663Y-76903636D01*
X133822475Y-76996658D01*
X133822481Y-76996660D01*
X133990675Y-77052393D01*
X133990676Y-77052394D01*
X134094489Y-77063000D01*
X134302500Y-77063000D01*
X134937500Y-77063000D01*
X135145511Y-77063000D01*
X135249323Y-77052394D01*
X135249324Y-77052393D01*
X135417518Y-76996660D01*
X135417524Y-76996658D01*
X135568336Y-76903636D01*
X135568340Y-76903633D01*
X135693633Y-76778340D01*
X135693636Y-76778336D01*
X135786658Y-76627524D01*
X135786660Y-76627518D01*
X135842393Y-76459324D01*
X135842394Y-76459323D01*
X135853000Y-76355510D01*
X135853000Y-76285000D01*
X134937500Y-76285000D01*
X134937500Y-77063000D01*
X134302500Y-77063000D01*
X134302500Y-76285000D01*
X133387000Y-76285000D01*
X133387000Y-76355510D01*
X131602579Y-76355510D01*
X131962104Y-75453341D01*
X131975282Y-75427693D01*
X132020951Y-75356456D01*
X132039222Y-75333286D01*
X132131157Y-75237582D01*
X132153574Y-75218396D01*
X132262344Y-75142335D01*
X132288042Y-75127872D01*
X132409506Y-75074356D01*
X132437529Y-75065151D01*
X132567058Y-75036219D01*
X132596335Y-75032625D01*
X132736399Y-75029191D01*
X132751158Y-75029549D01*
X132813622Y-75034124D01*
X132848832Y-75036703D01*
X132848832Y-75036702D01*
X132869204Y-75038195D01*
X132869213Y-75038194D01*
X133338289Y-75072543D01*
X133412304Y-75098301D01*
X133463525Y-75157617D01*
X133478226Y-75234596D01*
X133456094Y-75303012D01*
X133453343Y-75307471D01*
X133453339Y-75307481D01*
X133397606Y-75475675D01*
X133397605Y-75475676D01*
X133387000Y-75579489D01*
X133387000Y-75650000D01*
X135853000Y-75650000D01*
X135853000Y-75579490D01*
X135842203Y-75473811D01*
X135854688Y-75396441D01*
X135904185Y-75335680D01*
X135977431Y-75307807D01*
X135977482Y-75307801D01*
X136089269Y-75296792D01*
X136280880Y-75238667D01*
X136457469Y-75144278D01*
X136612252Y-75017252D01*
X136631290Y-74994053D01*
X136694990Y-74948405D01*
X136772983Y-74940722D01*
X136817058Y-74955202D01*
X136979941Y-75038194D01*
X136985917Y-75041239D01*
X137165714Y-75089416D01*
X137243019Y-75095500D01*
X140366980Y-75095499D01*
X140444286Y-75089416D01*
X140624083Y-75041239D01*
X140789935Y-74956734D01*
X140934592Y-74839592D01*
X141051734Y-74694935D01*
X141136239Y-74529083D01*
X141184416Y-74349286D01*
X141185882Y-74330647D01*
X141190499Y-74272000D01*
X141190499Y-74271993D01*
X141190500Y-74271981D01*
X141190499Y-73059489D01*
X142147000Y-73059489D01*
X142147000Y-73342500D01*
X144087500Y-73342500D01*
X144722500Y-73342500D01*
X146663000Y-73342500D01*
X146663000Y-73059489D01*
X146652394Y-72955676D01*
X146652393Y-72955675D01*
X146596660Y-72787481D01*
X146596658Y-72787475D01*
X146503636Y-72636663D01*
X146503633Y-72636659D01*
X146378340Y-72511366D01*
X146378336Y-72511363D01*
X146227524Y-72418341D01*
X146227518Y-72418339D01*
X146059324Y-72362606D01*
X146059323Y-72362605D01*
X145955511Y-72352000D01*
X144722500Y-72352000D01*
X144722500Y-73342500D01*
X144087500Y-73342500D01*
X144087500Y-72352000D01*
X142854489Y-72352000D01*
X142750676Y-72362605D01*
X142750675Y-72362606D01*
X142582481Y-72418339D01*
X142582475Y-72418341D01*
X142431663Y-72511363D01*
X142431659Y-72511366D01*
X142306366Y-72636659D01*
X142306363Y-72636663D01*
X142213341Y-72787475D01*
X142213339Y-72787481D01*
X142157606Y-72955675D01*
X142157605Y-72955676D01*
X142147000Y-73059489D01*
X141190499Y-73059489D01*
X141190499Y-73048020D01*
X141184416Y-72970714D01*
X141136239Y-72790917D01*
X141051734Y-72625065D01*
X140934592Y-72480408D01*
X140789935Y-72363266D01*
X140624083Y-72278761D01*
X140603113Y-72273142D01*
X140444284Y-72230583D01*
X140367000Y-72224500D01*
X140366981Y-72224500D01*
X139796429Y-72224500D01*
X139720729Y-72204216D01*
X139665313Y-72148800D01*
X139656099Y-72129929D01*
X138506569Y-69291347D01*
X138495499Y-69234518D01*
X138495499Y-68964023D01*
X138495497Y-68963996D01*
X138489416Y-68886714D01*
X138441239Y-68706917D01*
X138356734Y-68541065D01*
X138347317Y-68529436D01*
X138259732Y-68421278D01*
X138227856Y-68349683D01*
X138236048Y-68271742D01*
X138259730Y-68230723D01*
X138348012Y-68121704D01*
X138394560Y-68083324D01*
X141090823Y-66648946D01*
X141167178Y-66631301D01*
X141192201Y-66634267D01*
G37*
G04 #@! TD.AperFunction*
G04 #@! TA.AperFunction,Conductor*
G36*
X161612245Y-63818298D02*
G01*
X161628487Y-63819317D01*
X161846272Y-63832992D01*
X161865074Y-63835362D01*
X162090782Y-63878333D01*
X162109140Y-63883037D01*
X162327687Y-63953899D01*
X162345331Y-63960870D01*
X162452447Y-64011162D01*
X162512348Y-64061695D01*
X162538958Y-64135410D01*
X162539500Y-64148207D01*
X162539500Y-64329111D01*
X162554348Y-64460892D01*
X162554349Y-64460896D01*
X162612811Y-64627973D01*
X162612811Y-64627974D01*
X162651440Y-64689451D01*
X162674540Y-64764339D01*
X162657101Y-64840745D01*
X162651440Y-64850549D01*
X162612811Y-64912025D01*
X162612811Y-64912026D01*
X162554349Y-65079103D01*
X162539500Y-65210888D01*
X162539500Y-65599111D01*
X162554348Y-65730892D01*
X162554349Y-65730896D01*
X162612811Y-65897973D01*
X162612811Y-65897974D01*
X162651440Y-65959451D01*
X162674540Y-66034339D01*
X162657101Y-66110745D01*
X162651440Y-66120549D01*
X162612811Y-66182025D01*
X162612811Y-66182026D01*
X162554349Y-66349103D01*
X162539500Y-66480888D01*
X162539500Y-66869111D01*
X162554348Y-67000892D01*
X162554349Y-67000896D01*
X162612811Y-67167973D01*
X162612811Y-67167974D01*
X162651440Y-67229451D01*
X162674540Y-67304339D01*
X162657101Y-67380745D01*
X162651440Y-67390549D01*
X162612811Y-67452025D01*
X162612811Y-67452026D01*
X162551541Y-67627129D01*
X162549834Y-67626531D01*
X162518166Y-67686432D01*
X162451802Y-67728119D01*
X162373486Y-67731039D01*
X162369408Y-67730048D01*
X160951311Y-67364552D01*
X160951311Y-67364551D01*
X160951308Y-67364551D01*
X160852660Y-67339126D01*
X160754821Y-67313909D01*
X160754619Y-67313867D01*
X160584689Y-67270087D01*
X160584652Y-67270078D01*
X160042386Y-67159140D01*
X159495241Y-67075692D01*
X159495198Y-67075686D01*
X158988112Y-67024349D01*
X158944543Y-67019938D01*
X158944540Y-67019937D01*
X158944518Y-67019936D01*
X158391751Y-66992026D01*
X158391734Y-66992025D01*
X158215755Y-66992008D01*
X158215563Y-66992000D01*
X158208862Y-66992000D01*
X157682705Y-66992000D01*
X157651318Y-66988711D01*
X157649462Y-66988317D01*
X156910840Y-66926764D01*
X156884270Y-66925105D01*
X156883365Y-66925068D01*
X156883363Y-66925068D01*
X156883361Y-66925068D01*
X156880986Y-66925183D01*
X156878869Y-66925286D01*
X156856707Y-66924734D01*
X156845007Y-66923582D01*
X156844996Y-66923582D01*
X156781612Y-66929823D01*
X156774148Y-66930372D01*
X156768126Y-66930665D01*
X156764248Y-66931277D01*
X156755511Y-66932395D01*
X156645730Y-66943208D01*
X156454121Y-67001332D01*
X156454119Y-67001333D01*
X156277533Y-67095720D01*
X156277530Y-67095722D01*
X156122748Y-67222747D01*
X156122747Y-67222748D01*
X155995722Y-67377530D01*
X155995720Y-67377533D01*
X155901333Y-67554119D01*
X155901332Y-67554121D01*
X155843208Y-67745730D01*
X155823582Y-67945000D01*
X155838430Y-68095761D01*
X155825664Y-68173084D01*
X155775946Y-68233665D01*
X155702598Y-68261271D01*
X155687759Y-68262000D01*
X155111900Y-68262000D01*
X155036200Y-68241716D01*
X154980784Y-68186300D01*
X154960500Y-68110600D01*
X154960499Y-67750888D01*
X154946555Y-67627129D01*
X154945651Y-67619104D01*
X154887189Y-67452028D01*
X154848558Y-67390548D01*
X154825459Y-67315662D01*
X154842898Y-67239256D01*
X154848554Y-67229458D01*
X154887189Y-67167972D01*
X154945651Y-67000896D01*
X154960500Y-66869109D01*
X154960499Y-66480892D01*
X154953167Y-66415819D01*
X154945651Y-66349107D01*
X154945651Y-66349104D01*
X154887189Y-66182028D01*
X154848558Y-66120548D01*
X154825459Y-66045662D01*
X154842898Y-65969256D01*
X154848554Y-65959458D01*
X154887189Y-65897972D01*
X154945651Y-65730896D01*
X154960500Y-65599109D01*
X154960499Y-65210892D01*
X154960244Y-65208633D01*
X154947626Y-65096632D01*
X154945651Y-65079104D01*
X154887189Y-64912028D01*
X154848558Y-64850548D01*
X154825459Y-64775662D01*
X154842898Y-64699256D01*
X154848554Y-64689458D01*
X154887189Y-64627972D01*
X154945651Y-64460896D01*
X154960500Y-64329109D01*
X154960499Y-63969399D01*
X154980783Y-63893700D01*
X155036199Y-63838284D01*
X155111899Y-63818000D01*
X161513638Y-63818000D01*
X161602758Y-63818000D01*
X161612245Y-63818298D01*
G37*
G04 #@! TD.AperFunction*
G04 #@! TA.AperFunction,Conductor*
G36*
X146480140Y-61278182D02*
G01*
X146526533Y-61280461D01*
X146800616Y-61293929D01*
X146815391Y-61295385D01*
X147059000Y-61331523D01*
X147129083Y-61341920D01*
X147143655Y-61344819D01*
X147291199Y-61381778D01*
X147451262Y-61421872D01*
X147465473Y-61426183D01*
X147626391Y-61483761D01*
X147764070Y-61533024D01*
X147777796Y-61538710D01*
X148064472Y-61674299D01*
X148077565Y-61681297D01*
X148286055Y-61806262D01*
X148349577Y-61844336D01*
X148361930Y-61852590D01*
X148616648Y-62041502D01*
X148628133Y-62050928D01*
X148866159Y-62266663D01*
X148871540Y-62271786D01*
X148940214Y-62340459D01*
X148940516Y-62340732D01*
X149015583Y-62415800D01*
X149331617Y-62685719D01*
X149616717Y-62892858D01*
X149666036Y-62953761D01*
X149678296Y-63031167D01*
X149650210Y-63104332D01*
X149589305Y-63153652D01*
X149571676Y-63160221D01*
X149469125Y-63191330D01*
X149469119Y-63191333D01*
X149292533Y-63285720D01*
X149292530Y-63285722D01*
X149137748Y-63412747D01*
X149137747Y-63412748D01*
X149010722Y-63567530D01*
X149010720Y-63567533D01*
X148916333Y-63744119D01*
X148916332Y-63744121D01*
X148858207Y-63935730D01*
X148852081Y-63997940D01*
X148824475Y-64071287D01*
X148763894Y-64121005D01*
X148701410Y-64134500D01*
X146781717Y-64134500D01*
X146706017Y-64114216D01*
X146650601Y-64058800D01*
X146630317Y-63983100D01*
X146650601Y-63907400D01*
X146662959Y-63889193D01*
X146663638Y-63888334D01*
X146756658Y-63737524D01*
X146756660Y-63737518D01*
X146812393Y-63569324D01*
X146812394Y-63569323D01*
X146823000Y-63465510D01*
X146823000Y-63182500D01*
X142307000Y-63182500D01*
X142307000Y-63465510D01*
X142317605Y-63569323D01*
X142317606Y-63569324D01*
X142373339Y-63737518D01*
X142373341Y-63737524D01*
X142466361Y-63888334D01*
X142467041Y-63889193D01*
X142467388Y-63889998D01*
X142470994Y-63895844D01*
X142470137Y-63896372D01*
X142498084Y-63961153D01*
X142488988Y-64038994D01*
X142442190Y-64101858D01*
X142370230Y-64132901D01*
X142348283Y-64134500D01*
X141760892Y-64134500D01*
X141748933Y-64134027D01*
X141733175Y-64132778D01*
X141605105Y-64122629D01*
X141581482Y-64118861D01*
X141468477Y-64091536D01*
X141448612Y-64085258D01*
X141445099Y-64083875D01*
X141445096Y-64083874D01*
X141419118Y-64075938D01*
X141405052Y-64070867D01*
X141324551Y-64037268D01*
X141262505Y-63989391D01*
X141232710Y-63916905D01*
X141243150Y-63839233D01*
X141247959Y-63828838D01*
X141296239Y-63734083D01*
X141344416Y-63554286D01*
X141347058Y-63520714D01*
X141350499Y-63477000D01*
X141350499Y-63476993D01*
X141350500Y-63476981D01*
X141350499Y-62340644D01*
X141370783Y-62264945D01*
X141412386Y-62218541D01*
X141572009Y-62101527D01*
X141582584Y-62094440D01*
X141920185Y-61888278D01*
X141931331Y-61882100D01*
X142174188Y-61760600D01*
X142193043Y-61751167D01*
X142269818Y-61735437D01*
X142344173Y-61760202D01*
X142396183Y-61818827D01*
X142411913Y-61895602D01*
X142389643Y-61966047D01*
X142373340Y-61992477D01*
X142373339Y-61992481D01*
X142317606Y-62160675D01*
X142317605Y-62160676D01*
X142307000Y-62264489D01*
X142307000Y-62547500D01*
X146823000Y-62547500D01*
X146823000Y-62264489D01*
X146812394Y-62160676D01*
X146812393Y-62160675D01*
X146756660Y-61992481D01*
X146756658Y-61992475D01*
X146663636Y-61841663D01*
X146663633Y-61841659D01*
X146538340Y-61716366D01*
X146538336Y-61716363D01*
X146387524Y-61623341D01*
X146387518Y-61623339D01*
X146235950Y-61573115D01*
X146170473Y-61530050D01*
X146135300Y-61460016D01*
X146139857Y-61381778D01*
X146182922Y-61316301D01*
X146252956Y-61281128D01*
X146283572Y-61278000D01*
X146472710Y-61278000D01*
X146480140Y-61278182D01*
G37*
G04 #@! TD.AperFunction*
G04 #@! TA.AperFunction,Conductor*
G36*
X138796591Y-85131008D02*
G01*
X139328832Y-85717295D01*
X139331855Y-85725724D01*
X139328818Y-85733038D01*
X138795533Y-86318403D01*
X138787428Y-86322211D01*
X138782390Y-86321327D01*
X138105995Y-86039966D01*
X138099673Y-86033624D01*
X138098967Y-86027131D01*
X138206571Y-85416861D01*
X138211382Y-85409311D01*
X138212925Y-85408398D01*
X138782770Y-85128370D01*
X138791704Y-85127798D01*
X138796591Y-85131008D01*
G37*
G04 #@! TD.AperFunction*
G04 #@! TA.AperFunction,Conductor*
G36*
X136840007Y-64011427D02*
G01*
X136843394Y-64018728D01*
X136904946Y-64757361D01*
X136902218Y-64765891D01*
X136894258Y-64769993D01*
X136893317Y-64770033D01*
X136525031Y-64770999D01*
X136524969Y-64770999D01*
X136156682Y-64770033D01*
X136148418Y-64766584D01*
X136145013Y-64758302D01*
X136145053Y-64757361D01*
X136206606Y-64018728D01*
X136210708Y-64010768D01*
X136218266Y-64008000D01*
X136831734Y-64008000D01*
X136840007Y-64011427D01*
G37*
G04 #@! TD.AperFunction*
G04 #@! TA.AperFunction,Conductor*
G36*
X162568116Y-60967305D02*
G01*
X162568162Y-60967351D01*
X163122375Y-61524543D01*
X163125780Y-61532825D01*
X163124406Y-61538296D01*
X162880015Y-61996976D01*
X162873100Y-62002666D01*
X162871262Y-62003068D01*
X162256540Y-62086445D01*
X162247881Y-62084161D01*
X162244340Y-62079746D01*
X161994926Y-61538048D01*
X161994580Y-61529102D01*
X161997255Y-61524912D01*
X162551572Y-60967351D01*
X162559833Y-60963902D01*
X162568116Y-60967305D01*
G37*
G04 #@! TD.AperFunction*
G04 #@! TA.AperFunction,Conductor*
G36*
X129796977Y-65780573D02*
G01*
X130559061Y-66772773D01*
X130561383Y-66781421D01*
X130558638Y-66787545D01*
X129388281Y-68142996D01*
X129380280Y-68147019D01*
X129379984Y-68147037D01*
X127651780Y-68229767D01*
X127643353Y-68226739D01*
X127639534Y-68218639D01*
X127640226Y-68214081D01*
X128270092Y-66484556D01*
X128276140Y-66477958D01*
X129782764Y-65777091D01*
X129791710Y-65776709D01*
X129796977Y-65780573D01*
G37*
G04 #@! TD.AperFunction*
G04 #@! TA.AperFunction,Conductor*
G36*
X158877000Y-70167500D02*
G01*
X158877000Y-70802500D01*
X158115000Y-70866000D01*
X158114000Y-70485000D01*
X158115000Y-70104000D01*
X158877000Y-70167500D01*
G37*
G04 #@! TD.AperFunction*
G04 #@! TA.AperFunction,Conductor*
G36*
X158116000Y-60960000D02*
G01*
X158115000Y-61341000D01*
X157353000Y-61277500D01*
X157353000Y-60642500D01*
X158115000Y-60579000D01*
X158116000Y-60960000D01*
G37*
G04 #@! TD.AperFunction*
G04 #@! TA.AperFunction,Conductor*
G36*
X158116000Y-78105000D02*
G01*
X158115000Y-78486000D01*
X157353000Y-78422500D01*
X157353000Y-77787500D01*
X158115000Y-77724000D01*
X158116000Y-78105000D01*
G37*
G04 #@! TD.AperFunction*
G04 #@! TA.AperFunction,Conductor*
G36*
X133503628Y-76423605D02*
G01*
X132860802Y-76551998D01*
X132714008Y-76200121D01*
X132715000Y-75819000D01*
X133426699Y-75793284D01*
X133503628Y-76423605D01*
G37*
G04 #@! TD.AperFunction*
G04 #@! TA.AperFunction,Conductor*
G36*
X152483425Y-60378447D02*
G01*
X153028342Y-60951941D01*
X153031556Y-60960299D01*
X153028342Y-60968059D01*
X152483425Y-61541552D01*
X152475242Y-61545189D01*
X152470257Y-61544214D01*
X151867014Y-61280565D01*
X151860806Y-61274112D01*
X151860000Y-61269844D01*
X151860000Y-60650155D01*
X151863427Y-60641882D01*
X151867011Y-60639435D01*
X152470258Y-60375784D01*
X152479211Y-60375612D01*
X152483425Y-60378447D01*
G37*
G04 #@! TD.AperFunction*
G04 #@! TA.AperFunction,Conductor*
G36*
X151777633Y-60580052D02*
G01*
X152516272Y-60641606D01*
X152524232Y-60645708D01*
X152527000Y-60653266D01*
X152527000Y-61266734D01*
X152523573Y-61275007D01*
X152516272Y-61278394D01*
X151777638Y-61339946D01*
X151769108Y-61337218D01*
X151765006Y-61329258D01*
X151764966Y-61328334D01*
X151764000Y-60960000D01*
X151764966Y-60591680D01*
X151768415Y-60583418D01*
X151776697Y-60580013D01*
X151777633Y-60580052D01*
G37*
G04 #@! TD.AperFunction*
G04 #@! TA.AperFunction,Conductor*
G36*
X151142633Y-73915052D02*
G01*
X151881272Y-73976606D01*
X151889232Y-73980708D01*
X151892000Y-73988266D01*
X151892000Y-74601734D01*
X151888573Y-74610007D01*
X151881272Y-74613394D01*
X151142638Y-74674946D01*
X151134108Y-74672218D01*
X151130006Y-74664258D01*
X151129966Y-74663334D01*
X151129000Y-74295000D01*
X151129966Y-73926680D01*
X151133415Y-73918418D01*
X151141697Y-73915013D01*
X151142633Y-73915052D01*
G37*
G04 #@! TD.AperFunction*
G04 #@! TA.AperFunction,Conductor*
G36*
X175490755Y-62810020D02*
G01*
X176092138Y-62836854D01*
X176100248Y-62840645D01*
X176102923Y-62845543D01*
X176291749Y-63557840D01*
X176290557Y-63566715D01*
X176288736Y-63569088D01*
X175733367Y-64127541D01*
X175725103Y-64130991D01*
X175716821Y-64127587D01*
X175716662Y-64127426D01*
X175168099Y-63560429D01*
X175164810Y-63552101D01*
X175165670Y-63547887D01*
X175463242Y-62816576D01*
X175469533Y-62810207D01*
X175474600Y-62809300D01*
X175490755Y-62810020D01*
G37*
G04 #@! TD.AperFunction*
G04 #@! TA.AperFunction,Conductor*
G36*
X176262762Y-60324965D02*
G01*
X176271026Y-60328414D01*
X176274431Y-60336696D01*
X176274339Y-60338132D01*
X176179703Y-61086719D01*
X176175265Y-61094497D01*
X176167573Y-61096940D01*
X175554719Y-61069595D01*
X175546607Y-61065803D01*
X175543550Y-61058378D01*
X175514489Y-60337139D01*
X175517580Y-60328735D01*
X175525709Y-60324977D01*
X175526140Y-60324968D01*
X175895044Y-60324001D01*
X176262762Y-60324965D01*
G37*
G04 #@! TD.AperFunction*
G04 #@! TA.AperFunction,Conductor*
G36*
X176309274Y-64036268D02*
G01*
X176314062Y-64043835D01*
X176314128Y-64044263D01*
X176483459Y-65295468D01*
X176481173Y-65304126D01*
X176475837Y-65308042D01*
X175895352Y-65517535D01*
X175886407Y-65517120D01*
X175882209Y-65513795D01*
X175364738Y-64860415D01*
X175362288Y-64851802D01*
X175363469Y-64847871D01*
X175722008Y-64139302D01*
X175728801Y-64133468D01*
X175730451Y-64133057D01*
X176300537Y-64034304D01*
X176309274Y-64036268D01*
G37*
G04 #@! TD.AperFunction*
G04 #@! TA.AperFunction,Conductor*
G36*
X168852531Y-67378850D02*
G01*
X169579549Y-67624810D01*
X169586288Y-67630707D01*
X169587500Y-67635893D01*
X169587500Y-68254106D01*
X169584073Y-68262379D01*
X169579549Y-68265189D01*
X168852532Y-68511148D01*
X168843597Y-68510553D01*
X168840533Y-68508361D01*
X168595992Y-68265189D01*
X168282341Y-67953294D01*
X168278892Y-67945033D01*
X168282296Y-67936750D01*
X168840535Y-67381637D01*
X168848816Y-67378234D01*
X168852531Y-67378850D01*
G37*
G04 #@! TD.AperFunction*
G04 #@! TA.AperFunction,Conductor*
G36*
X168934004Y-69509977D02*
G01*
X169441247Y-69769662D01*
X169613886Y-69858045D01*
X169619688Y-69864866D01*
X169620171Y-69869854D01*
X169546553Y-70483336D01*
X169542165Y-70491142D01*
X169536614Y-70493521D01*
X168756582Y-70606546D01*
X168747903Y-70604341D01*
X168745813Y-70602331D01*
X168281482Y-70029108D01*
X168278937Y-70020523D01*
X168283209Y-70012653D01*
X168283279Y-70012596D01*
X168921450Y-69511193D01*
X168930070Y-69508777D01*
X168934004Y-69509977D01*
G37*
G04 #@! TD.AperFunction*
G04 #@! TA.AperFunction,Conductor*
G36*
X169211432Y-73371066D02*
G01*
X169577506Y-73867508D01*
X169579658Y-73876201D01*
X169577458Y-73881460D01*
X169004701Y-74647134D01*
X168997001Y-74651706D01*
X168992401Y-74651453D01*
X168280350Y-74467185D01*
X168273199Y-74461795D01*
X168272183Y-74459562D01*
X168081251Y-73887484D01*
X168081882Y-73878552D01*
X168087496Y-73873134D01*
X169197164Y-73367363D01*
X169206112Y-73367051D01*
X169211432Y-73371066D01*
G37*
G04 #@! TD.AperFunction*
G04 #@! TA.AperFunction,Conductor*
G36*
X169400523Y-71686764D02*
G01*
X169404454Y-71693006D01*
X169552044Y-72292695D01*
X169550694Y-72301547D01*
X169548201Y-72304456D01*
X168997278Y-72766496D01*
X168988737Y-72769186D01*
X168984267Y-72767862D01*
X168279169Y-72392970D01*
X168273473Y-72386060D01*
X168273109Y-72384488D01*
X168258420Y-72292695D01*
X168181944Y-71814782D01*
X168184021Y-71806073D01*
X168191648Y-71801382D01*
X168192326Y-71801294D01*
X169391956Y-71684157D01*
X169400523Y-71686764D01*
G37*
G04 #@! TD.AperFunction*
G04 #@! TA.AperFunction,Conductor*
G36*
X173080499Y-63871968D02*
G01*
X173578095Y-64645551D01*
X173579689Y-64654362D01*
X173576187Y-64660481D01*
X173121654Y-65079638D01*
X173113249Y-65082727D01*
X173110074Y-65082154D01*
X172441713Y-64862853D01*
X172434921Y-64857018D01*
X172433693Y-64850874D01*
X172486313Y-64141141D01*
X172490342Y-64133145D01*
X172493084Y-64131381D01*
X173065766Y-63867669D01*
X173074713Y-63867322D01*
X173080499Y-63871968D01*
G37*
G04 #@! TD.AperFunction*
G04 #@! TA.AperFunction,Conductor*
G36*
X168730274Y-76050118D02*
G01*
X169200842Y-76452034D01*
X169204907Y-76460013D01*
X169204412Y-76464414D01*
X169002758Y-77111008D01*
X168997024Y-77117886D01*
X168990759Y-77119196D01*
X168281241Y-77068749D01*
X168273232Y-77064744D01*
X168271451Y-77061989D01*
X168006725Y-76489513D01*
X168006363Y-76480565D01*
X168011299Y-76474585D01*
X168716636Y-76048998D01*
X168725487Y-76047659D01*
X168730274Y-76050118D01*
G37*
G04 #@! TD.AperFunction*
G04 #@! TA.AperFunction,Conductor*
G36*
X161228285Y-83576252D02*
G01*
X161231857Y-83580529D01*
X161824939Y-84791813D01*
X161825499Y-84800750D01*
X161819576Y-84807466D01*
X161818922Y-84807762D01*
X161139812Y-85090088D01*
X161135306Y-85090984D01*
X160401063Y-85090017D01*
X160392794Y-85086579D01*
X160389378Y-85078302D01*
X160389506Y-85076595D01*
X160599012Y-83676758D01*
X160603626Y-83669084D01*
X160608821Y-83666925D01*
X161219591Y-83574107D01*
X161228285Y-83576252D01*
G37*
G04 #@! TD.AperFunction*
G04 #@! TA.AperFunction,Conductor*
G36*
X161150164Y-84341079D02*
G01*
X162510453Y-84457022D01*
X162518405Y-84461139D01*
X162520880Y-84466142D01*
X162654897Y-85069218D01*
X162653347Y-85078037D01*
X162649288Y-85081910D01*
X161436033Y-85776316D01*
X161427150Y-85777452D01*
X161420067Y-85771974D01*
X161419420Y-85770661D01*
X161137423Y-85092378D01*
X161136527Y-85087871D01*
X161137342Y-84461139D01*
X161137483Y-84352721D01*
X161140921Y-84344454D01*
X161149198Y-84341038D01*
X161150164Y-84341079D01*
G37*
G04 #@! TD.AperFunction*
G04 #@! TA.AperFunction,Conductor*
G36*
X166162052Y-83377019D02*
G01*
X166848755Y-83816761D01*
X166853875Y-83824108D01*
X166854078Y-83825357D01*
X166915606Y-84394652D01*
X166913088Y-84403245D01*
X166905231Y-84407541D01*
X166904073Y-84407609D01*
X165632332Y-84418416D01*
X165624030Y-84415059D01*
X165620812Y-84409254D01*
X165617567Y-84394652D01*
X165486896Y-83806634D01*
X165488446Y-83797816D01*
X165492045Y-83794220D01*
X166149474Y-83376992D01*
X166158295Y-83375454D01*
X166162052Y-83377019D01*
G37*
G04 #@! TD.AperFunction*
G04 #@! TA.AperFunction,Conductor*
G36*
X156885510Y-83707993D02*
G01*
X157384175Y-84072667D01*
X157388831Y-84080317D01*
X157388349Y-84085869D01*
X156954418Y-85365195D01*
X156948515Y-85371929D01*
X156939580Y-85372517D01*
X156938875Y-85372252D01*
X156259076Y-85091701D01*
X156255255Y-85089148D01*
X155736718Y-84569243D01*
X155733303Y-84560968D01*
X155736741Y-84552699D01*
X155738012Y-84551601D01*
X156871621Y-83708050D01*
X156880302Y-83705861D01*
X156885510Y-83707993D01*
G37*
G04 #@! TD.AperFunction*
G04 #@! TA.AperFunction,Conductor*
G36*
X156252971Y-84344035D02*
G01*
X156257422Y-84351805D01*
X156257517Y-84353278D01*
X156258480Y-85087828D01*
X156257584Y-85092334D01*
X155975369Y-85771165D01*
X155969028Y-85777489D01*
X155960074Y-85777478D01*
X155959190Y-85777066D01*
X154746843Y-85149984D01*
X154741069Y-85143139D01*
X154740694Y-85137574D01*
X154847427Y-84529073D01*
X154852232Y-84521517D01*
X154857462Y-84519490D01*
X156244330Y-84341688D01*
X156252971Y-84344035D01*
G37*
G04 #@! TD.AperFunction*
G04 #@! TA.AperFunction,Conductor*
G36*
X151025075Y-83578358D02*
G01*
X151693927Y-83964348D01*
X151699380Y-83971452D01*
X151699603Y-83976503D01*
X151592910Y-84584782D01*
X151588105Y-84592339D01*
X151582082Y-84594440D01*
X150823503Y-84639642D01*
X150815041Y-84636714D01*
X150813715Y-84635327D01*
X150349385Y-84062043D01*
X150346841Y-84053457D01*
X150351113Y-84045587D01*
X150351708Y-84045136D01*
X151012483Y-83578931D01*
X151021218Y-83576963D01*
X151025075Y-83578358D01*
G37*
G04 #@! TD.AperFunction*
G04 #@! TA.AperFunction,Conductor*
G36*
X150787640Y-66439039D02*
G01*
X150791424Y-66441587D01*
X151116967Y-66769469D01*
X151225914Y-66879198D01*
X151229311Y-66887483D01*
X151226694Y-66894816D01*
X150589849Y-67679120D01*
X150581974Y-67683383D01*
X150577594Y-67683007D01*
X149865360Y-67482413D01*
X149858326Y-67476872D01*
X149857381Y-67474693D01*
X149675700Y-66902775D01*
X149676461Y-66893855D01*
X149682410Y-66888410D01*
X150778687Y-66439006D01*
X150787640Y-66439039D01*
G37*
G04 #@! TD.AperFunction*
G04 #@! TA.AperFunction,Conductor*
G36*
X141887338Y-85128306D02*
G01*
X142527932Y-85404453D01*
X142534172Y-85410875D01*
X142535000Y-85415197D01*
X142535000Y-86034802D01*
X142531573Y-86043075D01*
X142527932Y-86045546D01*
X141887338Y-86321693D01*
X141878384Y-86321821D01*
X141874050Y-86318821D01*
X141341159Y-85732872D01*
X141338128Y-85724446D01*
X141341159Y-85717128D01*
X141874050Y-85131178D01*
X141882152Y-85127363D01*
X141887338Y-85128306D01*
G37*
G04 #@! TD.AperFunction*
G04 #@! TA.AperFunction,Conductor*
G36*
X143799077Y-84897673D02*
G01*
X143804836Y-84903741D01*
X144144135Y-85720512D01*
X144144144Y-85729466D01*
X144144135Y-85729488D01*
X143804836Y-86546258D01*
X143798497Y-86552584D01*
X143790135Y-86552802D01*
X142352804Y-86045255D01*
X142346144Y-86039269D01*
X142345000Y-86034223D01*
X142345000Y-85415776D01*
X142348427Y-85407503D01*
X142352803Y-85404744D01*
X143790137Y-84897197D01*
X143799077Y-84897673D01*
G37*
G04 #@! TD.AperFunction*
G04 #@! TA.AperFunction,Conductor*
G36*
X156857633Y-67565052D02*
G01*
X157596272Y-67626606D01*
X157604232Y-67630708D01*
X157607000Y-67638266D01*
X157607000Y-68251734D01*
X157603573Y-68260007D01*
X157596272Y-68263394D01*
X156857638Y-68324946D01*
X156849108Y-68322218D01*
X156845006Y-68314258D01*
X156844966Y-68313334D01*
X156844000Y-67945000D01*
X156844966Y-67576680D01*
X156848415Y-67568418D01*
X156856697Y-67565013D01*
X156857633Y-67565052D01*
G37*
G04 #@! TD.AperFunction*
G04 #@! TA.AperFunction,Conductor*
G36*
X135340607Y-73507197D02*
G01*
X135979294Y-73987354D01*
X135983847Y-73995065D01*
X135983416Y-74000241D01*
X135796925Y-74588674D01*
X135791159Y-74595525D01*
X135784688Y-74596789D01*
X134541488Y-74481149D01*
X134533568Y-74476970D01*
X134530922Y-74468415D01*
X134531002Y-74467762D01*
X134618170Y-73897930D01*
X134622807Y-73890272D01*
X134624134Y-73889428D01*
X135327982Y-73506272D01*
X135336887Y-73505327D01*
X135340607Y-73507197D01*
G37*
G04 #@! TD.AperFunction*
G04 #@! TA.AperFunction,Conductor*
G36*
X136022396Y-73939885D02*
G01*
X136029679Y-73945096D01*
X136031143Y-73953930D01*
X136030568Y-73955730D01*
X135890976Y-74295245D01*
X135890953Y-74295302D01*
X135748690Y-74636230D01*
X135742341Y-74642545D01*
X135733417Y-74642535D01*
X135082398Y-74373073D01*
X135076065Y-74366742D01*
X135075720Y-74358729D01*
X135261053Y-73773950D01*
X135266819Y-73767100D01*
X135274855Y-73766090D01*
X136022396Y-73939885D01*
G37*
G04 #@! TD.AperFunction*
G04 #@! TA.AperFunction,Conductor*
G36*
X144776534Y-79632456D02*
G01*
X144780030Y-79640700D01*
X144780030Y-79640767D01*
X144780997Y-80010077D01*
X144780997Y-80010139D01*
X144780035Y-80377349D01*
X144776586Y-80385613D01*
X144768304Y-80389018D01*
X144766515Y-80388876D01*
X144011124Y-80269916D01*
X144003485Y-80265243D01*
X144001279Y-80257457D01*
X144020381Y-80010139D01*
X144048519Y-79645828D01*
X144052571Y-79637846D01*
X144060084Y-79635032D01*
X144768233Y-79629098D01*
X144776534Y-79632456D01*
G37*
G04 #@! TD.AperFunction*
G04 #@! TA.AperFunction,Conductor*
G36*
X130349101Y-74446707D02*
G01*
X131387090Y-75141090D01*
X131392061Y-75148538D01*
X131391454Y-75155145D01*
X130928748Y-76316227D01*
X130922502Y-76322644D01*
X130915153Y-76323274D01*
X130179527Y-76147048D01*
X130172281Y-76141789D01*
X130171970Y-76141251D01*
X129745283Y-75351162D01*
X129744367Y-75342254D01*
X129745814Y-75339155D01*
X129867313Y-75155145D01*
X130332893Y-74450024D01*
X130340311Y-74445009D01*
X130349101Y-74446707D01*
G37*
G04 #@! TD.AperFunction*
G04 #@! TA.AperFunction,Conductor*
G36*
X131766926Y-80324869D02*
G01*
X131773729Y-80330689D01*
X131775000Y-80335992D01*
X131775000Y-80954007D01*
X131771573Y-80962280D01*
X131766925Y-80965131D01*
X130491427Y-81380754D01*
X130482499Y-81380059D01*
X130476998Y-81374120D01*
X130471123Y-81359984D01*
X130175864Y-80649487D01*
X130175854Y-80640538D01*
X130476998Y-79915878D01*
X130483337Y-79909554D01*
X130491424Y-79909245D01*
X131766926Y-80324869D01*
G37*
G04 #@! TD.AperFunction*
G04 #@! TA.AperFunction,Conductor*
G36*
X146673873Y-80898482D02*
G01*
X146681977Y-80902289D01*
X146685028Y-80910139D01*
X146685984Y-81277772D01*
X146685082Y-81282307D01*
X146542931Y-81623049D01*
X146536583Y-81629365D01*
X146529712Y-81629991D01*
X146024421Y-81523114D01*
X145905002Y-81497854D01*
X145897618Y-81492790D01*
X145895825Y-81484875D01*
X145976327Y-80876756D01*
X145980810Y-80869005D01*
X145988469Y-80866605D01*
X146673873Y-80898482D01*
G37*
G04 #@! TD.AperFunction*
G04 #@! TA.AperFunction,Conductor*
G36*
X131183584Y-78144455D02*
G01*
X131768738Y-78343183D01*
X131775470Y-78349089D01*
X131776675Y-78354397D01*
X131769563Y-78972375D01*
X131766041Y-78980608D01*
X131761359Y-78983406D01*
X130491345Y-79380912D01*
X130482426Y-79380113D01*
X130477046Y-79374236D01*
X130314633Y-78983406D01*
X130175865Y-78649476D01*
X130175855Y-78640527D01*
X130476946Y-77916003D01*
X130483284Y-77909680D01*
X130491511Y-77909416D01*
X131183584Y-78144455D01*
G37*
G04 #@! TD.AperFunction*
G04 #@! TA.AperFunction,Conductor*
G36*
X140345768Y-80781751D02*
G01*
X140350458Y-80788378D01*
X140509108Y-81380927D01*
X140507937Y-81389805D01*
X140501782Y-81394957D01*
X139856283Y-81628210D01*
X139847338Y-81627798D01*
X139841510Y-81621712D01*
X139699941Y-81282429D01*
X139699040Y-81277903D01*
X139699975Y-80908688D01*
X139703423Y-80900426D01*
X139709524Y-80897219D01*
X140337006Y-80779903D01*
X140345768Y-80781751D01*
G37*
G04 #@! TD.AperFunction*
G04 #@! TA.AperFunction,Conductor*
G36*
X139650739Y-80469608D02*
G01*
X140044983Y-81122579D01*
X140046325Y-81131432D01*
X140041014Y-81138642D01*
X140039473Y-81139424D01*
X139700447Y-81280894D01*
X139700390Y-81280917D01*
X139358951Y-81421299D01*
X139349996Y-81421276D01*
X139343681Y-81414927D01*
X139343629Y-81414799D01*
X139081160Y-80754320D01*
X139081289Y-80745368D01*
X139086800Y-80739536D01*
X139635493Y-80465189D01*
X139644423Y-80464555D01*
X139650739Y-80469608D01*
G37*
G04 #@! TD.AperFunction*
G04 #@! TA.AperFunction,Conductor*
G36*
X179065891Y-71377781D02*
G01*
X179069993Y-71385741D01*
X179070033Y-71386682D01*
X179071000Y-71755000D01*
X179071000Y-71755062D01*
X179070033Y-72123317D01*
X179066584Y-72131581D01*
X179058302Y-72134986D01*
X179057361Y-72134946D01*
X178318728Y-72073394D01*
X178310768Y-72069292D01*
X178308000Y-72061734D01*
X178308000Y-71448266D01*
X178311427Y-71439993D01*
X178318728Y-71436606D01*
X179057361Y-71375053D01*
X179065891Y-71377781D01*
G37*
G04 #@! TD.AperFunction*
G04 #@! TA.AperFunction,Conductor*
G36*
X179065891Y-70107781D02*
G01*
X179069993Y-70115741D01*
X179070033Y-70116682D01*
X179071000Y-70485000D01*
X179071000Y-70485062D01*
X179070033Y-70853317D01*
X179066584Y-70861581D01*
X179058302Y-70864986D01*
X179057361Y-70864946D01*
X178318728Y-70803394D01*
X178310768Y-70799292D01*
X178308000Y-70791734D01*
X178308000Y-70178266D01*
X178311427Y-70169993D01*
X178318728Y-70166606D01*
X179057361Y-70105053D01*
X179065891Y-70107781D01*
G37*
G04 #@! TD.AperFunction*
G04 #@! TA.AperFunction,Conductor*
G36*
X147328521Y-67408623D02*
G01*
X147335930Y-67412335D01*
X148012545Y-67751266D01*
X148018407Y-67758035D01*
X148018904Y-67763264D01*
X147954106Y-68252200D01*
X147949622Y-68259951D01*
X147948030Y-68260977D01*
X147401597Y-68553564D01*
X147392686Y-68554449D01*
X147387383Y-68551083D01*
X146901419Y-68011945D01*
X146898426Y-68003506D01*
X146900553Y-67997362D01*
X147313725Y-67412334D01*
X147321297Y-67407555D01*
X147328521Y-67408623D01*
G37*
G04 #@! TD.AperFunction*
G04 #@! TA.AperFunction,Conductor*
G36*
X159380891Y-68837781D02*
G01*
X159384993Y-68845741D01*
X159385033Y-68846682D01*
X159386000Y-69215000D01*
X159386000Y-69215062D01*
X159385033Y-69583317D01*
X159381584Y-69591581D01*
X159373302Y-69594986D01*
X159372361Y-69594946D01*
X158633728Y-69533394D01*
X158625768Y-69529292D01*
X158623000Y-69521734D01*
X158623000Y-68908266D01*
X158626427Y-68899993D01*
X158633728Y-68896606D01*
X159372361Y-68835053D01*
X159380891Y-68837781D01*
G37*
G04 #@! TD.AperFunction*
G04 #@! TA.AperFunction,Conductor*
G36*
X175272633Y-73915052D02*
G01*
X176011272Y-73976606D01*
X176019232Y-73980708D01*
X176022000Y-73988266D01*
X176022000Y-74601734D01*
X176018573Y-74610007D01*
X176011272Y-74613394D01*
X175272638Y-74674946D01*
X175264108Y-74672218D01*
X175260006Y-74664258D01*
X175259966Y-74663334D01*
X175259000Y-74295000D01*
X175259966Y-73926680D01*
X175263415Y-73918418D01*
X175271697Y-73915013D01*
X175272633Y-73915052D01*
G37*
G04 #@! TD.AperFunction*
G04 #@! TA.AperFunction,Conductor*
G36*
X146697633Y-75185052D02*
G01*
X147436272Y-75246606D01*
X147444232Y-75250708D01*
X147447000Y-75258266D01*
X147447000Y-75871734D01*
X147443573Y-75880007D01*
X147436272Y-75883394D01*
X146697638Y-75944946D01*
X146689108Y-75942218D01*
X146685006Y-75934258D01*
X146684966Y-75933334D01*
X146684000Y-75565000D01*
X146684966Y-75196680D01*
X146688415Y-75188418D01*
X146696697Y-75185013D01*
X146697633Y-75185052D01*
G37*
G04 #@! TD.AperFunction*
G04 #@! TA.AperFunction,Conductor*
G36*
X146680891Y-75187781D02*
G01*
X146684993Y-75195741D01*
X146685033Y-75196682D01*
X146686000Y-75565000D01*
X146686000Y-75565062D01*
X146685033Y-75933317D01*
X146681584Y-75941581D01*
X146673302Y-75944986D01*
X146672361Y-75944946D01*
X145933728Y-75883394D01*
X145925768Y-75879292D01*
X145923000Y-75871734D01*
X145923000Y-75258266D01*
X145926427Y-75249993D01*
X145933728Y-75246606D01*
X146672361Y-75185053D01*
X146680891Y-75187781D01*
G37*
G04 #@! TD.AperFunction*
G04 #@! TA.AperFunction,Conductor*
G36*
X145427633Y-76455052D02*
G01*
X146166272Y-76516606D01*
X146174232Y-76520708D01*
X146177000Y-76528266D01*
X146177000Y-77141734D01*
X146173573Y-77150007D01*
X146166272Y-77153394D01*
X145427638Y-77214946D01*
X145419108Y-77212218D01*
X145415006Y-77204258D01*
X145414966Y-77203334D01*
X145414000Y-76835000D01*
X145414966Y-76466680D01*
X145418415Y-76458418D01*
X145426697Y-76455013D01*
X145427633Y-76455052D01*
G37*
G04 #@! TD.AperFunction*
G04 #@! TA.AperFunction,Conductor*
G36*
X141318318Y-77964415D02*
G01*
X141324633Y-77970764D01*
X141325188Y-77972481D01*
X141503830Y-78716303D01*
X141502430Y-78725147D01*
X141496076Y-78730160D01*
X140912765Y-78920075D01*
X140903838Y-78919378D01*
X140898368Y-78913509D01*
X140820800Y-78730160D01*
X140622582Y-78261630D01*
X140622515Y-78252676D01*
X140628799Y-78246297D01*
X140628819Y-78246287D01*
X140969691Y-78104050D01*
X140969695Y-78104060D01*
X140969742Y-78104028D01*
X141309365Y-77964392D01*
X141318318Y-77964415D01*
G37*
G04 #@! TD.AperFunction*
G04 #@! TA.AperFunction,Conductor*
G36*
X149872633Y-63755052D02*
G01*
X150611272Y-63816606D01*
X150619232Y-63820708D01*
X150622000Y-63828266D01*
X150622000Y-64441734D01*
X150618573Y-64450007D01*
X150611272Y-64453394D01*
X149872638Y-64514946D01*
X149864108Y-64512218D01*
X149860006Y-64504258D01*
X149859966Y-64503334D01*
X149859000Y-64135000D01*
X149859966Y-63766680D01*
X149863415Y-63758418D01*
X149871697Y-63755013D01*
X149872633Y-63755052D01*
G37*
G04 #@! TD.AperFunction*
G04 #@! TA.AperFunction,Conductor*
G36*
X166365891Y-66297781D02*
G01*
X166369993Y-66305741D01*
X166370033Y-66306682D01*
X166371000Y-66675000D01*
X166371000Y-66675062D01*
X166370033Y-67043317D01*
X166366584Y-67051581D01*
X166358302Y-67054986D01*
X166357361Y-67054946D01*
X165618728Y-66993394D01*
X165610768Y-66989292D01*
X165608000Y-66981734D01*
X165608000Y-66368266D01*
X165611427Y-66359993D01*
X165618728Y-66356606D01*
X166357361Y-66295053D01*
X166365891Y-66297781D01*
G37*
G04 #@! TD.AperFunction*
G04 #@! TA.AperFunction,Conductor*
G36*
X172417475Y-77991250D02*
G01*
X172425626Y-77994957D01*
X172428761Y-78002353D01*
X172465381Y-78727742D01*
X172462376Y-78736178D01*
X172454286Y-78740017D01*
X172453727Y-78740032D01*
X172084997Y-78740998D01*
X172084935Y-78740998D01*
X171717105Y-78740034D01*
X171708841Y-78736585D01*
X171705436Y-78728303D01*
X171705513Y-78726992D01*
X171792344Y-77980670D01*
X171796704Y-77972849D01*
X171804363Y-77970330D01*
X172417475Y-77991250D01*
G37*
G04 #@! TD.AperFunction*
G04 #@! TA.AperFunction,Conductor*
G36*
X177454019Y-77973473D02*
G01*
X177457655Y-77980671D01*
X177544485Y-78726982D01*
X177542037Y-78735596D01*
X177534215Y-78739956D01*
X177532894Y-78740034D01*
X177165064Y-78740998D01*
X177165002Y-78740998D01*
X176796272Y-78740032D01*
X176788008Y-78736583D01*
X176784603Y-78728301D01*
X176784617Y-78727776D01*
X176821239Y-78002350D01*
X176825077Y-77994263D01*
X176832522Y-77991250D01*
X177445635Y-77970330D01*
X177454019Y-77973473D01*
G37*
G04 #@! TD.AperFunction*
G04 #@! TA.AperFunction,Conductor*
G36*
X159374728Y-71372760D02*
G01*
X159382531Y-71377154D01*
X159385026Y-71384346D01*
X159385972Y-71752841D01*
X159385070Y-71757376D01*
X159243231Y-72097331D01*
X159236883Y-72103647D01*
X159229145Y-72104054D01*
X158592276Y-71917559D01*
X158585299Y-71911946D01*
X158584102Y-71903985D01*
X158707253Y-71303018D01*
X158712271Y-71295602D01*
X158720115Y-71293752D01*
X159374728Y-71372760D01*
G37*
G04 #@! TD.AperFunction*
G04 #@! TA.AperFunction,Conductor*
G36*
X174002633Y-72645052D02*
G01*
X174741272Y-72706606D01*
X174749232Y-72710708D01*
X174752000Y-72718266D01*
X174752000Y-73331734D01*
X174748573Y-73340007D01*
X174741272Y-73343394D01*
X174002638Y-73404946D01*
X173994108Y-73402218D01*
X173990006Y-73394258D01*
X173989966Y-73393334D01*
X173989000Y-73025000D01*
X173989966Y-72656680D01*
X173993415Y-72648418D01*
X174001697Y-72645013D01*
X174002633Y-72645052D01*
G37*
G04 #@! TD.AperFunction*
G04 #@! TA.AperFunction,Conductor*
G36*
X173985891Y-75187781D02*
G01*
X173989993Y-75195741D01*
X173990033Y-75196682D01*
X173991000Y-75565000D01*
X173991000Y-75565062D01*
X173990033Y-75933317D01*
X173986584Y-75941581D01*
X173978302Y-75944986D01*
X173977361Y-75944946D01*
X173238728Y-75883394D01*
X173230768Y-75879292D01*
X173228000Y-75871734D01*
X173228000Y-75258266D01*
X173231427Y-75249993D01*
X173238728Y-75246606D01*
X173977361Y-75185053D01*
X173985891Y-75187781D01*
G37*
G04 #@! TD.AperFunction*
M02*
