G04 #@! TF.GenerationSoftware,KiCad,Pcbnew,8.0.3+1*
G04 #@! TF.CreationDate,2024-07-17T12:21:26-06:00*
G04 #@! TF.ProjectId,CH375_Serial,43483337-355f-4536-9572-69616c2e6b69,rev?*
G04 #@! TF.SameCoordinates,Original*
G04 #@! TF.FileFunction,Paste,Top*
G04 #@! TF.FilePolarity,Positive*
%FSLAX46Y46*%
G04 Gerber Fmt 4.6, Leading zero omitted, Abs format (unit mm)*
G04 Created by KiCad (PCBNEW 8.0.3+1) date 2024-07-17 12:21:26*
%MOMM*%
%LPD*%
G01*
G04 APERTURE LIST*
G04 Aperture macros list*
%AMRoundRect*
0 Rectangle with rounded corners*
0 $1 Rounding radius*
0 $2 $3 $4 $5 $6 $7 $8 $9 X,Y pos of 4 corners*
0 Add a 4 corners polygon primitive as box body*
4,1,4,$2,$3,$4,$5,$6,$7,$8,$9,$2,$3,0*
0 Add four circle primitives for the rounded corners*
1,1,$1+$1,$2,$3*
1,1,$1+$1,$4,$5*
1,1,$1+$1,$6,$7*
1,1,$1+$1,$8,$9*
0 Add four rect primitives between the rounded corners*
20,1,$1+$1,$2,$3,$4,$5,0*
20,1,$1+$1,$4,$5,$6,$7,0*
20,1,$1+$1,$6,$7,$8,$9,0*
20,1,$1+$1,$8,$9,$2,$3,0*%
G04 Aperture macros list end*
%ADD10RoundRect,0.250000X-1.500000X-0.550000X1.500000X-0.550000X1.500000X0.550000X-1.500000X0.550000X0*%
%ADD11RoundRect,0.250000X-0.475000X0.337500X-0.475000X-0.337500X0.475000X-0.337500X0.475000X0.337500X0*%
%ADD12RoundRect,0.250000X0.475000X-0.337500X0.475000X0.337500X-0.475000X0.337500X-0.475000X-0.337500X0*%
%ADD13RoundRect,0.150000X-0.825000X-0.150000X0.825000X-0.150000X0.825000X0.150000X-0.825000X0.150000X0*%
%ADD14RoundRect,0.250000X-0.337500X-0.475000X0.337500X-0.475000X0.337500X0.475000X-0.337500X0.475000X0*%
%ADD15RoundRect,0.150000X-0.650000X-0.150000X0.650000X-0.150000X0.650000X0.150000X-0.650000X0.150000X0*%
%ADD16RoundRect,0.250000X0.450000X-0.350000X0.450000X0.350000X-0.450000X0.350000X-0.450000X-0.350000X0*%
%ADD17RoundRect,0.150000X-0.987500X-0.150000X0.987500X-0.150000X0.987500X0.150000X-0.987500X0.150000X0*%
%ADD18RoundRect,0.250000X0.350000X0.450000X-0.350000X0.450000X-0.350000X-0.450000X0.350000X-0.450000X0*%
%ADD19RoundRect,0.250000X-0.450000X0.325000X-0.450000X-0.325000X0.450000X-0.325000X0.450000X0.325000X0*%
%ADD20RoundRect,0.250000X-0.450000X0.350000X-0.450000X-0.350000X0.450000X-0.350000X0.450000X0.350000X0*%
G04 APERTURE END LIST*
D10*
X138805000Y-73660000D03*
X144405000Y-73660000D03*
X138965000Y-62865000D03*
X144565000Y-62865000D03*
D11*
X150342500Y-84052500D03*
X150342500Y-86127500D03*
D12*
X166852500Y-85895000D03*
X166852500Y-83820000D03*
D13*
X172150000Y-67945000D03*
X172150000Y-69215000D03*
X172150000Y-70485000D03*
X172150000Y-71755000D03*
X172150000Y-73025000D03*
X172150000Y-74295000D03*
X172150000Y-75565000D03*
X172150000Y-76835000D03*
X177100000Y-76835000D03*
X177100000Y-75565000D03*
X177100000Y-74295000D03*
X177100000Y-73025000D03*
X177100000Y-71755000D03*
X177100000Y-70485000D03*
X177100000Y-69215000D03*
X177100000Y-67945000D03*
D12*
X168275000Y-74465000D03*
X168275000Y-72390000D03*
X168275000Y-79142500D03*
X168275000Y-77067500D03*
D11*
X149860000Y-65405000D03*
X149860000Y-67480000D03*
D14*
X153035000Y-60960000D03*
X155110000Y-60960000D03*
D11*
X134620000Y-73892500D03*
X134620000Y-75967500D03*
D15*
X141250000Y-78965000D03*
X141250000Y-79915000D03*
X141250000Y-80865000D03*
X143550000Y-80865000D03*
X143550000Y-79915000D03*
X143550000Y-78965000D03*
D14*
X175725000Y-64135000D03*
X177800000Y-64135000D03*
D12*
X168275000Y-70020000D03*
X168275000Y-67945000D03*
D14*
X170412500Y-64135000D03*
X172487500Y-64135000D03*
D16*
X147320000Y-67405000D03*
X147320000Y-65405000D03*
D17*
X153187500Y-64135000D03*
X153187500Y-65405000D03*
X153187500Y-66675000D03*
X153187500Y-67945000D03*
X153187500Y-69215000D03*
X153187500Y-70485000D03*
X153187500Y-71755000D03*
X153187500Y-73025000D03*
X153187500Y-74295000D03*
X153187500Y-75565000D03*
X153187500Y-76835000D03*
X153187500Y-78105000D03*
X153187500Y-79375000D03*
X153187500Y-80645000D03*
X164312500Y-80645000D03*
X164312500Y-79375000D03*
X164312500Y-78105000D03*
X164312500Y-76835000D03*
X164312500Y-75565000D03*
X164312500Y-74295000D03*
X164312500Y-73025000D03*
X164312500Y-71755000D03*
X164312500Y-70485000D03*
X164312500Y-69215000D03*
X164312500Y-67945000D03*
X164312500Y-66675000D03*
X164312500Y-65405000D03*
X164312500Y-64135000D03*
D18*
X141335000Y-85725000D03*
X139335000Y-85725000D03*
D19*
X137160000Y-67301000D03*
X137160000Y-69351000D03*
D20*
X134620000Y-69485000D03*
X134620000Y-71485000D03*
D14*
X162560000Y-60960000D03*
X164635000Y-60960000D03*
M02*
