G04 #@! TF.GenerationSoftware,KiCad,Pcbnew,8.0.3+1*
G04 #@! TF.CreationDate,2024-07-17T12:21:26-06:00*
G04 #@! TF.ProjectId,CH375_Serial,43483337-355f-4536-9572-69616c2e6b69,rev?*
G04 #@! TF.SameCoordinates,Original*
G04 #@! TF.FileFunction,Legend,Top*
G04 #@! TF.FilePolarity,Positive*
%FSLAX46Y46*%
G04 Gerber Fmt 4.6, Leading zero omitted, Abs format (unit mm)*
G04 Created by KiCad (PCBNEW 8.0.3+1) date 2024-07-17 12:21:26*
%MOMM*%
%LPD*%
G01*
G04 APERTURE LIST*
G04 Aperture macros list*
%AMRoundRect*
0 Rectangle with rounded corners*
0 $1 Rounding radius*
0 $2 $3 $4 $5 $6 $7 $8 $9 X,Y pos of 4 corners*
0 Add a 4 corners polygon primitive as box body*
4,1,4,$2,$3,$4,$5,$6,$7,$8,$9,$2,$3,0*
0 Add four circle primitives for the rounded corners*
1,1,$1+$1,$2,$3*
1,1,$1+$1,$4,$5*
1,1,$1+$1,$6,$7*
1,1,$1+$1,$8,$9*
0 Add four rect primitives between the rounded corners*
20,1,$1+$1,$2,$3,$4,$5,0*
20,1,$1+$1,$4,$5,$6,$7,0*
20,1,$1+$1,$6,$7,$8,$9,0*
20,1,$1+$1,$8,$9,$2,$3,0*%
%AMFreePoly0*
4,1,19,0.500000,-0.750000,0.000000,-0.750000,0.000000,-0.744911,-0.071157,-0.744911,-0.207708,-0.704816,-0.327430,-0.627875,-0.420627,-0.520320,-0.479746,-0.390866,-0.500000,-0.250000,-0.500000,0.250000,-0.479746,0.390866,-0.420627,0.520320,-0.327430,0.627875,-0.207708,0.704816,-0.071157,0.744911,0.000000,0.744911,0.000000,0.750000,0.500000,0.750000,0.500000,-0.750000,0.500000,-0.750000,
$1*%
%AMFreePoly1*
4,1,19,0.000000,0.744911,0.071157,0.744911,0.207708,0.704816,0.327430,0.627875,0.420627,0.520320,0.479746,0.390866,0.500000,0.250000,0.500000,-0.250000,0.479746,-0.390866,0.420627,-0.520320,0.327430,-0.627875,0.207708,-0.704816,0.071157,-0.744911,0.000000,-0.744911,0.000000,-0.750000,-0.500000,-0.750000,-0.500000,0.750000,0.000000,0.750000,0.000000,0.744911,0.000000,0.744911,
$1*%
G04 Aperture macros list end*
%ADD10C,0.685000*%
%ADD11C,0.203200*%
%ADD12C,0.100000*%
%ADD13C,0.152400*%
%ADD14C,0.150000*%
%ADD15C,0.120000*%
%ADD16RoundRect,0.250000X-1.500000X-0.550000X1.500000X-0.550000X1.500000X0.550000X-1.500000X0.550000X0*%
%ADD17RoundRect,0.250000X-0.475000X0.337500X-0.475000X-0.337500X0.475000X-0.337500X0.475000X0.337500X0*%
%ADD18RoundRect,0.250000X0.475000X-0.337500X0.475000X0.337500X-0.475000X0.337500X-0.475000X-0.337500X0*%
%ADD19RoundRect,0.150000X-0.825000X-0.150000X0.825000X-0.150000X0.825000X0.150000X-0.825000X0.150000X0*%
%ADD20R,3.500000X3.500000*%
%ADD21RoundRect,0.750000X-1.000000X0.750000X-1.000000X-0.750000X1.000000X-0.750000X1.000000X0.750000X0*%
%ADD22RoundRect,0.875000X-0.875000X0.875000X-0.875000X-0.875000X0.875000X-0.875000X0.875000X0.875000X0*%
%ADD23C,4.000000*%
%ADD24R,1.600000X1.600000*%
%ADD25C,1.600000*%
%ADD26C,1.500000*%
%ADD27RoundRect,0.250000X-0.337500X-0.475000X0.337500X-0.475000X0.337500X0.475000X-0.337500X0.475000X0*%
%ADD28C,2.200000*%
%ADD29R,1.800000X1.800000*%
%ADD30C,1.800000*%
%ADD31RoundRect,0.150000X-0.650000X-0.150000X0.650000X-0.150000X0.650000X0.150000X-0.650000X0.150000X0*%
%ADD32FreePoly0,270.000000*%
%ADD33FreePoly1,270.000000*%
%ADD34RoundRect,0.250000X0.450000X-0.350000X0.450000X0.350000X-0.450000X0.350000X-0.450000X-0.350000X0*%
%ADD35RoundRect,0.150000X-0.987500X-0.150000X0.987500X-0.150000X0.987500X0.150000X-0.987500X0.150000X0*%
%ADD36RoundRect,0.250000X0.350000X0.450000X-0.350000X0.450000X-0.350000X-0.450000X0.350000X-0.450000X0*%
%ADD37RoundRect,0.250000X-0.450000X0.325000X-0.450000X-0.325000X0.450000X-0.325000X0.450000X0.325000X0*%
%ADD38RoundRect,0.250000X-0.450000X0.350000X-0.450000X-0.350000X0.450000X-0.350000X0.450000X0.350000X0*%
%ADD39R,1.500000X1.600000*%
%ADD40C,3.000000*%
G04 APERTURE END LIST*
D10*
X135216499Y-65150999D02*
G75*
G02*
X134531499Y-65150999I-342500J0D01*
G01*
X134531499Y-65150999D02*
G75*
G02*
X135216499Y-65150999I342500J0D01*
G01*
D11*
X135889998Y-64135000D02*
G75*
G02*
X133858000Y-64135000I-1015999J-1015999D01*
G01*
D12*
X179832000Y-72263000D02*
X179878000Y-72895000D01*
X133731000Y-63119000D02*
X134493000Y-63119000D01*
X134112000Y-63500000D02*
X134112000Y-62738000D01*
D11*
X134873999Y-66587839D02*
X134874000Y-68199000D01*
D12*
X133985000Y-67818000D02*
X133985000Y-67056000D01*
D11*
X134873999Y-65150999D02*
X134874000Y-62611000D01*
X134674429Y-58312165D02*
X134009191Y-58312165D01*
X134009191Y-58312165D02*
X133942667Y-58977403D01*
X133942667Y-58977403D02*
X134009191Y-58910880D01*
X134009191Y-58910880D02*
X134142238Y-58844356D01*
X134142238Y-58844356D02*
X134474857Y-58844356D01*
X134474857Y-58844356D02*
X134607905Y-58910880D01*
X134607905Y-58910880D02*
X134674429Y-58977403D01*
X134674429Y-58977403D02*
X134740952Y-59110451D01*
X134740952Y-59110451D02*
X134740952Y-59443070D01*
X134740952Y-59443070D02*
X134674429Y-59576118D01*
X134674429Y-59576118D02*
X134607905Y-59642642D01*
X134607905Y-59642642D02*
X134474857Y-59709165D01*
X134474857Y-59709165D02*
X134142238Y-59709165D01*
X134142238Y-59709165D02*
X134009191Y-59642642D01*
X134009191Y-59642642D02*
X133942667Y-59576118D01*
X135206619Y-58777832D02*
X135539238Y-59709165D01*
X135539238Y-59709165D02*
X135871857Y-58777832D01*
X133975928Y-61958257D02*
X133510262Y-61293019D01*
X133177643Y-61958257D02*
X133177643Y-60561257D01*
X133177643Y-60561257D02*
X133709833Y-60561257D01*
X133709833Y-60561257D02*
X133842881Y-60627781D01*
X133842881Y-60627781D02*
X133909404Y-60694305D01*
X133909404Y-60694305D02*
X133975928Y-60827353D01*
X133975928Y-60827353D02*
X133975928Y-61026924D01*
X133975928Y-61026924D02*
X133909404Y-61159972D01*
X133909404Y-61159972D02*
X133842881Y-61226495D01*
X133842881Y-61226495D02*
X133709833Y-61293019D01*
X133709833Y-61293019D02*
X133177643Y-61293019D01*
X134574643Y-61226495D02*
X135040309Y-61226495D01*
X135239881Y-61958257D02*
X134574643Y-61958257D01*
X134574643Y-61958257D02*
X134574643Y-60561257D01*
X134574643Y-60561257D02*
X135239881Y-60561257D01*
X136570356Y-60627781D02*
X136437309Y-60561257D01*
X136437309Y-60561257D02*
X136237737Y-60561257D01*
X136237737Y-60561257D02*
X136038166Y-60627781D01*
X136038166Y-60627781D02*
X135905118Y-60760829D01*
X135905118Y-60760829D02*
X135838595Y-60893876D01*
X135838595Y-60893876D02*
X135772071Y-61159972D01*
X135772071Y-61159972D02*
X135772071Y-61359543D01*
X135772071Y-61359543D02*
X135838595Y-61625638D01*
X135838595Y-61625638D02*
X135905118Y-61758686D01*
X135905118Y-61758686D02*
X136038166Y-61891734D01*
X136038166Y-61891734D02*
X136237737Y-61958257D01*
X136237737Y-61958257D02*
X136370785Y-61958257D01*
X136370785Y-61958257D02*
X136570356Y-61891734D01*
X136570356Y-61891734D02*
X136636880Y-61825210D01*
X136636880Y-61825210D02*
X136636880Y-61359543D01*
X136636880Y-61359543D02*
X136370785Y-61359543D01*
D13*
X180622455Y-71353213D02*
X180670075Y-71400832D01*
X180670075Y-71400832D02*
X180717694Y-71543689D01*
X180717694Y-71543689D02*
X180717694Y-71638927D01*
X180717694Y-71638927D02*
X180670075Y-71781784D01*
X180670075Y-71781784D02*
X180574836Y-71877022D01*
X180574836Y-71877022D02*
X180479598Y-71924641D01*
X180479598Y-71924641D02*
X180289122Y-71972260D01*
X180289122Y-71972260D02*
X180146265Y-71972260D01*
X180146265Y-71972260D02*
X179955789Y-71924641D01*
X179955789Y-71924641D02*
X179860551Y-71877022D01*
X179860551Y-71877022D02*
X179765313Y-71781784D01*
X179765313Y-71781784D02*
X179717694Y-71638927D01*
X179717694Y-71638927D02*
X179717694Y-71543689D01*
X179717694Y-71543689D02*
X179765313Y-71400832D01*
X179765313Y-71400832D02*
X179812932Y-71353213D01*
X179717694Y-71067498D02*
X179717694Y-70496070D01*
X180717694Y-70781784D02*
X179717694Y-70781784D01*
X180670075Y-70210355D02*
X180717694Y-70067498D01*
X180717694Y-70067498D02*
X180717694Y-69829403D01*
X180717694Y-69829403D02*
X180670075Y-69734165D01*
X180670075Y-69734165D02*
X180622455Y-69686546D01*
X180622455Y-69686546D02*
X180527217Y-69638927D01*
X180527217Y-69638927D02*
X180431979Y-69638927D01*
X180431979Y-69638927D02*
X180336741Y-69686546D01*
X180336741Y-69686546D02*
X180289122Y-69734165D01*
X180289122Y-69734165D02*
X180241503Y-69829403D01*
X180241503Y-69829403D02*
X180193884Y-70019879D01*
X180193884Y-70019879D02*
X180146265Y-70115117D01*
X180146265Y-70115117D02*
X180098646Y-70162736D01*
X180098646Y-70162736D02*
X180003408Y-70210355D01*
X180003408Y-70210355D02*
X179908170Y-70210355D01*
X179908170Y-70210355D02*
X179812932Y-70162736D01*
X179812932Y-70162736D02*
X179765313Y-70115117D01*
X179765313Y-70115117D02*
X179717694Y-70019879D01*
X179717694Y-70019879D02*
X179717694Y-69781784D01*
X179717694Y-69781784D02*
X179765313Y-69638927D01*
X179440075Y-72062737D02*
X179440075Y-69548451D01*
D11*
X163848779Y-88486056D02*
X163788303Y-88546533D01*
X163788303Y-88546533D02*
X163606874Y-88607009D01*
X163606874Y-88607009D02*
X163485922Y-88607009D01*
X163485922Y-88607009D02*
X163304493Y-88546533D01*
X163304493Y-88546533D02*
X163183541Y-88425580D01*
X163183541Y-88425580D02*
X163123064Y-88304628D01*
X163123064Y-88304628D02*
X163062588Y-88062723D01*
X163062588Y-88062723D02*
X163062588Y-87881294D01*
X163062588Y-87881294D02*
X163123064Y-87639390D01*
X163123064Y-87639390D02*
X163183541Y-87518437D01*
X163183541Y-87518437D02*
X163304493Y-87397485D01*
X163304493Y-87397485D02*
X163485922Y-87337009D01*
X163485922Y-87337009D02*
X163606874Y-87337009D01*
X163606874Y-87337009D02*
X163788303Y-87397485D01*
X163788303Y-87397485D02*
X163848779Y-87457961D01*
X164393064Y-88607009D02*
X164393064Y-87337009D01*
X164393064Y-87941771D02*
X165118779Y-87941771D01*
X165118779Y-88607009D02*
X165118779Y-87337009D01*
X165602588Y-87337009D02*
X166388779Y-87337009D01*
X166388779Y-87337009D02*
X165965445Y-87820818D01*
X165965445Y-87820818D02*
X166146874Y-87820818D01*
X166146874Y-87820818D02*
X166267826Y-87881294D01*
X166267826Y-87881294D02*
X166328302Y-87941771D01*
X166328302Y-87941771D02*
X166388779Y-88062723D01*
X166388779Y-88062723D02*
X166388779Y-88365104D01*
X166388779Y-88365104D02*
X166328302Y-88486056D01*
X166328302Y-88486056D02*
X166267826Y-88546533D01*
X166267826Y-88546533D02*
X166146874Y-88607009D01*
X166146874Y-88607009D02*
X165784017Y-88607009D01*
X165784017Y-88607009D02*
X165663064Y-88546533D01*
X165663064Y-88546533D02*
X165602588Y-88486056D01*
X166812112Y-87337009D02*
X167658779Y-87337009D01*
X167658779Y-87337009D02*
X167114493Y-88607009D01*
X168747350Y-87337009D02*
X168142588Y-87337009D01*
X168142588Y-87337009D02*
X168082112Y-87941771D01*
X168082112Y-87941771D02*
X168142588Y-87881294D01*
X168142588Y-87881294D02*
X168263541Y-87820818D01*
X168263541Y-87820818D02*
X168565922Y-87820818D01*
X168565922Y-87820818D02*
X168686874Y-87881294D01*
X168686874Y-87881294D02*
X168747350Y-87941771D01*
X168747350Y-87941771D02*
X168807827Y-88062723D01*
X168807827Y-88062723D02*
X168807827Y-88365104D01*
X168807827Y-88365104D02*
X168747350Y-88486056D01*
X168747350Y-88486056D02*
X168686874Y-88546533D01*
X168686874Y-88546533D02*
X168565922Y-88607009D01*
X168565922Y-88607009D02*
X168263541Y-88607009D01*
X168263541Y-88607009D02*
X168142588Y-88546533D01*
X168142588Y-88546533D02*
X168082112Y-88486056D01*
X170501160Y-88607009D02*
X170380208Y-88546533D01*
X170380208Y-88546533D02*
X170319731Y-88486056D01*
X170319731Y-88486056D02*
X170259255Y-88365104D01*
X170259255Y-88365104D02*
X170259255Y-88002247D01*
X170259255Y-88002247D02*
X170319731Y-87881294D01*
X170319731Y-87881294D02*
X170380208Y-87820818D01*
X170380208Y-87820818D02*
X170501160Y-87760342D01*
X170501160Y-87760342D02*
X170682589Y-87760342D01*
X170682589Y-87760342D02*
X170803541Y-87820818D01*
X170803541Y-87820818D02*
X170864017Y-87881294D01*
X170864017Y-87881294D02*
X170924493Y-88002247D01*
X170924493Y-88002247D02*
X170924493Y-88365104D01*
X170924493Y-88365104D02*
X170864017Y-88486056D01*
X170864017Y-88486056D02*
X170803541Y-88546533D01*
X170803541Y-88546533D02*
X170682589Y-88607009D01*
X170682589Y-88607009D02*
X170501160Y-88607009D01*
X171347827Y-87760342D02*
X171650208Y-88607009D01*
X171650208Y-88607009D02*
X171952589Y-87760342D01*
X172920208Y-88546533D02*
X172799256Y-88607009D01*
X172799256Y-88607009D02*
X172557351Y-88607009D01*
X172557351Y-88607009D02*
X172436398Y-88546533D01*
X172436398Y-88546533D02*
X172375922Y-88425580D01*
X172375922Y-88425580D02*
X172375922Y-87941771D01*
X172375922Y-87941771D02*
X172436398Y-87820818D01*
X172436398Y-87820818D02*
X172557351Y-87760342D01*
X172557351Y-87760342D02*
X172799256Y-87760342D01*
X172799256Y-87760342D02*
X172920208Y-87820818D01*
X172920208Y-87820818D02*
X172980684Y-87941771D01*
X172980684Y-87941771D02*
X172980684Y-88062723D01*
X172980684Y-88062723D02*
X172375922Y-88183675D01*
X173524969Y-88607009D02*
X173524969Y-87760342D01*
X173524969Y-88002247D02*
X173585446Y-87881294D01*
X173585446Y-87881294D02*
X173645922Y-87820818D01*
X173645922Y-87820818D02*
X173766874Y-87760342D01*
X173766874Y-87760342D02*
X173887827Y-87760342D01*
X176004493Y-88607009D02*
X175581159Y-88002247D01*
X175278778Y-88607009D02*
X175278778Y-87337009D01*
X175278778Y-87337009D02*
X175762588Y-87337009D01*
X175762588Y-87337009D02*
X175883540Y-87397485D01*
X175883540Y-87397485D02*
X175944017Y-87457961D01*
X175944017Y-87457961D02*
X176004493Y-87578913D01*
X176004493Y-87578913D02*
X176004493Y-87760342D01*
X176004493Y-87760342D02*
X175944017Y-87881294D01*
X175944017Y-87881294D02*
X175883540Y-87941771D01*
X175883540Y-87941771D02*
X175762588Y-88002247D01*
X175762588Y-88002247D02*
X175278778Y-88002247D01*
X176488302Y-88546533D02*
X176669731Y-88607009D01*
X176669731Y-88607009D02*
X176972112Y-88607009D01*
X176972112Y-88607009D02*
X177093064Y-88546533D01*
X177093064Y-88546533D02*
X177153540Y-88486056D01*
X177153540Y-88486056D02*
X177214017Y-88365104D01*
X177214017Y-88365104D02*
X177214017Y-88244152D01*
X177214017Y-88244152D02*
X177153540Y-88123199D01*
X177153540Y-88123199D02*
X177093064Y-88062723D01*
X177093064Y-88062723D02*
X176972112Y-88002247D01*
X176972112Y-88002247D02*
X176730207Y-87941771D01*
X176730207Y-87941771D02*
X176609255Y-87881294D01*
X176609255Y-87881294D02*
X176548778Y-87820818D01*
X176548778Y-87820818D02*
X176488302Y-87699866D01*
X176488302Y-87699866D02*
X176488302Y-87578913D01*
X176488302Y-87578913D02*
X176548778Y-87457961D01*
X176548778Y-87457961D02*
X176609255Y-87397485D01*
X176609255Y-87397485D02*
X176730207Y-87337009D01*
X176730207Y-87337009D02*
X177032588Y-87337009D01*
X177032588Y-87337009D02*
X177214017Y-87397485D01*
X177697826Y-87457961D02*
X177758302Y-87397485D01*
X177758302Y-87397485D02*
X177879255Y-87337009D01*
X177879255Y-87337009D02*
X178181636Y-87337009D01*
X178181636Y-87337009D02*
X178302588Y-87397485D01*
X178302588Y-87397485D02*
X178363064Y-87457961D01*
X178363064Y-87457961D02*
X178423541Y-87578913D01*
X178423541Y-87578913D02*
X178423541Y-87699866D01*
X178423541Y-87699866D02*
X178363064Y-87881294D01*
X178363064Y-87881294D02*
X177637350Y-88607009D01*
X177637350Y-88607009D02*
X178423541Y-88607009D01*
X178846874Y-87337009D02*
X179633065Y-87337009D01*
X179633065Y-87337009D02*
X179209731Y-87820818D01*
X179209731Y-87820818D02*
X179391160Y-87820818D01*
X179391160Y-87820818D02*
X179512112Y-87881294D01*
X179512112Y-87881294D02*
X179572588Y-87941771D01*
X179572588Y-87941771D02*
X179633065Y-88062723D01*
X179633065Y-88062723D02*
X179633065Y-88365104D01*
X179633065Y-88365104D02*
X179572588Y-88486056D01*
X179572588Y-88486056D02*
X179512112Y-88546533D01*
X179512112Y-88546533D02*
X179391160Y-88607009D01*
X179391160Y-88607009D02*
X179028303Y-88607009D01*
X179028303Y-88607009D02*
X178907350Y-88546533D01*
X178907350Y-88546533D02*
X178846874Y-88486056D01*
X180116874Y-87457961D02*
X180177350Y-87397485D01*
X180177350Y-87397485D02*
X180298303Y-87337009D01*
X180298303Y-87337009D02*
X180600684Y-87337009D01*
X180600684Y-87337009D02*
X180721636Y-87397485D01*
X180721636Y-87397485D02*
X180782112Y-87457961D01*
X180782112Y-87457961D02*
X180842589Y-87578913D01*
X180842589Y-87578913D02*
X180842589Y-87699866D01*
X180842589Y-87699866D02*
X180782112Y-87881294D01*
X180782112Y-87881294D02*
X180056398Y-88607009D01*
X180056398Y-88607009D02*
X180842589Y-88607009D01*
D13*
X130386358Y-71116694D02*
X130386358Y-70116694D01*
X130386358Y-70116694D02*
X130767310Y-70116694D01*
X130767310Y-70116694D02*
X130862548Y-70164313D01*
X130862548Y-70164313D02*
X130910167Y-70211932D01*
X130910167Y-70211932D02*
X130957786Y-70307170D01*
X130957786Y-70307170D02*
X130957786Y-70450027D01*
X130957786Y-70450027D02*
X130910167Y-70545265D01*
X130910167Y-70545265D02*
X130862548Y-70592884D01*
X130862548Y-70592884D02*
X130767310Y-70640503D01*
X130767310Y-70640503D02*
X130386358Y-70640503D01*
X131529215Y-71116694D02*
X131433977Y-71069075D01*
X131433977Y-71069075D02*
X131386358Y-71021455D01*
X131386358Y-71021455D02*
X131338739Y-70926217D01*
X131338739Y-70926217D02*
X131338739Y-70640503D01*
X131338739Y-70640503D02*
X131386358Y-70545265D01*
X131386358Y-70545265D02*
X131433977Y-70497646D01*
X131433977Y-70497646D02*
X131529215Y-70450027D01*
X131529215Y-70450027D02*
X131672072Y-70450027D01*
X131672072Y-70450027D02*
X131767310Y-70497646D01*
X131767310Y-70497646D02*
X131814929Y-70545265D01*
X131814929Y-70545265D02*
X131862548Y-70640503D01*
X131862548Y-70640503D02*
X131862548Y-70926217D01*
X131862548Y-70926217D02*
X131814929Y-71021455D01*
X131814929Y-71021455D02*
X131767310Y-71069075D01*
X131767310Y-71069075D02*
X131672072Y-71116694D01*
X131672072Y-71116694D02*
X131529215Y-71116694D01*
X132433977Y-71116694D02*
X132338739Y-71069075D01*
X132338739Y-71069075D02*
X132291120Y-70973836D01*
X132291120Y-70973836D02*
X132291120Y-70116694D01*
X132719692Y-70450027D02*
X132957787Y-71116694D01*
X133195882Y-70450027D02*
X132957787Y-71116694D01*
X132957787Y-71116694D02*
X132862549Y-71354789D01*
X132862549Y-71354789D02*
X132814930Y-71402408D01*
X132814930Y-71402408D02*
X132719692Y-71450027D01*
D11*
X166134779Y-59530056D02*
X166074303Y-59590533D01*
X166074303Y-59590533D02*
X165892874Y-59651009D01*
X165892874Y-59651009D02*
X165771922Y-59651009D01*
X165771922Y-59651009D02*
X165590493Y-59590533D01*
X165590493Y-59590533D02*
X165469541Y-59469580D01*
X165469541Y-59469580D02*
X165409064Y-59348628D01*
X165409064Y-59348628D02*
X165348588Y-59106723D01*
X165348588Y-59106723D02*
X165348588Y-58925294D01*
X165348588Y-58925294D02*
X165409064Y-58683390D01*
X165409064Y-58683390D02*
X165469541Y-58562437D01*
X165469541Y-58562437D02*
X165590493Y-58441485D01*
X165590493Y-58441485D02*
X165771922Y-58381009D01*
X165771922Y-58381009D02*
X165892874Y-58381009D01*
X165892874Y-58381009D02*
X166074303Y-58441485D01*
X166074303Y-58441485D02*
X166134779Y-58501961D01*
X166679064Y-59651009D02*
X166679064Y-58381009D01*
X167223350Y-59651009D02*
X167223350Y-58985771D01*
X167223350Y-58985771D02*
X167162874Y-58864818D01*
X167162874Y-58864818D02*
X167041922Y-58804342D01*
X167041922Y-58804342D02*
X166860493Y-58804342D01*
X166860493Y-58804342D02*
X166739541Y-58864818D01*
X166739541Y-58864818D02*
X166679064Y-58925294D01*
X168372398Y-59651009D02*
X168372398Y-58985771D01*
X168372398Y-58985771D02*
X168311922Y-58864818D01*
X168311922Y-58864818D02*
X168190970Y-58804342D01*
X168190970Y-58804342D02*
X167949065Y-58804342D01*
X167949065Y-58804342D02*
X167828112Y-58864818D01*
X168372398Y-59590533D02*
X168251446Y-59651009D01*
X168251446Y-59651009D02*
X167949065Y-59651009D01*
X167949065Y-59651009D02*
X167828112Y-59590533D01*
X167828112Y-59590533D02*
X167767636Y-59469580D01*
X167767636Y-59469580D02*
X167767636Y-59348628D01*
X167767636Y-59348628D02*
X167828112Y-59227675D01*
X167828112Y-59227675D02*
X167949065Y-59167199D01*
X167949065Y-59167199D02*
X168251446Y-59167199D01*
X168251446Y-59167199D02*
X168372398Y-59106723D01*
X168977160Y-59651009D02*
X168977160Y-58804342D01*
X168977160Y-59046247D02*
X169037637Y-58925294D01*
X169037637Y-58925294D02*
X169098113Y-58864818D01*
X169098113Y-58864818D02*
X169219065Y-58804342D01*
X169219065Y-58804342D02*
X169340018Y-58804342D01*
X169581922Y-58804342D02*
X170065731Y-58804342D01*
X169763350Y-58381009D02*
X169763350Y-59469580D01*
X169763350Y-59469580D02*
X169823827Y-59590533D01*
X169823827Y-59590533D02*
X169944779Y-59651009D01*
X169944779Y-59651009D02*
X170065731Y-59651009D01*
X170489064Y-59651009D02*
X170489064Y-58804342D01*
X170489064Y-59046247D02*
X170549541Y-58925294D01*
X170549541Y-58925294D02*
X170610017Y-58864818D01*
X170610017Y-58864818D02*
X170730969Y-58804342D01*
X170730969Y-58804342D02*
X170851922Y-58804342D01*
X171759064Y-59590533D02*
X171638112Y-59651009D01*
X171638112Y-59651009D02*
X171396207Y-59651009D01*
X171396207Y-59651009D02*
X171275254Y-59590533D01*
X171275254Y-59590533D02*
X171214778Y-59469580D01*
X171214778Y-59469580D02*
X171214778Y-58985771D01*
X171214778Y-58985771D02*
X171275254Y-58864818D01*
X171275254Y-58864818D02*
X171396207Y-58804342D01*
X171396207Y-58804342D02*
X171638112Y-58804342D01*
X171638112Y-58804342D02*
X171759064Y-58864818D01*
X171759064Y-58864818D02*
X171819540Y-58985771D01*
X171819540Y-58985771D02*
X171819540Y-59106723D01*
X171819540Y-59106723D02*
X171214778Y-59227675D01*
X172908111Y-58804342D02*
X172908111Y-59651009D01*
X172363825Y-58804342D02*
X172363825Y-59469580D01*
X172363825Y-59469580D02*
X172424302Y-59590533D01*
X172424302Y-59590533D02*
X172545254Y-59651009D01*
X172545254Y-59651009D02*
X172726683Y-59651009D01*
X172726683Y-59651009D02*
X172847635Y-59590533D01*
X172847635Y-59590533D02*
X172908111Y-59530056D01*
X173452397Y-59590533D02*
X173573350Y-59651009D01*
X173573350Y-59651009D02*
X173815254Y-59651009D01*
X173815254Y-59651009D02*
X173936207Y-59590533D01*
X173936207Y-59590533D02*
X173996683Y-59469580D01*
X173996683Y-59469580D02*
X173996683Y-59409104D01*
X173996683Y-59409104D02*
X173936207Y-59288152D01*
X173936207Y-59288152D02*
X173815254Y-59227675D01*
X173815254Y-59227675D02*
X173633826Y-59227675D01*
X173633826Y-59227675D02*
X173512873Y-59167199D01*
X173512873Y-59167199D02*
X173452397Y-59046247D01*
X173452397Y-59046247D02*
X173452397Y-58985771D01*
X173452397Y-58985771D02*
X173512873Y-58864818D01*
X173512873Y-58864818D02*
X173633826Y-58804342D01*
X173633826Y-58804342D02*
X173815254Y-58804342D01*
X173815254Y-58804342D02*
X173936207Y-58864818D01*
X175024778Y-59590533D02*
X174903826Y-59651009D01*
X174903826Y-59651009D02*
X174661921Y-59651009D01*
X174661921Y-59651009D02*
X174540968Y-59590533D01*
X174540968Y-59590533D02*
X174480492Y-59469580D01*
X174480492Y-59469580D02*
X174480492Y-58985771D01*
X174480492Y-58985771D02*
X174540968Y-58864818D01*
X174540968Y-58864818D02*
X174661921Y-58804342D01*
X174661921Y-58804342D02*
X174903826Y-58804342D01*
X174903826Y-58804342D02*
X175024778Y-58864818D01*
X175024778Y-58864818D02*
X175085254Y-58985771D01*
X175085254Y-58985771D02*
X175085254Y-59106723D01*
X175085254Y-59106723D02*
X174480492Y-59227675D01*
X176536682Y-58501961D02*
X176597158Y-58441485D01*
X176597158Y-58441485D02*
X176718111Y-58381009D01*
X176718111Y-58381009D02*
X177020492Y-58381009D01*
X177020492Y-58381009D02*
X177141444Y-58441485D01*
X177141444Y-58441485D02*
X177201920Y-58501961D01*
X177201920Y-58501961D02*
X177262397Y-58622913D01*
X177262397Y-58622913D02*
X177262397Y-58743866D01*
X177262397Y-58743866D02*
X177201920Y-58925294D01*
X177201920Y-58925294D02*
X176476206Y-59651009D01*
X176476206Y-59651009D02*
X177262397Y-59651009D01*
X178048587Y-58381009D02*
X178169540Y-58381009D01*
X178169540Y-58381009D02*
X178290492Y-58441485D01*
X178290492Y-58441485D02*
X178350968Y-58501961D01*
X178350968Y-58501961D02*
X178411444Y-58622913D01*
X178411444Y-58622913D02*
X178471921Y-58864818D01*
X178471921Y-58864818D02*
X178471921Y-59167199D01*
X178471921Y-59167199D02*
X178411444Y-59409104D01*
X178411444Y-59409104D02*
X178350968Y-59530056D01*
X178350968Y-59530056D02*
X178290492Y-59590533D01*
X178290492Y-59590533D02*
X178169540Y-59651009D01*
X178169540Y-59651009D02*
X178048587Y-59651009D01*
X178048587Y-59651009D02*
X177927635Y-59590533D01*
X177927635Y-59590533D02*
X177867159Y-59530056D01*
X177867159Y-59530056D02*
X177806682Y-59409104D01*
X177806682Y-59409104D02*
X177746206Y-59167199D01*
X177746206Y-59167199D02*
X177746206Y-58864818D01*
X177746206Y-58864818D02*
X177806682Y-58622913D01*
X177806682Y-58622913D02*
X177867159Y-58501961D01*
X177867159Y-58501961D02*
X177927635Y-58441485D01*
X177927635Y-58441485D02*
X178048587Y-58381009D01*
X178955730Y-58501961D02*
X179016206Y-58441485D01*
X179016206Y-58441485D02*
X179137159Y-58381009D01*
X179137159Y-58381009D02*
X179439540Y-58381009D01*
X179439540Y-58381009D02*
X179560492Y-58441485D01*
X179560492Y-58441485D02*
X179620968Y-58501961D01*
X179620968Y-58501961D02*
X179681445Y-58622913D01*
X179681445Y-58622913D02*
X179681445Y-58743866D01*
X179681445Y-58743866D02*
X179620968Y-58925294D01*
X179620968Y-58925294D02*
X178895254Y-59651009D01*
X178895254Y-59651009D02*
X179681445Y-59651009D01*
X180770016Y-58804342D02*
X180770016Y-59651009D01*
X180467635Y-58320533D02*
X180165254Y-59227675D01*
X180165254Y-59227675D02*
X180951445Y-59227675D01*
D14*
X140962142Y-69669580D02*
X140914523Y-69717200D01*
X140914523Y-69717200D02*
X140771666Y-69764819D01*
X140771666Y-69764819D02*
X140676428Y-69764819D01*
X140676428Y-69764819D02*
X140533571Y-69717200D01*
X140533571Y-69717200D02*
X140438333Y-69621961D01*
X140438333Y-69621961D02*
X140390714Y-69526723D01*
X140390714Y-69526723D02*
X140343095Y-69336247D01*
X140343095Y-69336247D02*
X140343095Y-69193390D01*
X140343095Y-69193390D02*
X140390714Y-69002914D01*
X140390714Y-69002914D02*
X140438333Y-68907676D01*
X140438333Y-68907676D02*
X140533571Y-68812438D01*
X140533571Y-68812438D02*
X140676428Y-68764819D01*
X140676428Y-68764819D02*
X140771666Y-68764819D01*
X140771666Y-68764819D02*
X140914523Y-68812438D01*
X140914523Y-68812438D02*
X140962142Y-68860057D01*
X141914523Y-69764819D02*
X141343095Y-69764819D01*
X141628809Y-69764819D02*
X141628809Y-68764819D01*
X141628809Y-68764819D02*
X141533571Y-68907676D01*
X141533571Y-68907676D02*
X141438333Y-69002914D01*
X141438333Y-69002914D02*
X141343095Y-69050533D01*
X142295476Y-68860057D02*
X142343095Y-68812438D01*
X142343095Y-68812438D02*
X142438333Y-68764819D01*
X142438333Y-68764819D02*
X142676428Y-68764819D01*
X142676428Y-68764819D02*
X142771666Y-68812438D01*
X142771666Y-68812438D02*
X142819285Y-68860057D01*
X142819285Y-68860057D02*
X142866904Y-68955295D01*
X142866904Y-68955295D02*
X142866904Y-69050533D01*
X142866904Y-69050533D02*
X142819285Y-69193390D01*
X142819285Y-69193390D02*
X142247857Y-69764819D01*
X142247857Y-69764819D02*
X142866904Y-69764819D01*
X140239952Y-71574819D02*
X139668524Y-71574819D01*
X139954238Y-71574819D02*
X139954238Y-70574819D01*
X139954238Y-70574819D02*
X139859000Y-70717676D01*
X139859000Y-70717676D02*
X139763762Y-70812914D01*
X139763762Y-70812914D02*
X139668524Y-70860533D01*
X140859000Y-70574819D02*
X140954238Y-70574819D01*
X140954238Y-70574819D02*
X141049476Y-70622438D01*
X141049476Y-70622438D02*
X141097095Y-70670057D01*
X141097095Y-70670057D02*
X141144714Y-70765295D01*
X141144714Y-70765295D02*
X141192333Y-70955771D01*
X141192333Y-70955771D02*
X141192333Y-71193866D01*
X141192333Y-71193866D02*
X141144714Y-71384342D01*
X141144714Y-71384342D02*
X141097095Y-71479580D01*
X141097095Y-71479580D02*
X141049476Y-71527200D01*
X141049476Y-71527200D02*
X140954238Y-71574819D01*
X140954238Y-71574819D02*
X140859000Y-71574819D01*
X140859000Y-71574819D02*
X140763762Y-71527200D01*
X140763762Y-71527200D02*
X140716143Y-71479580D01*
X140716143Y-71479580D02*
X140668524Y-71384342D01*
X140668524Y-71384342D02*
X140620905Y-71193866D01*
X140620905Y-71193866D02*
X140620905Y-70955771D01*
X140620905Y-70955771D02*
X140668524Y-70765295D01*
X140668524Y-70765295D02*
X140716143Y-70670057D01*
X140716143Y-70670057D02*
X140763762Y-70622438D01*
X140763762Y-70622438D02*
X140859000Y-70574819D01*
X141811381Y-70574819D02*
X141906619Y-70574819D01*
X141906619Y-70574819D02*
X142001857Y-70622438D01*
X142001857Y-70622438D02*
X142049476Y-70670057D01*
X142049476Y-70670057D02*
X142097095Y-70765295D01*
X142097095Y-70765295D02*
X142144714Y-70955771D01*
X142144714Y-70955771D02*
X142144714Y-71193866D01*
X142144714Y-71193866D02*
X142097095Y-71384342D01*
X142097095Y-71384342D02*
X142049476Y-71479580D01*
X142049476Y-71479580D02*
X142001857Y-71527200D01*
X142001857Y-71527200D02*
X141906619Y-71574819D01*
X141906619Y-71574819D02*
X141811381Y-71574819D01*
X141811381Y-71574819D02*
X141716143Y-71527200D01*
X141716143Y-71527200D02*
X141668524Y-71479580D01*
X141668524Y-71479580D02*
X141620905Y-71384342D01*
X141620905Y-71384342D02*
X141573286Y-71193866D01*
X141573286Y-71193866D02*
X141573286Y-70955771D01*
X141573286Y-70955771D02*
X141620905Y-70765295D01*
X141620905Y-70765295D02*
X141668524Y-70670057D01*
X141668524Y-70670057D02*
X141716143Y-70622438D01*
X141716143Y-70622438D02*
X141811381Y-70574819D01*
X142573286Y-70908152D02*
X142573286Y-71908152D01*
X143049476Y-71431961D02*
X143097095Y-71527200D01*
X143097095Y-71527200D02*
X143192333Y-71574819D01*
X142573286Y-71431961D02*
X142620905Y-71527200D01*
X142620905Y-71527200D02*
X142716143Y-71574819D01*
X142716143Y-71574819D02*
X142906619Y-71574819D01*
X142906619Y-71574819D02*
X143001857Y-71527200D01*
X143001857Y-71527200D02*
X143049476Y-71431961D01*
X143049476Y-71431961D02*
X143049476Y-70908152D01*
X143954238Y-71051009D02*
X143620905Y-71051009D01*
X143620905Y-71574819D02*
X143620905Y-70574819D01*
X143620905Y-70574819D02*
X144097095Y-70574819D01*
X141122142Y-58874580D02*
X141074523Y-58922200D01*
X141074523Y-58922200D02*
X140931666Y-58969819D01*
X140931666Y-58969819D02*
X140836428Y-58969819D01*
X140836428Y-58969819D02*
X140693571Y-58922200D01*
X140693571Y-58922200D02*
X140598333Y-58826961D01*
X140598333Y-58826961D02*
X140550714Y-58731723D01*
X140550714Y-58731723D02*
X140503095Y-58541247D01*
X140503095Y-58541247D02*
X140503095Y-58398390D01*
X140503095Y-58398390D02*
X140550714Y-58207914D01*
X140550714Y-58207914D02*
X140598333Y-58112676D01*
X140598333Y-58112676D02*
X140693571Y-58017438D01*
X140693571Y-58017438D02*
X140836428Y-57969819D01*
X140836428Y-57969819D02*
X140931666Y-57969819D01*
X140931666Y-57969819D02*
X141074523Y-58017438D01*
X141074523Y-58017438D02*
X141122142Y-58065057D01*
X142074523Y-58969819D02*
X141503095Y-58969819D01*
X141788809Y-58969819D02*
X141788809Y-57969819D01*
X141788809Y-57969819D02*
X141693571Y-58112676D01*
X141693571Y-58112676D02*
X141598333Y-58207914D01*
X141598333Y-58207914D02*
X141503095Y-58255533D01*
X143026904Y-58969819D02*
X142455476Y-58969819D01*
X142741190Y-58969819D02*
X142741190Y-57969819D01*
X142741190Y-57969819D02*
X142645952Y-58112676D01*
X142645952Y-58112676D02*
X142550714Y-58207914D01*
X142550714Y-58207914D02*
X142455476Y-58255533D01*
X140239952Y-68018819D02*
X139668524Y-68018819D01*
X139954238Y-68018819D02*
X139954238Y-67018819D01*
X139954238Y-67018819D02*
X139859000Y-67161676D01*
X139859000Y-67161676D02*
X139763762Y-67256914D01*
X139763762Y-67256914D02*
X139668524Y-67304533D01*
X140859000Y-67018819D02*
X140954238Y-67018819D01*
X140954238Y-67018819D02*
X141049476Y-67066438D01*
X141049476Y-67066438D02*
X141097095Y-67114057D01*
X141097095Y-67114057D02*
X141144714Y-67209295D01*
X141144714Y-67209295D02*
X141192333Y-67399771D01*
X141192333Y-67399771D02*
X141192333Y-67637866D01*
X141192333Y-67637866D02*
X141144714Y-67828342D01*
X141144714Y-67828342D02*
X141097095Y-67923580D01*
X141097095Y-67923580D02*
X141049476Y-67971200D01*
X141049476Y-67971200D02*
X140954238Y-68018819D01*
X140954238Y-68018819D02*
X140859000Y-68018819D01*
X140859000Y-68018819D02*
X140763762Y-67971200D01*
X140763762Y-67971200D02*
X140716143Y-67923580D01*
X140716143Y-67923580D02*
X140668524Y-67828342D01*
X140668524Y-67828342D02*
X140620905Y-67637866D01*
X140620905Y-67637866D02*
X140620905Y-67399771D01*
X140620905Y-67399771D02*
X140668524Y-67209295D01*
X140668524Y-67209295D02*
X140716143Y-67114057D01*
X140716143Y-67114057D02*
X140763762Y-67066438D01*
X140763762Y-67066438D02*
X140859000Y-67018819D01*
X141811381Y-67018819D02*
X141906619Y-67018819D01*
X141906619Y-67018819D02*
X142001857Y-67066438D01*
X142001857Y-67066438D02*
X142049476Y-67114057D01*
X142049476Y-67114057D02*
X142097095Y-67209295D01*
X142097095Y-67209295D02*
X142144714Y-67399771D01*
X142144714Y-67399771D02*
X142144714Y-67637866D01*
X142144714Y-67637866D02*
X142097095Y-67828342D01*
X142097095Y-67828342D02*
X142049476Y-67923580D01*
X142049476Y-67923580D02*
X142001857Y-67971200D01*
X142001857Y-67971200D02*
X141906619Y-68018819D01*
X141906619Y-68018819D02*
X141811381Y-68018819D01*
X141811381Y-68018819D02*
X141716143Y-67971200D01*
X141716143Y-67971200D02*
X141668524Y-67923580D01*
X141668524Y-67923580D02*
X141620905Y-67828342D01*
X141620905Y-67828342D02*
X141573286Y-67637866D01*
X141573286Y-67637866D02*
X141573286Y-67399771D01*
X141573286Y-67399771D02*
X141620905Y-67209295D01*
X141620905Y-67209295D02*
X141668524Y-67114057D01*
X141668524Y-67114057D02*
X141716143Y-67066438D01*
X141716143Y-67066438D02*
X141811381Y-67018819D01*
X142573286Y-67352152D02*
X142573286Y-68352152D01*
X143049476Y-67875961D02*
X143097095Y-67971200D01*
X143097095Y-67971200D02*
X143192333Y-68018819D01*
X142573286Y-67875961D02*
X142620905Y-67971200D01*
X142620905Y-67971200D02*
X142716143Y-68018819D01*
X142716143Y-68018819D02*
X142906619Y-68018819D01*
X142906619Y-68018819D02*
X143001857Y-67971200D01*
X143001857Y-67971200D02*
X143049476Y-67875961D01*
X143049476Y-67875961D02*
X143049476Y-67352152D01*
X143954238Y-67495009D02*
X143620905Y-67495009D01*
X143620905Y-68018819D02*
X143620905Y-67018819D01*
X143620905Y-67018819D02*
X144097095Y-67018819D01*
X152106333Y-84052580D02*
X152058714Y-84100200D01*
X152058714Y-84100200D02*
X151915857Y-84147819D01*
X151915857Y-84147819D02*
X151820619Y-84147819D01*
X151820619Y-84147819D02*
X151677762Y-84100200D01*
X151677762Y-84100200D02*
X151582524Y-84004961D01*
X151582524Y-84004961D02*
X151534905Y-83909723D01*
X151534905Y-83909723D02*
X151487286Y-83719247D01*
X151487286Y-83719247D02*
X151487286Y-83576390D01*
X151487286Y-83576390D02*
X151534905Y-83385914D01*
X151534905Y-83385914D02*
X151582524Y-83290676D01*
X151582524Y-83290676D02*
X151677762Y-83195438D01*
X151677762Y-83195438D02*
X151820619Y-83147819D01*
X151820619Y-83147819D02*
X151915857Y-83147819D01*
X151915857Y-83147819D02*
X152058714Y-83195438D01*
X152058714Y-83195438D02*
X152106333Y-83243057D01*
X152582524Y-84147819D02*
X152773000Y-84147819D01*
X152773000Y-84147819D02*
X152868238Y-84100200D01*
X152868238Y-84100200D02*
X152915857Y-84052580D01*
X152915857Y-84052580D02*
X153011095Y-83909723D01*
X153011095Y-83909723D02*
X153058714Y-83719247D01*
X153058714Y-83719247D02*
X153058714Y-83338295D01*
X153058714Y-83338295D02*
X153011095Y-83243057D01*
X153011095Y-83243057D02*
X152963476Y-83195438D01*
X152963476Y-83195438D02*
X152868238Y-83147819D01*
X152868238Y-83147819D02*
X152677762Y-83147819D01*
X152677762Y-83147819D02*
X152582524Y-83195438D01*
X152582524Y-83195438D02*
X152534905Y-83243057D01*
X152534905Y-83243057D02*
X152487286Y-83338295D01*
X152487286Y-83338295D02*
X152487286Y-83576390D01*
X152487286Y-83576390D02*
X152534905Y-83671628D01*
X152534905Y-83671628D02*
X152582524Y-83719247D01*
X152582524Y-83719247D02*
X152677762Y-83766866D01*
X152677762Y-83766866D02*
X152868238Y-83766866D01*
X152868238Y-83766866D02*
X152963476Y-83719247D01*
X152963476Y-83719247D02*
X153011095Y-83671628D01*
X153011095Y-83671628D02*
X153058714Y-83576390D01*
X148598143Y-81973057D02*
X148645762Y-81925438D01*
X148645762Y-81925438D02*
X148741000Y-81877819D01*
X148741000Y-81877819D02*
X148979095Y-81877819D01*
X148979095Y-81877819D02*
X149074333Y-81925438D01*
X149074333Y-81925438D02*
X149121952Y-81973057D01*
X149121952Y-81973057D02*
X149169571Y-82068295D01*
X149169571Y-82068295D02*
X149169571Y-82163533D01*
X149169571Y-82163533D02*
X149121952Y-82306390D01*
X149121952Y-82306390D02*
X148550524Y-82877819D01*
X148550524Y-82877819D02*
X149169571Y-82877819D01*
X149788619Y-81877819D02*
X149883857Y-81877819D01*
X149883857Y-81877819D02*
X149979095Y-81925438D01*
X149979095Y-81925438D02*
X150026714Y-81973057D01*
X150026714Y-81973057D02*
X150074333Y-82068295D01*
X150074333Y-82068295D02*
X150121952Y-82258771D01*
X150121952Y-82258771D02*
X150121952Y-82496866D01*
X150121952Y-82496866D02*
X150074333Y-82687342D01*
X150074333Y-82687342D02*
X150026714Y-82782580D01*
X150026714Y-82782580D02*
X149979095Y-82830200D01*
X149979095Y-82830200D02*
X149883857Y-82877819D01*
X149883857Y-82877819D02*
X149788619Y-82877819D01*
X149788619Y-82877819D02*
X149693381Y-82830200D01*
X149693381Y-82830200D02*
X149645762Y-82782580D01*
X149645762Y-82782580D02*
X149598143Y-82687342D01*
X149598143Y-82687342D02*
X149550524Y-82496866D01*
X149550524Y-82496866D02*
X149550524Y-82258771D01*
X149550524Y-82258771D02*
X149598143Y-82068295D01*
X149598143Y-82068295D02*
X149645762Y-81973057D01*
X149645762Y-81973057D02*
X149693381Y-81925438D01*
X149693381Y-81925438D02*
X149788619Y-81877819D01*
X150550524Y-82211152D02*
X150550524Y-83211152D01*
X150550524Y-82258771D02*
X150645762Y-82211152D01*
X150645762Y-82211152D02*
X150836238Y-82211152D01*
X150836238Y-82211152D02*
X150931476Y-82258771D01*
X150931476Y-82258771D02*
X150979095Y-82306390D01*
X150979095Y-82306390D02*
X151026714Y-82401628D01*
X151026714Y-82401628D02*
X151026714Y-82687342D01*
X151026714Y-82687342D02*
X150979095Y-82782580D01*
X150979095Y-82782580D02*
X150931476Y-82830200D01*
X150931476Y-82830200D02*
X150836238Y-82877819D01*
X150836238Y-82877819D02*
X150645762Y-82877819D01*
X150645762Y-82877819D02*
X150550524Y-82830200D01*
X151788619Y-82354009D02*
X151455286Y-82354009D01*
X151455286Y-82877819D02*
X151455286Y-81877819D01*
X151455286Y-81877819D02*
X151931476Y-81877819D01*
X168489333Y-86084580D02*
X168441714Y-86132200D01*
X168441714Y-86132200D02*
X168298857Y-86179819D01*
X168298857Y-86179819D02*
X168203619Y-86179819D01*
X168203619Y-86179819D02*
X168060762Y-86132200D01*
X168060762Y-86132200D02*
X167965524Y-86036961D01*
X167965524Y-86036961D02*
X167917905Y-85941723D01*
X167917905Y-85941723D02*
X167870286Y-85751247D01*
X167870286Y-85751247D02*
X167870286Y-85608390D01*
X167870286Y-85608390D02*
X167917905Y-85417914D01*
X167917905Y-85417914D02*
X167965524Y-85322676D01*
X167965524Y-85322676D02*
X168060762Y-85227438D01*
X168060762Y-85227438D02*
X168203619Y-85179819D01*
X168203619Y-85179819D02*
X168298857Y-85179819D01*
X168298857Y-85179819D02*
X168441714Y-85227438D01*
X168441714Y-85227438D02*
X168489333Y-85275057D01*
X169060762Y-85608390D02*
X168965524Y-85560771D01*
X168965524Y-85560771D02*
X168917905Y-85513152D01*
X168917905Y-85513152D02*
X168870286Y-85417914D01*
X168870286Y-85417914D02*
X168870286Y-85370295D01*
X168870286Y-85370295D02*
X168917905Y-85275057D01*
X168917905Y-85275057D02*
X168965524Y-85227438D01*
X168965524Y-85227438D02*
X169060762Y-85179819D01*
X169060762Y-85179819D02*
X169251238Y-85179819D01*
X169251238Y-85179819D02*
X169346476Y-85227438D01*
X169346476Y-85227438D02*
X169394095Y-85275057D01*
X169394095Y-85275057D02*
X169441714Y-85370295D01*
X169441714Y-85370295D02*
X169441714Y-85417914D01*
X169441714Y-85417914D02*
X169394095Y-85513152D01*
X169394095Y-85513152D02*
X169346476Y-85560771D01*
X169346476Y-85560771D02*
X169251238Y-85608390D01*
X169251238Y-85608390D02*
X169060762Y-85608390D01*
X169060762Y-85608390D02*
X168965524Y-85656009D01*
X168965524Y-85656009D02*
X168917905Y-85703628D01*
X168917905Y-85703628D02*
X168870286Y-85798866D01*
X168870286Y-85798866D02*
X168870286Y-85989342D01*
X168870286Y-85989342D02*
X168917905Y-86084580D01*
X168917905Y-86084580D02*
X168965524Y-86132200D01*
X168965524Y-86132200D02*
X169060762Y-86179819D01*
X169060762Y-86179819D02*
X169251238Y-86179819D01*
X169251238Y-86179819D02*
X169346476Y-86132200D01*
X169346476Y-86132200D02*
X169394095Y-86084580D01*
X169394095Y-86084580D02*
X169441714Y-85989342D01*
X169441714Y-85989342D02*
X169441714Y-85798866D01*
X169441714Y-85798866D02*
X169394095Y-85703628D01*
X169394095Y-85703628D02*
X169346476Y-85656009D01*
X169346476Y-85656009D02*
X169251238Y-85608390D01*
X165362143Y-81846057D02*
X165409762Y-81798438D01*
X165409762Y-81798438D02*
X165505000Y-81750819D01*
X165505000Y-81750819D02*
X165743095Y-81750819D01*
X165743095Y-81750819D02*
X165838333Y-81798438D01*
X165838333Y-81798438D02*
X165885952Y-81846057D01*
X165885952Y-81846057D02*
X165933571Y-81941295D01*
X165933571Y-81941295D02*
X165933571Y-82036533D01*
X165933571Y-82036533D02*
X165885952Y-82179390D01*
X165885952Y-82179390D02*
X165314524Y-82750819D01*
X165314524Y-82750819D02*
X165933571Y-82750819D01*
X166552619Y-81750819D02*
X166647857Y-81750819D01*
X166647857Y-81750819D02*
X166743095Y-81798438D01*
X166743095Y-81798438D02*
X166790714Y-81846057D01*
X166790714Y-81846057D02*
X166838333Y-81941295D01*
X166838333Y-81941295D02*
X166885952Y-82131771D01*
X166885952Y-82131771D02*
X166885952Y-82369866D01*
X166885952Y-82369866D02*
X166838333Y-82560342D01*
X166838333Y-82560342D02*
X166790714Y-82655580D01*
X166790714Y-82655580D02*
X166743095Y-82703200D01*
X166743095Y-82703200D02*
X166647857Y-82750819D01*
X166647857Y-82750819D02*
X166552619Y-82750819D01*
X166552619Y-82750819D02*
X166457381Y-82703200D01*
X166457381Y-82703200D02*
X166409762Y-82655580D01*
X166409762Y-82655580D02*
X166362143Y-82560342D01*
X166362143Y-82560342D02*
X166314524Y-82369866D01*
X166314524Y-82369866D02*
X166314524Y-82131771D01*
X166314524Y-82131771D02*
X166362143Y-81941295D01*
X166362143Y-81941295D02*
X166409762Y-81846057D01*
X166409762Y-81846057D02*
X166457381Y-81798438D01*
X166457381Y-81798438D02*
X166552619Y-81750819D01*
X167314524Y-82084152D02*
X167314524Y-83084152D01*
X167314524Y-82131771D02*
X167409762Y-82084152D01*
X167409762Y-82084152D02*
X167600238Y-82084152D01*
X167600238Y-82084152D02*
X167695476Y-82131771D01*
X167695476Y-82131771D02*
X167743095Y-82179390D01*
X167743095Y-82179390D02*
X167790714Y-82274628D01*
X167790714Y-82274628D02*
X167790714Y-82560342D01*
X167790714Y-82560342D02*
X167743095Y-82655580D01*
X167743095Y-82655580D02*
X167695476Y-82703200D01*
X167695476Y-82703200D02*
X167600238Y-82750819D01*
X167600238Y-82750819D02*
X167409762Y-82750819D01*
X167409762Y-82750819D02*
X167314524Y-82703200D01*
X168552619Y-82227009D02*
X168219286Y-82227009D01*
X168219286Y-82750819D02*
X168219286Y-81750819D01*
X168219286Y-81750819D02*
X168695476Y-81750819D01*
X173355095Y-65944819D02*
X173355095Y-66754342D01*
X173355095Y-66754342D02*
X173402714Y-66849580D01*
X173402714Y-66849580D02*
X173450333Y-66897200D01*
X173450333Y-66897200D02*
X173545571Y-66944819D01*
X173545571Y-66944819D02*
X173736047Y-66944819D01*
X173736047Y-66944819D02*
X173831285Y-66897200D01*
X173831285Y-66897200D02*
X173878904Y-66849580D01*
X173878904Y-66849580D02*
X173926523Y-66754342D01*
X173926523Y-66754342D02*
X173926523Y-65944819D01*
X174355095Y-66040057D02*
X174402714Y-65992438D01*
X174402714Y-65992438D02*
X174497952Y-65944819D01*
X174497952Y-65944819D02*
X174736047Y-65944819D01*
X174736047Y-65944819D02*
X174831285Y-65992438D01*
X174831285Y-65992438D02*
X174878904Y-66040057D01*
X174878904Y-66040057D02*
X174926523Y-66135295D01*
X174926523Y-66135295D02*
X174926523Y-66230533D01*
X174926523Y-66230533D02*
X174878904Y-66373390D01*
X174878904Y-66373390D02*
X174307476Y-66944819D01*
X174307476Y-66944819D02*
X174926523Y-66944819D01*
D11*
X170742429Y-79375711D02*
X170742429Y-77978711D01*
X170742429Y-77978711D02*
X171208095Y-78976568D01*
X171208095Y-78976568D02*
X171673762Y-77978711D01*
X171673762Y-77978711D02*
X171673762Y-79375711D01*
X172272476Y-78976568D02*
X172937714Y-78976568D01*
X172139428Y-79375711D02*
X172605095Y-77978711D01*
X172605095Y-77978711D02*
X173070761Y-79375711D01*
X173403381Y-77978711D02*
X174334714Y-79375711D01*
X174334714Y-77978711D02*
X173403381Y-79375711D01*
X174733857Y-77978711D02*
X175598666Y-77978711D01*
X175598666Y-77978711D02*
X175133000Y-78510902D01*
X175133000Y-78510902D02*
X175332571Y-78510902D01*
X175332571Y-78510902D02*
X175465619Y-78577426D01*
X175465619Y-78577426D02*
X175532143Y-78643949D01*
X175532143Y-78643949D02*
X175598666Y-78776997D01*
X175598666Y-78776997D02*
X175598666Y-79109616D01*
X175598666Y-79109616D02*
X175532143Y-79242664D01*
X175532143Y-79242664D02*
X175465619Y-79309188D01*
X175465619Y-79309188D02*
X175332571Y-79375711D01*
X175332571Y-79375711D02*
X174933428Y-79375711D01*
X174933428Y-79375711D02*
X174800381Y-79309188D01*
X174800381Y-79309188D02*
X174733857Y-79242664D01*
X176130857Y-78111759D02*
X176197381Y-78045235D01*
X176197381Y-78045235D02*
X176330428Y-77978711D01*
X176330428Y-77978711D02*
X176663047Y-77978711D01*
X176663047Y-77978711D02*
X176796095Y-78045235D01*
X176796095Y-78045235D02*
X176862619Y-78111759D01*
X176862619Y-78111759D02*
X176929142Y-78244807D01*
X176929142Y-78244807D02*
X176929142Y-78377854D01*
X176929142Y-78377854D02*
X176862619Y-78577426D01*
X176862619Y-78577426D02*
X176064333Y-79375711D01*
X176064333Y-79375711D02*
X176929142Y-79375711D01*
X177394809Y-77978711D02*
X178259618Y-77978711D01*
X178259618Y-77978711D02*
X177793952Y-78510902D01*
X177793952Y-78510902D02*
X177993523Y-78510902D01*
X177993523Y-78510902D02*
X178126571Y-78577426D01*
X178126571Y-78577426D02*
X178193095Y-78643949D01*
X178193095Y-78643949D02*
X178259618Y-78776997D01*
X178259618Y-78776997D02*
X178259618Y-79109616D01*
X178259618Y-79109616D02*
X178193095Y-79242664D01*
X178193095Y-79242664D02*
X178126571Y-79309188D01*
X178126571Y-79309188D02*
X177993523Y-79375711D01*
X177993523Y-79375711D02*
X177594380Y-79375711D01*
X177594380Y-79375711D02*
X177461333Y-79309188D01*
X177461333Y-79309188D02*
X177394809Y-79242664D01*
X178791809Y-78111759D02*
X178858333Y-78045235D01*
X178858333Y-78045235D02*
X178991380Y-77978711D01*
X178991380Y-77978711D02*
X179323999Y-77978711D01*
X179323999Y-77978711D02*
X179457047Y-78045235D01*
X179457047Y-78045235D02*
X179523571Y-78111759D01*
X179523571Y-78111759D02*
X179590094Y-78244807D01*
X179590094Y-78244807D02*
X179590094Y-78377854D01*
X179590094Y-78377854D02*
X179523571Y-78577426D01*
X179523571Y-78577426D02*
X178725285Y-79375711D01*
X178725285Y-79375711D02*
X179590094Y-79375711D01*
D14*
X121339819Y-60113333D02*
X122054104Y-60113333D01*
X122054104Y-60113333D02*
X122196961Y-60160952D01*
X122196961Y-60160952D02*
X122292200Y-60256190D01*
X122292200Y-60256190D02*
X122339819Y-60399047D01*
X122339819Y-60399047D02*
X122339819Y-60494285D01*
X121339819Y-59732380D02*
X121339819Y-59113333D01*
X121339819Y-59113333D02*
X121720771Y-59446666D01*
X121720771Y-59446666D02*
X121720771Y-59303809D01*
X121720771Y-59303809D02*
X121768390Y-59208571D01*
X121768390Y-59208571D02*
X121816009Y-59160952D01*
X121816009Y-59160952D02*
X121911247Y-59113333D01*
X121911247Y-59113333D02*
X122149342Y-59113333D01*
X122149342Y-59113333D02*
X122244580Y-59160952D01*
X122244580Y-59160952D02*
X122292200Y-59208571D01*
X122292200Y-59208571D02*
X122339819Y-59303809D01*
X122339819Y-59303809D02*
X122339819Y-59589523D01*
X122339819Y-59589523D02*
X122292200Y-59684761D01*
X122292200Y-59684761D02*
X122244580Y-59732380D01*
X170285580Y-73572666D02*
X170333200Y-73620285D01*
X170333200Y-73620285D02*
X170380819Y-73763142D01*
X170380819Y-73763142D02*
X170380819Y-73858380D01*
X170380819Y-73858380D02*
X170333200Y-74001237D01*
X170333200Y-74001237D02*
X170237961Y-74096475D01*
X170237961Y-74096475D02*
X170142723Y-74144094D01*
X170142723Y-74144094D02*
X169952247Y-74191713D01*
X169952247Y-74191713D02*
X169809390Y-74191713D01*
X169809390Y-74191713D02*
X169618914Y-74144094D01*
X169618914Y-74144094D02*
X169523676Y-74096475D01*
X169523676Y-74096475D02*
X169428438Y-74001237D01*
X169428438Y-74001237D02*
X169380819Y-73858380D01*
X169380819Y-73858380D02*
X169380819Y-73763142D01*
X169380819Y-73763142D02*
X169428438Y-73620285D01*
X169428438Y-73620285D02*
X169476057Y-73572666D01*
X169380819Y-72667904D02*
X169380819Y-73144094D01*
X169380819Y-73144094D02*
X169857009Y-73191713D01*
X169857009Y-73191713D02*
X169809390Y-73144094D01*
X169809390Y-73144094D02*
X169761771Y-73048856D01*
X169761771Y-73048856D02*
X169761771Y-72810761D01*
X169761771Y-72810761D02*
X169809390Y-72715523D01*
X169809390Y-72715523D02*
X169857009Y-72667904D01*
X169857009Y-72667904D02*
X169952247Y-72620285D01*
X169952247Y-72620285D02*
X170190342Y-72620285D01*
X170190342Y-72620285D02*
X170285580Y-72667904D01*
X170285580Y-72667904D02*
X170333200Y-72715523D01*
X170333200Y-72715523D02*
X170380819Y-72810761D01*
X170380819Y-72810761D02*
X170380819Y-73048856D01*
X170380819Y-73048856D02*
X170333200Y-73144094D01*
X170333200Y-73144094D02*
X170285580Y-73191713D01*
X165951819Y-75120285D02*
X165951819Y-75025047D01*
X165951819Y-75025047D02*
X165999438Y-74929809D01*
X165999438Y-74929809D02*
X166047057Y-74882190D01*
X166047057Y-74882190D02*
X166142295Y-74834571D01*
X166142295Y-74834571D02*
X166332771Y-74786952D01*
X166332771Y-74786952D02*
X166570866Y-74786952D01*
X166570866Y-74786952D02*
X166761342Y-74834571D01*
X166761342Y-74834571D02*
X166856580Y-74882190D01*
X166856580Y-74882190D02*
X166904200Y-74929809D01*
X166904200Y-74929809D02*
X166951819Y-75025047D01*
X166951819Y-75025047D02*
X166951819Y-75120285D01*
X166951819Y-75120285D02*
X166904200Y-75215523D01*
X166904200Y-75215523D02*
X166856580Y-75263142D01*
X166856580Y-75263142D02*
X166761342Y-75310761D01*
X166761342Y-75310761D02*
X166570866Y-75358380D01*
X166570866Y-75358380D02*
X166332771Y-75358380D01*
X166332771Y-75358380D02*
X166142295Y-75310761D01*
X166142295Y-75310761D02*
X166047057Y-75263142D01*
X166047057Y-75263142D02*
X165999438Y-75215523D01*
X165999438Y-75215523D02*
X165951819Y-75120285D01*
X166856580Y-74358380D02*
X166904200Y-74310761D01*
X166904200Y-74310761D02*
X166951819Y-74358380D01*
X166951819Y-74358380D02*
X166904200Y-74405999D01*
X166904200Y-74405999D02*
X166856580Y-74358380D01*
X166856580Y-74358380D02*
X166951819Y-74358380D01*
X166951819Y-73358381D02*
X166951819Y-73929809D01*
X166951819Y-73644095D02*
X165951819Y-73644095D01*
X165951819Y-73644095D02*
X166094676Y-73739333D01*
X166094676Y-73739333D02*
X166189914Y-73834571D01*
X166189914Y-73834571D02*
X166237533Y-73929809D01*
X166285152Y-72929809D02*
X167285152Y-72929809D01*
X166808961Y-72453619D02*
X166904200Y-72406000D01*
X166904200Y-72406000D02*
X166951819Y-72310762D01*
X166808961Y-72929809D02*
X166904200Y-72882190D01*
X166904200Y-72882190D02*
X166951819Y-72786952D01*
X166951819Y-72786952D02*
X166951819Y-72596476D01*
X166951819Y-72596476D02*
X166904200Y-72501238D01*
X166904200Y-72501238D02*
X166808961Y-72453619D01*
X166808961Y-72453619D02*
X166285152Y-72453619D01*
X166428009Y-71548857D02*
X166428009Y-71882190D01*
X166951819Y-71882190D02*
X165951819Y-71882190D01*
X165951819Y-71882190D02*
X165951819Y-71406000D01*
X180504819Y-73703333D02*
X181219104Y-73703333D01*
X181219104Y-73703333D02*
X181361961Y-73750952D01*
X181361961Y-73750952D02*
X181457200Y-73846190D01*
X181457200Y-73846190D02*
X181504819Y-73989047D01*
X181504819Y-73989047D02*
X181504819Y-74084285D01*
X180600057Y-73274761D02*
X180552438Y-73227142D01*
X180552438Y-73227142D02*
X180504819Y-73131904D01*
X180504819Y-73131904D02*
X180504819Y-72893809D01*
X180504819Y-72893809D02*
X180552438Y-72798571D01*
X180552438Y-72798571D02*
X180600057Y-72750952D01*
X180600057Y-72750952D02*
X180695295Y-72703333D01*
X180695295Y-72703333D02*
X180790533Y-72703333D01*
X180790533Y-72703333D02*
X180933390Y-72750952D01*
X180933390Y-72750952D02*
X181504819Y-73322380D01*
X181504819Y-73322380D02*
X181504819Y-72703333D01*
X170285580Y-78271666D02*
X170333200Y-78319285D01*
X170333200Y-78319285D02*
X170380819Y-78462142D01*
X170380819Y-78462142D02*
X170380819Y-78557380D01*
X170380819Y-78557380D02*
X170333200Y-78700237D01*
X170333200Y-78700237D02*
X170237961Y-78795475D01*
X170237961Y-78795475D02*
X170142723Y-78843094D01*
X170142723Y-78843094D02*
X169952247Y-78890713D01*
X169952247Y-78890713D02*
X169809390Y-78890713D01*
X169809390Y-78890713D02*
X169618914Y-78843094D01*
X169618914Y-78843094D02*
X169523676Y-78795475D01*
X169523676Y-78795475D02*
X169428438Y-78700237D01*
X169428438Y-78700237D02*
X169380819Y-78557380D01*
X169380819Y-78557380D02*
X169380819Y-78462142D01*
X169380819Y-78462142D02*
X169428438Y-78319285D01*
X169428438Y-78319285D02*
X169476057Y-78271666D01*
X169380819Y-77938332D02*
X169380819Y-77271666D01*
X169380819Y-77271666D02*
X170380819Y-77700237D01*
X165951819Y-79946285D02*
X165951819Y-79851047D01*
X165951819Y-79851047D02*
X165999438Y-79755809D01*
X165999438Y-79755809D02*
X166047057Y-79708190D01*
X166047057Y-79708190D02*
X166142295Y-79660571D01*
X166142295Y-79660571D02*
X166332771Y-79612952D01*
X166332771Y-79612952D02*
X166570866Y-79612952D01*
X166570866Y-79612952D02*
X166761342Y-79660571D01*
X166761342Y-79660571D02*
X166856580Y-79708190D01*
X166856580Y-79708190D02*
X166904200Y-79755809D01*
X166904200Y-79755809D02*
X166951819Y-79851047D01*
X166951819Y-79851047D02*
X166951819Y-79946285D01*
X166951819Y-79946285D02*
X166904200Y-80041523D01*
X166904200Y-80041523D02*
X166856580Y-80089142D01*
X166856580Y-80089142D02*
X166761342Y-80136761D01*
X166761342Y-80136761D02*
X166570866Y-80184380D01*
X166570866Y-80184380D02*
X166332771Y-80184380D01*
X166332771Y-80184380D02*
X166142295Y-80136761D01*
X166142295Y-80136761D02*
X166047057Y-80089142D01*
X166047057Y-80089142D02*
X165999438Y-80041523D01*
X165999438Y-80041523D02*
X165951819Y-79946285D01*
X166856580Y-79184380D02*
X166904200Y-79136761D01*
X166904200Y-79136761D02*
X166951819Y-79184380D01*
X166951819Y-79184380D02*
X166904200Y-79231999D01*
X166904200Y-79231999D02*
X166856580Y-79184380D01*
X166856580Y-79184380D02*
X166951819Y-79184380D01*
X166951819Y-78184381D02*
X166951819Y-78755809D01*
X166951819Y-78470095D02*
X165951819Y-78470095D01*
X165951819Y-78470095D02*
X166094676Y-78565333D01*
X166094676Y-78565333D02*
X166189914Y-78660571D01*
X166189914Y-78660571D02*
X166237533Y-78755809D01*
X166285152Y-77755809D02*
X167285152Y-77755809D01*
X166808961Y-77279619D02*
X166904200Y-77232000D01*
X166904200Y-77232000D02*
X166951819Y-77136762D01*
X166808961Y-77755809D02*
X166904200Y-77708190D01*
X166904200Y-77708190D02*
X166951819Y-77612952D01*
X166951819Y-77612952D02*
X166951819Y-77422476D01*
X166951819Y-77422476D02*
X166904200Y-77327238D01*
X166904200Y-77327238D02*
X166808961Y-77279619D01*
X166808961Y-77279619D02*
X166285152Y-77279619D01*
X166428009Y-76374857D02*
X166428009Y-76708190D01*
X166951819Y-76708190D02*
X165951819Y-76708190D01*
X165951819Y-76708190D02*
X165951819Y-76232000D01*
X150219580Y-62999857D02*
X150267200Y-63047476D01*
X150267200Y-63047476D02*
X150314819Y-63190333D01*
X150314819Y-63190333D02*
X150314819Y-63285571D01*
X150314819Y-63285571D02*
X150267200Y-63428428D01*
X150267200Y-63428428D02*
X150171961Y-63523666D01*
X150171961Y-63523666D02*
X150076723Y-63571285D01*
X150076723Y-63571285D02*
X149886247Y-63618904D01*
X149886247Y-63618904D02*
X149743390Y-63618904D01*
X149743390Y-63618904D02*
X149552914Y-63571285D01*
X149552914Y-63571285D02*
X149457676Y-63523666D01*
X149457676Y-63523666D02*
X149362438Y-63428428D01*
X149362438Y-63428428D02*
X149314819Y-63285571D01*
X149314819Y-63285571D02*
X149314819Y-63190333D01*
X149314819Y-63190333D02*
X149362438Y-63047476D01*
X149362438Y-63047476D02*
X149410057Y-62999857D01*
X150314819Y-62047476D02*
X150314819Y-62618904D01*
X150314819Y-62333190D02*
X149314819Y-62333190D01*
X149314819Y-62333190D02*
X149457676Y-62428428D01*
X149457676Y-62428428D02*
X149552914Y-62523666D01*
X149552914Y-62523666D02*
X149600533Y-62618904D01*
X149314819Y-61428428D02*
X149314819Y-61333190D01*
X149314819Y-61333190D02*
X149362438Y-61237952D01*
X149362438Y-61237952D02*
X149410057Y-61190333D01*
X149410057Y-61190333D02*
X149505295Y-61142714D01*
X149505295Y-61142714D02*
X149695771Y-61095095D01*
X149695771Y-61095095D02*
X149933866Y-61095095D01*
X149933866Y-61095095D02*
X150124342Y-61142714D01*
X150124342Y-61142714D02*
X150219580Y-61190333D01*
X150219580Y-61190333D02*
X150267200Y-61237952D01*
X150267200Y-61237952D02*
X150314819Y-61333190D01*
X150314819Y-61333190D02*
X150314819Y-61428428D01*
X150314819Y-61428428D02*
X150267200Y-61523666D01*
X150267200Y-61523666D02*
X150219580Y-61571285D01*
X150219580Y-61571285D02*
X150124342Y-61618904D01*
X150124342Y-61618904D02*
X149933866Y-61666523D01*
X149933866Y-61666523D02*
X149695771Y-61666523D01*
X149695771Y-61666523D02*
X149505295Y-61618904D01*
X149505295Y-61618904D02*
X149410057Y-61571285D01*
X149410057Y-61571285D02*
X149362438Y-61523666D01*
X149362438Y-61523666D02*
X149314819Y-61428428D01*
X149441819Y-73056475D02*
X149441819Y-72961237D01*
X149441819Y-72961237D02*
X149489438Y-72865999D01*
X149489438Y-72865999D02*
X149537057Y-72818380D01*
X149537057Y-72818380D02*
X149632295Y-72770761D01*
X149632295Y-72770761D02*
X149822771Y-72723142D01*
X149822771Y-72723142D02*
X150060866Y-72723142D01*
X150060866Y-72723142D02*
X150251342Y-72770761D01*
X150251342Y-72770761D02*
X150346580Y-72818380D01*
X150346580Y-72818380D02*
X150394200Y-72865999D01*
X150394200Y-72865999D02*
X150441819Y-72961237D01*
X150441819Y-72961237D02*
X150441819Y-73056475D01*
X150441819Y-73056475D02*
X150394200Y-73151713D01*
X150394200Y-73151713D02*
X150346580Y-73199332D01*
X150346580Y-73199332D02*
X150251342Y-73246951D01*
X150251342Y-73246951D02*
X150060866Y-73294570D01*
X150060866Y-73294570D02*
X149822771Y-73294570D01*
X149822771Y-73294570D02*
X149632295Y-73246951D01*
X149632295Y-73246951D02*
X149537057Y-73199332D01*
X149537057Y-73199332D02*
X149489438Y-73151713D01*
X149489438Y-73151713D02*
X149441819Y-73056475D01*
X150346580Y-72294570D02*
X150394200Y-72246951D01*
X150394200Y-72246951D02*
X150441819Y-72294570D01*
X150441819Y-72294570D02*
X150394200Y-72342189D01*
X150394200Y-72342189D02*
X150346580Y-72294570D01*
X150346580Y-72294570D02*
X150441819Y-72294570D01*
X149775152Y-71389809D02*
X150441819Y-71389809D01*
X149394200Y-71627904D02*
X150108485Y-71865999D01*
X150108485Y-71865999D02*
X150108485Y-71246952D01*
X149441819Y-70961237D02*
X149441819Y-70294571D01*
X149441819Y-70294571D02*
X150441819Y-70723142D01*
X149775152Y-69913618D02*
X150775152Y-69913618D01*
X150298961Y-69437428D02*
X150394200Y-69389809D01*
X150394200Y-69389809D02*
X150441819Y-69294571D01*
X150298961Y-69913618D02*
X150394200Y-69865999D01*
X150394200Y-69865999D02*
X150441819Y-69770761D01*
X150441819Y-69770761D02*
X150441819Y-69580285D01*
X150441819Y-69580285D02*
X150394200Y-69485047D01*
X150394200Y-69485047D02*
X150298961Y-69437428D01*
X150298961Y-69437428D02*
X149775152Y-69437428D01*
X149918009Y-68532666D02*
X149918009Y-68865999D01*
X150441819Y-68865999D02*
X149441819Y-68865999D01*
X149441819Y-68865999D02*
X149441819Y-68389809D01*
X163607809Y-82401628D02*
X163607809Y-82877819D01*
X163274476Y-81877819D02*
X163607809Y-82401628D01*
X163607809Y-82401628D02*
X163941142Y-81877819D01*
X164798285Y-82877819D02*
X164226857Y-82877819D01*
X164512571Y-82877819D02*
X164512571Y-81877819D01*
X164512571Y-81877819D02*
X164417333Y-82020676D01*
X164417333Y-82020676D02*
X164322095Y-82115914D01*
X164322095Y-82115914D02*
X164226857Y-82163533D01*
X157007023Y-88719819D02*
X156435595Y-88719819D01*
X156721309Y-88719819D02*
X156721309Y-87719819D01*
X156721309Y-87719819D02*
X156626071Y-87862676D01*
X156626071Y-87862676D02*
X156530833Y-87957914D01*
X156530833Y-87957914D02*
X156435595Y-88005533D01*
X157387976Y-87815057D02*
X157435595Y-87767438D01*
X157435595Y-87767438D02*
X157530833Y-87719819D01*
X157530833Y-87719819D02*
X157768928Y-87719819D01*
X157768928Y-87719819D02*
X157864166Y-87767438D01*
X157864166Y-87767438D02*
X157911785Y-87815057D01*
X157911785Y-87815057D02*
X157959404Y-87910295D01*
X157959404Y-87910295D02*
X157959404Y-88005533D01*
X157959404Y-88005533D02*
X157911785Y-88148390D01*
X157911785Y-88148390D02*
X157340357Y-88719819D01*
X157340357Y-88719819D02*
X157959404Y-88719819D01*
X158387976Y-88719819D02*
X158387976Y-87719819D01*
X158387976Y-87719819D02*
X158721309Y-88434104D01*
X158721309Y-88434104D02*
X159054642Y-87719819D01*
X159054642Y-87719819D02*
X159054642Y-88719819D01*
X159530833Y-88719819D02*
X159530833Y-87719819D01*
X159530833Y-88196009D02*
X160102261Y-88196009D01*
X160102261Y-88719819D02*
X160102261Y-87719819D01*
X160483214Y-88053152D02*
X161007023Y-88053152D01*
X161007023Y-88053152D02*
X160483214Y-88719819D01*
X160483214Y-88719819D02*
X161007023Y-88719819D01*
X153905833Y-59639580D02*
X153858214Y-59687200D01*
X153858214Y-59687200D02*
X153715357Y-59734819D01*
X153715357Y-59734819D02*
X153620119Y-59734819D01*
X153620119Y-59734819D02*
X153477262Y-59687200D01*
X153477262Y-59687200D02*
X153382024Y-59591961D01*
X153382024Y-59591961D02*
X153334405Y-59496723D01*
X153334405Y-59496723D02*
X153286786Y-59306247D01*
X153286786Y-59306247D02*
X153286786Y-59163390D01*
X153286786Y-59163390D02*
X153334405Y-58972914D01*
X153334405Y-58972914D02*
X153382024Y-58877676D01*
X153382024Y-58877676D02*
X153477262Y-58782438D01*
X153477262Y-58782438D02*
X153620119Y-58734819D01*
X153620119Y-58734819D02*
X153715357Y-58734819D01*
X153715357Y-58734819D02*
X153858214Y-58782438D01*
X153858214Y-58782438D02*
X153905833Y-58830057D01*
X154286786Y-58830057D02*
X154334405Y-58782438D01*
X154334405Y-58782438D02*
X154429643Y-58734819D01*
X154429643Y-58734819D02*
X154667738Y-58734819D01*
X154667738Y-58734819D02*
X154762976Y-58782438D01*
X154762976Y-58782438D02*
X154810595Y-58830057D01*
X154810595Y-58830057D02*
X154858214Y-58925295D01*
X154858214Y-58925295D02*
X154858214Y-59020533D01*
X154858214Y-59020533D02*
X154810595Y-59163390D01*
X154810595Y-59163390D02*
X154239167Y-59734819D01*
X154239167Y-59734819D02*
X154858214Y-59734819D01*
X156273714Y-60287819D02*
X156368952Y-60287819D01*
X156368952Y-60287819D02*
X156464190Y-60335438D01*
X156464190Y-60335438D02*
X156511809Y-60383057D01*
X156511809Y-60383057D02*
X156559428Y-60478295D01*
X156559428Y-60478295D02*
X156607047Y-60668771D01*
X156607047Y-60668771D02*
X156607047Y-60906866D01*
X156607047Y-60906866D02*
X156559428Y-61097342D01*
X156559428Y-61097342D02*
X156511809Y-61192580D01*
X156511809Y-61192580D02*
X156464190Y-61240200D01*
X156464190Y-61240200D02*
X156368952Y-61287819D01*
X156368952Y-61287819D02*
X156273714Y-61287819D01*
X156273714Y-61287819D02*
X156178476Y-61240200D01*
X156178476Y-61240200D02*
X156130857Y-61192580D01*
X156130857Y-61192580D02*
X156083238Y-61097342D01*
X156083238Y-61097342D02*
X156035619Y-60906866D01*
X156035619Y-60906866D02*
X156035619Y-60668771D01*
X156035619Y-60668771D02*
X156083238Y-60478295D01*
X156083238Y-60478295D02*
X156130857Y-60383057D01*
X156130857Y-60383057D02*
X156178476Y-60335438D01*
X156178476Y-60335438D02*
X156273714Y-60287819D01*
X157035619Y-61192580D02*
X157083238Y-61240200D01*
X157083238Y-61240200D02*
X157035619Y-61287819D01*
X157035619Y-61287819D02*
X156988000Y-61240200D01*
X156988000Y-61240200D02*
X157035619Y-61192580D01*
X157035619Y-61192580D02*
X157035619Y-61287819D01*
X158035618Y-61287819D02*
X157464190Y-61287819D01*
X157749904Y-61287819D02*
X157749904Y-60287819D01*
X157749904Y-60287819D02*
X157654666Y-60430676D01*
X157654666Y-60430676D02*
X157559428Y-60525914D01*
X157559428Y-60525914D02*
X157464190Y-60573533D01*
X158464190Y-60621152D02*
X158464190Y-61621152D01*
X158940380Y-61144961D02*
X158987999Y-61240200D01*
X158987999Y-61240200D02*
X159083237Y-61287819D01*
X158464190Y-61144961D02*
X158511809Y-61240200D01*
X158511809Y-61240200D02*
X158607047Y-61287819D01*
X158607047Y-61287819D02*
X158797523Y-61287819D01*
X158797523Y-61287819D02*
X158892761Y-61240200D01*
X158892761Y-61240200D02*
X158940380Y-61144961D01*
X158940380Y-61144961D02*
X158940380Y-60621152D01*
X159845142Y-60764009D02*
X159511809Y-60764009D01*
X159511809Y-61287819D02*
X159511809Y-60287819D01*
X159511809Y-60287819D02*
X159987999Y-60287819D01*
X136659580Y-75572857D02*
X136707200Y-75620476D01*
X136707200Y-75620476D02*
X136754819Y-75763333D01*
X136754819Y-75763333D02*
X136754819Y-75858571D01*
X136754819Y-75858571D02*
X136707200Y-76001428D01*
X136707200Y-76001428D02*
X136611961Y-76096666D01*
X136611961Y-76096666D02*
X136516723Y-76144285D01*
X136516723Y-76144285D02*
X136326247Y-76191904D01*
X136326247Y-76191904D02*
X136183390Y-76191904D01*
X136183390Y-76191904D02*
X135992914Y-76144285D01*
X135992914Y-76144285D02*
X135897676Y-76096666D01*
X135897676Y-76096666D02*
X135802438Y-76001428D01*
X135802438Y-76001428D02*
X135754819Y-75858571D01*
X135754819Y-75858571D02*
X135754819Y-75763333D01*
X135754819Y-75763333D02*
X135802438Y-75620476D01*
X135802438Y-75620476D02*
X135850057Y-75572857D01*
X136754819Y-74620476D02*
X136754819Y-75191904D01*
X136754819Y-74906190D02*
X135754819Y-74906190D01*
X135754819Y-74906190D02*
X135897676Y-75001428D01*
X135897676Y-75001428D02*
X135992914Y-75096666D01*
X135992914Y-75096666D02*
X136040533Y-75191904D01*
X135754819Y-74287142D02*
X135754819Y-73668095D01*
X135754819Y-73668095D02*
X136135771Y-74001428D01*
X136135771Y-74001428D02*
X136135771Y-73858571D01*
X136135771Y-73858571D02*
X136183390Y-73763333D01*
X136183390Y-73763333D02*
X136231009Y-73715714D01*
X136231009Y-73715714D02*
X136326247Y-73668095D01*
X136326247Y-73668095D02*
X136564342Y-73668095D01*
X136564342Y-73668095D02*
X136659580Y-73715714D01*
X136659580Y-73715714D02*
X136707200Y-73763333D01*
X136707200Y-73763333D02*
X136754819Y-73858571D01*
X136754819Y-73858571D02*
X136754819Y-74144285D01*
X136754819Y-74144285D02*
X136707200Y-74239523D01*
X136707200Y-74239523D02*
X136659580Y-74287142D01*
X133667714Y-76797819D02*
X133762952Y-76797819D01*
X133762952Y-76797819D02*
X133858190Y-76845438D01*
X133858190Y-76845438D02*
X133905809Y-76893057D01*
X133905809Y-76893057D02*
X133953428Y-76988295D01*
X133953428Y-76988295D02*
X134001047Y-77178771D01*
X134001047Y-77178771D02*
X134001047Y-77416866D01*
X134001047Y-77416866D02*
X133953428Y-77607342D01*
X133953428Y-77607342D02*
X133905809Y-77702580D01*
X133905809Y-77702580D02*
X133858190Y-77750200D01*
X133858190Y-77750200D02*
X133762952Y-77797819D01*
X133762952Y-77797819D02*
X133667714Y-77797819D01*
X133667714Y-77797819D02*
X133572476Y-77750200D01*
X133572476Y-77750200D02*
X133524857Y-77702580D01*
X133524857Y-77702580D02*
X133477238Y-77607342D01*
X133477238Y-77607342D02*
X133429619Y-77416866D01*
X133429619Y-77416866D02*
X133429619Y-77178771D01*
X133429619Y-77178771D02*
X133477238Y-76988295D01*
X133477238Y-76988295D02*
X133524857Y-76893057D01*
X133524857Y-76893057D02*
X133572476Y-76845438D01*
X133572476Y-76845438D02*
X133667714Y-76797819D01*
X134429619Y-77702580D02*
X134477238Y-77750200D01*
X134477238Y-77750200D02*
X134429619Y-77797819D01*
X134429619Y-77797819D02*
X134382000Y-77750200D01*
X134382000Y-77750200D02*
X134429619Y-77702580D01*
X134429619Y-77702580D02*
X134429619Y-77797819D01*
X135429618Y-77797819D02*
X134858190Y-77797819D01*
X135143904Y-77797819D02*
X135143904Y-76797819D01*
X135143904Y-76797819D02*
X135048666Y-76940676D01*
X135048666Y-76940676D02*
X134953428Y-77035914D01*
X134953428Y-77035914D02*
X134858190Y-77083533D01*
X135858190Y-77131152D02*
X135858190Y-78131152D01*
X136334380Y-77654961D02*
X136381999Y-77750200D01*
X136381999Y-77750200D02*
X136477237Y-77797819D01*
X135858190Y-77654961D02*
X135905809Y-77750200D01*
X135905809Y-77750200D02*
X136001047Y-77797819D01*
X136001047Y-77797819D02*
X136191523Y-77797819D01*
X136191523Y-77797819D02*
X136286761Y-77750200D01*
X136286761Y-77750200D02*
X136334380Y-77654961D01*
X136334380Y-77654961D02*
X136334380Y-77131152D01*
X137239142Y-77274009D02*
X136905809Y-77274009D01*
X136905809Y-77797819D02*
X136905809Y-76797819D01*
X136905809Y-76797819D02*
X137381999Y-76797819D01*
X147089905Y-84147819D02*
X147089905Y-83147819D01*
X147089905Y-83147819D02*
X147328000Y-83147819D01*
X147328000Y-83147819D02*
X147470857Y-83195438D01*
X147470857Y-83195438D02*
X147566095Y-83290676D01*
X147566095Y-83290676D02*
X147613714Y-83385914D01*
X147613714Y-83385914D02*
X147661333Y-83576390D01*
X147661333Y-83576390D02*
X147661333Y-83719247D01*
X147661333Y-83719247D02*
X147613714Y-83909723D01*
X147613714Y-83909723D02*
X147566095Y-84004961D01*
X147566095Y-84004961D02*
X147470857Y-84100200D01*
X147470857Y-84100200D02*
X147328000Y-84147819D01*
X147328000Y-84147819D02*
X147089905Y-84147819D01*
X148613714Y-84147819D02*
X148042286Y-84147819D01*
X148328000Y-84147819D02*
X148328000Y-83147819D01*
X148328000Y-83147819D02*
X148232762Y-83290676D01*
X148232762Y-83290676D02*
X148137524Y-83385914D01*
X148137524Y-83385914D02*
X148042286Y-83433533D01*
X144907095Y-77813819D02*
X144907095Y-78623342D01*
X144907095Y-78623342D02*
X144954714Y-78718580D01*
X144954714Y-78718580D02*
X145002333Y-78766200D01*
X145002333Y-78766200D02*
X145097571Y-78813819D01*
X145097571Y-78813819D02*
X145288047Y-78813819D01*
X145288047Y-78813819D02*
X145383285Y-78766200D01*
X145383285Y-78766200D02*
X145430904Y-78718580D01*
X145430904Y-78718580D02*
X145478523Y-78623342D01*
X145478523Y-78623342D02*
X145478523Y-77813819D01*
X145859476Y-77813819D02*
X146478523Y-77813819D01*
X146478523Y-77813819D02*
X146145190Y-78194771D01*
X146145190Y-78194771D02*
X146288047Y-78194771D01*
X146288047Y-78194771D02*
X146383285Y-78242390D01*
X146383285Y-78242390D02*
X146430904Y-78290009D01*
X146430904Y-78290009D02*
X146478523Y-78385247D01*
X146478523Y-78385247D02*
X146478523Y-78623342D01*
X146478523Y-78623342D02*
X146430904Y-78718580D01*
X146430904Y-78718580D02*
X146383285Y-78766200D01*
X146383285Y-78766200D02*
X146288047Y-78813819D01*
X146288047Y-78813819D02*
X146002333Y-78813819D01*
X146002333Y-78813819D02*
X145907095Y-78766200D01*
X145907095Y-78766200D02*
X145859476Y-78718580D01*
X138636857Y-82877819D02*
X138636857Y-81877819D01*
X139113047Y-82877819D02*
X139113047Y-81877819D01*
X139113047Y-81877819D02*
X139493999Y-81877819D01*
X139493999Y-81877819D02*
X139589237Y-81925438D01*
X139589237Y-81925438D02*
X139636856Y-81973057D01*
X139636856Y-81973057D02*
X139684475Y-82068295D01*
X139684475Y-82068295D02*
X139684475Y-82211152D01*
X139684475Y-82211152D02*
X139636856Y-82306390D01*
X139636856Y-82306390D02*
X139589237Y-82354009D01*
X139589237Y-82354009D02*
X139493999Y-82401628D01*
X139493999Y-82401628D02*
X139113047Y-82401628D01*
X140541618Y-82211152D02*
X140541618Y-82877819D01*
X140303523Y-81830200D02*
X140065428Y-82544485D01*
X140065428Y-82544485D02*
X140684475Y-82544485D01*
X141017809Y-81973057D02*
X141065428Y-81925438D01*
X141065428Y-81925438D02*
X141160666Y-81877819D01*
X141160666Y-81877819D02*
X141398761Y-81877819D01*
X141398761Y-81877819D02*
X141493999Y-81925438D01*
X141493999Y-81925438D02*
X141541618Y-81973057D01*
X141541618Y-81973057D02*
X141589237Y-82068295D01*
X141589237Y-82068295D02*
X141589237Y-82163533D01*
X141589237Y-82163533D02*
X141541618Y-82306390D01*
X141541618Y-82306390D02*
X140970190Y-82877819D01*
X140970190Y-82877819D02*
X141589237Y-82877819D01*
X141922571Y-81877819D02*
X142541618Y-81877819D01*
X142541618Y-81877819D02*
X142208285Y-82258771D01*
X142208285Y-82258771D02*
X142351142Y-82258771D01*
X142351142Y-82258771D02*
X142446380Y-82306390D01*
X142446380Y-82306390D02*
X142493999Y-82354009D01*
X142493999Y-82354009D02*
X142541618Y-82449247D01*
X142541618Y-82449247D02*
X142541618Y-82687342D01*
X142541618Y-82687342D02*
X142493999Y-82782580D01*
X142493999Y-82782580D02*
X142446380Y-82830200D01*
X142446380Y-82830200D02*
X142351142Y-82877819D01*
X142351142Y-82877819D02*
X142065428Y-82877819D01*
X142065428Y-82877819D02*
X141970190Y-82830200D01*
X141970190Y-82830200D02*
X141922571Y-82782580D01*
X143398761Y-82211152D02*
X143398761Y-82877819D01*
X143160666Y-81830200D02*
X142922571Y-82544485D01*
X142922571Y-82544485D02*
X143541618Y-82544485D01*
X144493999Y-82782580D02*
X144446380Y-82830200D01*
X144446380Y-82830200D02*
X144303523Y-82877819D01*
X144303523Y-82877819D02*
X144208285Y-82877819D01*
X144208285Y-82877819D02*
X144065428Y-82830200D01*
X144065428Y-82830200D02*
X143970190Y-82734961D01*
X143970190Y-82734961D02*
X143922571Y-82639723D01*
X143922571Y-82639723D02*
X143874952Y-82449247D01*
X143874952Y-82449247D02*
X143874952Y-82306390D01*
X143874952Y-82306390D02*
X143922571Y-82115914D01*
X143922571Y-82115914D02*
X143970190Y-82020676D01*
X143970190Y-82020676D02*
X144065428Y-81925438D01*
X144065428Y-81925438D02*
X144208285Y-81877819D01*
X144208285Y-81877819D02*
X144303523Y-81877819D01*
X144303523Y-81877819D02*
X144446380Y-81925438D01*
X144446380Y-81925438D02*
X144493999Y-81973057D01*
X144827333Y-81877819D02*
X145493999Y-81877819D01*
X145493999Y-81877819D02*
X144827333Y-82877819D01*
X144827333Y-82877819D02*
X145493999Y-82877819D01*
X146303523Y-81877819D02*
X146113047Y-81877819D01*
X146113047Y-81877819D02*
X146017809Y-81925438D01*
X146017809Y-81925438D02*
X145970190Y-81973057D01*
X145970190Y-81973057D02*
X145874952Y-82115914D01*
X145874952Y-82115914D02*
X145827333Y-82306390D01*
X145827333Y-82306390D02*
X145827333Y-82687342D01*
X145827333Y-82687342D02*
X145874952Y-82782580D01*
X145874952Y-82782580D02*
X145922571Y-82830200D01*
X145922571Y-82830200D02*
X146017809Y-82877819D01*
X146017809Y-82877819D02*
X146208285Y-82877819D01*
X146208285Y-82877819D02*
X146303523Y-82830200D01*
X146303523Y-82830200D02*
X146351142Y-82782580D01*
X146351142Y-82782580D02*
X146398761Y-82687342D01*
X146398761Y-82687342D02*
X146398761Y-82449247D01*
X146398761Y-82449247D02*
X146351142Y-82354009D01*
X146351142Y-82354009D02*
X146303523Y-82306390D01*
X146303523Y-82306390D02*
X146208285Y-82258771D01*
X146208285Y-82258771D02*
X146017809Y-82258771D01*
X146017809Y-82258771D02*
X145922571Y-82306390D01*
X145922571Y-82306390D02*
X145874952Y-82354009D01*
X145874952Y-82354009D02*
X145827333Y-82449247D01*
X176595833Y-62814580D02*
X176548214Y-62862200D01*
X176548214Y-62862200D02*
X176405357Y-62909819D01*
X176405357Y-62909819D02*
X176310119Y-62909819D01*
X176310119Y-62909819D02*
X176167262Y-62862200D01*
X176167262Y-62862200D02*
X176072024Y-62766961D01*
X176072024Y-62766961D02*
X176024405Y-62671723D01*
X176024405Y-62671723D02*
X175976786Y-62481247D01*
X175976786Y-62481247D02*
X175976786Y-62338390D01*
X175976786Y-62338390D02*
X176024405Y-62147914D01*
X176024405Y-62147914D02*
X176072024Y-62052676D01*
X176072024Y-62052676D02*
X176167262Y-61957438D01*
X176167262Y-61957438D02*
X176310119Y-61909819D01*
X176310119Y-61909819D02*
X176405357Y-61909819D01*
X176405357Y-61909819D02*
X176548214Y-61957438D01*
X176548214Y-61957438D02*
X176595833Y-62005057D01*
X176929167Y-61909819D02*
X177548214Y-61909819D01*
X177548214Y-61909819D02*
X177214881Y-62290771D01*
X177214881Y-62290771D02*
X177357738Y-62290771D01*
X177357738Y-62290771D02*
X177452976Y-62338390D01*
X177452976Y-62338390D02*
X177500595Y-62386009D01*
X177500595Y-62386009D02*
X177548214Y-62481247D01*
X177548214Y-62481247D02*
X177548214Y-62719342D01*
X177548214Y-62719342D02*
X177500595Y-62814580D01*
X177500595Y-62814580D02*
X177452976Y-62862200D01*
X177452976Y-62862200D02*
X177357738Y-62909819D01*
X177357738Y-62909819D02*
X177072024Y-62909819D01*
X177072024Y-62909819D02*
X176976786Y-62862200D01*
X176976786Y-62862200D02*
X176929167Y-62814580D01*
X175958714Y-65240819D02*
X176053952Y-65240819D01*
X176053952Y-65240819D02*
X176149190Y-65288438D01*
X176149190Y-65288438D02*
X176196809Y-65336057D01*
X176196809Y-65336057D02*
X176244428Y-65431295D01*
X176244428Y-65431295D02*
X176292047Y-65621771D01*
X176292047Y-65621771D02*
X176292047Y-65859866D01*
X176292047Y-65859866D02*
X176244428Y-66050342D01*
X176244428Y-66050342D02*
X176196809Y-66145580D01*
X176196809Y-66145580D02*
X176149190Y-66193200D01*
X176149190Y-66193200D02*
X176053952Y-66240819D01*
X176053952Y-66240819D02*
X175958714Y-66240819D01*
X175958714Y-66240819D02*
X175863476Y-66193200D01*
X175863476Y-66193200D02*
X175815857Y-66145580D01*
X175815857Y-66145580D02*
X175768238Y-66050342D01*
X175768238Y-66050342D02*
X175720619Y-65859866D01*
X175720619Y-65859866D02*
X175720619Y-65621771D01*
X175720619Y-65621771D02*
X175768238Y-65431295D01*
X175768238Y-65431295D02*
X175815857Y-65336057D01*
X175815857Y-65336057D02*
X175863476Y-65288438D01*
X175863476Y-65288438D02*
X175958714Y-65240819D01*
X176720619Y-66145580D02*
X176768238Y-66193200D01*
X176768238Y-66193200D02*
X176720619Y-66240819D01*
X176720619Y-66240819D02*
X176673000Y-66193200D01*
X176673000Y-66193200D02*
X176720619Y-66145580D01*
X176720619Y-66145580D02*
X176720619Y-66240819D01*
X177720618Y-66240819D02*
X177149190Y-66240819D01*
X177434904Y-66240819D02*
X177434904Y-65240819D01*
X177434904Y-65240819D02*
X177339666Y-65383676D01*
X177339666Y-65383676D02*
X177244428Y-65478914D01*
X177244428Y-65478914D02*
X177149190Y-65526533D01*
X178149190Y-65574152D02*
X178149190Y-66574152D01*
X178625380Y-66097961D02*
X178672999Y-66193200D01*
X178672999Y-66193200D02*
X178768237Y-66240819D01*
X178149190Y-66097961D02*
X178196809Y-66193200D01*
X178196809Y-66193200D02*
X178292047Y-66240819D01*
X178292047Y-66240819D02*
X178482523Y-66240819D01*
X178482523Y-66240819D02*
X178577761Y-66193200D01*
X178577761Y-66193200D02*
X178625380Y-66097961D01*
X178625380Y-66097961D02*
X178625380Y-65574152D01*
X179530142Y-65717009D02*
X179196809Y-65717009D01*
X179196809Y-66240819D02*
X179196809Y-65240819D01*
X179196809Y-65240819D02*
X179672999Y-65240819D01*
X179667819Y-78049333D02*
X180382104Y-78049333D01*
X180382104Y-78049333D02*
X180524961Y-78096952D01*
X180524961Y-78096952D02*
X180620200Y-78192190D01*
X180620200Y-78192190D02*
X180667819Y-78335047D01*
X180667819Y-78335047D02*
X180667819Y-78430285D01*
X180667819Y-77573142D02*
X179667819Y-77573142D01*
X179667819Y-77573142D02*
X179667819Y-77192190D01*
X179667819Y-77192190D02*
X179715438Y-77096952D01*
X179715438Y-77096952D02*
X179763057Y-77049333D01*
X179763057Y-77049333D02*
X179858295Y-77001714D01*
X179858295Y-77001714D02*
X180001152Y-77001714D01*
X180001152Y-77001714D02*
X180096390Y-77049333D01*
X180096390Y-77049333D02*
X180144009Y-77096952D01*
X180144009Y-77096952D02*
X180191628Y-77192190D01*
X180191628Y-77192190D02*
X180191628Y-77573142D01*
X180001152Y-76144571D02*
X180667819Y-76144571D01*
X179620200Y-76382666D02*
X180334485Y-76620761D01*
X180334485Y-76620761D02*
X180334485Y-76001714D01*
X170412580Y-69149166D02*
X170460200Y-69196785D01*
X170460200Y-69196785D02*
X170507819Y-69339642D01*
X170507819Y-69339642D02*
X170507819Y-69434880D01*
X170507819Y-69434880D02*
X170460200Y-69577737D01*
X170460200Y-69577737D02*
X170364961Y-69672975D01*
X170364961Y-69672975D02*
X170269723Y-69720594D01*
X170269723Y-69720594D02*
X170079247Y-69768213D01*
X170079247Y-69768213D02*
X169936390Y-69768213D01*
X169936390Y-69768213D02*
X169745914Y-69720594D01*
X169745914Y-69720594D02*
X169650676Y-69672975D01*
X169650676Y-69672975D02*
X169555438Y-69577737D01*
X169555438Y-69577737D02*
X169507819Y-69434880D01*
X169507819Y-69434880D02*
X169507819Y-69339642D01*
X169507819Y-69339642D02*
X169555438Y-69196785D01*
X169555438Y-69196785D02*
X169603057Y-69149166D01*
X169841152Y-68292023D02*
X170507819Y-68292023D01*
X169460200Y-68530118D02*
X170174485Y-68768213D01*
X170174485Y-68768213D02*
X170174485Y-68149166D01*
X165951819Y-70696785D02*
X165951819Y-70601547D01*
X165951819Y-70601547D02*
X165999438Y-70506309D01*
X165999438Y-70506309D02*
X166047057Y-70458690D01*
X166047057Y-70458690D02*
X166142295Y-70411071D01*
X166142295Y-70411071D02*
X166332771Y-70363452D01*
X166332771Y-70363452D02*
X166570866Y-70363452D01*
X166570866Y-70363452D02*
X166761342Y-70411071D01*
X166761342Y-70411071D02*
X166856580Y-70458690D01*
X166856580Y-70458690D02*
X166904200Y-70506309D01*
X166904200Y-70506309D02*
X166951819Y-70601547D01*
X166951819Y-70601547D02*
X166951819Y-70696785D01*
X166951819Y-70696785D02*
X166904200Y-70792023D01*
X166904200Y-70792023D02*
X166856580Y-70839642D01*
X166856580Y-70839642D02*
X166761342Y-70887261D01*
X166761342Y-70887261D02*
X166570866Y-70934880D01*
X166570866Y-70934880D02*
X166332771Y-70934880D01*
X166332771Y-70934880D02*
X166142295Y-70887261D01*
X166142295Y-70887261D02*
X166047057Y-70839642D01*
X166047057Y-70839642D02*
X165999438Y-70792023D01*
X165999438Y-70792023D02*
X165951819Y-70696785D01*
X166856580Y-69934880D02*
X166904200Y-69887261D01*
X166904200Y-69887261D02*
X166951819Y-69934880D01*
X166951819Y-69934880D02*
X166904200Y-69982499D01*
X166904200Y-69982499D02*
X166856580Y-69934880D01*
X166856580Y-69934880D02*
X166951819Y-69934880D01*
X166951819Y-68934881D02*
X166951819Y-69506309D01*
X166951819Y-69220595D02*
X165951819Y-69220595D01*
X165951819Y-69220595D02*
X166094676Y-69315833D01*
X166094676Y-69315833D02*
X166189914Y-69411071D01*
X166189914Y-69411071D02*
X166237533Y-69506309D01*
X166285152Y-68506309D02*
X167285152Y-68506309D01*
X166808961Y-68030119D02*
X166904200Y-67982500D01*
X166904200Y-67982500D02*
X166951819Y-67887262D01*
X166808961Y-68506309D02*
X166904200Y-68458690D01*
X166904200Y-68458690D02*
X166951819Y-68363452D01*
X166951819Y-68363452D02*
X166951819Y-68172976D01*
X166951819Y-68172976D02*
X166904200Y-68077738D01*
X166904200Y-68077738D02*
X166808961Y-68030119D01*
X166808961Y-68030119D02*
X166285152Y-68030119D01*
X166428009Y-67125357D02*
X166428009Y-67458690D01*
X166951819Y-67458690D02*
X165951819Y-67458690D01*
X165951819Y-67458690D02*
X165951819Y-66982500D01*
X171283333Y-62814580D02*
X171235714Y-62862200D01*
X171235714Y-62862200D02*
X171092857Y-62909819D01*
X171092857Y-62909819D02*
X170997619Y-62909819D01*
X170997619Y-62909819D02*
X170854762Y-62862200D01*
X170854762Y-62862200D02*
X170759524Y-62766961D01*
X170759524Y-62766961D02*
X170711905Y-62671723D01*
X170711905Y-62671723D02*
X170664286Y-62481247D01*
X170664286Y-62481247D02*
X170664286Y-62338390D01*
X170664286Y-62338390D02*
X170711905Y-62147914D01*
X170711905Y-62147914D02*
X170759524Y-62052676D01*
X170759524Y-62052676D02*
X170854762Y-61957438D01*
X170854762Y-61957438D02*
X170997619Y-61909819D01*
X170997619Y-61909819D02*
X171092857Y-61909819D01*
X171092857Y-61909819D02*
X171235714Y-61957438D01*
X171235714Y-61957438D02*
X171283333Y-62005057D01*
X172140476Y-61909819D02*
X171950000Y-61909819D01*
X171950000Y-61909819D02*
X171854762Y-61957438D01*
X171854762Y-61957438D02*
X171807143Y-62005057D01*
X171807143Y-62005057D02*
X171711905Y-62147914D01*
X171711905Y-62147914D02*
X171664286Y-62338390D01*
X171664286Y-62338390D02*
X171664286Y-62719342D01*
X171664286Y-62719342D02*
X171711905Y-62814580D01*
X171711905Y-62814580D02*
X171759524Y-62862200D01*
X171759524Y-62862200D02*
X171854762Y-62909819D01*
X171854762Y-62909819D02*
X172045238Y-62909819D01*
X172045238Y-62909819D02*
X172140476Y-62862200D01*
X172140476Y-62862200D02*
X172188095Y-62814580D01*
X172188095Y-62814580D02*
X172235714Y-62719342D01*
X172235714Y-62719342D02*
X172235714Y-62481247D01*
X172235714Y-62481247D02*
X172188095Y-62386009D01*
X172188095Y-62386009D02*
X172140476Y-62338390D01*
X172140476Y-62338390D02*
X172045238Y-62290771D01*
X172045238Y-62290771D02*
X171854762Y-62290771D01*
X171854762Y-62290771D02*
X171759524Y-62338390D01*
X171759524Y-62338390D02*
X171711905Y-62386009D01*
X171711905Y-62386009D02*
X171664286Y-62481247D01*
X168846714Y-65240819D02*
X168941952Y-65240819D01*
X168941952Y-65240819D02*
X169037190Y-65288438D01*
X169037190Y-65288438D02*
X169084809Y-65336057D01*
X169084809Y-65336057D02*
X169132428Y-65431295D01*
X169132428Y-65431295D02*
X169180047Y-65621771D01*
X169180047Y-65621771D02*
X169180047Y-65859866D01*
X169180047Y-65859866D02*
X169132428Y-66050342D01*
X169132428Y-66050342D02*
X169084809Y-66145580D01*
X169084809Y-66145580D02*
X169037190Y-66193200D01*
X169037190Y-66193200D02*
X168941952Y-66240819D01*
X168941952Y-66240819D02*
X168846714Y-66240819D01*
X168846714Y-66240819D02*
X168751476Y-66193200D01*
X168751476Y-66193200D02*
X168703857Y-66145580D01*
X168703857Y-66145580D02*
X168656238Y-66050342D01*
X168656238Y-66050342D02*
X168608619Y-65859866D01*
X168608619Y-65859866D02*
X168608619Y-65621771D01*
X168608619Y-65621771D02*
X168656238Y-65431295D01*
X168656238Y-65431295D02*
X168703857Y-65336057D01*
X168703857Y-65336057D02*
X168751476Y-65288438D01*
X168751476Y-65288438D02*
X168846714Y-65240819D01*
X169608619Y-66145580D02*
X169656238Y-66193200D01*
X169656238Y-66193200D02*
X169608619Y-66240819D01*
X169608619Y-66240819D02*
X169561000Y-66193200D01*
X169561000Y-66193200D02*
X169608619Y-66145580D01*
X169608619Y-66145580D02*
X169608619Y-66240819D01*
X170608618Y-66240819D02*
X170037190Y-66240819D01*
X170322904Y-66240819D02*
X170322904Y-65240819D01*
X170322904Y-65240819D02*
X170227666Y-65383676D01*
X170227666Y-65383676D02*
X170132428Y-65478914D01*
X170132428Y-65478914D02*
X170037190Y-65526533D01*
X171037190Y-65574152D02*
X171037190Y-66574152D01*
X171513380Y-66097961D02*
X171560999Y-66193200D01*
X171560999Y-66193200D02*
X171656237Y-66240819D01*
X171037190Y-66097961D02*
X171084809Y-66193200D01*
X171084809Y-66193200D02*
X171180047Y-66240819D01*
X171180047Y-66240819D02*
X171370523Y-66240819D01*
X171370523Y-66240819D02*
X171465761Y-66193200D01*
X171465761Y-66193200D02*
X171513380Y-66097961D01*
X171513380Y-66097961D02*
X171513380Y-65574152D01*
X172418142Y-65717009D02*
X172084809Y-65717009D01*
X172084809Y-66240819D02*
X172084809Y-65240819D01*
X172084809Y-65240819D02*
X172560999Y-65240819D01*
X147774819Y-63793666D02*
X147298628Y-64126999D01*
X147774819Y-64365094D02*
X146774819Y-64365094D01*
X146774819Y-64365094D02*
X146774819Y-63984142D01*
X146774819Y-63984142D02*
X146822438Y-63888904D01*
X146822438Y-63888904D02*
X146870057Y-63841285D01*
X146870057Y-63841285D02*
X146965295Y-63793666D01*
X146965295Y-63793666D02*
X147108152Y-63793666D01*
X147108152Y-63793666D02*
X147203390Y-63841285D01*
X147203390Y-63841285D02*
X147251009Y-63888904D01*
X147251009Y-63888904D02*
X147298628Y-63984142D01*
X147298628Y-63984142D02*
X147298628Y-64365094D01*
X146774819Y-63460332D02*
X146774819Y-62841285D01*
X146774819Y-62841285D02*
X147155771Y-63174618D01*
X147155771Y-63174618D02*
X147155771Y-63031761D01*
X147155771Y-63031761D02*
X147203390Y-62936523D01*
X147203390Y-62936523D02*
X147251009Y-62888904D01*
X147251009Y-62888904D02*
X147346247Y-62841285D01*
X147346247Y-62841285D02*
X147584342Y-62841285D01*
X147584342Y-62841285D02*
X147679580Y-62888904D01*
X147679580Y-62888904D02*
X147727200Y-62936523D01*
X147727200Y-62936523D02*
X147774819Y-63031761D01*
X147774819Y-63031761D02*
X147774819Y-63317475D01*
X147774819Y-63317475D02*
X147727200Y-63412713D01*
X147727200Y-63412713D02*
X147679580Y-63460332D01*
X147235152Y-70159476D02*
X147901819Y-70159476D01*
X146854200Y-70397571D02*
X147568485Y-70635666D01*
X147568485Y-70635666D02*
X147568485Y-70016619D01*
X147901819Y-69635666D02*
X146901819Y-69635666D01*
X147520866Y-69540428D02*
X147901819Y-69254714D01*
X147235152Y-69254714D02*
X147616104Y-69635666D01*
X146901819Y-68921380D02*
X146901819Y-68254714D01*
X146901819Y-68254714D02*
X147901819Y-68683285D01*
X157988095Y-61814819D02*
X157988095Y-62624342D01*
X157988095Y-62624342D02*
X158035714Y-62719580D01*
X158035714Y-62719580D02*
X158083333Y-62767200D01*
X158083333Y-62767200D02*
X158178571Y-62814819D01*
X158178571Y-62814819D02*
X158369047Y-62814819D01*
X158369047Y-62814819D02*
X158464285Y-62767200D01*
X158464285Y-62767200D02*
X158511904Y-62719580D01*
X158511904Y-62719580D02*
X158559523Y-62624342D01*
X158559523Y-62624342D02*
X158559523Y-61814819D01*
X159559523Y-62814819D02*
X158988095Y-62814819D01*
X159273809Y-62814819D02*
X159273809Y-61814819D01*
X159273809Y-61814819D02*
X159178571Y-61957676D01*
X159178571Y-61957676D02*
X159083333Y-62052914D01*
X159083333Y-62052914D02*
X158988095Y-62100533D01*
D11*
X161284664Y-78876071D02*
X161351188Y-78942595D01*
X161351188Y-78942595D02*
X161417711Y-79142166D01*
X161417711Y-79142166D02*
X161417711Y-79275214D01*
X161417711Y-79275214D02*
X161351188Y-79474785D01*
X161351188Y-79474785D02*
X161218140Y-79607833D01*
X161218140Y-79607833D02*
X161085092Y-79674356D01*
X161085092Y-79674356D02*
X160818997Y-79740880D01*
X160818997Y-79740880D02*
X160619426Y-79740880D01*
X160619426Y-79740880D02*
X160353330Y-79674356D01*
X160353330Y-79674356D02*
X160220283Y-79607833D01*
X160220283Y-79607833D02*
X160087235Y-79474785D01*
X160087235Y-79474785D02*
X160020711Y-79275214D01*
X160020711Y-79275214D02*
X160020711Y-79142166D01*
X160020711Y-79142166D02*
X160087235Y-78942595D01*
X160087235Y-78942595D02*
X160153759Y-78876071D01*
X161417711Y-78277356D02*
X160020711Y-78277356D01*
X160685949Y-78277356D02*
X160685949Y-77479071D01*
X161417711Y-77479071D02*
X160020711Y-77479071D01*
X160020711Y-76946880D02*
X160020711Y-76082071D01*
X160020711Y-76082071D02*
X160552902Y-76547737D01*
X160552902Y-76547737D02*
X160552902Y-76348166D01*
X160552902Y-76348166D02*
X160619426Y-76215118D01*
X160619426Y-76215118D02*
X160685949Y-76148594D01*
X160685949Y-76148594D02*
X160818997Y-76082071D01*
X160818997Y-76082071D02*
X161151616Y-76082071D01*
X161151616Y-76082071D02*
X161284664Y-76148594D01*
X161284664Y-76148594D02*
X161351188Y-76215118D01*
X161351188Y-76215118D02*
X161417711Y-76348166D01*
X161417711Y-76348166D02*
X161417711Y-76747309D01*
X161417711Y-76747309D02*
X161351188Y-76880356D01*
X161351188Y-76880356D02*
X161284664Y-76946880D01*
X160020711Y-75616404D02*
X160020711Y-74685071D01*
X160020711Y-74685071D02*
X161417711Y-75283785D01*
X160020711Y-73487642D02*
X160020711Y-74152880D01*
X160020711Y-74152880D02*
X160685949Y-74219404D01*
X160685949Y-74219404D02*
X160619426Y-74152880D01*
X160619426Y-74152880D02*
X160552902Y-74019833D01*
X160552902Y-74019833D02*
X160552902Y-73687214D01*
X160552902Y-73687214D02*
X160619426Y-73554166D01*
X160619426Y-73554166D02*
X160685949Y-73487642D01*
X160685949Y-73487642D02*
X160818997Y-73421119D01*
X160818997Y-73421119D02*
X161151616Y-73421119D01*
X161151616Y-73421119D02*
X161284664Y-73487642D01*
X161284664Y-73487642D02*
X161351188Y-73554166D01*
X161351188Y-73554166D02*
X161417711Y-73687214D01*
X161417711Y-73687214D02*
X161417711Y-74019833D01*
X161417711Y-74019833D02*
X161351188Y-74152880D01*
X161351188Y-74152880D02*
X161284664Y-74219404D01*
D14*
X140168333Y-87829819D02*
X139835000Y-87353628D01*
X139596905Y-87829819D02*
X139596905Y-86829819D01*
X139596905Y-86829819D02*
X139977857Y-86829819D01*
X139977857Y-86829819D02*
X140073095Y-86877438D01*
X140073095Y-86877438D02*
X140120714Y-86925057D01*
X140120714Y-86925057D02*
X140168333Y-87020295D01*
X140168333Y-87020295D02*
X140168333Y-87163152D01*
X140168333Y-87163152D02*
X140120714Y-87258390D01*
X140120714Y-87258390D02*
X140073095Y-87306009D01*
X140073095Y-87306009D02*
X139977857Y-87353628D01*
X139977857Y-87353628D02*
X139596905Y-87353628D01*
X141120714Y-87829819D02*
X140549286Y-87829819D01*
X140835000Y-87829819D02*
X140835000Y-86829819D01*
X140835000Y-86829819D02*
X140739762Y-86972676D01*
X140739762Y-86972676D02*
X140644524Y-87067914D01*
X140644524Y-87067914D02*
X140549286Y-87115533D01*
X140215952Y-84529819D02*
X139644524Y-84529819D01*
X139930238Y-84529819D02*
X139930238Y-83529819D01*
X139930238Y-83529819D02*
X139835000Y-83672676D01*
X139835000Y-83672676D02*
X139739762Y-83767914D01*
X139739762Y-83767914D02*
X139644524Y-83815533D01*
X140644524Y-84529819D02*
X140644524Y-83529819D01*
X140739762Y-84148866D02*
X141025476Y-84529819D01*
X141025476Y-83863152D02*
X140644524Y-84244104D01*
X138741009Y-69159333D02*
X138741009Y-69492666D01*
X139264819Y-69492666D02*
X138264819Y-69492666D01*
X138264819Y-69492666D02*
X138264819Y-69016476D01*
X138741009Y-68302190D02*
X138788628Y-68159333D01*
X138788628Y-68159333D02*
X138836247Y-68111714D01*
X138836247Y-68111714D02*
X138931485Y-68064095D01*
X138931485Y-68064095D02*
X139074342Y-68064095D01*
X139074342Y-68064095D02*
X139169580Y-68111714D01*
X139169580Y-68111714D02*
X139217200Y-68159333D01*
X139217200Y-68159333D02*
X139264819Y-68254571D01*
X139264819Y-68254571D02*
X139264819Y-68635523D01*
X139264819Y-68635523D02*
X138264819Y-68635523D01*
X138264819Y-68635523D02*
X138264819Y-68302190D01*
X138264819Y-68302190D02*
X138312438Y-68206952D01*
X138312438Y-68206952D02*
X138360057Y-68159333D01*
X138360057Y-68159333D02*
X138455295Y-68111714D01*
X138455295Y-68111714D02*
X138550533Y-68111714D01*
X138550533Y-68111714D02*
X138645771Y-68159333D01*
X138645771Y-68159333D02*
X138693390Y-68206952D01*
X138693390Y-68206952D02*
X138741009Y-68302190D01*
X138741009Y-68302190D02*
X138741009Y-68635523D01*
X139264819Y-67111714D02*
X139264819Y-67683142D01*
X139264819Y-67397428D02*
X138264819Y-67397428D01*
X138264819Y-67397428D02*
X138407676Y-67492666D01*
X138407676Y-67492666D02*
X138502914Y-67587904D01*
X138502914Y-67587904D02*
X138550533Y-67683142D01*
X136201009Y-70818333D02*
X136201009Y-71151666D01*
X136724819Y-71151666D02*
X135724819Y-71151666D01*
X135724819Y-71151666D02*
X135724819Y-70675476D01*
X136724819Y-69770714D02*
X136724819Y-70342142D01*
X136724819Y-70056428D02*
X135724819Y-70056428D01*
X135724819Y-70056428D02*
X135867676Y-70151666D01*
X135867676Y-70151666D02*
X135962914Y-70246904D01*
X135962914Y-70246904D02*
X136010533Y-70342142D01*
X132819819Y-79978333D02*
X133534104Y-79978333D01*
X133534104Y-79978333D02*
X133676961Y-80025952D01*
X133676961Y-80025952D02*
X133772200Y-80121190D01*
X133772200Y-80121190D02*
X133819819Y-80264047D01*
X133819819Y-80264047D02*
X133819819Y-80359285D01*
X133819819Y-78978333D02*
X133819819Y-79549761D01*
X133819819Y-79264047D02*
X132819819Y-79264047D01*
X132819819Y-79264047D02*
X132962676Y-79359285D01*
X132962676Y-79359285D02*
X133057914Y-79454523D01*
X133057914Y-79454523D02*
X133105533Y-79549761D01*
X163430833Y-59639580D02*
X163383214Y-59687200D01*
X163383214Y-59687200D02*
X163240357Y-59734819D01*
X163240357Y-59734819D02*
X163145119Y-59734819D01*
X163145119Y-59734819D02*
X163002262Y-59687200D01*
X163002262Y-59687200D02*
X162907024Y-59591961D01*
X162907024Y-59591961D02*
X162859405Y-59496723D01*
X162859405Y-59496723D02*
X162811786Y-59306247D01*
X162811786Y-59306247D02*
X162811786Y-59163390D01*
X162811786Y-59163390D02*
X162859405Y-58972914D01*
X162859405Y-58972914D02*
X162907024Y-58877676D01*
X162907024Y-58877676D02*
X163002262Y-58782438D01*
X163002262Y-58782438D02*
X163145119Y-58734819D01*
X163145119Y-58734819D02*
X163240357Y-58734819D01*
X163240357Y-58734819D02*
X163383214Y-58782438D01*
X163383214Y-58782438D02*
X163430833Y-58830057D01*
X164383214Y-59734819D02*
X163811786Y-59734819D01*
X164097500Y-59734819D02*
X164097500Y-58734819D01*
X164097500Y-58734819D02*
X164002262Y-58877676D01*
X164002262Y-58877676D02*
X163907024Y-58972914D01*
X163907024Y-58972914D02*
X163811786Y-59020533D01*
X165925714Y-60287819D02*
X166020952Y-60287819D01*
X166020952Y-60287819D02*
X166116190Y-60335438D01*
X166116190Y-60335438D02*
X166163809Y-60383057D01*
X166163809Y-60383057D02*
X166211428Y-60478295D01*
X166211428Y-60478295D02*
X166259047Y-60668771D01*
X166259047Y-60668771D02*
X166259047Y-60906866D01*
X166259047Y-60906866D02*
X166211428Y-61097342D01*
X166211428Y-61097342D02*
X166163809Y-61192580D01*
X166163809Y-61192580D02*
X166116190Y-61240200D01*
X166116190Y-61240200D02*
X166020952Y-61287819D01*
X166020952Y-61287819D02*
X165925714Y-61287819D01*
X165925714Y-61287819D02*
X165830476Y-61240200D01*
X165830476Y-61240200D02*
X165782857Y-61192580D01*
X165782857Y-61192580D02*
X165735238Y-61097342D01*
X165735238Y-61097342D02*
X165687619Y-60906866D01*
X165687619Y-60906866D02*
X165687619Y-60668771D01*
X165687619Y-60668771D02*
X165735238Y-60478295D01*
X165735238Y-60478295D02*
X165782857Y-60383057D01*
X165782857Y-60383057D02*
X165830476Y-60335438D01*
X165830476Y-60335438D02*
X165925714Y-60287819D01*
X166687619Y-61192580D02*
X166735238Y-61240200D01*
X166735238Y-61240200D02*
X166687619Y-61287819D01*
X166687619Y-61287819D02*
X166640000Y-61240200D01*
X166640000Y-61240200D02*
X166687619Y-61192580D01*
X166687619Y-61192580D02*
X166687619Y-61287819D01*
X167687618Y-61287819D02*
X167116190Y-61287819D01*
X167401904Y-61287819D02*
X167401904Y-60287819D01*
X167401904Y-60287819D02*
X167306666Y-60430676D01*
X167306666Y-60430676D02*
X167211428Y-60525914D01*
X167211428Y-60525914D02*
X167116190Y-60573533D01*
X168116190Y-60621152D02*
X168116190Y-61621152D01*
X168592380Y-61144961D02*
X168639999Y-61240200D01*
X168639999Y-61240200D02*
X168735237Y-61287819D01*
X168116190Y-61144961D02*
X168163809Y-61240200D01*
X168163809Y-61240200D02*
X168259047Y-61287819D01*
X168259047Y-61287819D02*
X168449523Y-61287819D01*
X168449523Y-61287819D02*
X168544761Y-61240200D01*
X168544761Y-61240200D02*
X168592380Y-61144961D01*
X168592380Y-61144961D02*
X168592380Y-60621152D01*
X169497142Y-60764009D02*
X169163809Y-60764009D01*
X169163809Y-61287819D02*
X169163809Y-60287819D01*
X169163809Y-60287819D02*
X169639999Y-60287819D01*
D15*
X137167500Y-71812500D02*
X137955000Y-71812500D01*
X137561250Y-71418750D02*
X137561250Y-72206250D01*
X138195000Y-71314437D02*
X138195000Y-72600000D01*
X138195000Y-71314437D02*
X139259437Y-70250000D01*
X138195000Y-76005563D02*
X138195000Y-74720000D01*
X138195000Y-76005563D02*
X139259437Y-77070000D01*
X139259437Y-70250000D02*
X145015000Y-70250000D01*
X139259437Y-77070000D02*
X145015000Y-77070000D01*
X145015000Y-70250000D02*
X145015000Y-72600000D01*
X145015000Y-77070000D02*
X145015000Y-74720000D01*
X137327500Y-61017500D02*
X138115000Y-61017500D01*
X137721250Y-60623750D02*
X137721250Y-61411250D01*
X138355000Y-60519437D02*
X138355000Y-61805000D01*
X138355000Y-60519437D02*
X139419437Y-59455000D01*
X138355000Y-65210563D02*
X138355000Y-63925000D01*
X138355000Y-65210563D02*
X139419437Y-66275000D01*
X139419437Y-59455000D02*
X145175000Y-59455000D01*
X139419437Y-66275000D02*
X145175000Y-66275000D01*
X145175000Y-59455000D02*
X145175000Y-61805000D01*
X145175000Y-66275000D02*
X145175000Y-63925000D01*
X149607500Y-84828748D02*
X149607500Y-85351252D01*
X151077500Y-84828748D02*
X151077500Y-85351252D01*
X166117500Y-85118752D02*
X166117500Y-84596248D01*
X167587500Y-85118752D02*
X167587500Y-84596248D01*
X174625000Y-67330000D02*
X172675000Y-67330000D01*
X174625000Y-67330000D02*
X176575000Y-67330000D01*
X174625000Y-77450000D02*
X172675000Y-77450000D01*
X174625000Y-77450000D02*
X176575000Y-77450000D01*
X171925000Y-67385000D02*
X171685000Y-67055000D01*
X172165000Y-67055000D01*
X171925000Y-67385000D01*
G36*
X171925000Y-67385000D02*
G01*
X171685000Y-67055000D01*
X172165000Y-67055000D01*
X171925000Y-67385000D01*
G37*
X123035000Y-54430000D02*
X132235000Y-54430000D01*
X123035000Y-63230000D02*
X123035000Y-54430000D01*
X123035000Y-69130000D02*
X123035000Y-67230000D01*
X125735000Y-69130000D02*
X123035000Y-69130000D01*
X131385000Y-69330000D02*
X132435000Y-69330000D01*
X132235000Y-54430000D02*
X132235000Y-69130000D01*
X132235000Y-69130000D02*
X129635000Y-69130000D01*
X132435000Y-68280000D02*
X132435000Y-69330000D01*
X167540000Y-73688752D02*
X167540000Y-73166248D01*
X169010000Y-73688752D02*
X169010000Y-73166248D01*
X181095662Y-67580000D02*
X181528675Y-67830000D01*
X181095662Y-68080000D02*
X181095662Y-67580000D01*
X181528675Y-67830000D02*
X181095662Y-68080000D01*
X181990000Y-57885000D02*
X194330000Y-57885000D01*
X181990000Y-88855000D02*
X181990000Y-57885000D01*
X194330000Y-88855000D02*
X181990000Y-88855000D01*
X167540000Y-78366252D02*
X167540000Y-77843748D01*
X169010000Y-78366252D02*
X169010000Y-77843748D01*
X149125000Y-66181248D02*
X149125000Y-66703752D01*
X150595000Y-66181248D02*
X150595000Y-66703752D01*
X155497500Y-82565000D02*
X161897500Y-82565000D01*
X155497500Y-87615000D02*
X161897500Y-87615000D01*
X155497500Y-87615000D02*
G75*
G02*
X155497500Y-82565000I0J2525000D01*
G01*
X161897500Y-82565000D02*
G75*
G02*
X161897500Y-87615000I0J-2525000D01*
G01*
X153811248Y-60225000D02*
X154333752Y-60225000D01*
X153811248Y-61695000D02*
X154333752Y-61695000D01*
X133885000Y-74668748D02*
X133885000Y-75191252D01*
X135355000Y-74668748D02*
X135355000Y-75191252D01*
X146975000Y-84645000D02*
X146975000Y-84489000D01*
X146975000Y-86961000D02*
X146975000Y-86805000D01*
X143742665Y-84646392D02*
G75*
G02*
X146975000Y-84489484I1672335J-1078608D01*
G01*
X144373870Y-84645163D02*
G75*
G02*
X146455961Y-84645000I1041130J-1079837D01*
G01*
X146455961Y-86805000D02*
G75*
G02*
X144373870Y-86804837I-1040961J1080000D01*
G01*
X146975000Y-86960516D02*
G75*
G02*
X143742665Y-86803608I-1560000J1235516D01*
G01*
X142400000Y-78355000D02*
X141625000Y-78355000D01*
X142400000Y-78355000D02*
X143175000Y-78355000D01*
X142400000Y-81475000D02*
X141625000Y-81475000D01*
X142400000Y-81475000D02*
X143175000Y-81475000D01*
X141037500Y-78405000D02*
X140797500Y-78075000D01*
X141277500Y-78075000D01*
X141037500Y-78405000D01*
G36*
X141037500Y-78405000D02*
G01*
X140797500Y-78075000D01*
X141277500Y-78075000D01*
X141037500Y-78405000D01*
G37*
X176501248Y-63400000D02*
X177023752Y-63400000D01*
X176501248Y-64870000D02*
X177023752Y-64870000D01*
X178578000Y-74995000D02*
X178578000Y-73595000D01*
X179278000Y-72895000D02*
X179878000Y-72895000D01*
X179878000Y-75695000D02*
X179278000Y-75695000D01*
X180578000Y-73595000D02*
X180578000Y-74995000D01*
X178578000Y-73595000D02*
G75*
G02*
X179278000Y-72895000I699999J1D01*
G01*
X179278000Y-75695000D02*
G75*
G02*
X178578000Y-74995000I0J700000D01*
G01*
X179878000Y-72895000D02*
G75*
G02*
X180578000Y-73595000I1J-699999D01*
G01*
X180578000Y-74995000D02*
G75*
G02*
X179878000Y-75695000I-700000J0D01*
G01*
X167540000Y-69243752D02*
X167540000Y-68721248D01*
X169010000Y-69243752D02*
X169010000Y-68721248D01*
X171188748Y-63400000D02*
X171711252Y-63400000D01*
X171188748Y-64870000D02*
X171711252Y-64870000D01*
X146585000Y-66632064D02*
X146585000Y-66177936D01*
X148055000Y-66632064D02*
X148055000Y-66177936D01*
X154440000Y-63200000D02*
X154440000Y-63575000D01*
X154440000Y-81580000D02*
X154440000Y-81205000D01*
X158750000Y-63200000D02*
X154440000Y-63200000D01*
X158750000Y-63200000D02*
X163060000Y-63200000D01*
X158750000Y-81580000D02*
X154440000Y-81580000D01*
X158750000Y-81580000D02*
X163060000Y-81580000D01*
X163060000Y-63200000D02*
X163060000Y-63575000D01*
X163060000Y-81580000D02*
X163060000Y-81205000D01*
X153300000Y-63575000D02*
X152960000Y-63105000D01*
X153640000Y-63105000D01*
X153300000Y-63575000D01*
G36*
X153300000Y-63575000D02*
G01*
X152960000Y-63105000D01*
X153640000Y-63105000D01*
X153300000Y-63575000D01*
G37*
X140562064Y-84990000D02*
X140107936Y-84990000D01*
X140562064Y-86460000D02*
X140107936Y-86460000D01*
X136450000Y-68064748D02*
X136450000Y-68587252D01*
X137870000Y-68064748D02*
X137870000Y-68587252D01*
X133885000Y-70257936D02*
X133885000Y-70712064D01*
X135355000Y-70257936D02*
X135355000Y-70712064D01*
X117075000Y-72335000D02*
X117075000Y-86955000D01*
X117075000Y-86955000D02*
X117595000Y-86955000D01*
X117595000Y-72335000D02*
X117075000Y-72335000D01*
X117595000Y-72985000D02*
X117595000Y-72335000D01*
X117595000Y-72985000D02*
X125705000Y-72985000D01*
X117595000Y-86955000D02*
X117595000Y-86305000D01*
X125705000Y-86305000D02*
X117595000Y-86305000D01*
X132555000Y-72985000D02*
X129225000Y-72985000D01*
X132555000Y-72985000D02*
X132555000Y-86305000D01*
X132555000Y-86305000D02*
X129225000Y-86305000D01*
X132775000Y-75245000D02*
X132775000Y-77045000D01*
X163336248Y-60225000D02*
X163858752Y-60225000D01*
X163336248Y-61695000D02*
X163858752Y-61695000D01*
%LPC*%
D16*
X138805000Y-73660000D03*
X144405000Y-73660000D03*
X138965000Y-62865000D03*
X144565000Y-62865000D03*
D17*
X150342500Y-84052500D03*
X150342500Y-86127500D03*
D18*
X166852500Y-85895000D03*
X166852500Y-83820000D03*
D19*
X172150000Y-67945000D03*
X172150000Y-69215000D03*
X172150000Y-70485000D03*
X172150000Y-71755000D03*
X172150000Y-73025000D03*
X172150000Y-74295000D03*
X172150000Y-75565000D03*
X172150000Y-76835000D03*
X177100000Y-76835000D03*
X177100000Y-75565000D03*
X177100000Y-74295000D03*
X177100000Y-73025000D03*
X177100000Y-71755000D03*
X177100000Y-70485000D03*
X177100000Y-69215000D03*
X177100000Y-67945000D03*
D20*
X127635000Y-68230000D03*
D21*
X127635000Y-62230000D03*
D22*
X122935000Y-65230000D03*
D18*
X168275000Y-74465000D03*
X168275000Y-72390000D03*
D23*
X185270000Y-85870000D03*
X185270000Y-60870000D03*
D24*
X183850000Y-67830000D03*
D25*
X183850000Y-70600000D03*
X183850000Y-73370000D03*
X183850000Y-76140000D03*
X183850000Y-78910000D03*
X186690000Y-69215000D03*
X186690000Y-71985000D03*
X186690000Y-74755000D03*
X186690000Y-77525000D03*
D18*
X168275000Y-79142500D03*
X168275000Y-77067500D03*
D17*
X149860000Y-65405000D03*
X149860000Y-67480000D03*
D26*
X156257500Y-85090000D03*
X161137500Y-85090000D03*
D27*
X153035000Y-60960000D03*
X155110000Y-60960000D03*
D17*
X134620000Y-73892500D03*
X134620000Y-75967500D03*
D28*
X171450000Y-82550000D03*
D29*
X146685000Y-85725000D03*
D30*
X144145000Y-85725000D03*
D31*
X141250000Y-78965000D03*
X141250000Y-79915000D03*
X141250000Y-80865000D03*
X143550000Y-80865000D03*
X143550000Y-79915000D03*
X143550000Y-78965000D03*
D27*
X175725000Y-64135000D03*
X177800000Y-64135000D03*
D32*
X179578000Y-73645000D03*
D33*
X179578000Y-74945000D03*
D18*
X168275000Y-70020000D03*
X168275000Y-67945000D03*
D27*
X170412500Y-64135000D03*
X172487500Y-64135000D03*
D34*
X147320000Y-67405000D03*
X147320000Y-65405000D03*
D35*
X153187500Y-64135000D03*
X153187500Y-65405000D03*
X153187500Y-66675000D03*
X153187500Y-67945000D03*
X153187500Y-69215000D03*
X153187500Y-70485000D03*
X153187500Y-71755000D03*
X153187500Y-73025000D03*
X153187500Y-74295000D03*
X153187500Y-75565000D03*
X153187500Y-76835000D03*
X153187500Y-78105000D03*
X153187500Y-79375000D03*
X153187500Y-80645000D03*
X164312500Y-80645000D03*
X164312500Y-79375000D03*
X164312500Y-78105000D03*
X164312500Y-76835000D03*
X164312500Y-75565000D03*
X164312500Y-74295000D03*
X164312500Y-73025000D03*
X164312500Y-71755000D03*
X164312500Y-70485000D03*
X164312500Y-69215000D03*
X164312500Y-67945000D03*
X164312500Y-66675000D03*
X164312500Y-65405000D03*
X164312500Y-64135000D03*
D36*
X141335000Y-85725000D03*
X139335000Y-85725000D03*
D37*
X137160000Y-67301000D03*
X137160000Y-69351000D03*
D38*
X134620000Y-69485000D03*
X134620000Y-71485000D03*
D39*
X130175000Y-76145000D03*
D25*
X130175000Y-78645000D03*
X130175000Y-80645000D03*
X130175000Y-83145000D03*
D40*
X127465000Y-73075000D03*
X127465000Y-86215000D03*
D27*
X162560000Y-60960000D03*
X164635000Y-60960000D03*
%LPD*%
M02*
