G04 #@! TF.GenerationSoftware,KiCad,Pcbnew,8.0.3+1*
G04 #@! TF.CreationDate,2024-07-17T12:21:26-06:00*
G04 #@! TF.ProjectId,CH375_Serial,43483337-355f-4536-9572-69616c2e6b69,rev?*
G04 #@! TF.SameCoordinates,Original*
G04 #@! TF.FileFunction,Soldermask,Top*
G04 #@! TF.FilePolarity,Negative*
%FSLAX46Y46*%
G04 Gerber Fmt 4.6, Leading zero omitted, Abs format (unit mm)*
G04 Created by KiCad (PCBNEW 8.0.3+1) date 2024-07-17 12:21:26*
%MOMM*%
%LPD*%
G01*
G04 APERTURE LIST*
G04 Aperture macros list*
%AMRoundRect*
0 Rectangle with rounded corners*
0 $1 Rounding radius*
0 $2 $3 $4 $5 $6 $7 $8 $9 X,Y pos of 4 corners*
0 Add a 4 corners polygon primitive as box body*
4,1,4,$2,$3,$4,$5,$6,$7,$8,$9,$2,$3,0*
0 Add four circle primitives for the rounded corners*
1,1,$1+$1,$2,$3*
1,1,$1+$1,$4,$5*
1,1,$1+$1,$6,$7*
1,1,$1+$1,$8,$9*
0 Add four rect primitives between the rounded corners*
20,1,$1+$1,$2,$3,$4,$5,0*
20,1,$1+$1,$4,$5,$6,$7,0*
20,1,$1+$1,$6,$7,$8,$9,0*
20,1,$1+$1,$8,$9,$2,$3,0*%
%AMFreePoly0*
4,1,19,0.500000,-0.750000,0.000000,-0.750000,0.000000,-0.744911,-0.071157,-0.744911,-0.207708,-0.704816,-0.327430,-0.627875,-0.420627,-0.520320,-0.479746,-0.390866,-0.500000,-0.250000,-0.500000,0.250000,-0.479746,0.390866,-0.420627,0.520320,-0.327430,0.627875,-0.207708,0.704816,-0.071157,0.744911,0.000000,0.744911,0.000000,0.750000,0.500000,0.750000,0.500000,-0.750000,0.500000,-0.750000,
$1*%
%AMFreePoly1*
4,1,19,0.000000,0.744911,0.071157,0.744911,0.207708,0.704816,0.327430,0.627875,0.420627,0.520320,0.479746,0.390866,0.500000,0.250000,0.500000,-0.250000,0.479746,-0.390866,0.420627,-0.520320,0.327430,-0.627875,0.207708,-0.704816,0.071157,-0.744911,0.000000,-0.744911,0.000000,-0.750000,-0.500000,-0.750000,-0.500000,0.750000,0.000000,0.750000,0.000000,0.744911,0.000000,0.744911,
$1*%
G04 Aperture macros list end*
%ADD10RoundRect,0.250000X-1.500000X-0.550000X1.500000X-0.550000X1.500000X0.550000X-1.500000X0.550000X0*%
%ADD11RoundRect,0.250000X-0.475000X0.337500X-0.475000X-0.337500X0.475000X-0.337500X0.475000X0.337500X0*%
%ADD12RoundRect,0.250000X0.475000X-0.337500X0.475000X0.337500X-0.475000X0.337500X-0.475000X-0.337500X0*%
%ADD13RoundRect,0.150000X-0.825000X-0.150000X0.825000X-0.150000X0.825000X0.150000X-0.825000X0.150000X0*%
%ADD14R,3.500000X3.500000*%
%ADD15RoundRect,0.750000X-1.000000X0.750000X-1.000000X-0.750000X1.000000X-0.750000X1.000000X0.750000X0*%
%ADD16RoundRect,0.875000X-0.875000X0.875000X-0.875000X-0.875000X0.875000X-0.875000X0.875000X0.875000X0*%
%ADD17C,4.000000*%
%ADD18R,1.600000X1.600000*%
%ADD19C,1.600000*%
%ADD20C,1.500000*%
%ADD21RoundRect,0.250000X-0.337500X-0.475000X0.337500X-0.475000X0.337500X0.475000X-0.337500X0.475000X0*%
%ADD22C,2.200000*%
%ADD23R,1.800000X1.800000*%
%ADD24C,1.800000*%
%ADD25RoundRect,0.150000X-0.650000X-0.150000X0.650000X-0.150000X0.650000X0.150000X-0.650000X0.150000X0*%
%ADD26FreePoly0,270.000000*%
%ADD27FreePoly1,270.000000*%
%ADD28RoundRect,0.250000X0.450000X-0.350000X0.450000X0.350000X-0.450000X0.350000X-0.450000X-0.350000X0*%
%ADD29RoundRect,0.150000X-0.987500X-0.150000X0.987500X-0.150000X0.987500X0.150000X-0.987500X0.150000X0*%
%ADD30RoundRect,0.250000X0.350000X0.450000X-0.350000X0.450000X-0.350000X-0.450000X0.350000X-0.450000X0*%
%ADD31RoundRect,0.250000X-0.450000X0.325000X-0.450000X-0.325000X0.450000X-0.325000X0.450000X0.325000X0*%
%ADD32RoundRect,0.250000X-0.450000X0.350000X-0.450000X-0.350000X0.450000X-0.350000X0.450000X0.350000X0*%
%ADD33R,1.500000X1.600000*%
%ADD34C,3.000000*%
G04 APERTURE END LIST*
D10*
X138805000Y-73660000D03*
X144405000Y-73660000D03*
X138965000Y-62865000D03*
X144565000Y-62865000D03*
D11*
X150342500Y-84052500D03*
X150342500Y-86127500D03*
D12*
X166852500Y-85895000D03*
X166852500Y-83820000D03*
D13*
X172150000Y-67945000D03*
X172150000Y-69215000D03*
X172150000Y-70485000D03*
X172150000Y-71755000D03*
X172150000Y-73025000D03*
X172150000Y-74295000D03*
X172150000Y-75565000D03*
X172150000Y-76835000D03*
X177100000Y-76835000D03*
X177100000Y-75565000D03*
X177100000Y-74295000D03*
X177100000Y-73025000D03*
X177100000Y-71755000D03*
X177100000Y-70485000D03*
X177100000Y-69215000D03*
X177100000Y-67945000D03*
D14*
X127635000Y-68230000D03*
D15*
X127635000Y-62230000D03*
D16*
X122935000Y-65230000D03*
D12*
X168275000Y-74465000D03*
X168275000Y-72390000D03*
D17*
X185270000Y-85870000D03*
X185270000Y-60870000D03*
D18*
X183850000Y-67830000D03*
D19*
X183850000Y-70600000D03*
X183850000Y-73370000D03*
X183850000Y-76140000D03*
X183850000Y-78910000D03*
X186690000Y-69215000D03*
X186690000Y-71985000D03*
X186690000Y-74755000D03*
X186690000Y-77525000D03*
D12*
X168275000Y-79142500D03*
X168275000Y-77067500D03*
D11*
X149860000Y-65405000D03*
X149860000Y-67480000D03*
D20*
X156257500Y-85090000D03*
X161137500Y-85090000D03*
D21*
X153035000Y-60960000D03*
X155110000Y-60960000D03*
D11*
X134620000Y-73892500D03*
X134620000Y-75967500D03*
D22*
X171450000Y-82550000D03*
D23*
X146685000Y-85725000D03*
D24*
X144145000Y-85725000D03*
D25*
X141250000Y-78965000D03*
X141250000Y-79915000D03*
X141250000Y-80865000D03*
X143550000Y-80865000D03*
X143550000Y-79915000D03*
X143550000Y-78965000D03*
D21*
X175725000Y-64135000D03*
X177800000Y-64135000D03*
D26*
X179578000Y-73645000D03*
D27*
X179578000Y-74945000D03*
D12*
X168275000Y-70020000D03*
X168275000Y-67945000D03*
D21*
X170412500Y-64135000D03*
X172487500Y-64135000D03*
D28*
X147320000Y-67405000D03*
X147320000Y-65405000D03*
D29*
X153187500Y-64135000D03*
X153187500Y-65405000D03*
X153187500Y-66675000D03*
X153187500Y-67945000D03*
X153187500Y-69215000D03*
X153187500Y-70485000D03*
X153187500Y-71755000D03*
X153187500Y-73025000D03*
X153187500Y-74295000D03*
X153187500Y-75565000D03*
X153187500Y-76835000D03*
X153187500Y-78105000D03*
X153187500Y-79375000D03*
X153187500Y-80645000D03*
X164312500Y-80645000D03*
X164312500Y-79375000D03*
X164312500Y-78105000D03*
X164312500Y-76835000D03*
X164312500Y-75565000D03*
X164312500Y-74295000D03*
X164312500Y-73025000D03*
X164312500Y-71755000D03*
X164312500Y-70485000D03*
X164312500Y-69215000D03*
X164312500Y-67945000D03*
X164312500Y-66675000D03*
X164312500Y-65405000D03*
X164312500Y-64135000D03*
D30*
X141335000Y-85725000D03*
X139335000Y-85725000D03*
D31*
X137160000Y-67301000D03*
X137160000Y-69351000D03*
D32*
X134620000Y-69485000D03*
X134620000Y-71485000D03*
D33*
X130175000Y-76145000D03*
D19*
X130175000Y-78645000D03*
X130175000Y-80645000D03*
X130175000Y-83145000D03*
D34*
X127465000Y-73075000D03*
X127465000Y-86215000D03*
D21*
X162560000Y-60960000D03*
X164635000Y-60960000D03*
M02*
