M48
; DRILL file {KiCad 8.0.3+1} date 2024-07-17T12:21:29-0600
; FORMAT={-:-/ absolute / metric / decimal}
; #@! TF.CreationDate,2024-07-17T12:21:29-06:00
; #@! TF.GenerationSoftware,Kicad,Pcbnew,8.0.3+1
; #@! TF.FileFunction,Plated,1,2,PTH
FMAT,2
METRIC
; #@! TA.AperFunction,Plated,PTH,ViaDrill
T1C0.381
; #@! TA.AperFunction,Plated,PTH,ViaDrill
T2C0.635
; #@! TA.AperFunction,Plated,PTH,ComponentDrill
T3C0.800
; #@! TA.AperFunction,Plated,PTH,ComponentDrill
T4C0.900
; #@! TA.AperFunction,Plated,PTH,ComponentDrill
T5C0.950
; #@! TA.AperFunction,Plated,PTH,ComponentDrill
T6C1.000
; #@! TA.AperFunction,Plated,PTH,ComponentDrill
T7C2.300
; #@! TA.AperFunction,Plated,PTH,ComponentDrill
T8C3.200
%
G90
G05
T1
X122.809Y-59.817
X122.936Y-71.501
X122.936Y-76.073
X122.936Y-80.391
X122.936Y-85.09
X129.667Y-59.182
X132.715Y-76.2
X133.604Y-83.312
X135.89Y-74.295
X136.525Y-64.77
X137.16Y-83.185
X138.049Y-58.928
X139.7Y-68.58
X139.7Y-81.28
X140.97Y-78.105
X144.272Y-69.215
X144.78Y-80.01
X145.415Y-76.835
X146.685Y-75.565
X146.685Y-81.28
X147.955Y-71.247
X149.86Y-64.135
X149.86Y-78.867
X151.13Y-74.295
X151.765Y-60.96
X153.289Y-86.36
X155.321Y-74.549
X155.575Y-65.532
X156.845Y-67.945
X158.115Y-60.96
X158.115Y-65.532
X158.115Y-70.485
X158.115Y-78.105
X158.75Y-86.36
X159.385Y-69.215
X159.385Y-71.755
X161.163Y-65.532
X162.941Y-82.55
X164.465Y-86.487
X166.37Y-66.675
X170.307Y-60.706
X172.085Y-78.74
X173.99Y-73.025
X173.99Y-75.565
X174.244Y-79.883
X175.26Y-74.295
X175.895Y-60.325
X177.165Y-78.74
X179.07Y-70.485
X179.07Y-71.755
X179.959Y-78.232
X182.626Y-64.135
X184.023Y-82.423
X187.96Y-64.135
X188.087Y-82.55
T2
X147.955Y-58.964
X147.955Y-62.865
X147.955Y-73.66
T3
X156.257Y-85.09
X161.137Y-85.09
T4
X144.145Y-85.725
X146.685Y-85.725
T5
X130.175Y-76.145
X130.175Y-78.645
X130.175Y-80.645
X130.175Y-83.145
T6
X183.85Y-67.83
X183.85Y-70.6
X183.85Y-73.37
X183.85Y-76.14
X183.85Y-78.91
X186.69Y-69.215
X186.69Y-71.985
X186.69Y-74.755
X186.69Y-77.525
T7
X127.465Y-73.075
X127.465Y-86.215
T8
X185.27Y-60.87
X185.27Y-85.87
T6
X122.935Y-64.23G85X122.935Y-66.23
G05
X128.635Y-62.23G85X126.635Y-62.23
G05
X128.635Y-68.23G85X126.635Y-68.23
G05
M30
