%TF.GenerationSoftware,KiCad,Pcbnew,8.0.3+1*%
%TF.CreationDate,2024-07-17T12:21:29-06:00*%
%TF.ProjectId,CH375_Serial,43483337-355f-4536-9572-69616c2e6b69,rev?*%
%TF.SameCoordinates,Original*%
%TF.FileFunction,Drillmap*%
%TF.FilePolarity,Positive*%
%FSLAX45Y45*%
G04 Gerber Fmt 4.5, Leading zero omitted, Abs format (unit mm)*
G04 Created by KiCad (PCBNEW 8.0.3+1) date 2024-07-17 12:21:29*
%MOMM*%
%LPD*%
G01*
G04 APERTURE LIST*
%ADD10C,0.050000*%
%ADD11C,0.200000*%
%ADD12C,0.220000*%
G04 APERTURE END LIST*
D10*
X12065000Y-5778500D02*
X19443700Y-5778500D01*
X19443700Y-8890000D01*
X12065000Y-8890000D01*
X12065000Y-5778500D01*
D11*
D12*
X17035000Y-8145000D02*
X17255000Y-8365000D01*
X17255000Y-8145000D02*
X17035000Y-8365000D01*
D11*
X12323277Y-9203984D02*
X12323277Y-9003984D01*
X12323277Y-9003984D02*
X12370896Y-9003984D01*
X12370896Y-9003984D02*
X12399467Y-9013508D01*
X12399467Y-9013508D02*
X12418515Y-9032555D01*
X12418515Y-9032555D02*
X12428039Y-9051603D01*
X12428039Y-9051603D02*
X12437562Y-9089698D01*
X12437562Y-9089698D02*
X12437562Y-9118270D01*
X12437562Y-9118270D02*
X12428039Y-9156365D01*
X12428039Y-9156365D02*
X12418515Y-9175412D01*
X12418515Y-9175412D02*
X12399467Y-9194460D01*
X12399467Y-9194460D02*
X12370896Y-9203984D01*
X12370896Y-9203984D02*
X12323277Y-9203984D01*
X12523277Y-9203984D02*
X12523277Y-9070650D01*
X12523277Y-9108746D02*
X12532801Y-9089698D01*
X12532801Y-9089698D02*
X12542324Y-9080174D01*
X12542324Y-9080174D02*
X12561372Y-9070650D01*
X12561372Y-9070650D02*
X12580420Y-9070650D01*
X12647086Y-9203984D02*
X12647086Y-9070650D01*
X12647086Y-9003984D02*
X12637562Y-9013508D01*
X12637562Y-9013508D02*
X12647086Y-9023031D01*
X12647086Y-9023031D02*
X12656610Y-9013508D01*
X12656610Y-9013508D02*
X12647086Y-9003984D01*
X12647086Y-9003984D02*
X12647086Y-9023031D01*
X12770896Y-9203984D02*
X12751848Y-9194460D01*
X12751848Y-9194460D02*
X12742324Y-9175412D01*
X12742324Y-9175412D02*
X12742324Y-9003984D01*
X12875658Y-9203984D02*
X12856610Y-9194460D01*
X12856610Y-9194460D02*
X12847086Y-9175412D01*
X12847086Y-9175412D02*
X12847086Y-9003984D01*
X13104229Y-9203984D02*
X13104229Y-9003984D01*
X13104229Y-9003984D02*
X13170896Y-9146841D01*
X13170896Y-9146841D02*
X13237562Y-9003984D01*
X13237562Y-9003984D02*
X13237562Y-9203984D01*
X13418515Y-9203984D02*
X13418515Y-9099222D01*
X13418515Y-9099222D02*
X13408991Y-9080174D01*
X13408991Y-9080174D02*
X13389943Y-9070650D01*
X13389943Y-9070650D02*
X13351848Y-9070650D01*
X13351848Y-9070650D02*
X13332801Y-9080174D01*
X13418515Y-9194460D02*
X13399467Y-9203984D01*
X13399467Y-9203984D02*
X13351848Y-9203984D01*
X13351848Y-9203984D02*
X13332801Y-9194460D01*
X13332801Y-9194460D02*
X13323277Y-9175412D01*
X13323277Y-9175412D02*
X13323277Y-9156365D01*
X13323277Y-9156365D02*
X13332801Y-9137317D01*
X13332801Y-9137317D02*
X13351848Y-9127793D01*
X13351848Y-9127793D02*
X13399467Y-9127793D01*
X13399467Y-9127793D02*
X13418515Y-9118270D01*
X13513753Y-9070650D02*
X13513753Y-9270650D01*
X13513753Y-9080174D02*
X13532801Y-9070650D01*
X13532801Y-9070650D02*
X13570896Y-9070650D01*
X13570896Y-9070650D02*
X13589943Y-9080174D01*
X13589943Y-9080174D02*
X13599467Y-9089698D01*
X13599467Y-9089698D02*
X13608991Y-9108746D01*
X13608991Y-9108746D02*
X13608991Y-9165889D01*
X13608991Y-9165889D02*
X13599467Y-9184936D01*
X13599467Y-9184936D02*
X13589943Y-9194460D01*
X13589943Y-9194460D02*
X13570896Y-9203984D01*
X13570896Y-9203984D02*
X13532801Y-9203984D01*
X13532801Y-9203984D02*
X13513753Y-9194460D01*
X13694705Y-9184936D02*
X13704229Y-9194460D01*
X13704229Y-9194460D02*
X13694705Y-9203984D01*
X13694705Y-9203984D02*
X13685182Y-9194460D01*
X13685182Y-9194460D02*
X13694705Y-9184936D01*
X13694705Y-9184936D02*
X13694705Y-9203984D01*
X13694705Y-9080174D02*
X13704229Y-9089698D01*
X13704229Y-9089698D02*
X13694705Y-9099222D01*
X13694705Y-9099222D02*
X13685182Y-9089698D01*
X13685182Y-9089698D02*
X13694705Y-9080174D01*
X13694705Y-9080174D02*
X13694705Y-9099222D01*
X11862500Y-9432500D02*
X12062500Y-9632500D01*
X12062500Y-9432500D02*
X11862500Y-9632500D01*
X12313753Y-9443031D02*
X12323277Y-9433508D01*
X12323277Y-9433508D02*
X12342324Y-9423984D01*
X12342324Y-9423984D02*
X12389943Y-9423984D01*
X12389943Y-9423984D02*
X12408991Y-9433508D01*
X12408991Y-9433508D02*
X12418515Y-9443031D01*
X12418515Y-9443031D02*
X12428039Y-9462079D01*
X12428039Y-9462079D02*
X12428039Y-9481127D01*
X12428039Y-9481127D02*
X12418515Y-9509698D01*
X12418515Y-9509698D02*
X12304229Y-9623984D01*
X12304229Y-9623984D02*
X12428039Y-9623984D01*
X12513753Y-9604936D02*
X12523277Y-9614460D01*
X12523277Y-9614460D02*
X12513753Y-9623984D01*
X12513753Y-9623984D02*
X12504229Y-9614460D01*
X12504229Y-9614460D02*
X12513753Y-9604936D01*
X12513753Y-9604936D02*
X12513753Y-9623984D01*
X12599467Y-9443031D02*
X12608991Y-9433508D01*
X12608991Y-9433508D02*
X12628039Y-9423984D01*
X12628039Y-9423984D02*
X12675658Y-9423984D01*
X12675658Y-9423984D02*
X12694705Y-9433508D01*
X12694705Y-9433508D02*
X12704229Y-9443031D01*
X12704229Y-9443031D02*
X12713753Y-9462079D01*
X12713753Y-9462079D02*
X12713753Y-9481127D01*
X12713753Y-9481127D02*
X12704229Y-9509698D01*
X12704229Y-9509698D02*
X12589943Y-9623984D01*
X12589943Y-9623984D02*
X12713753Y-9623984D01*
X12837562Y-9423984D02*
X12856610Y-9423984D01*
X12856610Y-9423984D02*
X12875658Y-9433508D01*
X12875658Y-9433508D02*
X12885182Y-9443031D01*
X12885182Y-9443031D02*
X12894705Y-9462079D01*
X12894705Y-9462079D02*
X12904229Y-9500174D01*
X12904229Y-9500174D02*
X12904229Y-9547793D01*
X12904229Y-9547793D02*
X12894705Y-9585889D01*
X12894705Y-9585889D02*
X12885182Y-9604936D01*
X12885182Y-9604936D02*
X12875658Y-9614460D01*
X12875658Y-9614460D02*
X12856610Y-9623984D01*
X12856610Y-9623984D02*
X12837562Y-9623984D01*
X12837562Y-9623984D02*
X12818515Y-9614460D01*
X12818515Y-9614460D02*
X12808991Y-9604936D01*
X12808991Y-9604936D02*
X12799467Y-9585889D01*
X12799467Y-9585889D02*
X12789943Y-9547793D01*
X12789943Y-9547793D02*
X12789943Y-9500174D01*
X12789943Y-9500174D02*
X12799467Y-9462079D01*
X12799467Y-9462079D02*
X12808991Y-9443031D01*
X12808991Y-9443031D02*
X12818515Y-9433508D01*
X12818515Y-9433508D02*
X12837562Y-9423984D01*
X13028039Y-9423984D02*
X13047086Y-9423984D01*
X13047086Y-9423984D02*
X13066134Y-9433508D01*
X13066134Y-9433508D02*
X13075658Y-9443031D01*
X13075658Y-9443031D02*
X13085182Y-9462079D01*
X13085182Y-9462079D02*
X13094705Y-9500174D01*
X13094705Y-9500174D02*
X13094705Y-9547793D01*
X13094705Y-9547793D02*
X13085182Y-9585889D01*
X13085182Y-9585889D02*
X13075658Y-9604936D01*
X13075658Y-9604936D02*
X13066134Y-9614460D01*
X13066134Y-9614460D02*
X13047086Y-9623984D01*
X13047086Y-9623984D02*
X13028039Y-9623984D01*
X13028039Y-9623984D02*
X13008991Y-9614460D01*
X13008991Y-9614460D02*
X12999467Y-9604936D01*
X12999467Y-9604936D02*
X12989943Y-9585889D01*
X12989943Y-9585889D02*
X12980420Y-9547793D01*
X12980420Y-9547793D02*
X12980420Y-9500174D01*
X12980420Y-9500174D02*
X12989943Y-9462079D01*
X12989943Y-9462079D02*
X12999467Y-9443031D01*
X12999467Y-9443031D02*
X13008991Y-9433508D01*
X13008991Y-9433508D02*
X13028039Y-9423984D01*
X13180420Y-9623984D02*
X13180420Y-9490650D01*
X13180420Y-9509698D02*
X13189943Y-9500174D01*
X13189943Y-9500174D02*
X13208991Y-9490650D01*
X13208991Y-9490650D02*
X13237563Y-9490650D01*
X13237563Y-9490650D02*
X13256610Y-9500174D01*
X13256610Y-9500174D02*
X13266134Y-9519222D01*
X13266134Y-9519222D02*
X13266134Y-9623984D01*
X13266134Y-9519222D02*
X13275658Y-9500174D01*
X13275658Y-9500174D02*
X13294705Y-9490650D01*
X13294705Y-9490650D02*
X13323277Y-9490650D01*
X13323277Y-9490650D02*
X13342324Y-9500174D01*
X13342324Y-9500174D02*
X13351848Y-9519222D01*
X13351848Y-9519222D02*
X13351848Y-9623984D01*
X13447086Y-9623984D02*
X13447086Y-9490650D01*
X13447086Y-9509698D02*
X13456610Y-9500174D01*
X13456610Y-9500174D02*
X13475658Y-9490650D01*
X13475658Y-9490650D02*
X13504229Y-9490650D01*
X13504229Y-9490650D02*
X13523277Y-9500174D01*
X13523277Y-9500174D02*
X13532801Y-9519222D01*
X13532801Y-9519222D02*
X13532801Y-9623984D01*
X13532801Y-9519222D02*
X13542324Y-9500174D01*
X13542324Y-9500174D02*
X13561372Y-9490650D01*
X13561372Y-9490650D02*
X13589943Y-9490650D01*
X13589943Y-9490650D02*
X13608991Y-9500174D01*
X13608991Y-9500174D02*
X13618515Y-9519222D01*
X13618515Y-9519222D02*
X13618515Y-9623984D01*
X14008991Y-9414460D02*
X13837563Y-9671603D01*
X14266134Y-9423984D02*
X14285182Y-9423984D01*
X14285182Y-9423984D02*
X14304229Y-9433508D01*
X14304229Y-9433508D02*
X14313753Y-9443031D01*
X14313753Y-9443031D02*
X14323277Y-9462079D01*
X14323277Y-9462079D02*
X14332801Y-9500174D01*
X14332801Y-9500174D02*
X14332801Y-9547793D01*
X14332801Y-9547793D02*
X14323277Y-9585889D01*
X14323277Y-9585889D02*
X14313753Y-9604936D01*
X14313753Y-9604936D02*
X14304229Y-9614460D01*
X14304229Y-9614460D02*
X14285182Y-9623984D01*
X14285182Y-9623984D02*
X14266134Y-9623984D01*
X14266134Y-9623984D02*
X14247086Y-9614460D01*
X14247086Y-9614460D02*
X14237563Y-9604936D01*
X14237563Y-9604936D02*
X14228039Y-9585889D01*
X14228039Y-9585889D02*
X14218515Y-9547793D01*
X14218515Y-9547793D02*
X14218515Y-9500174D01*
X14218515Y-9500174D02*
X14228039Y-9462079D01*
X14228039Y-9462079D02*
X14237563Y-9443031D01*
X14237563Y-9443031D02*
X14247086Y-9433508D01*
X14247086Y-9433508D02*
X14266134Y-9423984D01*
X14418515Y-9604936D02*
X14428039Y-9614460D01*
X14428039Y-9614460D02*
X14418515Y-9623984D01*
X14418515Y-9623984D02*
X14408991Y-9614460D01*
X14408991Y-9614460D02*
X14418515Y-9604936D01*
X14418515Y-9604936D02*
X14418515Y-9623984D01*
X14551848Y-9423984D02*
X14570896Y-9423984D01*
X14570896Y-9423984D02*
X14589944Y-9433508D01*
X14589944Y-9433508D02*
X14599467Y-9443031D01*
X14599467Y-9443031D02*
X14608991Y-9462079D01*
X14608991Y-9462079D02*
X14618515Y-9500174D01*
X14618515Y-9500174D02*
X14618515Y-9547793D01*
X14618515Y-9547793D02*
X14608991Y-9585889D01*
X14608991Y-9585889D02*
X14599467Y-9604936D01*
X14599467Y-9604936D02*
X14589944Y-9614460D01*
X14589944Y-9614460D02*
X14570896Y-9623984D01*
X14570896Y-9623984D02*
X14551848Y-9623984D01*
X14551848Y-9623984D02*
X14532801Y-9614460D01*
X14532801Y-9614460D02*
X14523277Y-9604936D01*
X14523277Y-9604936D02*
X14513753Y-9585889D01*
X14513753Y-9585889D02*
X14504229Y-9547793D01*
X14504229Y-9547793D02*
X14504229Y-9500174D01*
X14504229Y-9500174D02*
X14513753Y-9462079D01*
X14513753Y-9462079D02*
X14523277Y-9443031D01*
X14523277Y-9443031D02*
X14532801Y-9433508D01*
X14532801Y-9433508D02*
X14551848Y-9423984D01*
X14732801Y-9509698D02*
X14713753Y-9500174D01*
X14713753Y-9500174D02*
X14704229Y-9490650D01*
X14704229Y-9490650D02*
X14694706Y-9471603D01*
X14694706Y-9471603D02*
X14694706Y-9462079D01*
X14694706Y-9462079D02*
X14704229Y-9443031D01*
X14704229Y-9443031D02*
X14713753Y-9433508D01*
X14713753Y-9433508D02*
X14732801Y-9423984D01*
X14732801Y-9423984D02*
X14770896Y-9423984D01*
X14770896Y-9423984D02*
X14789944Y-9433508D01*
X14789944Y-9433508D02*
X14799467Y-9443031D01*
X14799467Y-9443031D02*
X14808991Y-9462079D01*
X14808991Y-9462079D02*
X14808991Y-9471603D01*
X14808991Y-9471603D02*
X14799467Y-9490650D01*
X14799467Y-9490650D02*
X14789944Y-9500174D01*
X14789944Y-9500174D02*
X14770896Y-9509698D01*
X14770896Y-9509698D02*
X14732801Y-9509698D01*
X14732801Y-9509698D02*
X14713753Y-9519222D01*
X14713753Y-9519222D02*
X14704229Y-9528746D01*
X14704229Y-9528746D02*
X14694706Y-9547793D01*
X14694706Y-9547793D02*
X14694706Y-9585889D01*
X14694706Y-9585889D02*
X14704229Y-9604936D01*
X14704229Y-9604936D02*
X14713753Y-9614460D01*
X14713753Y-9614460D02*
X14732801Y-9623984D01*
X14732801Y-9623984D02*
X14770896Y-9623984D01*
X14770896Y-9623984D02*
X14789944Y-9614460D01*
X14789944Y-9614460D02*
X14799467Y-9604936D01*
X14799467Y-9604936D02*
X14808991Y-9585889D01*
X14808991Y-9585889D02*
X14808991Y-9547793D01*
X14808991Y-9547793D02*
X14799467Y-9528746D01*
X14799467Y-9528746D02*
X14789944Y-9519222D01*
X14789944Y-9519222D02*
X14770896Y-9509698D01*
X14980420Y-9423984D02*
X14942325Y-9423984D01*
X14942325Y-9423984D02*
X14923277Y-9433508D01*
X14923277Y-9433508D02*
X14913753Y-9443031D01*
X14913753Y-9443031D02*
X14894706Y-9471603D01*
X14894706Y-9471603D02*
X14885182Y-9509698D01*
X14885182Y-9509698D02*
X14885182Y-9585889D01*
X14885182Y-9585889D02*
X14894706Y-9604936D01*
X14894706Y-9604936D02*
X14904229Y-9614460D01*
X14904229Y-9614460D02*
X14923277Y-9623984D01*
X14923277Y-9623984D02*
X14961372Y-9623984D01*
X14961372Y-9623984D02*
X14980420Y-9614460D01*
X14980420Y-9614460D02*
X14989944Y-9604936D01*
X14989944Y-9604936D02*
X14999467Y-9585889D01*
X14999467Y-9585889D02*
X14999467Y-9538270D01*
X14999467Y-9538270D02*
X14989944Y-9519222D01*
X14989944Y-9519222D02*
X14980420Y-9509698D01*
X14980420Y-9509698D02*
X14961372Y-9500174D01*
X14961372Y-9500174D02*
X14923277Y-9500174D01*
X14923277Y-9500174D02*
X14904229Y-9509698D01*
X14904229Y-9509698D02*
X14894706Y-9519222D01*
X14894706Y-9519222D02*
X14885182Y-9538270D01*
X15170896Y-9423984D02*
X15132801Y-9423984D01*
X15132801Y-9423984D02*
X15113753Y-9433508D01*
X15113753Y-9433508D02*
X15104229Y-9443031D01*
X15104229Y-9443031D02*
X15085182Y-9471603D01*
X15085182Y-9471603D02*
X15075658Y-9509698D01*
X15075658Y-9509698D02*
X15075658Y-9585889D01*
X15075658Y-9585889D02*
X15085182Y-9604936D01*
X15085182Y-9604936D02*
X15094706Y-9614460D01*
X15094706Y-9614460D02*
X15113753Y-9623984D01*
X15113753Y-9623984D02*
X15151848Y-9623984D01*
X15151848Y-9623984D02*
X15170896Y-9614460D01*
X15170896Y-9614460D02*
X15180420Y-9604936D01*
X15180420Y-9604936D02*
X15189944Y-9585889D01*
X15189944Y-9585889D02*
X15189944Y-9538270D01*
X15189944Y-9538270D02*
X15180420Y-9519222D01*
X15180420Y-9519222D02*
X15170896Y-9509698D01*
X15170896Y-9509698D02*
X15151848Y-9500174D01*
X15151848Y-9500174D02*
X15113753Y-9500174D01*
X15113753Y-9500174D02*
X15094706Y-9509698D01*
X15094706Y-9509698D02*
X15085182Y-9519222D01*
X15085182Y-9519222D02*
X15075658Y-9538270D01*
X15266134Y-9423984D02*
X15266134Y-9462079D01*
X15342325Y-9423984D02*
X15342325Y-9462079D01*
X15637563Y-9700174D02*
X15628039Y-9690650D01*
X15628039Y-9690650D02*
X15608991Y-9662079D01*
X15608991Y-9662079D02*
X15599468Y-9643031D01*
X15599468Y-9643031D02*
X15589944Y-9614460D01*
X15589944Y-9614460D02*
X15580420Y-9566841D01*
X15580420Y-9566841D02*
X15580420Y-9528746D01*
X15580420Y-9528746D02*
X15589944Y-9481127D01*
X15589944Y-9481127D02*
X15599468Y-9452555D01*
X15599468Y-9452555D02*
X15608991Y-9433508D01*
X15608991Y-9433508D02*
X15628039Y-9404936D01*
X15628039Y-9404936D02*
X15637563Y-9395412D01*
X15818515Y-9623984D02*
X15704229Y-9623984D01*
X15761372Y-9623984D02*
X15761372Y-9423984D01*
X15761372Y-9423984D02*
X15742325Y-9452555D01*
X15742325Y-9452555D02*
X15723277Y-9471603D01*
X15723277Y-9471603D02*
X15704229Y-9481127D01*
X16056610Y-9623984D02*
X16056610Y-9423984D01*
X16142325Y-9623984D02*
X16142325Y-9519222D01*
X16142325Y-9519222D02*
X16132801Y-9500174D01*
X16132801Y-9500174D02*
X16113753Y-9490650D01*
X16113753Y-9490650D02*
X16085182Y-9490650D01*
X16085182Y-9490650D02*
X16066134Y-9500174D01*
X16066134Y-9500174D02*
X16056610Y-9509698D01*
X16266134Y-9623984D02*
X16247087Y-9614460D01*
X16247087Y-9614460D02*
X16237563Y-9604936D01*
X16237563Y-9604936D02*
X16228039Y-9585889D01*
X16228039Y-9585889D02*
X16228039Y-9528746D01*
X16228039Y-9528746D02*
X16237563Y-9509698D01*
X16237563Y-9509698D02*
X16247087Y-9500174D01*
X16247087Y-9500174D02*
X16266134Y-9490650D01*
X16266134Y-9490650D02*
X16294706Y-9490650D01*
X16294706Y-9490650D02*
X16313753Y-9500174D01*
X16313753Y-9500174D02*
X16323277Y-9509698D01*
X16323277Y-9509698D02*
X16332801Y-9528746D01*
X16332801Y-9528746D02*
X16332801Y-9585889D01*
X16332801Y-9585889D02*
X16323277Y-9604936D01*
X16323277Y-9604936D02*
X16313753Y-9614460D01*
X16313753Y-9614460D02*
X16294706Y-9623984D01*
X16294706Y-9623984D02*
X16266134Y-9623984D01*
X16447087Y-9623984D02*
X16428039Y-9614460D01*
X16428039Y-9614460D02*
X16418515Y-9595412D01*
X16418515Y-9595412D02*
X16418515Y-9423984D01*
X16599468Y-9614460D02*
X16580420Y-9623984D01*
X16580420Y-9623984D02*
X16542325Y-9623984D01*
X16542325Y-9623984D02*
X16523277Y-9614460D01*
X16523277Y-9614460D02*
X16513753Y-9595412D01*
X16513753Y-9595412D02*
X16513753Y-9519222D01*
X16513753Y-9519222D02*
X16523277Y-9500174D01*
X16523277Y-9500174D02*
X16542325Y-9490650D01*
X16542325Y-9490650D02*
X16580420Y-9490650D01*
X16580420Y-9490650D02*
X16599468Y-9500174D01*
X16599468Y-9500174D02*
X16608991Y-9519222D01*
X16608991Y-9519222D02*
X16608991Y-9538270D01*
X16608991Y-9538270D02*
X16513753Y-9557317D01*
X16675658Y-9700174D02*
X16685182Y-9690650D01*
X16685182Y-9690650D02*
X16704230Y-9662079D01*
X16704230Y-9662079D02*
X16713753Y-9643031D01*
X16713753Y-9643031D02*
X16723277Y-9614460D01*
X16723277Y-9614460D02*
X16732801Y-9566841D01*
X16732801Y-9566841D02*
X16732801Y-9528746D01*
X16732801Y-9528746D02*
X16723277Y-9481127D01*
X16723277Y-9481127D02*
X16713753Y-9452555D01*
X16713753Y-9452555D02*
X16704230Y-9433508D01*
X16704230Y-9433508D02*
X16685182Y-9404936D01*
X16685182Y-9404936D02*
X16675658Y-9395412D01*
X17037563Y-9700174D02*
X17028039Y-9690650D01*
X17028039Y-9690650D02*
X17008992Y-9662079D01*
X17008992Y-9662079D02*
X16999468Y-9643031D01*
X16999468Y-9643031D02*
X16989944Y-9614460D01*
X16989944Y-9614460D02*
X16980420Y-9566841D01*
X16980420Y-9566841D02*
X16980420Y-9528746D01*
X16980420Y-9528746D02*
X16989944Y-9481127D01*
X16989944Y-9481127D02*
X16999468Y-9452555D01*
X16999468Y-9452555D02*
X17008992Y-9433508D01*
X17008992Y-9433508D02*
X17028039Y-9404936D01*
X17028039Y-9404936D02*
X17037563Y-9395412D01*
X17113753Y-9490650D02*
X17113753Y-9623984D01*
X17113753Y-9509698D02*
X17123277Y-9500174D01*
X17123277Y-9500174D02*
X17142325Y-9490650D01*
X17142325Y-9490650D02*
X17170896Y-9490650D01*
X17170896Y-9490650D02*
X17189944Y-9500174D01*
X17189944Y-9500174D02*
X17199468Y-9519222D01*
X17199468Y-9519222D02*
X17199468Y-9623984D01*
X17323277Y-9623984D02*
X17304230Y-9614460D01*
X17304230Y-9614460D02*
X17294706Y-9604936D01*
X17294706Y-9604936D02*
X17285182Y-9585889D01*
X17285182Y-9585889D02*
X17285182Y-9528746D01*
X17285182Y-9528746D02*
X17294706Y-9509698D01*
X17294706Y-9509698D02*
X17304230Y-9500174D01*
X17304230Y-9500174D02*
X17323277Y-9490650D01*
X17323277Y-9490650D02*
X17351849Y-9490650D01*
X17351849Y-9490650D02*
X17370896Y-9500174D01*
X17370896Y-9500174D02*
X17380420Y-9509698D01*
X17380420Y-9509698D02*
X17389944Y-9528746D01*
X17389944Y-9528746D02*
X17389944Y-9585889D01*
X17389944Y-9585889D02*
X17380420Y-9604936D01*
X17380420Y-9604936D02*
X17370896Y-9614460D01*
X17370896Y-9614460D02*
X17351849Y-9623984D01*
X17351849Y-9623984D02*
X17323277Y-9623984D01*
X17447087Y-9490650D02*
X17523277Y-9490650D01*
X17475658Y-9423984D02*
X17475658Y-9595412D01*
X17475658Y-9595412D02*
X17485182Y-9614460D01*
X17485182Y-9614460D02*
X17504230Y-9623984D01*
X17504230Y-9623984D02*
X17523277Y-9623984D01*
X17742325Y-9490650D02*
X17742325Y-9690650D01*
X17742325Y-9500174D02*
X17761373Y-9490650D01*
X17761373Y-9490650D02*
X17799468Y-9490650D01*
X17799468Y-9490650D02*
X17818515Y-9500174D01*
X17818515Y-9500174D02*
X17828039Y-9509698D01*
X17828039Y-9509698D02*
X17837563Y-9528746D01*
X17837563Y-9528746D02*
X17837563Y-9585889D01*
X17837563Y-9585889D02*
X17828039Y-9604936D01*
X17828039Y-9604936D02*
X17818515Y-9614460D01*
X17818515Y-9614460D02*
X17799468Y-9623984D01*
X17799468Y-9623984D02*
X17761373Y-9623984D01*
X17761373Y-9623984D02*
X17742325Y-9614460D01*
X17951849Y-9623984D02*
X17932801Y-9614460D01*
X17932801Y-9614460D02*
X17923277Y-9595412D01*
X17923277Y-9595412D02*
X17923277Y-9423984D01*
X18113754Y-9623984D02*
X18113754Y-9519222D01*
X18113754Y-9519222D02*
X18104230Y-9500174D01*
X18104230Y-9500174D02*
X18085182Y-9490650D01*
X18085182Y-9490650D02*
X18047087Y-9490650D01*
X18047087Y-9490650D02*
X18028039Y-9500174D01*
X18113754Y-9614460D02*
X18094706Y-9623984D01*
X18094706Y-9623984D02*
X18047087Y-9623984D01*
X18047087Y-9623984D02*
X18028039Y-9614460D01*
X18028039Y-9614460D02*
X18018515Y-9595412D01*
X18018515Y-9595412D02*
X18018515Y-9576365D01*
X18018515Y-9576365D02*
X18028039Y-9557317D01*
X18028039Y-9557317D02*
X18047087Y-9547793D01*
X18047087Y-9547793D02*
X18094706Y-9547793D01*
X18094706Y-9547793D02*
X18113754Y-9538270D01*
X18180420Y-9490650D02*
X18256611Y-9490650D01*
X18208992Y-9423984D02*
X18208992Y-9595412D01*
X18208992Y-9595412D02*
X18218515Y-9614460D01*
X18218515Y-9614460D02*
X18237563Y-9623984D01*
X18237563Y-9623984D02*
X18256611Y-9623984D01*
X18399468Y-9614460D02*
X18380420Y-9623984D01*
X18380420Y-9623984D02*
X18342325Y-9623984D01*
X18342325Y-9623984D02*
X18323277Y-9614460D01*
X18323277Y-9614460D02*
X18313754Y-9595412D01*
X18313754Y-9595412D02*
X18313754Y-9519222D01*
X18313754Y-9519222D02*
X18323277Y-9500174D01*
X18323277Y-9500174D02*
X18342325Y-9490650D01*
X18342325Y-9490650D02*
X18380420Y-9490650D01*
X18380420Y-9490650D02*
X18399468Y-9500174D01*
X18399468Y-9500174D02*
X18408992Y-9519222D01*
X18408992Y-9519222D02*
X18408992Y-9538270D01*
X18408992Y-9538270D02*
X18313754Y-9557317D01*
X18580420Y-9623984D02*
X18580420Y-9423984D01*
X18580420Y-9614460D02*
X18561373Y-9623984D01*
X18561373Y-9623984D02*
X18523277Y-9623984D01*
X18523277Y-9623984D02*
X18504230Y-9614460D01*
X18504230Y-9614460D02*
X18494706Y-9604936D01*
X18494706Y-9604936D02*
X18485182Y-9585889D01*
X18485182Y-9585889D02*
X18485182Y-9528746D01*
X18485182Y-9528746D02*
X18494706Y-9509698D01*
X18494706Y-9509698D02*
X18504230Y-9500174D01*
X18504230Y-9500174D02*
X18523277Y-9490650D01*
X18523277Y-9490650D02*
X18561373Y-9490650D01*
X18561373Y-9490650D02*
X18580420Y-9500174D01*
X18656611Y-9700174D02*
X18666135Y-9690650D01*
X18666135Y-9690650D02*
X18685182Y-9662079D01*
X18685182Y-9662079D02*
X18694706Y-9643031D01*
X18694706Y-9643031D02*
X18704230Y-9614460D01*
X18704230Y-9614460D02*
X18713754Y-9566841D01*
X18713754Y-9566841D02*
X18713754Y-9528746D01*
X18713754Y-9528746D02*
X18704230Y-9481127D01*
X18704230Y-9481127D02*
X18694706Y-9452555D01*
X18694706Y-9452555D02*
X18685182Y-9433508D01*
X18685182Y-9433508D02*
X18666135Y-9404936D01*
X18666135Y-9404936D02*
X18656611Y-9395412D01*
M02*
