%TF.GenerationSoftware,KiCad,Pcbnew,8.0.3+1*%
%TF.CreationDate,2024-07-17T12:21:29-06:00*%
%TF.ProjectId,CH375_Serial,43483337-355f-4536-9572-69616c2e6b69,rev?*%
%TF.SameCoordinates,Original*%
%TF.FileFunction,Drillmap*%
%TF.FilePolarity,Positive*%
%FSLAX45Y45*%
G04 Gerber Fmt 4.5, Leading zero omitted, Abs format (unit mm)*
G04 Created by KiCad (PCBNEW 8.0.3+1) date 2024-07-17 12:21:29*
%MOMM*%
%LPD*%
G01*
G04 APERTURE LIST*
%ADD10C,0.050000*%
%ADD11C,0.200000*%
%ADD12C,0.100000*%
%ADD13C,0.230000*%
%ADD14C,0.320000*%
G04 APERTURE END LIST*
D10*
X12065000Y-5778500D02*
X19443700Y-5778500D01*
X19443700Y-8890000D01*
X12065000Y-8890000D01*
X12065000Y-5778500D01*
D11*
D12*
X12261850Y-5962650D02*
X12299950Y-6000750D01*
X12299950Y-5962650D02*
X12261850Y-6000750D01*
X12274550Y-7131050D02*
X12312650Y-7169150D01*
X12312650Y-7131050D02*
X12274550Y-7169150D01*
X12274550Y-7588250D02*
X12312650Y-7626350D01*
X12312650Y-7588250D02*
X12274550Y-7626350D01*
X12274550Y-8020050D02*
X12312650Y-8058150D01*
X12312650Y-8020050D02*
X12274550Y-8058150D01*
X12274550Y-8489950D02*
X12312650Y-8528050D01*
X12312650Y-8489950D02*
X12274550Y-8528050D01*
X12947650Y-5899150D02*
X12985750Y-5937250D01*
X12985750Y-5899150D02*
X12947650Y-5937250D01*
X13252450Y-7600950D02*
X13290550Y-7639050D01*
X13290550Y-7600950D02*
X13252450Y-7639050D01*
X13341350Y-8312150D02*
X13379450Y-8350250D01*
X13379450Y-8312150D02*
X13341350Y-8350250D01*
X13569950Y-7410450D02*
X13608050Y-7448550D01*
X13608050Y-7410450D02*
X13569950Y-7448550D01*
X13633450Y-6457950D02*
X13671550Y-6496050D01*
X13671550Y-6457950D02*
X13633450Y-6496050D01*
X13696950Y-8299450D02*
X13735050Y-8337550D01*
X13735050Y-8299450D02*
X13696950Y-8337550D01*
X13785850Y-5873750D02*
X13823950Y-5911850D01*
X13823950Y-5873750D02*
X13785850Y-5911850D01*
X13950950Y-6838950D02*
X13989050Y-6877050D01*
X13989050Y-6838950D02*
X13950950Y-6877050D01*
X13950950Y-8108950D02*
X13989050Y-8147050D01*
X13989050Y-8108950D02*
X13950950Y-8147050D01*
X14077950Y-7791450D02*
X14116050Y-7829550D01*
X14116050Y-7791450D02*
X14077950Y-7829550D01*
X14408150Y-6902450D02*
X14446250Y-6940550D01*
X14446250Y-6902450D02*
X14408150Y-6940550D01*
X14458950Y-7981950D02*
X14497050Y-8020050D01*
X14497050Y-7981950D02*
X14458950Y-8020050D01*
X14522450Y-7664450D02*
X14560550Y-7702550D01*
X14560550Y-7664450D02*
X14522450Y-7702550D01*
X14649450Y-7537450D02*
X14687550Y-7575550D01*
X14687550Y-7537450D02*
X14649450Y-7575550D01*
X14649450Y-8108950D02*
X14687550Y-8147050D01*
X14687550Y-8108950D02*
X14649450Y-8147050D01*
X14776450Y-7105650D02*
X14814550Y-7143750D01*
X14814550Y-7105650D02*
X14776450Y-7143750D01*
X14966950Y-6394450D02*
X15005050Y-6432550D01*
X15005050Y-6394450D02*
X14966950Y-6432550D01*
X14966950Y-7867650D02*
X15005050Y-7905750D01*
X15005050Y-7867650D02*
X14966950Y-7905750D01*
X15093950Y-7410450D02*
X15132050Y-7448550D01*
X15132050Y-7410450D02*
X15093950Y-7448550D01*
X15157450Y-6076950D02*
X15195550Y-6115050D01*
X15195550Y-6076950D02*
X15157450Y-6115050D01*
X15309850Y-8616950D02*
X15347950Y-8655050D01*
X15347950Y-8616950D02*
X15309850Y-8655050D01*
X15513050Y-7435850D02*
X15551150Y-7473950D01*
X15551150Y-7435850D02*
X15513050Y-7473950D01*
X15538450Y-6534150D02*
X15576550Y-6572250D01*
X15576550Y-6534150D02*
X15538450Y-6572250D01*
X15665450Y-6775450D02*
X15703550Y-6813550D01*
X15703550Y-6775450D02*
X15665450Y-6813550D01*
X15792450Y-6076950D02*
X15830550Y-6115050D01*
X15830550Y-6076950D02*
X15792450Y-6115050D01*
X15792450Y-6534150D02*
X15830550Y-6572250D01*
X15830550Y-6534150D02*
X15792450Y-6572250D01*
X15792450Y-7029450D02*
X15830550Y-7067550D01*
X15830550Y-7029450D02*
X15792450Y-7067550D01*
X15792450Y-7791450D02*
X15830550Y-7829550D01*
X15830550Y-7791450D02*
X15792450Y-7829550D01*
X15855950Y-8616950D02*
X15894050Y-8655050D01*
X15894050Y-8616950D02*
X15855950Y-8655050D01*
X15919450Y-6902450D02*
X15957550Y-6940550D01*
X15957550Y-6902450D02*
X15919450Y-6940550D01*
X15919450Y-7156450D02*
X15957550Y-7194550D01*
X15957550Y-7156450D02*
X15919450Y-7194550D01*
X16097250Y-6534150D02*
X16135350Y-6572250D01*
X16135350Y-6534150D02*
X16097250Y-6572250D01*
X16275050Y-8235950D02*
X16313150Y-8274050D01*
X16313150Y-8235950D02*
X16275050Y-8274050D01*
X16427450Y-8629650D02*
X16465550Y-8667750D01*
X16465550Y-8629650D02*
X16427450Y-8667750D01*
X16617950Y-6648450D02*
X16656050Y-6686550D01*
X16656050Y-6648450D02*
X16617950Y-6686550D01*
X17011650Y-6051550D02*
X17049750Y-6089650D01*
X17049750Y-6051550D02*
X17011650Y-6089650D01*
X17189450Y-7854950D02*
X17227550Y-7893050D01*
X17227550Y-7854950D02*
X17189450Y-7893050D01*
X17379950Y-7283450D02*
X17418050Y-7321550D01*
X17418050Y-7283450D02*
X17379950Y-7321550D01*
X17379950Y-7537450D02*
X17418050Y-7575550D01*
X17418050Y-7537450D02*
X17379950Y-7575550D01*
X17405350Y-7969250D02*
X17443450Y-8007350D01*
X17443450Y-7969250D02*
X17405350Y-8007350D01*
X17506950Y-7410450D02*
X17545050Y-7448550D01*
X17545050Y-7410450D02*
X17506950Y-7448550D01*
X17570450Y-6013450D02*
X17608550Y-6051550D01*
X17608550Y-6013450D02*
X17570450Y-6051550D01*
X17697450Y-7854950D02*
X17735550Y-7893050D01*
X17735550Y-7854950D02*
X17697450Y-7893050D01*
X17887950Y-7029450D02*
X17926050Y-7067550D01*
X17926050Y-7029450D02*
X17887950Y-7067550D01*
X17887950Y-7156450D02*
X17926050Y-7194550D01*
X17926050Y-7156450D02*
X17887950Y-7194550D01*
X17976850Y-7804150D02*
X18014950Y-7842250D01*
X18014950Y-7804150D02*
X17976850Y-7842250D01*
X18243550Y-6394450D02*
X18281650Y-6432550D01*
X18281650Y-6394450D02*
X18243550Y-6432550D01*
X18383250Y-8223250D02*
X18421350Y-8261350D01*
X18421350Y-8223250D02*
X18383250Y-8261350D01*
X18776950Y-6394450D02*
X18815050Y-6432550D01*
X18815050Y-6394450D02*
X18776950Y-6432550D01*
X18789650Y-8235950D02*
X18827750Y-8274050D01*
X18827750Y-8235950D02*
X18789650Y-8274050D01*
X14827250Y-5896436D02*
G75*
G02*
X14763750Y-5896436I-31750J0D01*
G01*
X14763750Y-5896436D02*
G75*
G02*
X14827250Y-5896436I31750J0D01*
G01*
X14827250Y-6286500D02*
G75*
G02*
X14763750Y-6286500I-31750J0D01*
G01*
X14763750Y-6286500D02*
G75*
G02*
X14827250Y-6286500I31750J0D01*
G01*
X14827250Y-7366000D02*
G75*
G02*
X14763750Y-7366000I-31750J0D01*
G01*
X14763750Y-7366000D02*
G75*
G02*
X14827250Y-7366000I31750J0D01*
G01*
X15625750Y-8469000D02*
X15625750Y-8549000D01*
X15585750Y-8509000D02*
X15665750Y-8509000D01*
X16113750Y-8469000D02*
X16113750Y-8549000D01*
X16073750Y-8509000D02*
X16153750Y-8509000D01*
X14446320Y-8604320D02*
X14446320Y-8540680D01*
X14382680Y-8540680D01*
X14382680Y-8604320D01*
X14446320Y-8604320D01*
X14700320Y-8604320D02*
X14700320Y-8540680D01*
X14636680Y-8540680D01*
X14636680Y-8604320D01*
X14700320Y-8604320D01*
X13017500Y-7662000D02*
X13065000Y-7614500D01*
X13017500Y-7567000D01*
X12970000Y-7614500D01*
X13017500Y-7662000D01*
X13017500Y-7912000D02*
X13065000Y-7864500D01*
X13017500Y-7817000D01*
X12970000Y-7864500D01*
X13017500Y-7912000D01*
X13017500Y-8112000D02*
X13065000Y-8064500D01*
X13017500Y-8017000D01*
X12970000Y-8064500D01*
X13017500Y-8112000D01*
X13017500Y-8362000D02*
X13065000Y-8314500D01*
X13017500Y-8267000D01*
X12970000Y-8314500D01*
X13017500Y-8362000D01*
X12243500Y-6473000D02*
X12343500Y-6573000D01*
X12343500Y-6473000D02*
X12243500Y-6573000D01*
X12343500Y-6523000D02*
G75*
G02*
X12243500Y-6523000I-50000J0D01*
G01*
X12243500Y-6523000D02*
G75*
G02*
X12343500Y-6523000I50000J0D01*
G01*
X12243500Y-6423000D02*
X12243500Y-6623000D01*
X12343500Y-6623000D02*
G75*
G02*
X12243500Y-6623000I-50000J0D01*
G01*
X12343500Y-6623000D02*
X12343500Y-6423000D01*
X12343500Y-6423000D02*
G75*
G03*
X12243500Y-6423000I-50000J0D01*
G01*
X12713500Y-6173000D02*
X12813500Y-6273000D01*
X12813500Y-6173000D02*
X12713500Y-6273000D01*
X12813500Y-6223000D02*
G75*
G02*
X12713500Y-6223000I-50000J0D01*
G01*
X12713500Y-6223000D02*
G75*
G02*
X12813500Y-6223000I50000J0D01*
G01*
X12863500Y-6173000D02*
X12663500Y-6173000D01*
X12663500Y-6273000D02*
G75*
G02*
X12663500Y-6173000I0J50000D01*
G01*
X12663500Y-6273000D02*
X12863500Y-6273000D01*
X12863500Y-6273000D02*
G75*
G03*
X12863500Y-6173000I0J50000D01*
G01*
X12713500Y-6773000D02*
X12813500Y-6873000D01*
X12813500Y-6773000D02*
X12713500Y-6873000D01*
X12813500Y-6823000D02*
G75*
G02*
X12713500Y-6823000I-50000J0D01*
G01*
X12713500Y-6823000D02*
G75*
G02*
X12813500Y-6823000I50000J0D01*
G01*
X12863500Y-6773000D02*
X12663500Y-6773000D01*
X12663500Y-6873000D02*
G75*
G02*
X12663500Y-6773000I0J50000D01*
G01*
X12663500Y-6873000D02*
X12863500Y-6873000D01*
X12863500Y-6873000D02*
G75*
G03*
X12863500Y-6773000I0J50000D01*
G01*
X18335000Y-6733000D02*
X18435000Y-6833000D01*
X18435000Y-6733000D02*
X18335000Y-6833000D01*
X18435000Y-6783000D02*
G75*
G02*
X18335000Y-6783000I-50000J0D01*
G01*
X18335000Y-6783000D02*
G75*
G02*
X18435000Y-6783000I50000J0D01*
G01*
X18335000Y-7010000D02*
X18435000Y-7110000D01*
X18435000Y-7010000D02*
X18335000Y-7110000D01*
X18435000Y-7060000D02*
G75*
G02*
X18335000Y-7060000I-50000J0D01*
G01*
X18335000Y-7060000D02*
G75*
G02*
X18435000Y-7060000I50000J0D01*
G01*
X18335000Y-7287000D02*
X18435000Y-7387000D01*
X18435000Y-7287000D02*
X18335000Y-7387000D01*
X18435000Y-7337000D02*
G75*
G02*
X18335000Y-7337000I-50000J0D01*
G01*
X18335000Y-7337000D02*
G75*
G02*
X18435000Y-7337000I50000J0D01*
G01*
X18335000Y-7564000D02*
X18435000Y-7664000D01*
X18435000Y-7564000D02*
X18335000Y-7664000D01*
X18435000Y-7614000D02*
G75*
G02*
X18335000Y-7614000I-50000J0D01*
G01*
X18335000Y-7614000D02*
G75*
G02*
X18435000Y-7614000I50000J0D01*
G01*
X18335000Y-7841000D02*
X18435000Y-7941000D01*
X18435000Y-7841000D02*
X18335000Y-7941000D01*
X18435000Y-7891000D02*
G75*
G02*
X18335000Y-7891000I-50000J0D01*
G01*
X18335000Y-7891000D02*
G75*
G02*
X18435000Y-7891000I50000J0D01*
G01*
X18619000Y-6871500D02*
X18719000Y-6971500D01*
X18719000Y-6871500D02*
X18619000Y-6971500D01*
X18719000Y-6921500D02*
G75*
G02*
X18619000Y-6921500I-50000J0D01*
G01*
X18619000Y-6921500D02*
G75*
G02*
X18719000Y-6921500I50000J0D01*
G01*
X18619000Y-7148500D02*
X18719000Y-7248500D01*
X18719000Y-7148500D02*
X18619000Y-7248500D01*
X18719000Y-7198500D02*
G75*
G02*
X18619000Y-7198500I-50000J0D01*
G01*
X18619000Y-7198500D02*
G75*
G02*
X18719000Y-7198500I50000J0D01*
G01*
X18619000Y-7425500D02*
X18719000Y-7525500D01*
X18719000Y-7425500D02*
X18619000Y-7525500D01*
X18719000Y-7475500D02*
G75*
G02*
X18619000Y-7475500I-50000J0D01*
G01*
X18619000Y-7475500D02*
G75*
G02*
X18719000Y-7475500I50000J0D01*
G01*
X18619000Y-7702500D02*
X18719000Y-7802500D01*
X18719000Y-7702500D02*
X18619000Y-7802500D01*
X18719000Y-7752500D02*
G75*
G02*
X18619000Y-7752500I-50000J0D01*
G01*
X18619000Y-7752500D02*
G75*
G02*
X18719000Y-7752500I50000J0D01*
G01*
D13*
X12631500Y-7192500D02*
X12861500Y-7422500D01*
X12861500Y-7192500D02*
X12631500Y-7422500D01*
X12746500Y-7192500D02*
X12746500Y-7422500D01*
X12631500Y-7307500D02*
X12861500Y-7307500D01*
X12631500Y-8506500D02*
X12861500Y-8736500D01*
X12861500Y-8506500D02*
X12631500Y-8736500D01*
X12746500Y-8506500D02*
X12746500Y-8736500D01*
X12631500Y-8621500D02*
X12861500Y-8621500D01*
D14*
X18367000Y-5927000D02*
X18687000Y-6247000D01*
X18687000Y-5927000D02*
X18367000Y-6247000D01*
X18640138Y-6200138D02*
X18640138Y-5973862D01*
X18413862Y-5973862D01*
X18413862Y-6200138D01*
X18640138Y-6200138D01*
X18367000Y-8427000D02*
X18687000Y-8747000D01*
X18687000Y-8427000D02*
X18367000Y-8747000D01*
X18640138Y-8700138D02*
X18640138Y-8473862D01*
X18413862Y-8473862D01*
X18413862Y-8700138D01*
X18640138Y-8700138D01*
D11*
X12323277Y-9203984D02*
X12323277Y-9003984D01*
X12323277Y-9003984D02*
X12370896Y-9003984D01*
X12370896Y-9003984D02*
X12399467Y-9013508D01*
X12399467Y-9013508D02*
X12418515Y-9032555D01*
X12418515Y-9032555D02*
X12428039Y-9051603D01*
X12428039Y-9051603D02*
X12437562Y-9089698D01*
X12437562Y-9089698D02*
X12437562Y-9118270D01*
X12437562Y-9118270D02*
X12428039Y-9156365D01*
X12428039Y-9156365D02*
X12418515Y-9175412D01*
X12418515Y-9175412D02*
X12399467Y-9194460D01*
X12399467Y-9194460D02*
X12370896Y-9203984D01*
X12370896Y-9203984D02*
X12323277Y-9203984D01*
X12523277Y-9203984D02*
X12523277Y-9070650D01*
X12523277Y-9108746D02*
X12532801Y-9089698D01*
X12532801Y-9089698D02*
X12542324Y-9080174D01*
X12542324Y-9080174D02*
X12561372Y-9070650D01*
X12561372Y-9070650D02*
X12580420Y-9070650D01*
X12647086Y-9203984D02*
X12647086Y-9070650D01*
X12647086Y-9003984D02*
X12637562Y-9013508D01*
X12637562Y-9013508D02*
X12647086Y-9023031D01*
X12647086Y-9023031D02*
X12656610Y-9013508D01*
X12656610Y-9013508D02*
X12647086Y-9003984D01*
X12647086Y-9003984D02*
X12647086Y-9023031D01*
X12770896Y-9203984D02*
X12751848Y-9194460D01*
X12751848Y-9194460D02*
X12742324Y-9175412D01*
X12742324Y-9175412D02*
X12742324Y-9003984D01*
X12875658Y-9203984D02*
X12856610Y-9194460D01*
X12856610Y-9194460D02*
X12847086Y-9175412D01*
X12847086Y-9175412D02*
X12847086Y-9003984D01*
X13104229Y-9203984D02*
X13104229Y-9003984D01*
X13104229Y-9003984D02*
X13170896Y-9146841D01*
X13170896Y-9146841D02*
X13237562Y-9003984D01*
X13237562Y-9003984D02*
X13237562Y-9203984D01*
X13418515Y-9203984D02*
X13418515Y-9099222D01*
X13418515Y-9099222D02*
X13408991Y-9080174D01*
X13408991Y-9080174D02*
X13389943Y-9070650D01*
X13389943Y-9070650D02*
X13351848Y-9070650D01*
X13351848Y-9070650D02*
X13332801Y-9080174D01*
X13418515Y-9194460D02*
X13399467Y-9203984D01*
X13399467Y-9203984D02*
X13351848Y-9203984D01*
X13351848Y-9203984D02*
X13332801Y-9194460D01*
X13332801Y-9194460D02*
X13323277Y-9175412D01*
X13323277Y-9175412D02*
X13323277Y-9156365D01*
X13323277Y-9156365D02*
X13332801Y-9137317D01*
X13332801Y-9137317D02*
X13351848Y-9127793D01*
X13351848Y-9127793D02*
X13399467Y-9127793D01*
X13399467Y-9127793D02*
X13418515Y-9118270D01*
X13513753Y-9070650D02*
X13513753Y-9270650D01*
X13513753Y-9080174D02*
X13532801Y-9070650D01*
X13532801Y-9070650D02*
X13570896Y-9070650D01*
X13570896Y-9070650D02*
X13589943Y-9080174D01*
X13589943Y-9080174D02*
X13599467Y-9089698D01*
X13599467Y-9089698D02*
X13608991Y-9108746D01*
X13608991Y-9108746D02*
X13608991Y-9165889D01*
X13608991Y-9165889D02*
X13599467Y-9184936D01*
X13599467Y-9184936D02*
X13589943Y-9194460D01*
X13589943Y-9194460D02*
X13570896Y-9203984D01*
X13570896Y-9203984D02*
X13532801Y-9203984D01*
X13532801Y-9203984D02*
X13513753Y-9194460D01*
X13694705Y-9184936D02*
X13704229Y-9194460D01*
X13704229Y-9194460D02*
X13694705Y-9203984D01*
X13694705Y-9203984D02*
X13685182Y-9194460D01*
X13685182Y-9194460D02*
X13694705Y-9184936D01*
X13694705Y-9184936D02*
X13694705Y-9203984D01*
X13694705Y-9080174D02*
X13704229Y-9089698D01*
X13704229Y-9089698D02*
X13694705Y-9099222D01*
X13694705Y-9099222D02*
X13685182Y-9089698D01*
X13685182Y-9089698D02*
X13694705Y-9080174D01*
X13694705Y-9080174D02*
X13694705Y-9099222D01*
D12*
X12024400Y-9513450D02*
X12062500Y-9551550D01*
X12062500Y-9513450D02*
X12024400Y-9551550D01*
D11*
X12361372Y-9423984D02*
X12380420Y-9423984D01*
X12380420Y-9423984D02*
X12399467Y-9433508D01*
X12399467Y-9433508D02*
X12408991Y-9443031D01*
X12408991Y-9443031D02*
X12418515Y-9462079D01*
X12418515Y-9462079D02*
X12428039Y-9500174D01*
X12428039Y-9500174D02*
X12428039Y-9547793D01*
X12428039Y-9547793D02*
X12418515Y-9585889D01*
X12418515Y-9585889D02*
X12408991Y-9604936D01*
X12408991Y-9604936D02*
X12399467Y-9614460D01*
X12399467Y-9614460D02*
X12380420Y-9623984D01*
X12380420Y-9623984D02*
X12361372Y-9623984D01*
X12361372Y-9623984D02*
X12342324Y-9614460D01*
X12342324Y-9614460D02*
X12332801Y-9604936D01*
X12332801Y-9604936D02*
X12323277Y-9585889D01*
X12323277Y-9585889D02*
X12313753Y-9547793D01*
X12313753Y-9547793D02*
X12313753Y-9500174D01*
X12313753Y-9500174D02*
X12323277Y-9462079D01*
X12323277Y-9462079D02*
X12332801Y-9443031D01*
X12332801Y-9443031D02*
X12342324Y-9433508D01*
X12342324Y-9433508D02*
X12361372Y-9423984D01*
X12513753Y-9604936D02*
X12523277Y-9614460D01*
X12523277Y-9614460D02*
X12513753Y-9623984D01*
X12513753Y-9623984D02*
X12504229Y-9614460D01*
X12504229Y-9614460D02*
X12513753Y-9604936D01*
X12513753Y-9604936D02*
X12513753Y-9623984D01*
X12589943Y-9423984D02*
X12713753Y-9423984D01*
X12713753Y-9423984D02*
X12647086Y-9500174D01*
X12647086Y-9500174D02*
X12675658Y-9500174D01*
X12675658Y-9500174D02*
X12694705Y-9509698D01*
X12694705Y-9509698D02*
X12704229Y-9519222D01*
X12704229Y-9519222D02*
X12713753Y-9538270D01*
X12713753Y-9538270D02*
X12713753Y-9585889D01*
X12713753Y-9585889D02*
X12704229Y-9604936D01*
X12704229Y-9604936D02*
X12694705Y-9614460D01*
X12694705Y-9614460D02*
X12675658Y-9623984D01*
X12675658Y-9623984D02*
X12618515Y-9623984D01*
X12618515Y-9623984D02*
X12599467Y-9614460D01*
X12599467Y-9614460D02*
X12589943Y-9604936D01*
X12828039Y-9509698D02*
X12808991Y-9500174D01*
X12808991Y-9500174D02*
X12799467Y-9490650D01*
X12799467Y-9490650D02*
X12789943Y-9471603D01*
X12789943Y-9471603D02*
X12789943Y-9462079D01*
X12789943Y-9462079D02*
X12799467Y-9443031D01*
X12799467Y-9443031D02*
X12808991Y-9433508D01*
X12808991Y-9433508D02*
X12828039Y-9423984D01*
X12828039Y-9423984D02*
X12866134Y-9423984D01*
X12866134Y-9423984D02*
X12885182Y-9433508D01*
X12885182Y-9433508D02*
X12894705Y-9443031D01*
X12894705Y-9443031D02*
X12904229Y-9462079D01*
X12904229Y-9462079D02*
X12904229Y-9471603D01*
X12904229Y-9471603D02*
X12894705Y-9490650D01*
X12894705Y-9490650D02*
X12885182Y-9500174D01*
X12885182Y-9500174D02*
X12866134Y-9509698D01*
X12866134Y-9509698D02*
X12828039Y-9509698D01*
X12828039Y-9509698D02*
X12808991Y-9519222D01*
X12808991Y-9519222D02*
X12799467Y-9528746D01*
X12799467Y-9528746D02*
X12789943Y-9547793D01*
X12789943Y-9547793D02*
X12789943Y-9585889D01*
X12789943Y-9585889D02*
X12799467Y-9604936D01*
X12799467Y-9604936D02*
X12808991Y-9614460D01*
X12808991Y-9614460D02*
X12828039Y-9623984D01*
X12828039Y-9623984D02*
X12866134Y-9623984D01*
X12866134Y-9623984D02*
X12885182Y-9614460D01*
X12885182Y-9614460D02*
X12894705Y-9604936D01*
X12894705Y-9604936D02*
X12904229Y-9585889D01*
X12904229Y-9585889D02*
X12904229Y-9547793D01*
X12904229Y-9547793D02*
X12894705Y-9528746D01*
X12894705Y-9528746D02*
X12885182Y-9519222D01*
X12885182Y-9519222D02*
X12866134Y-9509698D01*
X13094705Y-9623984D02*
X12980420Y-9623984D01*
X13037562Y-9623984D02*
X13037562Y-9423984D01*
X13037562Y-9423984D02*
X13018515Y-9452555D01*
X13018515Y-9452555D02*
X12999467Y-9471603D01*
X12999467Y-9471603D02*
X12980420Y-9481127D01*
X13180420Y-9623984D02*
X13180420Y-9490650D01*
X13180420Y-9509698D02*
X13189943Y-9500174D01*
X13189943Y-9500174D02*
X13208991Y-9490650D01*
X13208991Y-9490650D02*
X13237563Y-9490650D01*
X13237563Y-9490650D02*
X13256610Y-9500174D01*
X13256610Y-9500174D02*
X13266134Y-9519222D01*
X13266134Y-9519222D02*
X13266134Y-9623984D01*
X13266134Y-9519222D02*
X13275658Y-9500174D01*
X13275658Y-9500174D02*
X13294705Y-9490650D01*
X13294705Y-9490650D02*
X13323277Y-9490650D01*
X13323277Y-9490650D02*
X13342324Y-9500174D01*
X13342324Y-9500174D02*
X13351848Y-9519222D01*
X13351848Y-9519222D02*
X13351848Y-9623984D01*
X13447086Y-9623984D02*
X13447086Y-9490650D01*
X13447086Y-9509698D02*
X13456610Y-9500174D01*
X13456610Y-9500174D02*
X13475658Y-9490650D01*
X13475658Y-9490650D02*
X13504229Y-9490650D01*
X13504229Y-9490650D02*
X13523277Y-9500174D01*
X13523277Y-9500174D02*
X13532801Y-9519222D01*
X13532801Y-9519222D02*
X13532801Y-9623984D01*
X13532801Y-9519222D02*
X13542324Y-9500174D01*
X13542324Y-9500174D02*
X13561372Y-9490650D01*
X13561372Y-9490650D02*
X13589943Y-9490650D01*
X13589943Y-9490650D02*
X13608991Y-9500174D01*
X13608991Y-9500174D02*
X13618515Y-9519222D01*
X13618515Y-9519222D02*
X13618515Y-9623984D01*
X14008991Y-9414460D02*
X13837563Y-9671603D01*
X14266134Y-9423984D02*
X14285182Y-9423984D01*
X14285182Y-9423984D02*
X14304229Y-9433508D01*
X14304229Y-9433508D02*
X14313753Y-9443031D01*
X14313753Y-9443031D02*
X14323277Y-9462079D01*
X14323277Y-9462079D02*
X14332801Y-9500174D01*
X14332801Y-9500174D02*
X14332801Y-9547793D01*
X14332801Y-9547793D02*
X14323277Y-9585889D01*
X14323277Y-9585889D02*
X14313753Y-9604936D01*
X14313753Y-9604936D02*
X14304229Y-9614460D01*
X14304229Y-9614460D02*
X14285182Y-9623984D01*
X14285182Y-9623984D02*
X14266134Y-9623984D01*
X14266134Y-9623984D02*
X14247086Y-9614460D01*
X14247086Y-9614460D02*
X14237563Y-9604936D01*
X14237563Y-9604936D02*
X14228039Y-9585889D01*
X14228039Y-9585889D02*
X14218515Y-9547793D01*
X14218515Y-9547793D02*
X14218515Y-9500174D01*
X14218515Y-9500174D02*
X14228039Y-9462079D01*
X14228039Y-9462079D02*
X14237563Y-9443031D01*
X14237563Y-9443031D02*
X14247086Y-9433508D01*
X14247086Y-9433508D02*
X14266134Y-9423984D01*
X14418515Y-9604936D02*
X14428039Y-9614460D01*
X14428039Y-9614460D02*
X14418515Y-9623984D01*
X14418515Y-9623984D02*
X14408991Y-9614460D01*
X14408991Y-9614460D02*
X14418515Y-9604936D01*
X14418515Y-9604936D02*
X14418515Y-9623984D01*
X14551848Y-9423984D02*
X14570896Y-9423984D01*
X14570896Y-9423984D02*
X14589944Y-9433508D01*
X14589944Y-9433508D02*
X14599467Y-9443031D01*
X14599467Y-9443031D02*
X14608991Y-9462079D01*
X14608991Y-9462079D02*
X14618515Y-9500174D01*
X14618515Y-9500174D02*
X14618515Y-9547793D01*
X14618515Y-9547793D02*
X14608991Y-9585889D01*
X14608991Y-9585889D02*
X14599467Y-9604936D01*
X14599467Y-9604936D02*
X14589944Y-9614460D01*
X14589944Y-9614460D02*
X14570896Y-9623984D01*
X14570896Y-9623984D02*
X14551848Y-9623984D01*
X14551848Y-9623984D02*
X14532801Y-9614460D01*
X14532801Y-9614460D02*
X14523277Y-9604936D01*
X14523277Y-9604936D02*
X14513753Y-9585889D01*
X14513753Y-9585889D02*
X14504229Y-9547793D01*
X14504229Y-9547793D02*
X14504229Y-9500174D01*
X14504229Y-9500174D02*
X14513753Y-9462079D01*
X14513753Y-9462079D02*
X14523277Y-9443031D01*
X14523277Y-9443031D02*
X14532801Y-9433508D01*
X14532801Y-9433508D02*
X14551848Y-9423984D01*
X14808991Y-9623984D02*
X14694706Y-9623984D01*
X14751848Y-9623984D02*
X14751848Y-9423984D01*
X14751848Y-9423984D02*
X14732801Y-9452555D01*
X14732801Y-9452555D02*
X14713753Y-9471603D01*
X14713753Y-9471603D02*
X14694706Y-9481127D01*
X14989944Y-9423984D02*
X14894706Y-9423984D01*
X14894706Y-9423984D02*
X14885182Y-9519222D01*
X14885182Y-9519222D02*
X14894706Y-9509698D01*
X14894706Y-9509698D02*
X14913753Y-9500174D01*
X14913753Y-9500174D02*
X14961372Y-9500174D01*
X14961372Y-9500174D02*
X14980420Y-9509698D01*
X14980420Y-9509698D02*
X14989944Y-9519222D01*
X14989944Y-9519222D02*
X14999467Y-9538270D01*
X14999467Y-9538270D02*
X14999467Y-9585889D01*
X14999467Y-9585889D02*
X14989944Y-9604936D01*
X14989944Y-9604936D02*
X14980420Y-9614460D01*
X14980420Y-9614460D02*
X14961372Y-9623984D01*
X14961372Y-9623984D02*
X14913753Y-9623984D01*
X14913753Y-9623984D02*
X14894706Y-9614460D01*
X14894706Y-9614460D02*
X14885182Y-9604936D01*
X15123277Y-9423984D02*
X15142325Y-9423984D01*
X15142325Y-9423984D02*
X15161372Y-9433508D01*
X15161372Y-9433508D02*
X15170896Y-9443031D01*
X15170896Y-9443031D02*
X15180420Y-9462079D01*
X15180420Y-9462079D02*
X15189944Y-9500174D01*
X15189944Y-9500174D02*
X15189944Y-9547793D01*
X15189944Y-9547793D02*
X15180420Y-9585889D01*
X15180420Y-9585889D02*
X15170896Y-9604936D01*
X15170896Y-9604936D02*
X15161372Y-9614460D01*
X15161372Y-9614460D02*
X15142325Y-9623984D01*
X15142325Y-9623984D02*
X15123277Y-9623984D01*
X15123277Y-9623984D02*
X15104229Y-9614460D01*
X15104229Y-9614460D02*
X15094706Y-9604936D01*
X15094706Y-9604936D02*
X15085182Y-9585889D01*
X15085182Y-9585889D02*
X15075658Y-9547793D01*
X15075658Y-9547793D02*
X15075658Y-9500174D01*
X15075658Y-9500174D02*
X15085182Y-9462079D01*
X15085182Y-9462079D02*
X15094706Y-9443031D01*
X15094706Y-9443031D02*
X15104229Y-9433508D01*
X15104229Y-9433508D02*
X15123277Y-9423984D01*
X15266134Y-9423984D02*
X15266134Y-9462079D01*
X15342325Y-9423984D02*
X15342325Y-9462079D01*
X15637563Y-9700174D02*
X15628039Y-9690650D01*
X15628039Y-9690650D02*
X15608991Y-9662079D01*
X15608991Y-9662079D02*
X15599468Y-9643031D01*
X15599468Y-9643031D02*
X15589944Y-9614460D01*
X15589944Y-9614460D02*
X15580420Y-9566841D01*
X15580420Y-9566841D02*
X15580420Y-9528746D01*
X15580420Y-9528746D02*
X15589944Y-9481127D01*
X15589944Y-9481127D02*
X15599468Y-9452555D01*
X15599468Y-9452555D02*
X15608991Y-9433508D01*
X15608991Y-9433508D02*
X15628039Y-9404936D01*
X15628039Y-9404936D02*
X15637563Y-9395412D01*
X15808991Y-9423984D02*
X15713753Y-9423984D01*
X15713753Y-9423984D02*
X15704229Y-9519222D01*
X15704229Y-9519222D02*
X15713753Y-9509698D01*
X15713753Y-9509698D02*
X15732801Y-9500174D01*
X15732801Y-9500174D02*
X15780420Y-9500174D01*
X15780420Y-9500174D02*
X15799468Y-9509698D01*
X15799468Y-9509698D02*
X15808991Y-9519222D01*
X15808991Y-9519222D02*
X15818515Y-9538270D01*
X15818515Y-9538270D02*
X15818515Y-9585889D01*
X15818515Y-9585889D02*
X15808991Y-9604936D01*
X15808991Y-9604936D02*
X15799468Y-9614460D01*
X15799468Y-9614460D02*
X15780420Y-9623984D01*
X15780420Y-9623984D02*
X15732801Y-9623984D01*
X15732801Y-9623984D02*
X15713753Y-9614460D01*
X15713753Y-9614460D02*
X15704229Y-9604936D01*
X15999468Y-9423984D02*
X15904229Y-9423984D01*
X15904229Y-9423984D02*
X15894706Y-9519222D01*
X15894706Y-9519222D02*
X15904229Y-9509698D01*
X15904229Y-9509698D02*
X15923277Y-9500174D01*
X15923277Y-9500174D02*
X15970896Y-9500174D01*
X15970896Y-9500174D02*
X15989944Y-9509698D01*
X15989944Y-9509698D02*
X15999468Y-9519222D01*
X15999468Y-9519222D02*
X16008991Y-9538270D01*
X16008991Y-9538270D02*
X16008991Y-9585889D01*
X16008991Y-9585889D02*
X15999468Y-9604936D01*
X15999468Y-9604936D02*
X15989944Y-9614460D01*
X15989944Y-9614460D02*
X15970896Y-9623984D01*
X15970896Y-9623984D02*
X15923277Y-9623984D01*
X15923277Y-9623984D02*
X15904229Y-9614460D01*
X15904229Y-9614460D02*
X15894706Y-9604936D01*
X16247087Y-9623984D02*
X16247087Y-9423984D01*
X16332801Y-9623984D02*
X16332801Y-9519222D01*
X16332801Y-9519222D02*
X16323277Y-9500174D01*
X16323277Y-9500174D02*
X16304230Y-9490650D01*
X16304230Y-9490650D02*
X16275658Y-9490650D01*
X16275658Y-9490650D02*
X16256610Y-9500174D01*
X16256610Y-9500174D02*
X16247087Y-9509698D01*
X16456610Y-9623984D02*
X16437563Y-9614460D01*
X16437563Y-9614460D02*
X16428039Y-9604936D01*
X16428039Y-9604936D02*
X16418515Y-9585889D01*
X16418515Y-9585889D02*
X16418515Y-9528746D01*
X16418515Y-9528746D02*
X16428039Y-9509698D01*
X16428039Y-9509698D02*
X16437563Y-9500174D01*
X16437563Y-9500174D02*
X16456610Y-9490650D01*
X16456610Y-9490650D02*
X16485182Y-9490650D01*
X16485182Y-9490650D02*
X16504230Y-9500174D01*
X16504230Y-9500174D02*
X16513753Y-9509698D01*
X16513753Y-9509698D02*
X16523277Y-9528746D01*
X16523277Y-9528746D02*
X16523277Y-9585889D01*
X16523277Y-9585889D02*
X16513753Y-9604936D01*
X16513753Y-9604936D02*
X16504230Y-9614460D01*
X16504230Y-9614460D02*
X16485182Y-9623984D01*
X16485182Y-9623984D02*
X16456610Y-9623984D01*
X16637563Y-9623984D02*
X16618515Y-9614460D01*
X16618515Y-9614460D02*
X16608991Y-9595412D01*
X16608991Y-9595412D02*
X16608991Y-9423984D01*
X16789944Y-9614460D02*
X16770896Y-9623984D01*
X16770896Y-9623984D02*
X16732801Y-9623984D01*
X16732801Y-9623984D02*
X16713753Y-9614460D01*
X16713753Y-9614460D02*
X16704230Y-9595412D01*
X16704230Y-9595412D02*
X16704230Y-9519222D01*
X16704230Y-9519222D02*
X16713753Y-9500174D01*
X16713753Y-9500174D02*
X16732801Y-9490650D01*
X16732801Y-9490650D02*
X16770896Y-9490650D01*
X16770896Y-9490650D02*
X16789944Y-9500174D01*
X16789944Y-9500174D02*
X16799468Y-9519222D01*
X16799468Y-9519222D02*
X16799468Y-9538270D01*
X16799468Y-9538270D02*
X16704230Y-9557317D01*
X16875658Y-9614460D02*
X16894706Y-9623984D01*
X16894706Y-9623984D02*
X16932801Y-9623984D01*
X16932801Y-9623984D02*
X16951849Y-9614460D01*
X16951849Y-9614460D02*
X16961373Y-9595412D01*
X16961373Y-9595412D02*
X16961373Y-9585889D01*
X16961373Y-9585889D02*
X16951849Y-9566841D01*
X16951849Y-9566841D02*
X16932801Y-9557317D01*
X16932801Y-9557317D02*
X16904230Y-9557317D01*
X16904230Y-9557317D02*
X16885182Y-9547793D01*
X16885182Y-9547793D02*
X16875658Y-9528746D01*
X16875658Y-9528746D02*
X16875658Y-9519222D01*
X16875658Y-9519222D02*
X16885182Y-9500174D01*
X16885182Y-9500174D02*
X16904230Y-9490650D01*
X16904230Y-9490650D02*
X16932801Y-9490650D01*
X16932801Y-9490650D02*
X16951849Y-9500174D01*
X17028039Y-9700174D02*
X17037563Y-9690650D01*
X17037563Y-9690650D02*
X17056611Y-9662079D01*
X17056611Y-9662079D02*
X17066134Y-9643031D01*
X17066134Y-9643031D02*
X17075658Y-9614460D01*
X17075658Y-9614460D02*
X17085182Y-9566841D01*
X17085182Y-9566841D02*
X17085182Y-9528746D01*
X17085182Y-9528746D02*
X17075658Y-9481127D01*
X17075658Y-9481127D02*
X17066134Y-9452555D01*
X17066134Y-9452555D02*
X17056611Y-9433508D01*
X17056611Y-9433508D02*
X17037563Y-9404936D01*
X17037563Y-9404936D02*
X17028039Y-9395412D01*
D12*
X12062500Y-9796500D02*
G75*
G02*
X11999000Y-9796500I-31750J0D01*
G01*
X11999000Y-9796500D02*
G75*
G02*
X12062500Y-9796500I31750J0D01*
G01*
D11*
X12361372Y-9687984D02*
X12380420Y-9687984D01*
X12380420Y-9687984D02*
X12399467Y-9697508D01*
X12399467Y-9697508D02*
X12408991Y-9707031D01*
X12408991Y-9707031D02*
X12418515Y-9726079D01*
X12418515Y-9726079D02*
X12428039Y-9764174D01*
X12428039Y-9764174D02*
X12428039Y-9811793D01*
X12428039Y-9811793D02*
X12418515Y-9849889D01*
X12418515Y-9849889D02*
X12408991Y-9868936D01*
X12408991Y-9868936D02*
X12399467Y-9878460D01*
X12399467Y-9878460D02*
X12380420Y-9887984D01*
X12380420Y-9887984D02*
X12361372Y-9887984D01*
X12361372Y-9887984D02*
X12342324Y-9878460D01*
X12342324Y-9878460D02*
X12332801Y-9868936D01*
X12332801Y-9868936D02*
X12323277Y-9849889D01*
X12323277Y-9849889D02*
X12313753Y-9811793D01*
X12313753Y-9811793D02*
X12313753Y-9764174D01*
X12313753Y-9764174D02*
X12323277Y-9726079D01*
X12323277Y-9726079D02*
X12332801Y-9707031D01*
X12332801Y-9707031D02*
X12342324Y-9697508D01*
X12342324Y-9697508D02*
X12361372Y-9687984D01*
X12513753Y-9868936D02*
X12523277Y-9878460D01*
X12523277Y-9878460D02*
X12513753Y-9887984D01*
X12513753Y-9887984D02*
X12504229Y-9878460D01*
X12504229Y-9878460D02*
X12513753Y-9868936D01*
X12513753Y-9868936D02*
X12513753Y-9887984D01*
X12694705Y-9687984D02*
X12656610Y-9687984D01*
X12656610Y-9687984D02*
X12637562Y-9697508D01*
X12637562Y-9697508D02*
X12628039Y-9707031D01*
X12628039Y-9707031D02*
X12608991Y-9735603D01*
X12608991Y-9735603D02*
X12599467Y-9773698D01*
X12599467Y-9773698D02*
X12599467Y-9849889D01*
X12599467Y-9849889D02*
X12608991Y-9868936D01*
X12608991Y-9868936D02*
X12618515Y-9878460D01*
X12618515Y-9878460D02*
X12637562Y-9887984D01*
X12637562Y-9887984D02*
X12675658Y-9887984D01*
X12675658Y-9887984D02*
X12694705Y-9878460D01*
X12694705Y-9878460D02*
X12704229Y-9868936D01*
X12704229Y-9868936D02*
X12713753Y-9849889D01*
X12713753Y-9849889D02*
X12713753Y-9802270D01*
X12713753Y-9802270D02*
X12704229Y-9783222D01*
X12704229Y-9783222D02*
X12694705Y-9773698D01*
X12694705Y-9773698D02*
X12675658Y-9764174D01*
X12675658Y-9764174D02*
X12637562Y-9764174D01*
X12637562Y-9764174D02*
X12618515Y-9773698D01*
X12618515Y-9773698D02*
X12608991Y-9783222D01*
X12608991Y-9783222D02*
X12599467Y-9802270D01*
X12780420Y-9687984D02*
X12904229Y-9687984D01*
X12904229Y-9687984D02*
X12837562Y-9764174D01*
X12837562Y-9764174D02*
X12866134Y-9764174D01*
X12866134Y-9764174D02*
X12885182Y-9773698D01*
X12885182Y-9773698D02*
X12894705Y-9783222D01*
X12894705Y-9783222D02*
X12904229Y-9802270D01*
X12904229Y-9802270D02*
X12904229Y-9849889D01*
X12904229Y-9849889D02*
X12894705Y-9868936D01*
X12894705Y-9868936D02*
X12885182Y-9878460D01*
X12885182Y-9878460D02*
X12866134Y-9887984D01*
X12866134Y-9887984D02*
X12808991Y-9887984D01*
X12808991Y-9887984D02*
X12789943Y-9878460D01*
X12789943Y-9878460D02*
X12780420Y-9868936D01*
X13085182Y-9687984D02*
X12989943Y-9687984D01*
X12989943Y-9687984D02*
X12980420Y-9783222D01*
X12980420Y-9783222D02*
X12989943Y-9773698D01*
X12989943Y-9773698D02*
X13008991Y-9764174D01*
X13008991Y-9764174D02*
X13056610Y-9764174D01*
X13056610Y-9764174D02*
X13075658Y-9773698D01*
X13075658Y-9773698D02*
X13085182Y-9783222D01*
X13085182Y-9783222D02*
X13094705Y-9802270D01*
X13094705Y-9802270D02*
X13094705Y-9849889D01*
X13094705Y-9849889D02*
X13085182Y-9868936D01*
X13085182Y-9868936D02*
X13075658Y-9878460D01*
X13075658Y-9878460D02*
X13056610Y-9887984D01*
X13056610Y-9887984D02*
X13008991Y-9887984D01*
X13008991Y-9887984D02*
X12989943Y-9878460D01*
X12989943Y-9878460D02*
X12980420Y-9868936D01*
X13180420Y-9887984D02*
X13180420Y-9754650D01*
X13180420Y-9773698D02*
X13189943Y-9764174D01*
X13189943Y-9764174D02*
X13208991Y-9754650D01*
X13208991Y-9754650D02*
X13237563Y-9754650D01*
X13237563Y-9754650D02*
X13256610Y-9764174D01*
X13256610Y-9764174D02*
X13266134Y-9783222D01*
X13266134Y-9783222D02*
X13266134Y-9887984D01*
X13266134Y-9783222D02*
X13275658Y-9764174D01*
X13275658Y-9764174D02*
X13294705Y-9754650D01*
X13294705Y-9754650D02*
X13323277Y-9754650D01*
X13323277Y-9754650D02*
X13342324Y-9764174D01*
X13342324Y-9764174D02*
X13351848Y-9783222D01*
X13351848Y-9783222D02*
X13351848Y-9887984D01*
X13447086Y-9887984D02*
X13447086Y-9754650D01*
X13447086Y-9773698D02*
X13456610Y-9764174D01*
X13456610Y-9764174D02*
X13475658Y-9754650D01*
X13475658Y-9754650D02*
X13504229Y-9754650D01*
X13504229Y-9754650D02*
X13523277Y-9764174D01*
X13523277Y-9764174D02*
X13532801Y-9783222D01*
X13532801Y-9783222D02*
X13532801Y-9887984D01*
X13532801Y-9783222D02*
X13542324Y-9764174D01*
X13542324Y-9764174D02*
X13561372Y-9754650D01*
X13561372Y-9754650D02*
X13589943Y-9754650D01*
X13589943Y-9754650D02*
X13608991Y-9764174D01*
X13608991Y-9764174D02*
X13618515Y-9783222D01*
X13618515Y-9783222D02*
X13618515Y-9887984D01*
X14008991Y-9678460D02*
X13837563Y-9935603D01*
X14266134Y-9687984D02*
X14285182Y-9687984D01*
X14285182Y-9687984D02*
X14304229Y-9697508D01*
X14304229Y-9697508D02*
X14313753Y-9707031D01*
X14313753Y-9707031D02*
X14323277Y-9726079D01*
X14323277Y-9726079D02*
X14332801Y-9764174D01*
X14332801Y-9764174D02*
X14332801Y-9811793D01*
X14332801Y-9811793D02*
X14323277Y-9849889D01*
X14323277Y-9849889D02*
X14313753Y-9868936D01*
X14313753Y-9868936D02*
X14304229Y-9878460D01*
X14304229Y-9878460D02*
X14285182Y-9887984D01*
X14285182Y-9887984D02*
X14266134Y-9887984D01*
X14266134Y-9887984D02*
X14247086Y-9878460D01*
X14247086Y-9878460D02*
X14237563Y-9868936D01*
X14237563Y-9868936D02*
X14228039Y-9849889D01*
X14228039Y-9849889D02*
X14218515Y-9811793D01*
X14218515Y-9811793D02*
X14218515Y-9764174D01*
X14218515Y-9764174D02*
X14228039Y-9726079D01*
X14228039Y-9726079D02*
X14237563Y-9707031D01*
X14237563Y-9707031D02*
X14247086Y-9697508D01*
X14247086Y-9697508D02*
X14266134Y-9687984D01*
X14418515Y-9868936D02*
X14428039Y-9878460D01*
X14428039Y-9878460D02*
X14418515Y-9887984D01*
X14418515Y-9887984D02*
X14408991Y-9878460D01*
X14408991Y-9878460D02*
X14418515Y-9868936D01*
X14418515Y-9868936D02*
X14418515Y-9887984D01*
X14551848Y-9687984D02*
X14570896Y-9687984D01*
X14570896Y-9687984D02*
X14589944Y-9697508D01*
X14589944Y-9697508D02*
X14599467Y-9707031D01*
X14599467Y-9707031D02*
X14608991Y-9726079D01*
X14608991Y-9726079D02*
X14618515Y-9764174D01*
X14618515Y-9764174D02*
X14618515Y-9811793D01*
X14618515Y-9811793D02*
X14608991Y-9849889D01*
X14608991Y-9849889D02*
X14599467Y-9868936D01*
X14599467Y-9868936D02*
X14589944Y-9878460D01*
X14589944Y-9878460D02*
X14570896Y-9887984D01*
X14570896Y-9887984D02*
X14551848Y-9887984D01*
X14551848Y-9887984D02*
X14532801Y-9878460D01*
X14532801Y-9878460D02*
X14523277Y-9868936D01*
X14523277Y-9868936D02*
X14513753Y-9849889D01*
X14513753Y-9849889D02*
X14504229Y-9811793D01*
X14504229Y-9811793D02*
X14504229Y-9764174D01*
X14504229Y-9764174D02*
X14513753Y-9726079D01*
X14513753Y-9726079D02*
X14523277Y-9707031D01*
X14523277Y-9707031D02*
X14532801Y-9697508D01*
X14532801Y-9697508D02*
X14551848Y-9687984D01*
X14694706Y-9707031D02*
X14704229Y-9697508D01*
X14704229Y-9697508D02*
X14723277Y-9687984D01*
X14723277Y-9687984D02*
X14770896Y-9687984D01*
X14770896Y-9687984D02*
X14789944Y-9697508D01*
X14789944Y-9697508D02*
X14799467Y-9707031D01*
X14799467Y-9707031D02*
X14808991Y-9726079D01*
X14808991Y-9726079D02*
X14808991Y-9745127D01*
X14808991Y-9745127D02*
X14799467Y-9773698D01*
X14799467Y-9773698D02*
X14685182Y-9887984D01*
X14685182Y-9887984D02*
X14808991Y-9887984D01*
X14989944Y-9687984D02*
X14894706Y-9687984D01*
X14894706Y-9687984D02*
X14885182Y-9783222D01*
X14885182Y-9783222D02*
X14894706Y-9773698D01*
X14894706Y-9773698D02*
X14913753Y-9764174D01*
X14913753Y-9764174D02*
X14961372Y-9764174D01*
X14961372Y-9764174D02*
X14980420Y-9773698D01*
X14980420Y-9773698D02*
X14989944Y-9783222D01*
X14989944Y-9783222D02*
X14999467Y-9802270D01*
X14999467Y-9802270D02*
X14999467Y-9849889D01*
X14999467Y-9849889D02*
X14989944Y-9868936D01*
X14989944Y-9868936D02*
X14980420Y-9878460D01*
X14980420Y-9878460D02*
X14961372Y-9887984D01*
X14961372Y-9887984D02*
X14913753Y-9887984D01*
X14913753Y-9887984D02*
X14894706Y-9878460D01*
X14894706Y-9878460D02*
X14885182Y-9868936D01*
X15123277Y-9687984D02*
X15142325Y-9687984D01*
X15142325Y-9687984D02*
X15161372Y-9697508D01*
X15161372Y-9697508D02*
X15170896Y-9707031D01*
X15170896Y-9707031D02*
X15180420Y-9726079D01*
X15180420Y-9726079D02*
X15189944Y-9764174D01*
X15189944Y-9764174D02*
X15189944Y-9811793D01*
X15189944Y-9811793D02*
X15180420Y-9849889D01*
X15180420Y-9849889D02*
X15170896Y-9868936D01*
X15170896Y-9868936D02*
X15161372Y-9878460D01*
X15161372Y-9878460D02*
X15142325Y-9887984D01*
X15142325Y-9887984D02*
X15123277Y-9887984D01*
X15123277Y-9887984D02*
X15104229Y-9878460D01*
X15104229Y-9878460D02*
X15094706Y-9868936D01*
X15094706Y-9868936D02*
X15085182Y-9849889D01*
X15085182Y-9849889D02*
X15075658Y-9811793D01*
X15075658Y-9811793D02*
X15075658Y-9764174D01*
X15075658Y-9764174D02*
X15085182Y-9726079D01*
X15085182Y-9726079D02*
X15094706Y-9707031D01*
X15094706Y-9707031D02*
X15104229Y-9697508D01*
X15104229Y-9697508D02*
X15123277Y-9687984D01*
X15266134Y-9687984D02*
X15266134Y-9726079D01*
X15342325Y-9687984D02*
X15342325Y-9726079D01*
X15637563Y-9964174D02*
X15628039Y-9954650D01*
X15628039Y-9954650D02*
X15608991Y-9926079D01*
X15608991Y-9926079D02*
X15599468Y-9907031D01*
X15599468Y-9907031D02*
X15589944Y-9878460D01*
X15589944Y-9878460D02*
X15580420Y-9830841D01*
X15580420Y-9830841D02*
X15580420Y-9792746D01*
X15580420Y-9792746D02*
X15589944Y-9745127D01*
X15589944Y-9745127D02*
X15599468Y-9716555D01*
X15599468Y-9716555D02*
X15608991Y-9697508D01*
X15608991Y-9697508D02*
X15628039Y-9668936D01*
X15628039Y-9668936D02*
X15637563Y-9659412D01*
X15694706Y-9687984D02*
X15818515Y-9687984D01*
X15818515Y-9687984D02*
X15751848Y-9764174D01*
X15751848Y-9764174D02*
X15780420Y-9764174D01*
X15780420Y-9764174D02*
X15799468Y-9773698D01*
X15799468Y-9773698D02*
X15808991Y-9783222D01*
X15808991Y-9783222D02*
X15818515Y-9802270D01*
X15818515Y-9802270D02*
X15818515Y-9849889D01*
X15818515Y-9849889D02*
X15808991Y-9868936D01*
X15808991Y-9868936D02*
X15799468Y-9878460D01*
X15799468Y-9878460D02*
X15780420Y-9887984D01*
X15780420Y-9887984D02*
X15723277Y-9887984D01*
X15723277Y-9887984D02*
X15704229Y-9878460D01*
X15704229Y-9878460D02*
X15694706Y-9868936D01*
X16056610Y-9887984D02*
X16056610Y-9687984D01*
X16142325Y-9887984D02*
X16142325Y-9783222D01*
X16142325Y-9783222D02*
X16132801Y-9764174D01*
X16132801Y-9764174D02*
X16113753Y-9754650D01*
X16113753Y-9754650D02*
X16085182Y-9754650D01*
X16085182Y-9754650D02*
X16066134Y-9764174D01*
X16066134Y-9764174D02*
X16056610Y-9773698D01*
X16266134Y-9887984D02*
X16247087Y-9878460D01*
X16247087Y-9878460D02*
X16237563Y-9868936D01*
X16237563Y-9868936D02*
X16228039Y-9849889D01*
X16228039Y-9849889D02*
X16228039Y-9792746D01*
X16228039Y-9792746D02*
X16237563Y-9773698D01*
X16237563Y-9773698D02*
X16247087Y-9764174D01*
X16247087Y-9764174D02*
X16266134Y-9754650D01*
X16266134Y-9754650D02*
X16294706Y-9754650D01*
X16294706Y-9754650D02*
X16313753Y-9764174D01*
X16313753Y-9764174D02*
X16323277Y-9773698D01*
X16323277Y-9773698D02*
X16332801Y-9792746D01*
X16332801Y-9792746D02*
X16332801Y-9849889D01*
X16332801Y-9849889D02*
X16323277Y-9868936D01*
X16323277Y-9868936D02*
X16313753Y-9878460D01*
X16313753Y-9878460D02*
X16294706Y-9887984D01*
X16294706Y-9887984D02*
X16266134Y-9887984D01*
X16447087Y-9887984D02*
X16428039Y-9878460D01*
X16428039Y-9878460D02*
X16418515Y-9859412D01*
X16418515Y-9859412D02*
X16418515Y-9687984D01*
X16599468Y-9878460D02*
X16580420Y-9887984D01*
X16580420Y-9887984D02*
X16542325Y-9887984D01*
X16542325Y-9887984D02*
X16523277Y-9878460D01*
X16523277Y-9878460D02*
X16513753Y-9859412D01*
X16513753Y-9859412D02*
X16513753Y-9783222D01*
X16513753Y-9783222D02*
X16523277Y-9764174D01*
X16523277Y-9764174D02*
X16542325Y-9754650D01*
X16542325Y-9754650D02*
X16580420Y-9754650D01*
X16580420Y-9754650D02*
X16599468Y-9764174D01*
X16599468Y-9764174D02*
X16608991Y-9783222D01*
X16608991Y-9783222D02*
X16608991Y-9802270D01*
X16608991Y-9802270D02*
X16513753Y-9821317D01*
X16685182Y-9878460D02*
X16704230Y-9887984D01*
X16704230Y-9887984D02*
X16742325Y-9887984D01*
X16742325Y-9887984D02*
X16761372Y-9878460D01*
X16761372Y-9878460D02*
X16770896Y-9859412D01*
X16770896Y-9859412D02*
X16770896Y-9849889D01*
X16770896Y-9849889D02*
X16761372Y-9830841D01*
X16761372Y-9830841D02*
X16742325Y-9821317D01*
X16742325Y-9821317D02*
X16713753Y-9821317D01*
X16713753Y-9821317D02*
X16694706Y-9811793D01*
X16694706Y-9811793D02*
X16685182Y-9792746D01*
X16685182Y-9792746D02*
X16685182Y-9783222D01*
X16685182Y-9783222D02*
X16694706Y-9764174D01*
X16694706Y-9764174D02*
X16713753Y-9754650D01*
X16713753Y-9754650D02*
X16742325Y-9754650D01*
X16742325Y-9754650D02*
X16761372Y-9764174D01*
X16837563Y-9964174D02*
X16847087Y-9954650D01*
X16847087Y-9954650D02*
X16866134Y-9926079D01*
X16866134Y-9926079D02*
X16875658Y-9907031D01*
X16875658Y-9907031D02*
X16885182Y-9878460D01*
X16885182Y-9878460D02*
X16894706Y-9830841D01*
X16894706Y-9830841D02*
X16894706Y-9792746D01*
X16894706Y-9792746D02*
X16885182Y-9745127D01*
X16885182Y-9745127D02*
X16875658Y-9716555D01*
X16875658Y-9716555D02*
X16866134Y-9697508D01*
X16866134Y-9697508D02*
X16847087Y-9668936D01*
X16847087Y-9668936D02*
X16837563Y-9659412D01*
D12*
X12022500Y-10020500D02*
X12022500Y-10100500D01*
X11982500Y-10060500D02*
X12062500Y-10060500D01*
D11*
X12361372Y-9951984D02*
X12380420Y-9951984D01*
X12380420Y-9951984D02*
X12399467Y-9961508D01*
X12399467Y-9961508D02*
X12408991Y-9971031D01*
X12408991Y-9971031D02*
X12418515Y-9990079D01*
X12418515Y-9990079D02*
X12428039Y-10028174D01*
X12428039Y-10028174D02*
X12428039Y-10075793D01*
X12428039Y-10075793D02*
X12418515Y-10113889D01*
X12418515Y-10113889D02*
X12408991Y-10132936D01*
X12408991Y-10132936D02*
X12399467Y-10142460D01*
X12399467Y-10142460D02*
X12380420Y-10151984D01*
X12380420Y-10151984D02*
X12361372Y-10151984D01*
X12361372Y-10151984D02*
X12342324Y-10142460D01*
X12342324Y-10142460D02*
X12332801Y-10132936D01*
X12332801Y-10132936D02*
X12323277Y-10113889D01*
X12323277Y-10113889D02*
X12313753Y-10075793D01*
X12313753Y-10075793D02*
X12313753Y-10028174D01*
X12313753Y-10028174D02*
X12323277Y-9990079D01*
X12323277Y-9990079D02*
X12332801Y-9971031D01*
X12332801Y-9971031D02*
X12342324Y-9961508D01*
X12342324Y-9961508D02*
X12361372Y-9951984D01*
X12513753Y-10132936D02*
X12523277Y-10142460D01*
X12523277Y-10142460D02*
X12513753Y-10151984D01*
X12513753Y-10151984D02*
X12504229Y-10142460D01*
X12504229Y-10142460D02*
X12513753Y-10132936D01*
X12513753Y-10132936D02*
X12513753Y-10151984D01*
X12637562Y-10037698D02*
X12618515Y-10028174D01*
X12618515Y-10028174D02*
X12608991Y-10018650D01*
X12608991Y-10018650D02*
X12599467Y-9999603D01*
X12599467Y-9999603D02*
X12599467Y-9990079D01*
X12599467Y-9990079D02*
X12608991Y-9971031D01*
X12608991Y-9971031D02*
X12618515Y-9961508D01*
X12618515Y-9961508D02*
X12637562Y-9951984D01*
X12637562Y-9951984D02*
X12675658Y-9951984D01*
X12675658Y-9951984D02*
X12694705Y-9961508D01*
X12694705Y-9961508D02*
X12704229Y-9971031D01*
X12704229Y-9971031D02*
X12713753Y-9990079D01*
X12713753Y-9990079D02*
X12713753Y-9999603D01*
X12713753Y-9999603D02*
X12704229Y-10018650D01*
X12704229Y-10018650D02*
X12694705Y-10028174D01*
X12694705Y-10028174D02*
X12675658Y-10037698D01*
X12675658Y-10037698D02*
X12637562Y-10037698D01*
X12637562Y-10037698D02*
X12618515Y-10047222D01*
X12618515Y-10047222D02*
X12608991Y-10056746D01*
X12608991Y-10056746D02*
X12599467Y-10075793D01*
X12599467Y-10075793D02*
X12599467Y-10113889D01*
X12599467Y-10113889D02*
X12608991Y-10132936D01*
X12608991Y-10132936D02*
X12618515Y-10142460D01*
X12618515Y-10142460D02*
X12637562Y-10151984D01*
X12637562Y-10151984D02*
X12675658Y-10151984D01*
X12675658Y-10151984D02*
X12694705Y-10142460D01*
X12694705Y-10142460D02*
X12704229Y-10132936D01*
X12704229Y-10132936D02*
X12713753Y-10113889D01*
X12713753Y-10113889D02*
X12713753Y-10075793D01*
X12713753Y-10075793D02*
X12704229Y-10056746D01*
X12704229Y-10056746D02*
X12694705Y-10047222D01*
X12694705Y-10047222D02*
X12675658Y-10037698D01*
X12837562Y-9951984D02*
X12856610Y-9951984D01*
X12856610Y-9951984D02*
X12875658Y-9961508D01*
X12875658Y-9961508D02*
X12885182Y-9971031D01*
X12885182Y-9971031D02*
X12894705Y-9990079D01*
X12894705Y-9990079D02*
X12904229Y-10028174D01*
X12904229Y-10028174D02*
X12904229Y-10075793D01*
X12904229Y-10075793D02*
X12894705Y-10113889D01*
X12894705Y-10113889D02*
X12885182Y-10132936D01*
X12885182Y-10132936D02*
X12875658Y-10142460D01*
X12875658Y-10142460D02*
X12856610Y-10151984D01*
X12856610Y-10151984D02*
X12837562Y-10151984D01*
X12837562Y-10151984D02*
X12818515Y-10142460D01*
X12818515Y-10142460D02*
X12808991Y-10132936D01*
X12808991Y-10132936D02*
X12799467Y-10113889D01*
X12799467Y-10113889D02*
X12789943Y-10075793D01*
X12789943Y-10075793D02*
X12789943Y-10028174D01*
X12789943Y-10028174D02*
X12799467Y-9990079D01*
X12799467Y-9990079D02*
X12808991Y-9971031D01*
X12808991Y-9971031D02*
X12818515Y-9961508D01*
X12818515Y-9961508D02*
X12837562Y-9951984D01*
X13028039Y-9951984D02*
X13047086Y-9951984D01*
X13047086Y-9951984D02*
X13066134Y-9961508D01*
X13066134Y-9961508D02*
X13075658Y-9971031D01*
X13075658Y-9971031D02*
X13085182Y-9990079D01*
X13085182Y-9990079D02*
X13094705Y-10028174D01*
X13094705Y-10028174D02*
X13094705Y-10075793D01*
X13094705Y-10075793D02*
X13085182Y-10113889D01*
X13085182Y-10113889D02*
X13075658Y-10132936D01*
X13075658Y-10132936D02*
X13066134Y-10142460D01*
X13066134Y-10142460D02*
X13047086Y-10151984D01*
X13047086Y-10151984D02*
X13028039Y-10151984D01*
X13028039Y-10151984D02*
X13008991Y-10142460D01*
X13008991Y-10142460D02*
X12999467Y-10132936D01*
X12999467Y-10132936D02*
X12989943Y-10113889D01*
X12989943Y-10113889D02*
X12980420Y-10075793D01*
X12980420Y-10075793D02*
X12980420Y-10028174D01*
X12980420Y-10028174D02*
X12989943Y-9990079D01*
X12989943Y-9990079D02*
X12999467Y-9971031D01*
X12999467Y-9971031D02*
X13008991Y-9961508D01*
X13008991Y-9961508D02*
X13028039Y-9951984D01*
X13180420Y-10151984D02*
X13180420Y-10018650D01*
X13180420Y-10037698D02*
X13189943Y-10028174D01*
X13189943Y-10028174D02*
X13208991Y-10018650D01*
X13208991Y-10018650D02*
X13237563Y-10018650D01*
X13237563Y-10018650D02*
X13256610Y-10028174D01*
X13256610Y-10028174D02*
X13266134Y-10047222D01*
X13266134Y-10047222D02*
X13266134Y-10151984D01*
X13266134Y-10047222D02*
X13275658Y-10028174D01*
X13275658Y-10028174D02*
X13294705Y-10018650D01*
X13294705Y-10018650D02*
X13323277Y-10018650D01*
X13323277Y-10018650D02*
X13342324Y-10028174D01*
X13342324Y-10028174D02*
X13351848Y-10047222D01*
X13351848Y-10047222D02*
X13351848Y-10151984D01*
X13447086Y-10151984D02*
X13447086Y-10018650D01*
X13447086Y-10037698D02*
X13456610Y-10028174D01*
X13456610Y-10028174D02*
X13475658Y-10018650D01*
X13475658Y-10018650D02*
X13504229Y-10018650D01*
X13504229Y-10018650D02*
X13523277Y-10028174D01*
X13523277Y-10028174D02*
X13532801Y-10047222D01*
X13532801Y-10047222D02*
X13532801Y-10151984D01*
X13532801Y-10047222D02*
X13542324Y-10028174D01*
X13542324Y-10028174D02*
X13561372Y-10018650D01*
X13561372Y-10018650D02*
X13589943Y-10018650D01*
X13589943Y-10018650D02*
X13608991Y-10028174D01*
X13608991Y-10028174D02*
X13618515Y-10047222D01*
X13618515Y-10047222D02*
X13618515Y-10151984D01*
X14008991Y-9942460D02*
X13837563Y-10199603D01*
X14266134Y-9951984D02*
X14285182Y-9951984D01*
X14285182Y-9951984D02*
X14304229Y-9961508D01*
X14304229Y-9961508D02*
X14313753Y-9971031D01*
X14313753Y-9971031D02*
X14323277Y-9990079D01*
X14323277Y-9990079D02*
X14332801Y-10028174D01*
X14332801Y-10028174D02*
X14332801Y-10075793D01*
X14332801Y-10075793D02*
X14323277Y-10113889D01*
X14323277Y-10113889D02*
X14313753Y-10132936D01*
X14313753Y-10132936D02*
X14304229Y-10142460D01*
X14304229Y-10142460D02*
X14285182Y-10151984D01*
X14285182Y-10151984D02*
X14266134Y-10151984D01*
X14266134Y-10151984D02*
X14247086Y-10142460D01*
X14247086Y-10142460D02*
X14237563Y-10132936D01*
X14237563Y-10132936D02*
X14228039Y-10113889D01*
X14228039Y-10113889D02*
X14218515Y-10075793D01*
X14218515Y-10075793D02*
X14218515Y-10028174D01*
X14218515Y-10028174D02*
X14228039Y-9990079D01*
X14228039Y-9990079D02*
X14237563Y-9971031D01*
X14237563Y-9971031D02*
X14247086Y-9961508D01*
X14247086Y-9961508D02*
X14266134Y-9951984D01*
X14418515Y-10132936D02*
X14428039Y-10142460D01*
X14428039Y-10142460D02*
X14418515Y-10151984D01*
X14418515Y-10151984D02*
X14408991Y-10142460D01*
X14408991Y-10142460D02*
X14418515Y-10132936D01*
X14418515Y-10132936D02*
X14418515Y-10151984D01*
X14551848Y-9951984D02*
X14570896Y-9951984D01*
X14570896Y-9951984D02*
X14589944Y-9961508D01*
X14589944Y-9961508D02*
X14599467Y-9971031D01*
X14599467Y-9971031D02*
X14608991Y-9990079D01*
X14608991Y-9990079D02*
X14618515Y-10028174D01*
X14618515Y-10028174D02*
X14618515Y-10075793D01*
X14618515Y-10075793D02*
X14608991Y-10113889D01*
X14608991Y-10113889D02*
X14599467Y-10132936D01*
X14599467Y-10132936D02*
X14589944Y-10142460D01*
X14589944Y-10142460D02*
X14570896Y-10151984D01*
X14570896Y-10151984D02*
X14551848Y-10151984D01*
X14551848Y-10151984D02*
X14532801Y-10142460D01*
X14532801Y-10142460D02*
X14523277Y-10132936D01*
X14523277Y-10132936D02*
X14513753Y-10113889D01*
X14513753Y-10113889D02*
X14504229Y-10075793D01*
X14504229Y-10075793D02*
X14504229Y-10028174D01*
X14504229Y-10028174D02*
X14513753Y-9990079D01*
X14513753Y-9990079D02*
X14523277Y-9971031D01*
X14523277Y-9971031D02*
X14532801Y-9961508D01*
X14532801Y-9961508D02*
X14551848Y-9951984D01*
X14685182Y-9951984D02*
X14808991Y-9951984D01*
X14808991Y-9951984D02*
X14742325Y-10028174D01*
X14742325Y-10028174D02*
X14770896Y-10028174D01*
X14770896Y-10028174D02*
X14789944Y-10037698D01*
X14789944Y-10037698D02*
X14799467Y-10047222D01*
X14799467Y-10047222D02*
X14808991Y-10066270D01*
X14808991Y-10066270D02*
X14808991Y-10113889D01*
X14808991Y-10113889D02*
X14799467Y-10132936D01*
X14799467Y-10132936D02*
X14789944Y-10142460D01*
X14789944Y-10142460D02*
X14770896Y-10151984D01*
X14770896Y-10151984D02*
X14713753Y-10151984D01*
X14713753Y-10151984D02*
X14694706Y-10142460D01*
X14694706Y-10142460D02*
X14685182Y-10132936D01*
X14999467Y-10151984D02*
X14885182Y-10151984D01*
X14942325Y-10151984D02*
X14942325Y-9951984D01*
X14942325Y-9951984D02*
X14923277Y-9980555D01*
X14923277Y-9980555D02*
X14904229Y-9999603D01*
X14904229Y-9999603D02*
X14885182Y-10009127D01*
X15180420Y-9951984D02*
X15085182Y-9951984D01*
X15085182Y-9951984D02*
X15075658Y-10047222D01*
X15075658Y-10047222D02*
X15085182Y-10037698D01*
X15085182Y-10037698D02*
X15104229Y-10028174D01*
X15104229Y-10028174D02*
X15151848Y-10028174D01*
X15151848Y-10028174D02*
X15170896Y-10037698D01*
X15170896Y-10037698D02*
X15180420Y-10047222D01*
X15180420Y-10047222D02*
X15189944Y-10066270D01*
X15189944Y-10066270D02*
X15189944Y-10113889D01*
X15189944Y-10113889D02*
X15180420Y-10132936D01*
X15180420Y-10132936D02*
X15170896Y-10142460D01*
X15170896Y-10142460D02*
X15151848Y-10151984D01*
X15151848Y-10151984D02*
X15104229Y-10151984D01*
X15104229Y-10151984D02*
X15085182Y-10142460D01*
X15085182Y-10142460D02*
X15075658Y-10132936D01*
X15266134Y-9951984D02*
X15266134Y-9990079D01*
X15342325Y-9951984D02*
X15342325Y-9990079D01*
X15637563Y-10228174D02*
X15628039Y-10218650D01*
X15628039Y-10218650D02*
X15608991Y-10190079D01*
X15608991Y-10190079D02*
X15599468Y-10171031D01*
X15599468Y-10171031D02*
X15589944Y-10142460D01*
X15589944Y-10142460D02*
X15580420Y-10094841D01*
X15580420Y-10094841D02*
X15580420Y-10056746D01*
X15580420Y-10056746D02*
X15589944Y-10009127D01*
X15589944Y-10009127D02*
X15599468Y-9980555D01*
X15599468Y-9980555D02*
X15608991Y-9961508D01*
X15608991Y-9961508D02*
X15628039Y-9932936D01*
X15628039Y-9932936D02*
X15637563Y-9923412D01*
X15704229Y-9971031D02*
X15713753Y-9961508D01*
X15713753Y-9961508D02*
X15732801Y-9951984D01*
X15732801Y-9951984D02*
X15780420Y-9951984D01*
X15780420Y-9951984D02*
X15799468Y-9961508D01*
X15799468Y-9961508D02*
X15808991Y-9971031D01*
X15808991Y-9971031D02*
X15818515Y-9990079D01*
X15818515Y-9990079D02*
X15818515Y-10009127D01*
X15818515Y-10009127D02*
X15808991Y-10037698D01*
X15808991Y-10037698D02*
X15694706Y-10151984D01*
X15694706Y-10151984D02*
X15818515Y-10151984D01*
X16056610Y-10151984D02*
X16056610Y-9951984D01*
X16142325Y-10151984D02*
X16142325Y-10047222D01*
X16142325Y-10047222D02*
X16132801Y-10028174D01*
X16132801Y-10028174D02*
X16113753Y-10018650D01*
X16113753Y-10018650D02*
X16085182Y-10018650D01*
X16085182Y-10018650D02*
X16066134Y-10028174D01*
X16066134Y-10028174D02*
X16056610Y-10037698D01*
X16266134Y-10151984D02*
X16247087Y-10142460D01*
X16247087Y-10142460D02*
X16237563Y-10132936D01*
X16237563Y-10132936D02*
X16228039Y-10113889D01*
X16228039Y-10113889D02*
X16228039Y-10056746D01*
X16228039Y-10056746D02*
X16237563Y-10037698D01*
X16237563Y-10037698D02*
X16247087Y-10028174D01*
X16247087Y-10028174D02*
X16266134Y-10018650D01*
X16266134Y-10018650D02*
X16294706Y-10018650D01*
X16294706Y-10018650D02*
X16313753Y-10028174D01*
X16313753Y-10028174D02*
X16323277Y-10037698D01*
X16323277Y-10037698D02*
X16332801Y-10056746D01*
X16332801Y-10056746D02*
X16332801Y-10113889D01*
X16332801Y-10113889D02*
X16323277Y-10132936D01*
X16323277Y-10132936D02*
X16313753Y-10142460D01*
X16313753Y-10142460D02*
X16294706Y-10151984D01*
X16294706Y-10151984D02*
X16266134Y-10151984D01*
X16447087Y-10151984D02*
X16428039Y-10142460D01*
X16428039Y-10142460D02*
X16418515Y-10123412D01*
X16418515Y-10123412D02*
X16418515Y-9951984D01*
X16599468Y-10142460D02*
X16580420Y-10151984D01*
X16580420Y-10151984D02*
X16542325Y-10151984D01*
X16542325Y-10151984D02*
X16523277Y-10142460D01*
X16523277Y-10142460D02*
X16513753Y-10123412D01*
X16513753Y-10123412D02*
X16513753Y-10047222D01*
X16513753Y-10047222D02*
X16523277Y-10028174D01*
X16523277Y-10028174D02*
X16542325Y-10018650D01*
X16542325Y-10018650D02*
X16580420Y-10018650D01*
X16580420Y-10018650D02*
X16599468Y-10028174D01*
X16599468Y-10028174D02*
X16608991Y-10047222D01*
X16608991Y-10047222D02*
X16608991Y-10066270D01*
X16608991Y-10066270D02*
X16513753Y-10085317D01*
X16685182Y-10142460D02*
X16704230Y-10151984D01*
X16704230Y-10151984D02*
X16742325Y-10151984D01*
X16742325Y-10151984D02*
X16761372Y-10142460D01*
X16761372Y-10142460D02*
X16770896Y-10123412D01*
X16770896Y-10123412D02*
X16770896Y-10113889D01*
X16770896Y-10113889D02*
X16761372Y-10094841D01*
X16761372Y-10094841D02*
X16742325Y-10085317D01*
X16742325Y-10085317D02*
X16713753Y-10085317D01*
X16713753Y-10085317D02*
X16694706Y-10075793D01*
X16694706Y-10075793D02*
X16685182Y-10056746D01*
X16685182Y-10056746D02*
X16685182Y-10047222D01*
X16685182Y-10047222D02*
X16694706Y-10028174D01*
X16694706Y-10028174D02*
X16713753Y-10018650D01*
X16713753Y-10018650D02*
X16742325Y-10018650D01*
X16742325Y-10018650D02*
X16761372Y-10028174D01*
X16837563Y-10228174D02*
X16847087Y-10218650D01*
X16847087Y-10218650D02*
X16866134Y-10190079D01*
X16866134Y-10190079D02*
X16875658Y-10171031D01*
X16875658Y-10171031D02*
X16885182Y-10142460D01*
X16885182Y-10142460D02*
X16894706Y-10094841D01*
X16894706Y-10094841D02*
X16894706Y-10056746D01*
X16894706Y-10056746D02*
X16885182Y-10009127D01*
X16885182Y-10009127D02*
X16875658Y-9980555D01*
X16875658Y-9980555D02*
X16866134Y-9961508D01*
X16866134Y-9961508D02*
X16847087Y-9932936D01*
X16847087Y-9932936D02*
X16837563Y-9923412D01*
D12*
X12049320Y-10356320D02*
X12049320Y-10292680D01*
X11985680Y-10292680D01*
X11985680Y-10356320D01*
X12049320Y-10356320D01*
D11*
X12361372Y-10215984D02*
X12380420Y-10215984D01*
X12380420Y-10215984D02*
X12399467Y-10225508D01*
X12399467Y-10225508D02*
X12408991Y-10235031D01*
X12408991Y-10235031D02*
X12418515Y-10254079D01*
X12418515Y-10254079D02*
X12428039Y-10292174D01*
X12428039Y-10292174D02*
X12428039Y-10339793D01*
X12428039Y-10339793D02*
X12418515Y-10377889D01*
X12418515Y-10377889D02*
X12408991Y-10396936D01*
X12408991Y-10396936D02*
X12399467Y-10406460D01*
X12399467Y-10406460D02*
X12380420Y-10415984D01*
X12380420Y-10415984D02*
X12361372Y-10415984D01*
X12361372Y-10415984D02*
X12342324Y-10406460D01*
X12342324Y-10406460D02*
X12332801Y-10396936D01*
X12332801Y-10396936D02*
X12323277Y-10377889D01*
X12323277Y-10377889D02*
X12313753Y-10339793D01*
X12313753Y-10339793D02*
X12313753Y-10292174D01*
X12313753Y-10292174D02*
X12323277Y-10254079D01*
X12323277Y-10254079D02*
X12332801Y-10235031D01*
X12332801Y-10235031D02*
X12342324Y-10225508D01*
X12342324Y-10225508D02*
X12361372Y-10215984D01*
X12513753Y-10396936D02*
X12523277Y-10406460D01*
X12523277Y-10406460D02*
X12513753Y-10415984D01*
X12513753Y-10415984D02*
X12504229Y-10406460D01*
X12504229Y-10406460D02*
X12513753Y-10396936D01*
X12513753Y-10396936D02*
X12513753Y-10415984D01*
X12618515Y-10415984D02*
X12656610Y-10415984D01*
X12656610Y-10415984D02*
X12675658Y-10406460D01*
X12675658Y-10406460D02*
X12685182Y-10396936D01*
X12685182Y-10396936D02*
X12704229Y-10368365D01*
X12704229Y-10368365D02*
X12713753Y-10330270D01*
X12713753Y-10330270D02*
X12713753Y-10254079D01*
X12713753Y-10254079D02*
X12704229Y-10235031D01*
X12704229Y-10235031D02*
X12694705Y-10225508D01*
X12694705Y-10225508D02*
X12675658Y-10215984D01*
X12675658Y-10215984D02*
X12637562Y-10215984D01*
X12637562Y-10215984D02*
X12618515Y-10225508D01*
X12618515Y-10225508D02*
X12608991Y-10235031D01*
X12608991Y-10235031D02*
X12599467Y-10254079D01*
X12599467Y-10254079D02*
X12599467Y-10301698D01*
X12599467Y-10301698D02*
X12608991Y-10320746D01*
X12608991Y-10320746D02*
X12618515Y-10330270D01*
X12618515Y-10330270D02*
X12637562Y-10339793D01*
X12637562Y-10339793D02*
X12675658Y-10339793D01*
X12675658Y-10339793D02*
X12694705Y-10330270D01*
X12694705Y-10330270D02*
X12704229Y-10320746D01*
X12704229Y-10320746D02*
X12713753Y-10301698D01*
X12837562Y-10215984D02*
X12856610Y-10215984D01*
X12856610Y-10215984D02*
X12875658Y-10225508D01*
X12875658Y-10225508D02*
X12885182Y-10235031D01*
X12885182Y-10235031D02*
X12894705Y-10254079D01*
X12894705Y-10254079D02*
X12904229Y-10292174D01*
X12904229Y-10292174D02*
X12904229Y-10339793D01*
X12904229Y-10339793D02*
X12894705Y-10377889D01*
X12894705Y-10377889D02*
X12885182Y-10396936D01*
X12885182Y-10396936D02*
X12875658Y-10406460D01*
X12875658Y-10406460D02*
X12856610Y-10415984D01*
X12856610Y-10415984D02*
X12837562Y-10415984D01*
X12837562Y-10415984D02*
X12818515Y-10406460D01*
X12818515Y-10406460D02*
X12808991Y-10396936D01*
X12808991Y-10396936D02*
X12799467Y-10377889D01*
X12799467Y-10377889D02*
X12789943Y-10339793D01*
X12789943Y-10339793D02*
X12789943Y-10292174D01*
X12789943Y-10292174D02*
X12799467Y-10254079D01*
X12799467Y-10254079D02*
X12808991Y-10235031D01*
X12808991Y-10235031D02*
X12818515Y-10225508D01*
X12818515Y-10225508D02*
X12837562Y-10215984D01*
X13028039Y-10215984D02*
X13047086Y-10215984D01*
X13047086Y-10215984D02*
X13066134Y-10225508D01*
X13066134Y-10225508D02*
X13075658Y-10235031D01*
X13075658Y-10235031D02*
X13085182Y-10254079D01*
X13085182Y-10254079D02*
X13094705Y-10292174D01*
X13094705Y-10292174D02*
X13094705Y-10339793D01*
X13094705Y-10339793D02*
X13085182Y-10377889D01*
X13085182Y-10377889D02*
X13075658Y-10396936D01*
X13075658Y-10396936D02*
X13066134Y-10406460D01*
X13066134Y-10406460D02*
X13047086Y-10415984D01*
X13047086Y-10415984D02*
X13028039Y-10415984D01*
X13028039Y-10415984D02*
X13008991Y-10406460D01*
X13008991Y-10406460D02*
X12999467Y-10396936D01*
X12999467Y-10396936D02*
X12989943Y-10377889D01*
X12989943Y-10377889D02*
X12980420Y-10339793D01*
X12980420Y-10339793D02*
X12980420Y-10292174D01*
X12980420Y-10292174D02*
X12989943Y-10254079D01*
X12989943Y-10254079D02*
X12999467Y-10235031D01*
X12999467Y-10235031D02*
X13008991Y-10225508D01*
X13008991Y-10225508D02*
X13028039Y-10215984D01*
X13180420Y-10415984D02*
X13180420Y-10282650D01*
X13180420Y-10301698D02*
X13189943Y-10292174D01*
X13189943Y-10292174D02*
X13208991Y-10282650D01*
X13208991Y-10282650D02*
X13237563Y-10282650D01*
X13237563Y-10282650D02*
X13256610Y-10292174D01*
X13256610Y-10292174D02*
X13266134Y-10311222D01*
X13266134Y-10311222D02*
X13266134Y-10415984D01*
X13266134Y-10311222D02*
X13275658Y-10292174D01*
X13275658Y-10292174D02*
X13294705Y-10282650D01*
X13294705Y-10282650D02*
X13323277Y-10282650D01*
X13323277Y-10282650D02*
X13342324Y-10292174D01*
X13342324Y-10292174D02*
X13351848Y-10311222D01*
X13351848Y-10311222D02*
X13351848Y-10415984D01*
X13447086Y-10415984D02*
X13447086Y-10282650D01*
X13447086Y-10301698D02*
X13456610Y-10292174D01*
X13456610Y-10292174D02*
X13475658Y-10282650D01*
X13475658Y-10282650D02*
X13504229Y-10282650D01*
X13504229Y-10282650D02*
X13523277Y-10292174D01*
X13523277Y-10292174D02*
X13532801Y-10311222D01*
X13532801Y-10311222D02*
X13532801Y-10415984D01*
X13532801Y-10311222D02*
X13542324Y-10292174D01*
X13542324Y-10292174D02*
X13561372Y-10282650D01*
X13561372Y-10282650D02*
X13589943Y-10282650D01*
X13589943Y-10282650D02*
X13608991Y-10292174D01*
X13608991Y-10292174D02*
X13618515Y-10311222D01*
X13618515Y-10311222D02*
X13618515Y-10415984D01*
X14008991Y-10206460D02*
X13837563Y-10463603D01*
X14266134Y-10215984D02*
X14285182Y-10215984D01*
X14285182Y-10215984D02*
X14304229Y-10225508D01*
X14304229Y-10225508D02*
X14313753Y-10235031D01*
X14313753Y-10235031D02*
X14323277Y-10254079D01*
X14323277Y-10254079D02*
X14332801Y-10292174D01*
X14332801Y-10292174D02*
X14332801Y-10339793D01*
X14332801Y-10339793D02*
X14323277Y-10377889D01*
X14323277Y-10377889D02*
X14313753Y-10396936D01*
X14313753Y-10396936D02*
X14304229Y-10406460D01*
X14304229Y-10406460D02*
X14285182Y-10415984D01*
X14285182Y-10415984D02*
X14266134Y-10415984D01*
X14266134Y-10415984D02*
X14247086Y-10406460D01*
X14247086Y-10406460D02*
X14237563Y-10396936D01*
X14237563Y-10396936D02*
X14228039Y-10377889D01*
X14228039Y-10377889D02*
X14218515Y-10339793D01*
X14218515Y-10339793D02*
X14218515Y-10292174D01*
X14218515Y-10292174D02*
X14228039Y-10254079D01*
X14228039Y-10254079D02*
X14237563Y-10235031D01*
X14237563Y-10235031D02*
X14247086Y-10225508D01*
X14247086Y-10225508D02*
X14266134Y-10215984D01*
X14418515Y-10396936D02*
X14428039Y-10406460D01*
X14428039Y-10406460D02*
X14418515Y-10415984D01*
X14418515Y-10415984D02*
X14408991Y-10406460D01*
X14408991Y-10406460D02*
X14418515Y-10396936D01*
X14418515Y-10396936D02*
X14418515Y-10415984D01*
X14551848Y-10215984D02*
X14570896Y-10215984D01*
X14570896Y-10215984D02*
X14589944Y-10225508D01*
X14589944Y-10225508D02*
X14599467Y-10235031D01*
X14599467Y-10235031D02*
X14608991Y-10254079D01*
X14608991Y-10254079D02*
X14618515Y-10292174D01*
X14618515Y-10292174D02*
X14618515Y-10339793D01*
X14618515Y-10339793D02*
X14608991Y-10377889D01*
X14608991Y-10377889D02*
X14599467Y-10396936D01*
X14599467Y-10396936D02*
X14589944Y-10406460D01*
X14589944Y-10406460D02*
X14570896Y-10415984D01*
X14570896Y-10415984D02*
X14551848Y-10415984D01*
X14551848Y-10415984D02*
X14532801Y-10406460D01*
X14532801Y-10406460D02*
X14523277Y-10396936D01*
X14523277Y-10396936D02*
X14513753Y-10377889D01*
X14513753Y-10377889D02*
X14504229Y-10339793D01*
X14504229Y-10339793D02*
X14504229Y-10292174D01*
X14504229Y-10292174D02*
X14513753Y-10254079D01*
X14513753Y-10254079D02*
X14523277Y-10235031D01*
X14523277Y-10235031D02*
X14532801Y-10225508D01*
X14532801Y-10225508D02*
X14551848Y-10215984D01*
X14685182Y-10215984D02*
X14808991Y-10215984D01*
X14808991Y-10215984D02*
X14742325Y-10292174D01*
X14742325Y-10292174D02*
X14770896Y-10292174D01*
X14770896Y-10292174D02*
X14789944Y-10301698D01*
X14789944Y-10301698D02*
X14799467Y-10311222D01*
X14799467Y-10311222D02*
X14808991Y-10330270D01*
X14808991Y-10330270D02*
X14808991Y-10377889D01*
X14808991Y-10377889D02*
X14799467Y-10396936D01*
X14799467Y-10396936D02*
X14789944Y-10406460D01*
X14789944Y-10406460D02*
X14770896Y-10415984D01*
X14770896Y-10415984D02*
X14713753Y-10415984D01*
X14713753Y-10415984D02*
X14694706Y-10406460D01*
X14694706Y-10406460D02*
X14685182Y-10396936D01*
X14989944Y-10215984D02*
X14894706Y-10215984D01*
X14894706Y-10215984D02*
X14885182Y-10311222D01*
X14885182Y-10311222D02*
X14894706Y-10301698D01*
X14894706Y-10301698D02*
X14913753Y-10292174D01*
X14913753Y-10292174D02*
X14961372Y-10292174D01*
X14961372Y-10292174D02*
X14980420Y-10301698D01*
X14980420Y-10301698D02*
X14989944Y-10311222D01*
X14989944Y-10311222D02*
X14999467Y-10330270D01*
X14999467Y-10330270D02*
X14999467Y-10377889D01*
X14999467Y-10377889D02*
X14989944Y-10396936D01*
X14989944Y-10396936D02*
X14980420Y-10406460D01*
X14980420Y-10406460D02*
X14961372Y-10415984D01*
X14961372Y-10415984D02*
X14913753Y-10415984D01*
X14913753Y-10415984D02*
X14894706Y-10406460D01*
X14894706Y-10406460D02*
X14885182Y-10396936D01*
X15170896Y-10282650D02*
X15170896Y-10415984D01*
X15123277Y-10206460D02*
X15075658Y-10349317D01*
X15075658Y-10349317D02*
X15199467Y-10349317D01*
X15266134Y-10215984D02*
X15266134Y-10254079D01*
X15342325Y-10215984D02*
X15342325Y-10254079D01*
X15637563Y-10492174D02*
X15628039Y-10482650D01*
X15628039Y-10482650D02*
X15608991Y-10454079D01*
X15608991Y-10454079D02*
X15599468Y-10435031D01*
X15599468Y-10435031D02*
X15589944Y-10406460D01*
X15589944Y-10406460D02*
X15580420Y-10358841D01*
X15580420Y-10358841D02*
X15580420Y-10320746D01*
X15580420Y-10320746D02*
X15589944Y-10273127D01*
X15589944Y-10273127D02*
X15599468Y-10244555D01*
X15599468Y-10244555D02*
X15608991Y-10225508D01*
X15608991Y-10225508D02*
X15628039Y-10196936D01*
X15628039Y-10196936D02*
X15637563Y-10187412D01*
X15704229Y-10235031D02*
X15713753Y-10225508D01*
X15713753Y-10225508D02*
X15732801Y-10215984D01*
X15732801Y-10215984D02*
X15780420Y-10215984D01*
X15780420Y-10215984D02*
X15799468Y-10225508D01*
X15799468Y-10225508D02*
X15808991Y-10235031D01*
X15808991Y-10235031D02*
X15818515Y-10254079D01*
X15818515Y-10254079D02*
X15818515Y-10273127D01*
X15818515Y-10273127D02*
X15808991Y-10301698D01*
X15808991Y-10301698D02*
X15694706Y-10415984D01*
X15694706Y-10415984D02*
X15818515Y-10415984D01*
X16056610Y-10415984D02*
X16056610Y-10215984D01*
X16142325Y-10415984D02*
X16142325Y-10311222D01*
X16142325Y-10311222D02*
X16132801Y-10292174D01*
X16132801Y-10292174D02*
X16113753Y-10282650D01*
X16113753Y-10282650D02*
X16085182Y-10282650D01*
X16085182Y-10282650D02*
X16066134Y-10292174D01*
X16066134Y-10292174D02*
X16056610Y-10301698D01*
X16266134Y-10415984D02*
X16247087Y-10406460D01*
X16247087Y-10406460D02*
X16237563Y-10396936D01*
X16237563Y-10396936D02*
X16228039Y-10377889D01*
X16228039Y-10377889D02*
X16228039Y-10320746D01*
X16228039Y-10320746D02*
X16237563Y-10301698D01*
X16237563Y-10301698D02*
X16247087Y-10292174D01*
X16247087Y-10292174D02*
X16266134Y-10282650D01*
X16266134Y-10282650D02*
X16294706Y-10282650D01*
X16294706Y-10282650D02*
X16313753Y-10292174D01*
X16313753Y-10292174D02*
X16323277Y-10301698D01*
X16323277Y-10301698D02*
X16332801Y-10320746D01*
X16332801Y-10320746D02*
X16332801Y-10377889D01*
X16332801Y-10377889D02*
X16323277Y-10396936D01*
X16323277Y-10396936D02*
X16313753Y-10406460D01*
X16313753Y-10406460D02*
X16294706Y-10415984D01*
X16294706Y-10415984D02*
X16266134Y-10415984D01*
X16447087Y-10415984D02*
X16428039Y-10406460D01*
X16428039Y-10406460D02*
X16418515Y-10387412D01*
X16418515Y-10387412D02*
X16418515Y-10215984D01*
X16599468Y-10406460D02*
X16580420Y-10415984D01*
X16580420Y-10415984D02*
X16542325Y-10415984D01*
X16542325Y-10415984D02*
X16523277Y-10406460D01*
X16523277Y-10406460D02*
X16513753Y-10387412D01*
X16513753Y-10387412D02*
X16513753Y-10311222D01*
X16513753Y-10311222D02*
X16523277Y-10292174D01*
X16523277Y-10292174D02*
X16542325Y-10282650D01*
X16542325Y-10282650D02*
X16580420Y-10282650D01*
X16580420Y-10282650D02*
X16599468Y-10292174D01*
X16599468Y-10292174D02*
X16608991Y-10311222D01*
X16608991Y-10311222D02*
X16608991Y-10330270D01*
X16608991Y-10330270D02*
X16513753Y-10349317D01*
X16685182Y-10406460D02*
X16704230Y-10415984D01*
X16704230Y-10415984D02*
X16742325Y-10415984D01*
X16742325Y-10415984D02*
X16761372Y-10406460D01*
X16761372Y-10406460D02*
X16770896Y-10387412D01*
X16770896Y-10387412D02*
X16770896Y-10377889D01*
X16770896Y-10377889D02*
X16761372Y-10358841D01*
X16761372Y-10358841D02*
X16742325Y-10349317D01*
X16742325Y-10349317D02*
X16713753Y-10349317D01*
X16713753Y-10349317D02*
X16694706Y-10339793D01*
X16694706Y-10339793D02*
X16685182Y-10320746D01*
X16685182Y-10320746D02*
X16685182Y-10311222D01*
X16685182Y-10311222D02*
X16694706Y-10292174D01*
X16694706Y-10292174D02*
X16713753Y-10282650D01*
X16713753Y-10282650D02*
X16742325Y-10282650D01*
X16742325Y-10282650D02*
X16761372Y-10292174D01*
X16837563Y-10492174D02*
X16847087Y-10482650D01*
X16847087Y-10482650D02*
X16866134Y-10454079D01*
X16866134Y-10454079D02*
X16875658Y-10435031D01*
X16875658Y-10435031D02*
X16885182Y-10406460D01*
X16885182Y-10406460D02*
X16894706Y-10358841D01*
X16894706Y-10358841D02*
X16894706Y-10320746D01*
X16894706Y-10320746D02*
X16885182Y-10273127D01*
X16885182Y-10273127D02*
X16875658Y-10244555D01*
X16875658Y-10244555D02*
X16866134Y-10225508D01*
X16866134Y-10225508D02*
X16847087Y-10196936D01*
X16847087Y-10196936D02*
X16837563Y-10187412D01*
D12*
X12015000Y-10636000D02*
X12062500Y-10588500D01*
X12015000Y-10541000D01*
X11967500Y-10588500D01*
X12015000Y-10636000D01*
D11*
X12361372Y-10479984D02*
X12380420Y-10479984D01*
X12380420Y-10479984D02*
X12399467Y-10489508D01*
X12399467Y-10489508D02*
X12408991Y-10499031D01*
X12408991Y-10499031D02*
X12418515Y-10518079D01*
X12418515Y-10518079D02*
X12428039Y-10556174D01*
X12428039Y-10556174D02*
X12428039Y-10603793D01*
X12428039Y-10603793D02*
X12418515Y-10641889D01*
X12418515Y-10641889D02*
X12408991Y-10660936D01*
X12408991Y-10660936D02*
X12399467Y-10670460D01*
X12399467Y-10670460D02*
X12380420Y-10679984D01*
X12380420Y-10679984D02*
X12361372Y-10679984D01*
X12361372Y-10679984D02*
X12342324Y-10670460D01*
X12342324Y-10670460D02*
X12332801Y-10660936D01*
X12332801Y-10660936D02*
X12323277Y-10641889D01*
X12323277Y-10641889D02*
X12313753Y-10603793D01*
X12313753Y-10603793D02*
X12313753Y-10556174D01*
X12313753Y-10556174D02*
X12323277Y-10518079D01*
X12323277Y-10518079D02*
X12332801Y-10499031D01*
X12332801Y-10499031D02*
X12342324Y-10489508D01*
X12342324Y-10489508D02*
X12361372Y-10479984D01*
X12513753Y-10660936D02*
X12523277Y-10670460D01*
X12523277Y-10670460D02*
X12513753Y-10679984D01*
X12513753Y-10679984D02*
X12504229Y-10670460D01*
X12504229Y-10670460D02*
X12513753Y-10660936D01*
X12513753Y-10660936D02*
X12513753Y-10679984D01*
X12618515Y-10679984D02*
X12656610Y-10679984D01*
X12656610Y-10679984D02*
X12675658Y-10670460D01*
X12675658Y-10670460D02*
X12685182Y-10660936D01*
X12685182Y-10660936D02*
X12704229Y-10632365D01*
X12704229Y-10632365D02*
X12713753Y-10594270D01*
X12713753Y-10594270D02*
X12713753Y-10518079D01*
X12713753Y-10518079D02*
X12704229Y-10499031D01*
X12704229Y-10499031D02*
X12694705Y-10489508D01*
X12694705Y-10489508D02*
X12675658Y-10479984D01*
X12675658Y-10479984D02*
X12637562Y-10479984D01*
X12637562Y-10479984D02*
X12618515Y-10489508D01*
X12618515Y-10489508D02*
X12608991Y-10499031D01*
X12608991Y-10499031D02*
X12599467Y-10518079D01*
X12599467Y-10518079D02*
X12599467Y-10565698D01*
X12599467Y-10565698D02*
X12608991Y-10584746D01*
X12608991Y-10584746D02*
X12618515Y-10594270D01*
X12618515Y-10594270D02*
X12637562Y-10603793D01*
X12637562Y-10603793D02*
X12675658Y-10603793D01*
X12675658Y-10603793D02*
X12694705Y-10594270D01*
X12694705Y-10594270D02*
X12704229Y-10584746D01*
X12704229Y-10584746D02*
X12713753Y-10565698D01*
X12894705Y-10479984D02*
X12799467Y-10479984D01*
X12799467Y-10479984D02*
X12789943Y-10575222D01*
X12789943Y-10575222D02*
X12799467Y-10565698D01*
X12799467Y-10565698D02*
X12818515Y-10556174D01*
X12818515Y-10556174D02*
X12866134Y-10556174D01*
X12866134Y-10556174D02*
X12885182Y-10565698D01*
X12885182Y-10565698D02*
X12894705Y-10575222D01*
X12894705Y-10575222D02*
X12904229Y-10594270D01*
X12904229Y-10594270D02*
X12904229Y-10641889D01*
X12904229Y-10641889D02*
X12894705Y-10660936D01*
X12894705Y-10660936D02*
X12885182Y-10670460D01*
X12885182Y-10670460D02*
X12866134Y-10679984D01*
X12866134Y-10679984D02*
X12818515Y-10679984D01*
X12818515Y-10679984D02*
X12799467Y-10670460D01*
X12799467Y-10670460D02*
X12789943Y-10660936D01*
X13028039Y-10479984D02*
X13047086Y-10479984D01*
X13047086Y-10479984D02*
X13066134Y-10489508D01*
X13066134Y-10489508D02*
X13075658Y-10499031D01*
X13075658Y-10499031D02*
X13085182Y-10518079D01*
X13085182Y-10518079D02*
X13094705Y-10556174D01*
X13094705Y-10556174D02*
X13094705Y-10603793D01*
X13094705Y-10603793D02*
X13085182Y-10641889D01*
X13085182Y-10641889D02*
X13075658Y-10660936D01*
X13075658Y-10660936D02*
X13066134Y-10670460D01*
X13066134Y-10670460D02*
X13047086Y-10679984D01*
X13047086Y-10679984D02*
X13028039Y-10679984D01*
X13028039Y-10679984D02*
X13008991Y-10670460D01*
X13008991Y-10670460D02*
X12999467Y-10660936D01*
X12999467Y-10660936D02*
X12989943Y-10641889D01*
X12989943Y-10641889D02*
X12980420Y-10603793D01*
X12980420Y-10603793D02*
X12980420Y-10556174D01*
X12980420Y-10556174D02*
X12989943Y-10518079D01*
X12989943Y-10518079D02*
X12999467Y-10499031D01*
X12999467Y-10499031D02*
X13008991Y-10489508D01*
X13008991Y-10489508D02*
X13028039Y-10479984D01*
X13180420Y-10679984D02*
X13180420Y-10546650D01*
X13180420Y-10565698D02*
X13189943Y-10556174D01*
X13189943Y-10556174D02*
X13208991Y-10546650D01*
X13208991Y-10546650D02*
X13237563Y-10546650D01*
X13237563Y-10546650D02*
X13256610Y-10556174D01*
X13256610Y-10556174D02*
X13266134Y-10575222D01*
X13266134Y-10575222D02*
X13266134Y-10679984D01*
X13266134Y-10575222D02*
X13275658Y-10556174D01*
X13275658Y-10556174D02*
X13294705Y-10546650D01*
X13294705Y-10546650D02*
X13323277Y-10546650D01*
X13323277Y-10546650D02*
X13342324Y-10556174D01*
X13342324Y-10556174D02*
X13351848Y-10575222D01*
X13351848Y-10575222D02*
X13351848Y-10679984D01*
X13447086Y-10679984D02*
X13447086Y-10546650D01*
X13447086Y-10565698D02*
X13456610Y-10556174D01*
X13456610Y-10556174D02*
X13475658Y-10546650D01*
X13475658Y-10546650D02*
X13504229Y-10546650D01*
X13504229Y-10546650D02*
X13523277Y-10556174D01*
X13523277Y-10556174D02*
X13532801Y-10575222D01*
X13532801Y-10575222D02*
X13532801Y-10679984D01*
X13532801Y-10575222D02*
X13542324Y-10556174D01*
X13542324Y-10556174D02*
X13561372Y-10546650D01*
X13561372Y-10546650D02*
X13589943Y-10546650D01*
X13589943Y-10546650D02*
X13608991Y-10556174D01*
X13608991Y-10556174D02*
X13618515Y-10575222D01*
X13618515Y-10575222D02*
X13618515Y-10679984D01*
X14008991Y-10470460D02*
X13837563Y-10727603D01*
X14266134Y-10479984D02*
X14285182Y-10479984D01*
X14285182Y-10479984D02*
X14304229Y-10489508D01*
X14304229Y-10489508D02*
X14313753Y-10499031D01*
X14313753Y-10499031D02*
X14323277Y-10518079D01*
X14323277Y-10518079D02*
X14332801Y-10556174D01*
X14332801Y-10556174D02*
X14332801Y-10603793D01*
X14332801Y-10603793D02*
X14323277Y-10641889D01*
X14323277Y-10641889D02*
X14313753Y-10660936D01*
X14313753Y-10660936D02*
X14304229Y-10670460D01*
X14304229Y-10670460D02*
X14285182Y-10679984D01*
X14285182Y-10679984D02*
X14266134Y-10679984D01*
X14266134Y-10679984D02*
X14247086Y-10670460D01*
X14247086Y-10670460D02*
X14237563Y-10660936D01*
X14237563Y-10660936D02*
X14228039Y-10641889D01*
X14228039Y-10641889D02*
X14218515Y-10603793D01*
X14218515Y-10603793D02*
X14218515Y-10556174D01*
X14218515Y-10556174D02*
X14228039Y-10518079D01*
X14228039Y-10518079D02*
X14237563Y-10499031D01*
X14237563Y-10499031D02*
X14247086Y-10489508D01*
X14247086Y-10489508D02*
X14266134Y-10479984D01*
X14418515Y-10660936D02*
X14428039Y-10670460D01*
X14428039Y-10670460D02*
X14418515Y-10679984D01*
X14418515Y-10679984D02*
X14408991Y-10670460D01*
X14408991Y-10670460D02*
X14418515Y-10660936D01*
X14418515Y-10660936D02*
X14418515Y-10679984D01*
X14551848Y-10479984D02*
X14570896Y-10479984D01*
X14570896Y-10479984D02*
X14589944Y-10489508D01*
X14589944Y-10489508D02*
X14599467Y-10499031D01*
X14599467Y-10499031D02*
X14608991Y-10518079D01*
X14608991Y-10518079D02*
X14618515Y-10556174D01*
X14618515Y-10556174D02*
X14618515Y-10603793D01*
X14618515Y-10603793D02*
X14608991Y-10641889D01*
X14608991Y-10641889D02*
X14599467Y-10660936D01*
X14599467Y-10660936D02*
X14589944Y-10670460D01*
X14589944Y-10670460D02*
X14570896Y-10679984D01*
X14570896Y-10679984D02*
X14551848Y-10679984D01*
X14551848Y-10679984D02*
X14532801Y-10670460D01*
X14532801Y-10670460D02*
X14523277Y-10660936D01*
X14523277Y-10660936D02*
X14513753Y-10641889D01*
X14513753Y-10641889D02*
X14504229Y-10603793D01*
X14504229Y-10603793D02*
X14504229Y-10556174D01*
X14504229Y-10556174D02*
X14513753Y-10518079D01*
X14513753Y-10518079D02*
X14523277Y-10499031D01*
X14523277Y-10499031D02*
X14532801Y-10489508D01*
X14532801Y-10489508D02*
X14551848Y-10479984D01*
X14685182Y-10479984D02*
X14808991Y-10479984D01*
X14808991Y-10479984D02*
X14742325Y-10556174D01*
X14742325Y-10556174D02*
X14770896Y-10556174D01*
X14770896Y-10556174D02*
X14789944Y-10565698D01*
X14789944Y-10565698D02*
X14799467Y-10575222D01*
X14799467Y-10575222D02*
X14808991Y-10594270D01*
X14808991Y-10594270D02*
X14808991Y-10641889D01*
X14808991Y-10641889D02*
X14799467Y-10660936D01*
X14799467Y-10660936D02*
X14789944Y-10670460D01*
X14789944Y-10670460D02*
X14770896Y-10679984D01*
X14770896Y-10679984D02*
X14713753Y-10679984D01*
X14713753Y-10679984D02*
X14694706Y-10670460D01*
X14694706Y-10670460D02*
X14685182Y-10660936D01*
X14875658Y-10479984D02*
X15008991Y-10479984D01*
X15008991Y-10479984D02*
X14923277Y-10679984D01*
X15170896Y-10546650D02*
X15170896Y-10679984D01*
X15123277Y-10470460D02*
X15075658Y-10613317D01*
X15075658Y-10613317D02*
X15199467Y-10613317D01*
X15266134Y-10479984D02*
X15266134Y-10518079D01*
X15342325Y-10479984D02*
X15342325Y-10518079D01*
X15637563Y-10756174D02*
X15628039Y-10746650D01*
X15628039Y-10746650D02*
X15608991Y-10718079D01*
X15608991Y-10718079D02*
X15599468Y-10699031D01*
X15599468Y-10699031D02*
X15589944Y-10670460D01*
X15589944Y-10670460D02*
X15580420Y-10622841D01*
X15580420Y-10622841D02*
X15580420Y-10584746D01*
X15580420Y-10584746D02*
X15589944Y-10537127D01*
X15589944Y-10537127D02*
X15599468Y-10508555D01*
X15599468Y-10508555D02*
X15608991Y-10489508D01*
X15608991Y-10489508D02*
X15628039Y-10460936D01*
X15628039Y-10460936D02*
X15637563Y-10451412D01*
X15799468Y-10546650D02*
X15799468Y-10679984D01*
X15751848Y-10470460D02*
X15704229Y-10613317D01*
X15704229Y-10613317D02*
X15828039Y-10613317D01*
X16056610Y-10679984D02*
X16056610Y-10479984D01*
X16142325Y-10679984D02*
X16142325Y-10575222D01*
X16142325Y-10575222D02*
X16132801Y-10556174D01*
X16132801Y-10556174D02*
X16113753Y-10546650D01*
X16113753Y-10546650D02*
X16085182Y-10546650D01*
X16085182Y-10546650D02*
X16066134Y-10556174D01*
X16066134Y-10556174D02*
X16056610Y-10565698D01*
X16266134Y-10679984D02*
X16247087Y-10670460D01*
X16247087Y-10670460D02*
X16237563Y-10660936D01*
X16237563Y-10660936D02*
X16228039Y-10641889D01*
X16228039Y-10641889D02*
X16228039Y-10584746D01*
X16228039Y-10584746D02*
X16237563Y-10565698D01*
X16237563Y-10565698D02*
X16247087Y-10556174D01*
X16247087Y-10556174D02*
X16266134Y-10546650D01*
X16266134Y-10546650D02*
X16294706Y-10546650D01*
X16294706Y-10546650D02*
X16313753Y-10556174D01*
X16313753Y-10556174D02*
X16323277Y-10565698D01*
X16323277Y-10565698D02*
X16332801Y-10584746D01*
X16332801Y-10584746D02*
X16332801Y-10641889D01*
X16332801Y-10641889D02*
X16323277Y-10660936D01*
X16323277Y-10660936D02*
X16313753Y-10670460D01*
X16313753Y-10670460D02*
X16294706Y-10679984D01*
X16294706Y-10679984D02*
X16266134Y-10679984D01*
X16447087Y-10679984D02*
X16428039Y-10670460D01*
X16428039Y-10670460D02*
X16418515Y-10651412D01*
X16418515Y-10651412D02*
X16418515Y-10479984D01*
X16599468Y-10670460D02*
X16580420Y-10679984D01*
X16580420Y-10679984D02*
X16542325Y-10679984D01*
X16542325Y-10679984D02*
X16523277Y-10670460D01*
X16523277Y-10670460D02*
X16513753Y-10651412D01*
X16513753Y-10651412D02*
X16513753Y-10575222D01*
X16513753Y-10575222D02*
X16523277Y-10556174D01*
X16523277Y-10556174D02*
X16542325Y-10546650D01*
X16542325Y-10546650D02*
X16580420Y-10546650D01*
X16580420Y-10546650D02*
X16599468Y-10556174D01*
X16599468Y-10556174D02*
X16608991Y-10575222D01*
X16608991Y-10575222D02*
X16608991Y-10594270D01*
X16608991Y-10594270D02*
X16513753Y-10613317D01*
X16685182Y-10670460D02*
X16704230Y-10679984D01*
X16704230Y-10679984D02*
X16742325Y-10679984D01*
X16742325Y-10679984D02*
X16761372Y-10670460D01*
X16761372Y-10670460D02*
X16770896Y-10651412D01*
X16770896Y-10651412D02*
X16770896Y-10641889D01*
X16770896Y-10641889D02*
X16761372Y-10622841D01*
X16761372Y-10622841D02*
X16742325Y-10613317D01*
X16742325Y-10613317D02*
X16713753Y-10613317D01*
X16713753Y-10613317D02*
X16694706Y-10603793D01*
X16694706Y-10603793D02*
X16685182Y-10584746D01*
X16685182Y-10584746D02*
X16685182Y-10575222D01*
X16685182Y-10575222D02*
X16694706Y-10556174D01*
X16694706Y-10556174D02*
X16713753Y-10546650D01*
X16713753Y-10546650D02*
X16742325Y-10546650D01*
X16742325Y-10546650D02*
X16761372Y-10556174D01*
X16837563Y-10756174D02*
X16847087Y-10746650D01*
X16847087Y-10746650D02*
X16866134Y-10718079D01*
X16866134Y-10718079D02*
X16875658Y-10699031D01*
X16875658Y-10699031D02*
X16885182Y-10670460D01*
X16885182Y-10670460D02*
X16894706Y-10622841D01*
X16894706Y-10622841D02*
X16894706Y-10584746D01*
X16894706Y-10584746D02*
X16885182Y-10537127D01*
X16885182Y-10537127D02*
X16875658Y-10508555D01*
X16875658Y-10508555D02*
X16866134Y-10489508D01*
X16866134Y-10489508D02*
X16847087Y-10460936D01*
X16847087Y-10460936D02*
X16837563Y-10451412D01*
D12*
X11962500Y-10802500D02*
X12062500Y-10902500D01*
X12062500Y-10802500D02*
X11962500Y-10902500D01*
X12062500Y-10852500D02*
G75*
G02*
X11962500Y-10852500I-50000J0D01*
G01*
X11962500Y-10852500D02*
G75*
G02*
X12062500Y-10852500I50000J0D01*
G01*
D11*
X12428039Y-10943984D02*
X12313753Y-10943984D01*
X12370896Y-10943984D02*
X12370896Y-10743984D01*
X12370896Y-10743984D02*
X12351848Y-10772555D01*
X12351848Y-10772555D02*
X12332801Y-10791603D01*
X12332801Y-10791603D02*
X12313753Y-10801127D01*
X12513753Y-10924936D02*
X12523277Y-10934460D01*
X12523277Y-10934460D02*
X12513753Y-10943984D01*
X12513753Y-10943984D02*
X12504229Y-10934460D01*
X12504229Y-10934460D02*
X12513753Y-10924936D01*
X12513753Y-10924936D02*
X12513753Y-10943984D01*
X12647086Y-10743984D02*
X12666134Y-10743984D01*
X12666134Y-10743984D02*
X12685182Y-10753508D01*
X12685182Y-10753508D02*
X12694705Y-10763031D01*
X12694705Y-10763031D02*
X12704229Y-10782079D01*
X12704229Y-10782079D02*
X12713753Y-10820174D01*
X12713753Y-10820174D02*
X12713753Y-10867793D01*
X12713753Y-10867793D02*
X12704229Y-10905889D01*
X12704229Y-10905889D02*
X12694705Y-10924936D01*
X12694705Y-10924936D02*
X12685182Y-10934460D01*
X12685182Y-10934460D02*
X12666134Y-10943984D01*
X12666134Y-10943984D02*
X12647086Y-10943984D01*
X12647086Y-10943984D02*
X12628039Y-10934460D01*
X12628039Y-10934460D02*
X12618515Y-10924936D01*
X12618515Y-10924936D02*
X12608991Y-10905889D01*
X12608991Y-10905889D02*
X12599467Y-10867793D01*
X12599467Y-10867793D02*
X12599467Y-10820174D01*
X12599467Y-10820174D02*
X12608991Y-10782079D01*
X12608991Y-10782079D02*
X12618515Y-10763031D01*
X12618515Y-10763031D02*
X12628039Y-10753508D01*
X12628039Y-10753508D02*
X12647086Y-10743984D01*
X12837562Y-10743984D02*
X12856610Y-10743984D01*
X12856610Y-10743984D02*
X12875658Y-10753508D01*
X12875658Y-10753508D02*
X12885182Y-10763031D01*
X12885182Y-10763031D02*
X12894705Y-10782079D01*
X12894705Y-10782079D02*
X12904229Y-10820174D01*
X12904229Y-10820174D02*
X12904229Y-10867793D01*
X12904229Y-10867793D02*
X12894705Y-10905889D01*
X12894705Y-10905889D02*
X12885182Y-10924936D01*
X12885182Y-10924936D02*
X12875658Y-10934460D01*
X12875658Y-10934460D02*
X12856610Y-10943984D01*
X12856610Y-10943984D02*
X12837562Y-10943984D01*
X12837562Y-10943984D02*
X12818515Y-10934460D01*
X12818515Y-10934460D02*
X12808991Y-10924936D01*
X12808991Y-10924936D02*
X12799467Y-10905889D01*
X12799467Y-10905889D02*
X12789943Y-10867793D01*
X12789943Y-10867793D02*
X12789943Y-10820174D01*
X12789943Y-10820174D02*
X12799467Y-10782079D01*
X12799467Y-10782079D02*
X12808991Y-10763031D01*
X12808991Y-10763031D02*
X12818515Y-10753508D01*
X12818515Y-10753508D02*
X12837562Y-10743984D01*
X13028039Y-10743984D02*
X13047086Y-10743984D01*
X13047086Y-10743984D02*
X13066134Y-10753508D01*
X13066134Y-10753508D02*
X13075658Y-10763031D01*
X13075658Y-10763031D02*
X13085182Y-10782079D01*
X13085182Y-10782079D02*
X13094705Y-10820174D01*
X13094705Y-10820174D02*
X13094705Y-10867793D01*
X13094705Y-10867793D02*
X13085182Y-10905889D01*
X13085182Y-10905889D02*
X13075658Y-10924936D01*
X13075658Y-10924936D02*
X13066134Y-10934460D01*
X13066134Y-10934460D02*
X13047086Y-10943984D01*
X13047086Y-10943984D02*
X13028039Y-10943984D01*
X13028039Y-10943984D02*
X13008991Y-10934460D01*
X13008991Y-10934460D02*
X12999467Y-10924936D01*
X12999467Y-10924936D02*
X12989943Y-10905889D01*
X12989943Y-10905889D02*
X12980420Y-10867793D01*
X12980420Y-10867793D02*
X12980420Y-10820174D01*
X12980420Y-10820174D02*
X12989943Y-10782079D01*
X12989943Y-10782079D02*
X12999467Y-10763031D01*
X12999467Y-10763031D02*
X13008991Y-10753508D01*
X13008991Y-10753508D02*
X13028039Y-10743984D01*
X13180420Y-10943984D02*
X13180420Y-10810650D01*
X13180420Y-10829698D02*
X13189943Y-10820174D01*
X13189943Y-10820174D02*
X13208991Y-10810650D01*
X13208991Y-10810650D02*
X13237563Y-10810650D01*
X13237563Y-10810650D02*
X13256610Y-10820174D01*
X13256610Y-10820174D02*
X13266134Y-10839222D01*
X13266134Y-10839222D02*
X13266134Y-10943984D01*
X13266134Y-10839222D02*
X13275658Y-10820174D01*
X13275658Y-10820174D02*
X13294705Y-10810650D01*
X13294705Y-10810650D02*
X13323277Y-10810650D01*
X13323277Y-10810650D02*
X13342324Y-10820174D01*
X13342324Y-10820174D02*
X13351848Y-10839222D01*
X13351848Y-10839222D02*
X13351848Y-10943984D01*
X13447086Y-10943984D02*
X13447086Y-10810650D01*
X13447086Y-10829698D02*
X13456610Y-10820174D01*
X13456610Y-10820174D02*
X13475658Y-10810650D01*
X13475658Y-10810650D02*
X13504229Y-10810650D01*
X13504229Y-10810650D02*
X13523277Y-10820174D01*
X13523277Y-10820174D02*
X13532801Y-10839222D01*
X13532801Y-10839222D02*
X13532801Y-10943984D01*
X13532801Y-10839222D02*
X13542324Y-10820174D01*
X13542324Y-10820174D02*
X13561372Y-10810650D01*
X13561372Y-10810650D02*
X13589943Y-10810650D01*
X13589943Y-10810650D02*
X13608991Y-10820174D01*
X13608991Y-10820174D02*
X13618515Y-10839222D01*
X13618515Y-10839222D02*
X13618515Y-10943984D01*
X14008991Y-10734460D02*
X13837563Y-10991603D01*
X14266134Y-10743984D02*
X14285182Y-10743984D01*
X14285182Y-10743984D02*
X14304229Y-10753508D01*
X14304229Y-10753508D02*
X14313753Y-10763031D01*
X14313753Y-10763031D02*
X14323277Y-10782079D01*
X14323277Y-10782079D02*
X14332801Y-10820174D01*
X14332801Y-10820174D02*
X14332801Y-10867793D01*
X14332801Y-10867793D02*
X14323277Y-10905889D01*
X14323277Y-10905889D02*
X14313753Y-10924936D01*
X14313753Y-10924936D02*
X14304229Y-10934460D01*
X14304229Y-10934460D02*
X14285182Y-10943984D01*
X14285182Y-10943984D02*
X14266134Y-10943984D01*
X14266134Y-10943984D02*
X14247086Y-10934460D01*
X14247086Y-10934460D02*
X14237563Y-10924936D01*
X14237563Y-10924936D02*
X14228039Y-10905889D01*
X14228039Y-10905889D02*
X14218515Y-10867793D01*
X14218515Y-10867793D02*
X14218515Y-10820174D01*
X14218515Y-10820174D02*
X14228039Y-10782079D01*
X14228039Y-10782079D02*
X14237563Y-10763031D01*
X14237563Y-10763031D02*
X14247086Y-10753508D01*
X14247086Y-10753508D02*
X14266134Y-10743984D01*
X14418515Y-10924936D02*
X14428039Y-10934460D01*
X14428039Y-10934460D02*
X14418515Y-10943984D01*
X14418515Y-10943984D02*
X14408991Y-10934460D01*
X14408991Y-10934460D02*
X14418515Y-10924936D01*
X14418515Y-10924936D02*
X14418515Y-10943984D01*
X14551848Y-10743984D02*
X14570896Y-10743984D01*
X14570896Y-10743984D02*
X14589944Y-10753508D01*
X14589944Y-10753508D02*
X14599467Y-10763031D01*
X14599467Y-10763031D02*
X14608991Y-10782079D01*
X14608991Y-10782079D02*
X14618515Y-10820174D01*
X14618515Y-10820174D02*
X14618515Y-10867793D01*
X14618515Y-10867793D02*
X14608991Y-10905889D01*
X14608991Y-10905889D02*
X14599467Y-10924936D01*
X14599467Y-10924936D02*
X14589944Y-10934460D01*
X14589944Y-10934460D02*
X14570896Y-10943984D01*
X14570896Y-10943984D02*
X14551848Y-10943984D01*
X14551848Y-10943984D02*
X14532801Y-10934460D01*
X14532801Y-10934460D02*
X14523277Y-10924936D01*
X14523277Y-10924936D02*
X14513753Y-10905889D01*
X14513753Y-10905889D02*
X14504229Y-10867793D01*
X14504229Y-10867793D02*
X14504229Y-10820174D01*
X14504229Y-10820174D02*
X14513753Y-10782079D01*
X14513753Y-10782079D02*
X14523277Y-10763031D01*
X14523277Y-10763031D02*
X14532801Y-10753508D01*
X14532801Y-10753508D02*
X14551848Y-10743984D01*
X14685182Y-10743984D02*
X14808991Y-10743984D01*
X14808991Y-10743984D02*
X14742325Y-10820174D01*
X14742325Y-10820174D02*
X14770896Y-10820174D01*
X14770896Y-10820174D02*
X14789944Y-10829698D01*
X14789944Y-10829698D02*
X14799467Y-10839222D01*
X14799467Y-10839222D02*
X14808991Y-10858270D01*
X14808991Y-10858270D02*
X14808991Y-10905889D01*
X14808991Y-10905889D02*
X14799467Y-10924936D01*
X14799467Y-10924936D02*
X14789944Y-10934460D01*
X14789944Y-10934460D02*
X14770896Y-10943984D01*
X14770896Y-10943984D02*
X14713753Y-10943984D01*
X14713753Y-10943984D02*
X14694706Y-10934460D01*
X14694706Y-10934460D02*
X14685182Y-10924936D01*
X14904229Y-10943984D02*
X14942325Y-10943984D01*
X14942325Y-10943984D02*
X14961372Y-10934460D01*
X14961372Y-10934460D02*
X14970896Y-10924936D01*
X14970896Y-10924936D02*
X14989944Y-10896365D01*
X14989944Y-10896365D02*
X14999467Y-10858270D01*
X14999467Y-10858270D02*
X14999467Y-10782079D01*
X14999467Y-10782079D02*
X14989944Y-10763031D01*
X14989944Y-10763031D02*
X14980420Y-10753508D01*
X14980420Y-10753508D02*
X14961372Y-10743984D01*
X14961372Y-10743984D02*
X14923277Y-10743984D01*
X14923277Y-10743984D02*
X14904229Y-10753508D01*
X14904229Y-10753508D02*
X14894706Y-10763031D01*
X14894706Y-10763031D02*
X14885182Y-10782079D01*
X14885182Y-10782079D02*
X14885182Y-10829698D01*
X14885182Y-10829698D02*
X14894706Y-10848746D01*
X14894706Y-10848746D02*
X14904229Y-10858270D01*
X14904229Y-10858270D02*
X14923277Y-10867793D01*
X14923277Y-10867793D02*
X14961372Y-10867793D01*
X14961372Y-10867793D02*
X14980420Y-10858270D01*
X14980420Y-10858270D02*
X14989944Y-10848746D01*
X14989944Y-10848746D02*
X14999467Y-10829698D01*
X15170896Y-10810650D02*
X15170896Y-10943984D01*
X15123277Y-10734460D02*
X15075658Y-10877317D01*
X15075658Y-10877317D02*
X15199467Y-10877317D01*
X15266134Y-10743984D02*
X15266134Y-10782079D01*
X15342325Y-10743984D02*
X15342325Y-10782079D01*
X15637563Y-11020174D02*
X15628039Y-11010650D01*
X15628039Y-11010650D02*
X15608991Y-10982079D01*
X15608991Y-10982079D02*
X15599468Y-10963031D01*
X15599468Y-10963031D02*
X15589944Y-10934460D01*
X15589944Y-10934460D02*
X15580420Y-10886841D01*
X15580420Y-10886841D02*
X15580420Y-10848746D01*
X15580420Y-10848746D02*
X15589944Y-10801127D01*
X15589944Y-10801127D02*
X15599468Y-10772555D01*
X15599468Y-10772555D02*
X15608991Y-10753508D01*
X15608991Y-10753508D02*
X15628039Y-10724936D01*
X15628039Y-10724936D02*
X15637563Y-10715412D01*
X15723277Y-10943984D02*
X15761372Y-10943984D01*
X15761372Y-10943984D02*
X15780420Y-10934460D01*
X15780420Y-10934460D02*
X15789944Y-10924936D01*
X15789944Y-10924936D02*
X15808991Y-10896365D01*
X15808991Y-10896365D02*
X15818515Y-10858270D01*
X15818515Y-10858270D02*
X15818515Y-10782079D01*
X15818515Y-10782079D02*
X15808991Y-10763031D01*
X15808991Y-10763031D02*
X15799468Y-10753508D01*
X15799468Y-10753508D02*
X15780420Y-10743984D01*
X15780420Y-10743984D02*
X15742325Y-10743984D01*
X15742325Y-10743984D02*
X15723277Y-10753508D01*
X15723277Y-10753508D02*
X15713753Y-10763031D01*
X15713753Y-10763031D02*
X15704229Y-10782079D01*
X15704229Y-10782079D02*
X15704229Y-10829698D01*
X15704229Y-10829698D02*
X15713753Y-10848746D01*
X15713753Y-10848746D02*
X15723277Y-10858270D01*
X15723277Y-10858270D02*
X15742325Y-10867793D01*
X15742325Y-10867793D02*
X15780420Y-10867793D01*
X15780420Y-10867793D02*
X15799468Y-10858270D01*
X15799468Y-10858270D02*
X15808991Y-10848746D01*
X15808991Y-10848746D02*
X15818515Y-10829698D01*
X16056610Y-10943984D02*
X16056610Y-10743984D01*
X16142325Y-10943984D02*
X16142325Y-10839222D01*
X16142325Y-10839222D02*
X16132801Y-10820174D01*
X16132801Y-10820174D02*
X16113753Y-10810650D01*
X16113753Y-10810650D02*
X16085182Y-10810650D01*
X16085182Y-10810650D02*
X16066134Y-10820174D01*
X16066134Y-10820174D02*
X16056610Y-10829698D01*
X16266134Y-10943984D02*
X16247087Y-10934460D01*
X16247087Y-10934460D02*
X16237563Y-10924936D01*
X16237563Y-10924936D02*
X16228039Y-10905889D01*
X16228039Y-10905889D02*
X16228039Y-10848746D01*
X16228039Y-10848746D02*
X16237563Y-10829698D01*
X16237563Y-10829698D02*
X16247087Y-10820174D01*
X16247087Y-10820174D02*
X16266134Y-10810650D01*
X16266134Y-10810650D02*
X16294706Y-10810650D01*
X16294706Y-10810650D02*
X16313753Y-10820174D01*
X16313753Y-10820174D02*
X16323277Y-10829698D01*
X16323277Y-10829698D02*
X16332801Y-10848746D01*
X16332801Y-10848746D02*
X16332801Y-10905889D01*
X16332801Y-10905889D02*
X16323277Y-10924936D01*
X16323277Y-10924936D02*
X16313753Y-10934460D01*
X16313753Y-10934460D02*
X16294706Y-10943984D01*
X16294706Y-10943984D02*
X16266134Y-10943984D01*
X16447087Y-10943984D02*
X16428039Y-10934460D01*
X16428039Y-10934460D02*
X16418515Y-10915412D01*
X16418515Y-10915412D02*
X16418515Y-10743984D01*
X16599468Y-10934460D02*
X16580420Y-10943984D01*
X16580420Y-10943984D02*
X16542325Y-10943984D01*
X16542325Y-10943984D02*
X16523277Y-10934460D01*
X16523277Y-10934460D02*
X16513753Y-10915412D01*
X16513753Y-10915412D02*
X16513753Y-10839222D01*
X16513753Y-10839222D02*
X16523277Y-10820174D01*
X16523277Y-10820174D02*
X16542325Y-10810650D01*
X16542325Y-10810650D02*
X16580420Y-10810650D01*
X16580420Y-10810650D02*
X16599468Y-10820174D01*
X16599468Y-10820174D02*
X16608991Y-10839222D01*
X16608991Y-10839222D02*
X16608991Y-10858270D01*
X16608991Y-10858270D02*
X16513753Y-10877317D01*
X16685182Y-10934460D02*
X16704230Y-10943984D01*
X16704230Y-10943984D02*
X16742325Y-10943984D01*
X16742325Y-10943984D02*
X16761372Y-10934460D01*
X16761372Y-10934460D02*
X16770896Y-10915412D01*
X16770896Y-10915412D02*
X16770896Y-10905889D01*
X16770896Y-10905889D02*
X16761372Y-10886841D01*
X16761372Y-10886841D02*
X16742325Y-10877317D01*
X16742325Y-10877317D02*
X16713753Y-10877317D01*
X16713753Y-10877317D02*
X16694706Y-10867793D01*
X16694706Y-10867793D02*
X16685182Y-10848746D01*
X16685182Y-10848746D02*
X16685182Y-10839222D01*
X16685182Y-10839222D02*
X16694706Y-10820174D01*
X16694706Y-10820174D02*
X16713753Y-10810650D01*
X16713753Y-10810650D02*
X16742325Y-10810650D01*
X16742325Y-10810650D02*
X16761372Y-10820174D01*
X17008992Y-10867793D02*
X17161373Y-10867793D01*
X17085182Y-10943984D02*
X17085182Y-10791603D01*
X17389944Y-10743984D02*
X17513754Y-10743984D01*
X17513754Y-10743984D02*
X17447087Y-10820174D01*
X17447087Y-10820174D02*
X17475658Y-10820174D01*
X17475658Y-10820174D02*
X17494706Y-10829698D01*
X17494706Y-10829698D02*
X17504230Y-10839222D01*
X17504230Y-10839222D02*
X17513754Y-10858270D01*
X17513754Y-10858270D02*
X17513754Y-10905889D01*
X17513754Y-10905889D02*
X17504230Y-10924936D01*
X17504230Y-10924936D02*
X17494706Y-10934460D01*
X17494706Y-10934460D02*
X17475658Y-10943984D01*
X17475658Y-10943984D02*
X17418515Y-10943984D01*
X17418515Y-10943984D02*
X17399468Y-10934460D01*
X17399468Y-10934460D02*
X17389944Y-10924936D01*
X17742325Y-10934460D02*
X17761373Y-10943984D01*
X17761373Y-10943984D02*
X17799468Y-10943984D01*
X17799468Y-10943984D02*
X17818516Y-10934460D01*
X17818516Y-10934460D02*
X17828039Y-10915412D01*
X17828039Y-10915412D02*
X17828039Y-10905889D01*
X17828039Y-10905889D02*
X17818516Y-10886841D01*
X17818516Y-10886841D02*
X17799468Y-10877317D01*
X17799468Y-10877317D02*
X17770896Y-10877317D01*
X17770896Y-10877317D02*
X17751849Y-10867793D01*
X17751849Y-10867793D02*
X17742325Y-10848746D01*
X17742325Y-10848746D02*
X17742325Y-10839222D01*
X17742325Y-10839222D02*
X17751849Y-10820174D01*
X17751849Y-10820174D02*
X17770896Y-10810650D01*
X17770896Y-10810650D02*
X17799468Y-10810650D01*
X17799468Y-10810650D02*
X17818516Y-10820174D01*
X17942325Y-10943984D02*
X17923277Y-10934460D01*
X17923277Y-10934460D02*
X17913754Y-10915412D01*
X17913754Y-10915412D02*
X17913754Y-10743984D01*
X18047087Y-10943984D02*
X18028039Y-10934460D01*
X18028039Y-10934460D02*
X18018516Y-10924936D01*
X18018516Y-10924936D02*
X18008992Y-10905889D01*
X18008992Y-10905889D02*
X18008992Y-10848746D01*
X18008992Y-10848746D02*
X18018516Y-10829698D01*
X18018516Y-10829698D02*
X18028039Y-10820174D01*
X18028039Y-10820174D02*
X18047087Y-10810650D01*
X18047087Y-10810650D02*
X18075658Y-10810650D01*
X18075658Y-10810650D02*
X18094706Y-10820174D01*
X18094706Y-10820174D02*
X18104230Y-10829698D01*
X18104230Y-10829698D02*
X18113754Y-10848746D01*
X18113754Y-10848746D02*
X18113754Y-10905889D01*
X18113754Y-10905889D02*
X18104230Y-10924936D01*
X18104230Y-10924936D02*
X18094706Y-10934460D01*
X18094706Y-10934460D02*
X18075658Y-10943984D01*
X18075658Y-10943984D02*
X18047087Y-10943984D01*
X18170897Y-10810650D02*
X18247087Y-10810650D01*
X18199468Y-10743984D02*
X18199468Y-10915412D01*
X18199468Y-10915412D02*
X18208992Y-10934460D01*
X18208992Y-10934460D02*
X18228039Y-10943984D01*
X18228039Y-10943984D02*
X18247087Y-10943984D01*
X18304230Y-10934460D02*
X18323277Y-10943984D01*
X18323277Y-10943984D02*
X18361373Y-10943984D01*
X18361373Y-10943984D02*
X18380420Y-10934460D01*
X18380420Y-10934460D02*
X18389944Y-10915412D01*
X18389944Y-10915412D02*
X18389944Y-10905889D01*
X18389944Y-10905889D02*
X18380420Y-10886841D01*
X18380420Y-10886841D02*
X18361373Y-10877317D01*
X18361373Y-10877317D02*
X18332801Y-10877317D01*
X18332801Y-10877317D02*
X18313754Y-10867793D01*
X18313754Y-10867793D02*
X18304230Y-10848746D01*
X18304230Y-10848746D02*
X18304230Y-10839222D01*
X18304230Y-10839222D02*
X18313754Y-10820174D01*
X18313754Y-10820174D02*
X18332801Y-10810650D01*
X18332801Y-10810650D02*
X18361373Y-10810650D01*
X18361373Y-10810650D02*
X18380420Y-10820174D01*
X18456611Y-11020174D02*
X18466135Y-11010650D01*
X18466135Y-11010650D02*
X18485182Y-10982079D01*
X18485182Y-10982079D02*
X18494706Y-10963031D01*
X18494706Y-10963031D02*
X18504230Y-10934460D01*
X18504230Y-10934460D02*
X18513754Y-10886841D01*
X18513754Y-10886841D02*
X18513754Y-10848746D01*
X18513754Y-10848746D02*
X18504230Y-10801127D01*
X18504230Y-10801127D02*
X18494706Y-10772555D01*
X18494706Y-10772555D02*
X18485182Y-10753508D01*
X18485182Y-10753508D02*
X18466135Y-10724936D01*
X18466135Y-10724936D02*
X18456611Y-10715412D01*
X11862500Y-11016500D02*
X12062500Y-11216500D01*
X12062500Y-11016500D02*
X11862500Y-11216500D01*
X11962500Y-11016500D02*
X11962500Y-11216500D01*
X11862500Y-11116500D02*
X12062500Y-11116500D01*
X12313753Y-11027031D02*
X12323277Y-11017508D01*
X12323277Y-11017508D02*
X12342324Y-11007984D01*
X12342324Y-11007984D02*
X12389943Y-11007984D01*
X12389943Y-11007984D02*
X12408991Y-11017508D01*
X12408991Y-11017508D02*
X12418515Y-11027031D01*
X12418515Y-11027031D02*
X12428039Y-11046079D01*
X12428039Y-11046079D02*
X12428039Y-11065127D01*
X12428039Y-11065127D02*
X12418515Y-11093698D01*
X12418515Y-11093698D02*
X12304229Y-11207984D01*
X12304229Y-11207984D02*
X12428039Y-11207984D01*
X12513753Y-11188936D02*
X12523277Y-11198460D01*
X12523277Y-11198460D02*
X12513753Y-11207984D01*
X12513753Y-11207984D02*
X12504229Y-11198460D01*
X12504229Y-11198460D02*
X12513753Y-11188936D01*
X12513753Y-11188936D02*
X12513753Y-11207984D01*
X12589943Y-11007984D02*
X12713753Y-11007984D01*
X12713753Y-11007984D02*
X12647086Y-11084174D01*
X12647086Y-11084174D02*
X12675658Y-11084174D01*
X12675658Y-11084174D02*
X12694705Y-11093698D01*
X12694705Y-11093698D02*
X12704229Y-11103222D01*
X12704229Y-11103222D02*
X12713753Y-11122270D01*
X12713753Y-11122270D02*
X12713753Y-11169889D01*
X12713753Y-11169889D02*
X12704229Y-11188936D01*
X12704229Y-11188936D02*
X12694705Y-11198460D01*
X12694705Y-11198460D02*
X12675658Y-11207984D01*
X12675658Y-11207984D02*
X12618515Y-11207984D01*
X12618515Y-11207984D02*
X12599467Y-11198460D01*
X12599467Y-11198460D02*
X12589943Y-11188936D01*
X12837562Y-11007984D02*
X12856610Y-11007984D01*
X12856610Y-11007984D02*
X12875658Y-11017508D01*
X12875658Y-11017508D02*
X12885182Y-11027031D01*
X12885182Y-11027031D02*
X12894705Y-11046079D01*
X12894705Y-11046079D02*
X12904229Y-11084174D01*
X12904229Y-11084174D02*
X12904229Y-11131793D01*
X12904229Y-11131793D02*
X12894705Y-11169889D01*
X12894705Y-11169889D02*
X12885182Y-11188936D01*
X12885182Y-11188936D02*
X12875658Y-11198460D01*
X12875658Y-11198460D02*
X12856610Y-11207984D01*
X12856610Y-11207984D02*
X12837562Y-11207984D01*
X12837562Y-11207984D02*
X12818515Y-11198460D01*
X12818515Y-11198460D02*
X12808991Y-11188936D01*
X12808991Y-11188936D02*
X12799467Y-11169889D01*
X12799467Y-11169889D02*
X12789943Y-11131793D01*
X12789943Y-11131793D02*
X12789943Y-11084174D01*
X12789943Y-11084174D02*
X12799467Y-11046079D01*
X12799467Y-11046079D02*
X12808991Y-11027031D01*
X12808991Y-11027031D02*
X12818515Y-11017508D01*
X12818515Y-11017508D02*
X12837562Y-11007984D01*
X13028039Y-11007984D02*
X13047086Y-11007984D01*
X13047086Y-11007984D02*
X13066134Y-11017508D01*
X13066134Y-11017508D02*
X13075658Y-11027031D01*
X13075658Y-11027031D02*
X13085182Y-11046079D01*
X13085182Y-11046079D02*
X13094705Y-11084174D01*
X13094705Y-11084174D02*
X13094705Y-11131793D01*
X13094705Y-11131793D02*
X13085182Y-11169889D01*
X13085182Y-11169889D02*
X13075658Y-11188936D01*
X13075658Y-11188936D02*
X13066134Y-11198460D01*
X13066134Y-11198460D02*
X13047086Y-11207984D01*
X13047086Y-11207984D02*
X13028039Y-11207984D01*
X13028039Y-11207984D02*
X13008991Y-11198460D01*
X13008991Y-11198460D02*
X12999467Y-11188936D01*
X12999467Y-11188936D02*
X12989943Y-11169889D01*
X12989943Y-11169889D02*
X12980420Y-11131793D01*
X12980420Y-11131793D02*
X12980420Y-11084174D01*
X12980420Y-11084174D02*
X12989943Y-11046079D01*
X12989943Y-11046079D02*
X12999467Y-11027031D01*
X12999467Y-11027031D02*
X13008991Y-11017508D01*
X13008991Y-11017508D02*
X13028039Y-11007984D01*
X13180420Y-11207984D02*
X13180420Y-11074650D01*
X13180420Y-11093698D02*
X13189943Y-11084174D01*
X13189943Y-11084174D02*
X13208991Y-11074650D01*
X13208991Y-11074650D02*
X13237563Y-11074650D01*
X13237563Y-11074650D02*
X13256610Y-11084174D01*
X13256610Y-11084174D02*
X13266134Y-11103222D01*
X13266134Y-11103222D02*
X13266134Y-11207984D01*
X13266134Y-11103222D02*
X13275658Y-11084174D01*
X13275658Y-11084174D02*
X13294705Y-11074650D01*
X13294705Y-11074650D02*
X13323277Y-11074650D01*
X13323277Y-11074650D02*
X13342324Y-11084174D01*
X13342324Y-11084174D02*
X13351848Y-11103222D01*
X13351848Y-11103222D02*
X13351848Y-11207984D01*
X13447086Y-11207984D02*
X13447086Y-11074650D01*
X13447086Y-11093698D02*
X13456610Y-11084174D01*
X13456610Y-11084174D02*
X13475658Y-11074650D01*
X13475658Y-11074650D02*
X13504229Y-11074650D01*
X13504229Y-11074650D02*
X13523277Y-11084174D01*
X13523277Y-11084174D02*
X13532801Y-11103222D01*
X13532801Y-11103222D02*
X13532801Y-11207984D01*
X13532801Y-11103222D02*
X13542324Y-11084174D01*
X13542324Y-11084174D02*
X13561372Y-11074650D01*
X13561372Y-11074650D02*
X13589943Y-11074650D01*
X13589943Y-11074650D02*
X13608991Y-11084174D01*
X13608991Y-11084174D02*
X13618515Y-11103222D01*
X13618515Y-11103222D02*
X13618515Y-11207984D01*
X14008991Y-10998460D02*
X13837563Y-11255603D01*
X14266134Y-11007984D02*
X14285182Y-11007984D01*
X14285182Y-11007984D02*
X14304229Y-11017508D01*
X14304229Y-11017508D02*
X14313753Y-11027031D01*
X14313753Y-11027031D02*
X14323277Y-11046079D01*
X14323277Y-11046079D02*
X14332801Y-11084174D01*
X14332801Y-11084174D02*
X14332801Y-11131793D01*
X14332801Y-11131793D02*
X14323277Y-11169889D01*
X14323277Y-11169889D02*
X14313753Y-11188936D01*
X14313753Y-11188936D02*
X14304229Y-11198460D01*
X14304229Y-11198460D02*
X14285182Y-11207984D01*
X14285182Y-11207984D02*
X14266134Y-11207984D01*
X14266134Y-11207984D02*
X14247086Y-11198460D01*
X14247086Y-11198460D02*
X14237563Y-11188936D01*
X14237563Y-11188936D02*
X14228039Y-11169889D01*
X14228039Y-11169889D02*
X14218515Y-11131793D01*
X14218515Y-11131793D02*
X14218515Y-11084174D01*
X14218515Y-11084174D02*
X14228039Y-11046079D01*
X14228039Y-11046079D02*
X14237563Y-11027031D01*
X14237563Y-11027031D02*
X14247086Y-11017508D01*
X14247086Y-11017508D02*
X14266134Y-11007984D01*
X14418515Y-11188936D02*
X14428039Y-11198460D01*
X14428039Y-11198460D02*
X14418515Y-11207984D01*
X14418515Y-11207984D02*
X14408991Y-11198460D01*
X14408991Y-11198460D02*
X14418515Y-11188936D01*
X14418515Y-11188936D02*
X14418515Y-11207984D01*
X14551848Y-11007984D02*
X14570896Y-11007984D01*
X14570896Y-11007984D02*
X14589944Y-11017508D01*
X14589944Y-11017508D02*
X14599467Y-11027031D01*
X14599467Y-11027031D02*
X14608991Y-11046079D01*
X14608991Y-11046079D02*
X14618515Y-11084174D01*
X14618515Y-11084174D02*
X14618515Y-11131793D01*
X14618515Y-11131793D02*
X14608991Y-11169889D01*
X14608991Y-11169889D02*
X14599467Y-11188936D01*
X14599467Y-11188936D02*
X14589944Y-11198460D01*
X14589944Y-11198460D02*
X14570896Y-11207984D01*
X14570896Y-11207984D02*
X14551848Y-11207984D01*
X14551848Y-11207984D02*
X14532801Y-11198460D01*
X14532801Y-11198460D02*
X14523277Y-11188936D01*
X14523277Y-11188936D02*
X14513753Y-11169889D01*
X14513753Y-11169889D02*
X14504229Y-11131793D01*
X14504229Y-11131793D02*
X14504229Y-11084174D01*
X14504229Y-11084174D02*
X14513753Y-11046079D01*
X14513753Y-11046079D02*
X14523277Y-11027031D01*
X14523277Y-11027031D02*
X14532801Y-11017508D01*
X14532801Y-11017508D02*
X14551848Y-11007984D01*
X14713753Y-11207984D02*
X14751848Y-11207984D01*
X14751848Y-11207984D02*
X14770896Y-11198460D01*
X14770896Y-11198460D02*
X14780420Y-11188936D01*
X14780420Y-11188936D02*
X14799467Y-11160365D01*
X14799467Y-11160365D02*
X14808991Y-11122270D01*
X14808991Y-11122270D02*
X14808991Y-11046079D01*
X14808991Y-11046079D02*
X14799467Y-11027031D01*
X14799467Y-11027031D02*
X14789944Y-11017508D01*
X14789944Y-11017508D02*
X14770896Y-11007984D01*
X14770896Y-11007984D02*
X14732801Y-11007984D01*
X14732801Y-11007984D02*
X14713753Y-11017508D01*
X14713753Y-11017508D02*
X14704229Y-11027031D01*
X14704229Y-11027031D02*
X14694706Y-11046079D01*
X14694706Y-11046079D02*
X14694706Y-11093698D01*
X14694706Y-11093698D02*
X14704229Y-11112746D01*
X14704229Y-11112746D02*
X14713753Y-11122270D01*
X14713753Y-11122270D02*
X14732801Y-11131793D01*
X14732801Y-11131793D02*
X14770896Y-11131793D01*
X14770896Y-11131793D02*
X14789944Y-11122270D01*
X14789944Y-11122270D02*
X14799467Y-11112746D01*
X14799467Y-11112746D02*
X14808991Y-11093698D01*
X14932801Y-11007984D02*
X14951848Y-11007984D01*
X14951848Y-11007984D02*
X14970896Y-11017508D01*
X14970896Y-11017508D02*
X14980420Y-11027031D01*
X14980420Y-11027031D02*
X14989944Y-11046079D01*
X14989944Y-11046079D02*
X14999467Y-11084174D01*
X14999467Y-11084174D02*
X14999467Y-11131793D01*
X14999467Y-11131793D02*
X14989944Y-11169889D01*
X14989944Y-11169889D02*
X14980420Y-11188936D01*
X14980420Y-11188936D02*
X14970896Y-11198460D01*
X14970896Y-11198460D02*
X14951848Y-11207984D01*
X14951848Y-11207984D02*
X14932801Y-11207984D01*
X14932801Y-11207984D02*
X14913753Y-11198460D01*
X14913753Y-11198460D02*
X14904229Y-11188936D01*
X14904229Y-11188936D02*
X14894706Y-11169889D01*
X14894706Y-11169889D02*
X14885182Y-11131793D01*
X14885182Y-11131793D02*
X14885182Y-11084174D01*
X14885182Y-11084174D02*
X14894706Y-11046079D01*
X14894706Y-11046079D02*
X14904229Y-11027031D01*
X14904229Y-11027031D02*
X14913753Y-11017508D01*
X14913753Y-11017508D02*
X14932801Y-11007984D01*
X15170896Y-11007984D02*
X15132801Y-11007984D01*
X15132801Y-11007984D02*
X15113753Y-11017508D01*
X15113753Y-11017508D02*
X15104229Y-11027031D01*
X15104229Y-11027031D02*
X15085182Y-11055603D01*
X15085182Y-11055603D02*
X15075658Y-11093698D01*
X15075658Y-11093698D02*
X15075658Y-11169889D01*
X15075658Y-11169889D02*
X15085182Y-11188936D01*
X15085182Y-11188936D02*
X15094706Y-11198460D01*
X15094706Y-11198460D02*
X15113753Y-11207984D01*
X15113753Y-11207984D02*
X15151848Y-11207984D01*
X15151848Y-11207984D02*
X15170896Y-11198460D01*
X15170896Y-11198460D02*
X15180420Y-11188936D01*
X15180420Y-11188936D02*
X15189944Y-11169889D01*
X15189944Y-11169889D02*
X15189944Y-11122270D01*
X15189944Y-11122270D02*
X15180420Y-11103222D01*
X15180420Y-11103222D02*
X15170896Y-11093698D01*
X15170896Y-11093698D02*
X15151848Y-11084174D01*
X15151848Y-11084174D02*
X15113753Y-11084174D01*
X15113753Y-11084174D02*
X15094706Y-11093698D01*
X15094706Y-11093698D02*
X15085182Y-11103222D01*
X15085182Y-11103222D02*
X15075658Y-11122270D01*
X15266134Y-11007984D02*
X15266134Y-11046079D01*
X15342325Y-11007984D02*
X15342325Y-11046079D01*
X15637563Y-11284174D02*
X15628039Y-11274650D01*
X15628039Y-11274650D02*
X15608991Y-11246079D01*
X15608991Y-11246079D02*
X15599468Y-11227031D01*
X15599468Y-11227031D02*
X15589944Y-11198460D01*
X15589944Y-11198460D02*
X15580420Y-11150841D01*
X15580420Y-11150841D02*
X15580420Y-11112746D01*
X15580420Y-11112746D02*
X15589944Y-11065127D01*
X15589944Y-11065127D02*
X15599468Y-11036555D01*
X15599468Y-11036555D02*
X15608991Y-11017508D01*
X15608991Y-11017508D02*
X15628039Y-10988936D01*
X15628039Y-10988936D02*
X15637563Y-10979412D01*
X15704229Y-11027031D02*
X15713753Y-11017508D01*
X15713753Y-11017508D02*
X15732801Y-11007984D01*
X15732801Y-11007984D02*
X15780420Y-11007984D01*
X15780420Y-11007984D02*
X15799468Y-11017508D01*
X15799468Y-11017508D02*
X15808991Y-11027031D01*
X15808991Y-11027031D02*
X15818515Y-11046079D01*
X15818515Y-11046079D02*
X15818515Y-11065127D01*
X15818515Y-11065127D02*
X15808991Y-11093698D01*
X15808991Y-11093698D02*
X15694706Y-11207984D01*
X15694706Y-11207984D02*
X15818515Y-11207984D01*
X16056610Y-11207984D02*
X16056610Y-11007984D01*
X16142325Y-11207984D02*
X16142325Y-11103222D01*
X16142325Y-11103222D02*
X16132801Y-11084174D01*
X16132801Y-11084174D02*
X16113753Y-11074650D01*
X16113753Y-11074650D02*
X16085182Y-11074650D01*
X16085182Y-11074650D02*
X16066134Y-11084174D01*
X16066134Y-11084174D02*
X16056610Y-11093698D01*
X16266134Y-11207984D02*
X16247087Y-11198460D01*
X16247087Y-11198460D02*
X16237563Y-11188936D01*
X16237563Y-11188936D02*
X16228039Y-11169889D01*
X16228039Y-11169889D02*
X16228039Y-11112746D01*
X16228039Y-11112746D02*
X16237563Y-11093698D01*
X16237563Y-11093698D02*
X16247087Y-11084174D01*
X16247087Y-11084174D02*
X16266134Y-11074650D01*
X16266134Y-11074650D02*
X16294706Y-11074650D01*
X16294706Y-11074650D02*
X16313753Y-11084174D01*
X16313753Y-11084174D02*
X16323277Y-11093698D01*
X16323277Y-11093698D02*
X16332801Y-11112746D01*
X16332801Y-11112746D02*
X16332801Y-11169889D01*
X16332801Y-11169889D02*
X16323277Y-11188936D01*
X16323277Y-11188936D02*
X16313753Y-11198460D01*
X16313753Y-11198460D02*
X16294706Y-11207984D01*
X16294706Y-11207984D02*
X16266134Y-11207984D01*
X16447087Y-11207984D02*
X16428039Y-11198460D01*
X16428039Y-11198460D02*
X16418515Y-11179412D01*
X16418515Y-11179412D02*
X16418515Y-11007984D01*
X16599468Y-11198460D02*
X16580420Y-11207984D01*
X16580420Y-11207984D02*
X16542325Y-11207984D01*
X16542325Y-11207984D02*
X16523277Y-11198460D01*
X16523277Y-11198460D02*
X16513753Y-11179412D01*
X16513753Y-11179412D02*
X16513753Y-11103222D01*
X16513753Y-11103222D02*
X16523277Y-11084174D01*
X16523277Y-11084174D02*
X16542325Y-11074650D01*
X16542325Y-11074650D02*
X16580420Y-11074650D01*
X16580420Y-11074650D02*
X16599468Y-11084174D01*
X16599468Y-11084174D02*
X16608991Y-11103222D01*
X16608991Y-11103222D02*
X16608991Y-11122270D01*
X16608991Y-11122270D02*
X16513753Y-11141317D01*
X16685182Y-11198460D02*
X16704230Y-11207984D01*
X16704230Y-11207984D02*
X16742325Y-11207984D01*
X16742325Y-11207984D02*
X16761372Y-11198460D01*
X16761372Y-11198460D02*
X16770896Y-11179412D01*
X16770896Y-11179412D02*
X16770896Y-11169889D01*
X16770896Y-11169889D02*
X16761372Y-11150841D01*
X16761372Y-11150841D02*
X16742325Y-11141317D01*
X16742325Y-11141317D02*
X16713753Y-11141317D01*
X16713753Y-11141317D02*
X16694706Y-11131793D01*
X16694706Y-11131793D02*
X16685182Y-11112746D01*
X16685182Y-11112746D02*
X16685182Y-11103222D01*
X16685182Y-11103222D02*
X16694706Y-11084174D01*
X16694706Y-11084174D02*
X16713753Y-11074650D01*
X16713753Y-11074650D02*
X16742325Y-11074650D01*
X16742325Y-11074650D02*
X16761372Y-11084174D01*
X16837563Y-11284174D02*
X16847087Y-11274650D01*
X16847087Y-11274650D02*
X16866134Y-11246079D01*
X16866134Y-11246079D02*
X16875658Y-11227031D01*
X16875658Y-11227031D02*
X16885182Y-11198460D01*
X16885182Y-11198460D02*
X16894706Y-11150841D01*
X16894706Y-11150841D02*
X16894706Y-11112746D01*
X16894706Y-11112746D02*
X16885182Y-11065127D01*
X16885182Y-11065127D02*
X16875658Y-11036555D01*
X16875658Y-11036555D02*
X16866134Y-11017508D01*
X16866134Y-11017508D02*
X16847087Y-10988936D01*
X16847087Y-10988936D02*
X16837563Y-10979412D01*
X11862500Y-11336500D02*
X12062500Y-11536500D01*
X12062500Y-11336500D02*
X11862500Y-11536500D01*
X12033211Y-11507211D02*
X12033211Y-11365789D01*
X11891789Y-11365789D01*
X11891789Y-11507211D01*
X12033211Y-11507211D01*
X12304229Y-11327984D02*
X12428039Y-11327984D01*
X12428039Y-11327984D02*
X12361372Y-11404174D01*
X12361372Y-11404174D02*
X12389943Y-11404174D01*
X12389943Y-11404174D02*
X12408991Y-11413698D01*
X12408991Y-11413698D02*
X12418515Y-11423222D01*
X12418515Y-11423222D02*
X12428039Y-11442269D01*
X12428039Y-11442269D02*
X12428039Y-11489888D01*
X12428039Y-11489888D02*
X12418515Y-11508936D01*
X12418515Y-11508936D02*
X12408991Y-11518460D01*
X12408991Y-11518460D02*
X12389943Y-11527984D01*
X12389943Y-11527984D02*
X12332801Y-11527984D01*
X12332801Y-11527984D02*
X12313753Y-11518460D01*
X12313753Y-11518460D02*
X12304229Y-11508936D01*
X12513753Y-11508936D02*
X12523277Y-11518460D01*
X12523277Y-11518460D02*
X12513753Y-11527984D01*
X12513753Y-11527984D02*
X12504229Y-11518460D01*
X12504229Y-11518460D02*
X12513753Y-11508936D01*
X12513753Y-11508936D02*
X12513753Y-11527984D01*
X12599467Y-11347031D02*
X12608991Y-11337508D01*
X12608991Y-11337508D02*
X12628039Y-11327984D01*
X12628039Y-11327984D02*
X12675658Y-11327984D01*
X12675658Y-11327984D02*
X12694705Y-11337508D01*
X12694705Y-11337508D02*
X12704229Y-11347031D01*
X12704229Y-11347031D02*
X12713753Y-11366079D01*
X12713753Y-11366079D02*
X12713753Y-11385127D01*
X12713753Y-11385127D02*
X12704229Y-11413698D01*
X12704229Y-11413698D02*
X12589943Y-11527984D01*
X12589943Y-11527984D02*
X12713753Y-11527984D01*
X12837562Y-11327984D02*
X12856610Y-11327984D01*
X12856610Y-11327984D02*
X12875658Y-11337508D01*
X12875658Y-11337508D02*
X12885182Y-11347031D01*
X12885182Y-11347031D02*
X12894705Y-11366079D01*
X12894705Y-11366079D02*
X12904229Y-11404174D01*
X12904229Y-11404174D02*
X12904229Y-11451793D01*
X12904229Y-11451793D02*
X12894705Y-11489888D01*
X12894705Y-11489888D02*
X12885182Y-11508936D01*
X12885182Y-11508936D02*
X12875658Y-11518460D01*
X12875658Y-11518460D02*
X12856610Y-11527984D01*
X12856610Y-11527984D02*
X12837562Y-11527984D01*
X12837562Y-11527984D02*
X12818515Y-11518460D01*
X12818515Y-11518460D02*
X12808991Y-11508936D01*
X12808991Y-11508936D02*
X12799467Y-11489888D01*
X12799467Y-11489888D02*
X12789943Y-11451793D01*
X12789943Y-11451793D02*
X12789943Y-11404174D01*
X12789943Y-11404174D02*
X12799467Y-11366079D01*
X12799467Y-11366079D02*
X12808991Y-11347031D01*
X12808991Y-11347031D02*
X12818515Y-11337508D01*
X12818515Y-11337508D02*
X12837562Y-11327984D01*
X13028039Y-11327984D02*
X13047086Y-11327984D01*
X13047086Y-11327984D02*
X13066134Y-11337508D01*
X13066134Y-11337508D02*
X13075658Y-11347031D01*
X13075658Y-11347031D02*
X13085182Y-11366079D01*
X13085182Y-11366079D02*
X13094705Y-11404174D01*
X13094705Y-11404174D02*
X13094705Y-11451793D01*
X13094705Y-11451793D02*
X13085182Y-11489888D01*
X13085182Y-11489888D02*
X13075658Y-11508936D01*
X13075658Y-11508936D02*
X13066134Y-11518460D01*
X13066134Y-11518460D02*
X13047086Y-11527984D01*
X13047086Y-11527984D02*
X13028039Y-11527984D01*
X13028039Y-11527984D02*
X13008991Y-11518460D01*
X13008991Y-11518460D02*
X12999467Y-11508936D01*
X12999467Y-11508936D02*
X12989943Y-11489888D01*
X12989943Y-11489888D02*
X12980420Y-11451793D01*
X12980420Y-11451793D02*
X12980420Y-11404174D01*
X12980420Y-11404174D02*
X12989943Y-11366079D01*
X12989943Y-11366079D02*
X12999467Y-11347031D01*
X12999467Y-11347031D02*
X13008991Y-11337508D01*
X13008991Y-11337508D02*
X13028039Y-11327984D01*
X13180420Y-11527984D02*
X13180420Y-11394650D01*
X13180420Y-11413698D02*
X13189943Y-11404174D01*
X13189943Y-11404174D02*
X13208991Y-11394650D01*
X13208991Y-11394650D02*
X13237563Y-11394650D01*
X13237563Y-11394650D02*
X13256610Y-11404174D01*
X13256610Y-11404174D02*
X13266134Y-11423222D01*
X13266134Y-11423222D02*
X13266134Y-11527984D01*
X13266134Y-11423222D02*
X13275658Y-11404174D01*
X13275658Y-11404174D02*
X13294705Y-11394650D01*
X13294705Y-11394650D02*
X13323277Y-11394650D01*
X13323277Y-11394650D02*
X13342324Y-11404174D01*
X13342324Y-11404174D02*
X13351848Y-11423222D01*
X13351848Y-11423222D02*
X13351848Y-11527984D01*
X13447086Y-11527984D02*
X13447086Y-11394650D01*
X13447086Y-11413698D02*
X13456610Y-11404174D01*
X13456610Y-11404174D02*
X13475658Y-11394650D01*
X13475658Y-11394650D02*
X13504229Y-11394650D01*
X13504229Y-11394650D02*
X13523277Y-11404174D01*
X13523277Y-11404174D02*
X13532801Y-11423222D01*
X13532801Y-11423222D02*
X13532801Y-11527984D01*
X13532801Y-11423222D02*
X13542324Y-11404174D01*
X13542324Y-11404174D02*
X13561372Y-11394650D01*
X13561372Y-11394650D02*
X13589943Y-11394650D01*
X13589943Y-11394650D02*
X13608991Y-11404174D01*
X13608991Y-11404174D02*
X13618515Y-11423222D01*
X13618515Y-11423222D02*
X13618515Y-11527984D01*
X14008991Y-11318460D02*
X13837563Y-11575603D01*
X14266134Y-11327984D02*
X14285182Y-11327984D01*
X14285182Y-11327984D02*
X14304229Y-11337508D01*
X14304229Y-11337508D02*
X14313753Y-11347031D01*
X14313753Y-11347031D02*
X14323277Y-11366079D01*
X14323277Y-11366079D02*
X14332801Y-11404174D01*
X14332801Y-11404174D02*
X14332801Y-11451793D01*
X14332801Y-11451793D02*
X14323277Y-11489888D01*
X14323277Y-11489888D02*
X14313753Y-11508936D01*
X14313753Y-11508936D02*
X14304229Y-11518460D01*
X14304229Y-11518460D02*
X14285182Y-11527984D01*
X14285182Y-11527984D02*
X14266134Y-11527984D01*
X14266134Y-11527984D02*
X14247086Y-11518460D01*
X14247086Y-11518460D02*
X14237563Y-11508936D01*
X14237563Y-11508936D02*
X14228039Y-11489888D01*
X14228039Y-11489888D02*
X14218515Y-11451793D01*
X14218515Y-11451793D02*
X14218515Y-11404174D01*
X14218515Y-11404174D02*
X14228039Y-11366079D01*
X14228039Y-11366079D02*
X14237563Y-11347031D01*
X14237563Y-11347031D02*
X14247086Y-11337508D01*
X14247086Y-11337508D02*
X14266134Y-11327984D01*
X14418515Y-11508936D02*
X14428039Y-11518460D01*
X14428039Y-11518460D02*
X14418515Y-11527984D01*
X14418515Y-11527984D02*
X14408991Y-11518460D01*
X14408991Y-11518460D02*
X14418515Y-11508936D01*
X14418515Y-11508936D02*
X14418515Y-11527984D01*
X14618515Y-11527984D02*
X14504229Y-11527984D01*
X14561372Y-11527984D02*
X14561372Y-11327984D01*
X14561372Y-11327984D02*
X14542325Y-11356555D01*
X14542325Y-11356555D02*
X14523277Y-11375603D01*
X14523277Y-11375603D02*
X14504229Y-11385127D01*
X14694706Y-11347031D02*
X14704229Y-11337508D01*
X14704229Y-11337508D02*
X14723277Y-11327984D01*
X14723277Y-11327984D02*
X14770896Y-11327984D01*
X14770896Y-11327984D02*
X14789944Y-11337508D01*
X14789944Y-11337508D02*
X14799467Y-11347031D01*
X14799467Y-11347031D02*
X14808991Y-11366079D01*
X14808991Y-11366079D02*
X14808991Y-11385127D01*
X14808991Y-11385127D02*
X14799467Y-11413698D01*
X14799467Y-11413698D02*
X14685182Y-11527984D01*
X14685182Y-11527984D02*
X14808991Y-11527984D01*
X14980420Y-11327984D02*
X14942325Y-11327984D01*
X14942325Y-11327984D02*
X14923277Y-11337508D01*
X14923277Y-11337508D02*
X14913753Y-11347031D01*
X14913753Y-11347031D02*
X14894706Y-11375603D01*
X14894706Y-11375603D02*
X14885182Y-11413698D01*
X14885182Y-11413698D02*
X14885182Y-11489888D01*
X14885182Y-11489888D02*
X14894706Y-11508936D01*
X14894706Y-11508936D02*
X14904229Y-11518460D01*
X14904229Y-11518460D02*
X14923277Y-11527984D01*
X14923277Y-11527984D02*
X14961372Y-11527984D01*
X14961372Y-11527984D02*
X14980420Y-11518460D01*
X14980420Y-11518460D02*
X14989944Y-11508936D01*
X14989944Y-11508936D02*
X14999467Y-11489888D01*
X14999467Y-11489888D02*
X14999467Y-11442269D01*
X14999467Y-11442269D02*
X14989944Y-11423222D01*
X14989944Y-11423222D02*
X14980420Y-11413698D01*
X14980420Y-11413698D02*
X14961372Y-11404174D01*
X14961372Y-11404174D02*
X14923277Y-11404174D01*
X14923277Y-11404174D02*
X14904229Y-11413698D01*
X14904229Y-11413698D02*
X14894706Y-11423222D01*
X14894706Y-11423222D02*
X14885182Y-11442269D01*
X15123277Y-11327984D02*
X15142325Y-11327984D01*
X15142325Y-11327984D02*
X15161372Y-11337508D01*
X15161372Y-11337508D02*
X15170896Y-11347031D01*
X15170896Y-11347031D02*
X15180420Y-11366079D01*
X15180420Y-11366079D02*
X15189944Y-11404174D01*
X15189944Y-11404174D02*
X15189944Y-11451793D01*
X15189944Y-11451793D02*
X15180420Y-11489888D01*
X15180420Y-11489888D02*
X15170896Y-11508936D01*
X15170896Y-11508936D02*
X15161372Y-11518460D01*
X15161372Y-11518460D02*
X15142325Y-11527984D01*
X15142325Y-11527984D02*
X15123277Y-11527984D01*
X15123277Y-11527984D02*
X15104229Y-11518460D01*
X15104229Y-11518460D02*
X15094706Y-11508936D01*
X15094706Y-11508936D02*
X15085182Y-11489888D01*
X15085182Y-11489888D02*
X15075658Y-11451793D01*
X15075658Y-11451793D02*
X15075658Y-11404174D01*
X15075658Y-11404174D02*
X15085182Y-11366079D01*
X15085182Y-11366079D02*
X15094706Y-11347031D01*
X15094706Y-11347031D02*
X15104229Y-11337508D01*
X15104229Y-11337508D02*
X15123277Y-11327984D01*
X15266134Y-11327984D02*
X15266134Y-11366079D01*
X15342325Y-11327984D02*
X15342325Y-11366079D01*
X15637563Y-11604174D02*
X15628039Y-11594650D01*
X15628039Y-11594650D02*
X15608991Y-11566079D01*
X15608991Y-11566079D02*
X15599468Y-11547031D01*
X15599468Y-11547031D02*
X15589944Y-11518460D01*
X15589944Y-11518460D02*
X15580420Y-11470841D01*
X15580420Y-11470841D02*
X15580420Y-11432746D01*
X15580420Y-11432746D02*
X15589944Y-11385127D01*
X15589944Y-11385127D02*
X15599468Y-11356555D01*
X15599468Y-11356555D02*
X15608991Y-11337508D01*
X15608991Y-11337508D02*
X15628039Y-11308936D01*
X15628039Y-11308936D02*
X15637563Y-11299412D01*
X15704229Y-11347031D02*
X15713753Y-11337508D01*
X15713753Y-11337508D02*
X15732801Y-11327984D01*
X15732801Y-11327984D02*
X15780420Y-11327984D01*
X15780420Y-11327984D02*
X15799468Y-11337508D01*
X15799468Y-11337508D02*
X15808991Y-11347031D01*
X15808991Y-11347031D02*
X15818515Y-11366079D01*
X15818515Y-11366079D02*
X15818515Y-11385127D01*
X15818515Y-11385127D02*
X15808991Y-11413698D01*
X15808991Y-11413698D02*
X15694706Y-11527984D01*
X15694706Y-11527984D02*
X15818515Y-11527984D01*
X16056610Y-11527984D02*
X16056610Y-11327984D01*
X16142325Y-11527984D02*
X16142325Y-11423222D01*
X16142325Y-11423222D02*
X16132801Y-11404174D01*
X16132801Y-11404174D02*
X16113753Y-11394650D01*
X16113753Y-11394650D02*
X16085182Y-11394650D01*
X16085182Y-11394650D02*
X16066134Y-11404174D01*
X16066134Y-11404174D02*
X16056610Y-11413698D01*
X16266134Y-11527984D02*
X16247087Y-11518460D01*
X16247087Y-11518460D02*
X16237563Y-11508936D01*
X16237563Y-11508936D02*
X16228039Y-11489888D01*
X16228039Y-11489888D02*
X16228039Y-11432746D01*
X16228039Y-11432746D02*
X16237563Y-11413698D01*
X16237563Y-11413698D02*
X16247087Y-11404174D01*
X16247087Y-11404174D02*
X16266134Y-11394650D01*
X16266134Y-11394650D02*
X16294706Y-11394650D01*
X16294706Y-11394650D02*
X16313753Y-11404174D01*
X16313753Y-11404174D02*
X16323277Y-11413698D01*
X16323277Y-11413698D02*
X16332801Y-11432746D01*
X16332801Y-11432746D02*
X16332801Y-11489888D01*
X16332801Y-11489888D02*
X16323277Y-11508936D01*
X16323277Y-11508936D02*
X16313753Y-11518460D01*
X16313753Y-11518460D02*
X16294706Y-11527984D01*
X16294706Y-11527984D02*
X16266134Y-11527984D01*
X16447087Y-11527984D02*
X16428039Y-11518460D01*
X16428039Y-11518460D02*
X16418515Y-11499412D01*
X16418515Y-11499412D02*
X16418515Y-11327984D01*
X16599468Y-11518460D02*
X16580420Y-11527984D01*
X16580420Y-11527984D02*
X16542325Y-11527984D01*
X16542325Y-11527984D02*
X16523277Y-11518460D01*
X16523277Y-11518460D02*
X16513753Y-11499412D01*
X16513753Y-11499412D02*
X16513753Y-11423222D01*
X16513753Y-11423222D02*
X16523277Y-11404174D01*
X16523277Y-11404174D02*
X16542325Y-11394650D01*
X16542325Y-11394650D02*
X16580420Y-11394650D01*
X16580420Y-11394650D02*
X16599468Y-11404174D01*
X16599468Y-11404174D02*
X16608991Y-11423222D01*
X16608991Y-11423222D02*
X16608991Y-11442269D01*
X16608991Y-11442269D02*
X16513753Y-11461317D01*
X16685182Y-11518460D02*
X16704230Y-11527984D01*
X16704230Y-11527984D02*
X16742325Y-11527984D01*
X16742325Y-11527984D02*
X16761372Y-11518460D01*
X16761372Y-11518460D02*
X16770896Y-11499412D01*
X16770896Y-11499412D02*
X16770896Y-11489888D01*
X16770896Y-11489888D02*
X16761372Y-11470841D01*
X16761372Y-11470841D02*
X16742325Y-11461317D01*
X16742325Y-11461317D02*
X16713753Y-11461317D01*
X16713753Y-11461317D02*
X16694706Y-11451793D01*
X16694706Y-11451793D02*
X16685182Y-11432746D01*
X16685182Y-11432746D02*
X16685182Y-11423222D01*
X16685182Y-11423222D02*
X16694706Y-11404174D01*
X16694706Y-11404174D02*
X16713753Y-11394650D01*
X16713753Y-11394650D02*
X16742325Y-11394650D01*
X16742325Y-11394650D02*
X16761372Y-11404174D01*
X16837563Y-11604174D02*
X16847087Y-11594650D01*
X16847087Y-11594650D02*
X16866134Y-11566079D01*
X16866134Y-11566079D02*
X16875658Y-11547031D01*
X16875658Y-11547031D02*
X16885182Y-11518460D01*
X16885182Y-11518460D02*
X16894706Y-11470841D01*
X16894706Y-11470841D02*
X16894706Y-11432746D01*
X16894706Y-11432746D02*
X16885182Y-11385127D01*
X16885182Y-11385127D02*
X16875658Y-11356555D01*
X16875658Y-11356555D02*
X16866134Y-11337508D01*
X16866134Y-11337508D02*
X16847087Y-11308936D01*
X16847087Y-11308936D02*
X16837563Y-11299412D01*
M02*
