G04 #@! TF.GenerationSoftware,KiCad,Pcbnew,8.0.3+1*
G04 #@! TF.CreationDate,2024-07-17T12:21:26-06:00*
G04 #@! TF.ProjectId,CH375_Serial,43483337-355f-4536-9572-69616c2e6b69,rev?*
G04 #@! TF.SameCoordinates,Original*
G04 #@! TF.FileFunction,Soldermask,Bot*
G04 #@! TF.FilePolarity,Negative*
%FSLAX46Y46*%
G04 Gerber Fmt 4.6, Leading zero omitted, Abs format (unit mm)*
G04 Created by KiCad (PCBNEW 8.0.3+1) date 2024-07-17 12:21:26*
%MOMM*%
%LPD*%
G01*
G04 APERTURE LIST*
G04 Aperture macros list*
%AMRoundRect*
0 Rectangle with rounded corners*
0 $1 Rounding radius*
0 $2 $3 $4 $5 $6 $7 $8 $9 X,Y pos of 4 corners*
0 Add a 4 corners polygon primitive as box body*
4,1,4,$2,$3,$4,$5,$6,$7,$8,$9,$2,$3,0*
0 Add four circle primitives for the rounded corners*
1,1,$1+$1,$2,$3*
1,1,$1+$1,$4,$5*
1,1,$1+$1,$6,$7*
1,1,$1+$1,$8,$9*
0 Add four rect primitives between the rounded corners*
20,1,$1+$1,$2,$3,$4,$5,0*
20,1,$1+$1,$4,$5,$6,$7,0*
20,1,$1+$1,$6,$7,$8,$9,0*
20,1,$1+$1,$8,$9,$2,$3,0*%
%AMFreePoly0*
4,1,19,0.500000,-0.750000,0.000000,-0.750000,0.000000,-0.744911,-0.071157,-0.744911,-0.207708,-0.704816,-0.327430,-0.627875,-0.420627,-0.520320,-0.479746,-0.390866,-0.500000,-0.250000,-0.500000,0.250000,-0.479746,0.390866,-0.420627,0.520320,-0.327430,0.627875,-0.207708,0.704816,-0.071157,0.744911,0.000000,0.744911,0.000000,0.750000,0.500000,0.750000,0.500000,-0.750000,0.500000,-0.750000,
$1*%
%AMFreePoly1*
4,1,19,0.000000,0.744911,0.071157,0.744911,0.207708,0.704816,0.327430,0.627875,0.420627,0.520320,0.479746,0.390866,0.500000,0.250000,0.500000,-0.250000,0.479746,-0.390866,0.420627,-0.520320,0.327430,-0.627875,0.207708,-0.704816,0.071157,-0.744911,0.000000,-0.744911,0.000000,-0.750000,-0.500000,-0.750000,-0.500000,0.750000,0.000000,0.750000,0.000000,0.744911,0.000000,0.744911,
$1*%
G04 Aperture macros list end*
%ADD10C,0.010000*%
%ADD11R,3.500000X3.500000*%
%ADD12RoundRect,0.750000X-1.000000X0.750000X-1.000000X-0.750000X1.000000X-0.750000X1.000000X0.750000X0*%
%ADD13RoundRect,0.875000X-0.875000X0.875000X-0.875000X-0.875000X0.875000X-0.875000X0.875000X0.875000X0*%
%ADD14C,4.000000*%
%ADD15R,1.600000X1.600000*%
%ADD16C,1.600000*%
%ADD17C,1.500000*%
%ADD18C,2.200000*%
%ADD19R,1.800000X1.800000*%
%ADD20C,1.800000*%
%ADD21R,1.500000X1.600000*%
%ADD22C,3.000000*%
%ADD23C,1.000000*%
%ADD24FreePoly0,90.000000*%
%ADD25FreePoly1,90.000000*%
%ADD26FreePoly0,0.000000*%
%ADD27FreePoly1,0.000000*%
G04 APERTURE END LIST*
D10*
X175577226Y-85477623D02*
X175511808Y-85487761D01*
X175402436Y-85504711D01*
X175286546Y-85519995D01*
X175187339Y-85533079D01*
X175087894Y-85544958D01*
X174923998Y-85564536D01*
X174604477Y-85600889D01*
X174594304Y-85602034D01*
X174366251Y-85627943D01*
X174160605Y-85651752D01*
X173985698Y-85672460D01*
X173849866Y-85689069D01*
X173761441Y-85700577D01*
X173728757Y-85705984D01*
X173736797Y-85706876D01*
X173797271Y-85707964D01*
X173910534Y-85708318D01*
X174068981Y-85707962D01*
X174265011Y-85706920D01*
X174491020Y-85705214D01*
X174739404Y-85702868D01*
X174871017Y-85701669D01*
X175201287Y-85700482D01*
X175468569Y-85702592D01*
X175673896Y-85708021D01*
X175818299Y-85716792D01*
X175902811Y-85728928D01*
X175905551Y-85729633D01*
X175992963Y-85759176D01*
X176120382Y-85810626D01*
X176271129Y-85876934D01*
X176428526Y-85951055D01*
X176808937Y-86136593D01*
X176672692Y-86269379D01*
X176532207Y-86385564D01*
X176283909Y-86522260D01*
X175984978Y-86619178D01*
X175963278Y-86624112D01*
X175870349Y-86640674D01*
X175757135Y-86653429D01*
X175614804Y-86662849D01*
X175434522Y-86669404D01*
X175207456Y-86673568D01*
X174924772Y-86675812D01*
X174894274Y-86675945D01*
X174604062Y-86676020D01*
X174358054Y-86672811D01*
X174140888Y-86665059D01*
X173937204Y-86651506D01*
X173731640Y-86630897D01*
X173508835Y-86601972D01*
X173253429Y-86563474D01*
X172950060Y-86514146D01*
X172458090Y-86432519D01*
X172393418Y-86508110D01*
X172366379Y-86540764D01*
X172297756Y-86627758D01*
X172224779Y-86724058D01*
X172185785Y-86771730D01*
X172094323Y-86860999D01*
X172007817Y-86921798D01*
X171967125Y-86941190D01*
X171776869Y-87010873D01*
X171543587Y-87070988D01*
X171284125Y-87117707D01*
X171015330Y-87147206D01*
X170902767Y-87154552D01*
X170479081Y-87163451D01*
X170110329Y-87138661D01*
X169796489Y-87080181D01*
X169708812Y-87060616D01*
X169544165Y-87036575D01*
X169364740Y-87022329D01*
X169183641Y-87017726D01*
X169013973Y-87022616D01*
X168868842Y-87036849D01*
X168761353Y-87060273D01*
X168704609Y-87092738D01*
X168701513Y-87096830D01*
X168669527Y-87123965D01*
X168617188Y-87138874D01*
X168529869Y-87143825D01*
X168392940Y-87141089D01*
X168294966Y-87137177D01*
X168200080Y-87129769D01*
X168147012Y-87116658D01*
X168122422Y-87093855D01*
X168112970Y-87057370D01*
X168114891Y-87003885D01*
X168144579Y-86932293D01*
X168183257Y-86897654D01*
X168288250Y-86835677D01*
X168433238Y-86771016D01*
X168603776Y-86709237D01*
X168785420Y-86655907D01*
X168963725Y-86616593D01*
X169127811Y-86586642D01*
X169363279Y-86539193D01*
X169537829Y-86497068D01*
X169653528Y-86459741D01*
X169712441Y-86426690D01*
X169724820Y-86405307D01*
X169710633Y-86373108D01*
X169655469Y-86327573D01*
X169551274Y-86260394D01*
X169527662Y-86245051D01*
X169419461Y-86163196D01*
X169280356Y-86045489D01*
X169120050Y-85901189D01*
X168948244Y-85739553D01*
X168774640Y-85569836D01*
X168608942Y-85401297D01*
X168460851Y-85243192D01*
X168340070Y-85104779D01*
X168259149Y-85009332D01*
X168056588Y-84790994D01*
X167865867Y-84614799D01*
X167691651Y-84484411D01*
X167538606Y-84403492D01*
X167411397Y-84375705D01*
X167387289Y-84380229D01*
X167314683Y-84434890D01*
X167229754Y-84550182D01*
X167133618Y-84724417D01*
X167027392Y-84955908D01*
X166967980Y-85089484D01*
X166833779Y-85361154D01*
X166691283Y-85615354D01*
X166552703Y-85829611D01*
X166517646Y-85879020D01*
X166428306Y-86004965D01*
X166346934Y-86119713D01*
X166302261Y-86186020D01*
X166222380Y-86314982D01*
X166150760Y-86441342D01*
X166103019Y-86528375D01*
X165999602Y-86701481D01*
X165897009Y-86855043D01*
X165804142Y-86976145D01*
X165729905Y-87051871D01*
X165711842Y-87065333D01*
X165631695Y-87100181D01*
X165531755Y-87094783D01*
X165512961Y-87091509D01*
X165395473Y-87077332D01*
X165274372Y-87070087D01*
X165252684Y-87069245D01*
X165140135Y-87045944D01*
X165082853Y-86998273D01*
X165081622Y-86935170D01*
X165137230Y-86865574D01*
X165250463Y-86798423D01*
X165299541Y-86773557D01*
X165421383Y-86675002D01*
X165523077Y-86528417D01*
X165610699Y-86325832D01*
X165631600Y-86272148D01*
X165662511Y-86206248D01*
X165705554Y-86127208D01*
X165764850Y-86028402D01*
X165844520Y-85903207D01*
X165948687Y-85744996D01*
X166081471Y-85547146D01*
X166246993Y-85303031D01*
X166297943Y-85226059D01*
X166387951Y-85077236D01*
X166451058Y-84953670D01*
X166480547Y-84867879D01*
X166493949Y-84802708D01*
X166525149Y-84680821D01*
X166562707Y-84554789D01*
X166587143Y-84467679D01*
X166614146Y-84332883D01*
X166624645Y-84222003D01*
X166624461Y-84201718D01*
X166617098Y-84129358D01*
X166591885Y-84066379D01*
X166539167Y-83994884D01*
X166449285Y-83896971D01*
X166446209Y-83893733D01*
X166349880Y-83780648D01*
X166264361Y-83660567D01*
X166207839Y-83558953D01*
X166187810Y-83507957D01*
X166139751Y-83344542D01*
X166105348Y-83166828D01*
X166088634Y-82999280D01*
X166093644Y-82866365D01*
X166104323Y-82801954D01*
X166128627Y-82687504D01*
X166160688Y-82604381D01*
X166211082Y-82529693D01*
X166290387Y-82440547D01*
X166437005Y-82283800D01*
X166329366Y-82239356D01*
X166295640Y-82227091D01*
X166178323Y-82194376D01*
X166021393Y-82158942D01*
X165841966Y-82124207D01*
X165657159Y-82093591D01*
X165484089Y-82070513D01*
X165365309Y-82048020D01*
X165238867Y-81991417D01*
X165164821Y-81909070D01*
X165147881Y-81804703D01*
X165149901Y-81789565D01*
X165167687Y-81740610D01*
X165213258Y-81713663D01*
X165304911Y-81696063D01*
X165349061Y-81688446D01*
X165490486Y-81654731D01*
X165660567Y-81605395D01*
X165837532Y-81547410D01*
X165999609Y-81487751D01*
X166125026Y-81433389D01*
X166130999Y-81430426D01*
X166207218Y-81388809D01*
X166261368Y-81344442D01*
X166310817Y-81279227D01*
X166372934Y-81175068D01*
X166419505Y-81106242D01*
X166504834Y-81002606D01*
X166609335Y-80889901D01*
X166720970Y-80779889D01*
X166827702Y-80684330D01*
X166917492Y-80614986D01*
X166978304Y-80583616D01*
X166994922Y-80579972D01*
X167044143Y-80557615D01*
X167070458Y-80509294D01*
X167086237Y-80415771D01*
X167093433Y-80355760D01*
X167110189Y-80216970D01*
X167126767Y-80080591D01*
X167140213Y-79999897D01*
X167162420Y-79924393D01*
X167185183Y-79895242D01*
X167201869Y-79903372D01*
X167257268Y-79949783D01*
X167337182Y-80028130D01*
X167430483Y-80127859D01*
X167458498Y-80158754D01*
X167591042Y-80301326D01*
X167736541Y-80453502D01*
X167868225Y-80587193D01*
X167924160Y-80644799D01*
X168021756Y-80755449D01*
X168097886Y-80854829D01*
X168139588Y-80926721D01*
X168146559Y-80943002D01*
X168195706Y-81030747D01*
X168270042Y-81142331D01*
X168356394Y-81257647D01*
X168371912Y-81277347D01*
X168465697Y-81404119D01*
X168551496Y-81531458D01*
X168612430Y-81634518D01*
X168659462Y-81740373D01*
X168722062Y-81936353D01*
X168765876Y-82144287D01*
X168783158Y-82332504D01*
X168784131Y-82359637D01*
X168794942Y-82427492D01*
X168821387Y-82495920D01*
X168868081Y-82569518D01*
X168939638Y-82652882D01*
X169040672Y-82750608D01*
X169175800Y-82867293D01*
X169349633Y-83007532D01*
X169566788Y-83175921D01*
X169831879Y-83377057D01*
X170106373Y-83587109D01*
X170517543Y-83916584D01*
X170876078Y-84225099D01*
X171185676Y-84516401D01*
X171450033Y-84794240D01*
X171672845Y-85062364D01*
X171857808Y-85324522D01*
X172008620Y-85584462D01*
X172035099Y-85634757D01*
X172098709Y-85750006D01*
X172152386Y-85839918D01*
X172186667Y-85888338D01*
X172249210Y-85917401D01*
X172324505Y-85889669D01*
X172405429Y-85807322D01*
X172486496Y-85674276D01*
X172501377Y-85646434D01*
X172519560Y-85617829D01*
X173039112Y-85617829D01*
X173041348Y-85628662D01*
X173064091Y-85624954D01*
X173121594Y-85582684D01*
X173155558Y-85554963D01*
X173161111Y-85544958D01*
X173111638Y-85567701D01*
X173064428Y-85594210D01*
X173039112Y-85617829D01*
X172519560Y-85617829D01*
X172581748Y-85519995D01*
X173200280Y-85519995D01*
X173216396Y-85536112D01*
X173232513Y-85519995D01*
X173216396Y-85503878D01*
X173200280Y-85519995D01*
X172581748Y-85519995D01*
X172583680Y-85516956D01*
X172604995Y-85487761D01*
X173264747Y-85487761D01*
X173280863Y-85503878D01*
X173296980Y-85487761D01*
X173280863Y-85471644D01*
X173264747Y-85487761D01*
X172604995Y-85487761D01*
X172628528Y-85455528D01*
X173329214Y-85455528D01*
X173345330Y-85471644D01*
X173361447Y-85455528D01*
X173345330Y-85439411D01*
X173329214Y-85455528D01*
X172628528Y-85455528D01*
X172698881Y-85359168D01*
X172836176Y-85185955D01*
X172984762Y-85010200D01*
X173133835Y-84844789D01*
X173272591Y-84702603D01*
X173390227Y-84596528D01*
X173425218Y-84567428D01*
X173586273Y-84415528D01*
X173741344Y-84243301D01*
X173874560Y-84069463D01*
X173970049Y-83912731D01*
X173986284Y-83879478D01*
X174058973Y-83680013D01*
X174079713Y-83487437D01*
X174051418Y-83279075D01*
X174024935Y-83165502D01*
X173995589Y-83036564D01*
X173981000Y-82954801D01*
X173982180Y-82910543D01*
X174000141Y-82894120D01*
X174035896Y-82895862D01*
X174090456Y-82906100D01*
X174122736Y-82912732D01*
X174284716Y-82966382D01*
X174461744Y-83050528D01*
X174629453Y-83152386D01*
X174763476Y-83259172D01*
X174779562Y-83275193D01*
X174902319Y-83446304D01*
X174978926Y-83654932D01*
X175005356Y-83890571D01*
X174998687Y-83970167D01*
X174965502Y-84082934D01*
X174901221Y-84201531D01*
X174802229Y-84329584D01*
X174664906Y-84470716D01*
X174485637Y-84628551D01*
X174260804Y-84806713D01*
X173986790Y-85008825D01*
X173659979Y-85238513D01*
X173594364Y-85283861D01*
X173490011Y-85356677D01*
X173427454Y-85402333D01*
X173398942Y-85427137D01*
X173396723Y-85437394D01*
X173413044Y-85439411D01*
X173415010Y-85439143D01*
X173458830Y-85419632D01*
X173544779Y-85373713D01*
X173661382Y-85307707D01*
X173797160Y-85227930D01*
X173983120Y-85118590D01*
X174331131Y-84925819D01*
X174654300Y-84765350D01*
X174968287Y-84630183D01*
X175288749Y-84513315D01*
X175631346Y-84407743D01*
X175837402Y-84361505D01*
X176091492Y-84347489D01*
X176338618Y-84388893D01*
X176595774Y-84487117D01*
X176725159Y-84553663D01*
X176813555Y-84613962D01*
X176842665Y-84659771D01*
X176836060Y-84693213D01*
X176785197Y-84780462D01*
X176691782Y-84886155D01*
X176564997Y-85001540D01*
X176414029Y-85117866D01*
X176248060Y-85226380D01*
X176223976Y-85240706D01*
X176124356Y-85298091D01*
X176032050Y-85345905D01*
X175939121Y-85385957D01*
X175837631Y-85420055D01*
X175719645Y-85450007D01*
X175691172Y-85455528D01*
X175577226Y-85477623D01*
G36*
X175577226Y-85477623D02*
G01*
X175511808Y-85487761D01*
X175402436Y-85504711D01*
X175286546Y-85519995D01*
X175187339Y-85533079D01*
X175087894Y-85544958D01*
X174923998Y-85564536D01*
X174604477Y-85600889D01*
X174594304Y-85602034D01*
X174366251Y-85627943D01*
X174160605Y-85651752D01*
X173985698Y-85672460D01*
X173849866Y-85689069D01*
X173761441Y-85700577D01*
X173728757Y-85705984D01*
X173736797Y-85706876D01*
X173797271Y-85707964D01*
X173910534Y-85708318D01*
X174068981Y-85707962D01*
X174265011Y-85706920D01*
X174491020Y-85705214D01*
X174739404Y-85702868D01*
X174871017Y-85701669D01*
X175201287Y-85700482D01*
X175468569Y-85702592D01*
X175673896Y-85708021D01*
X175818299Y-85716792D01*
X175902811Y-85728928D01*
X175905551Y-85729633D01*
X175992963Y-85759176D01*
X176120382Y-85810626D01*
X176271129Y-85876934D01*
X176428526Y-85951055D01*
X176808937Y-86136593D01*
X176672692Y-86269379D01*
X176532207Y-86385564D01*
X176283909Y-86522260D01*
X175984978Y-86619178D01*
X175963278Y-86624112D01*
X175870349Y-86640674D01*
X175757135Y-86653429D01*
X175614804Y-86662849D01*
X175434522Y-86669404D01*
X175207456Y-86673568D01*
X174924772Y-86675812D01*
X174894274Y-86675945D01*
X174604062Y-86676020D01*
X174358054Y-86672811D01*
X174140888Y-86665059D01*
X173937204Y-86651506D01*
X173731640Y-86630897D01*
X173508835Y-86601972D01*
X173253429Y-86563474D01*
X172950060Y-86514146D01*
X172458090Y-86432519D01*
X172393418Y-86508110D01*
X172366379Y-86540764D01*
X172297756Y-86627758D01*
X172224779Y-86724058D01*
X172185785Y-86771730D01*
X172094323Y-86860999D01*
X172007817Y-86921798D01*
X171967125Y-86941190D01*
X171776869Y-87010873D01*
X171543587Y-87070988D01*
X171284125Y-87117707D01*
X171015330Y-87147206D01*
X170902767Y-87154552D01*
X170479081Y-87163451D01*
X170110329Y-87138661D01*
X169796489Y-87080181D01*
X169708812Y-87060616D01*
X169544165Y-87036575D01*
X169364740Y-87022329D01*
X169183641Y-87017726D01*
X169013973Y-87022616D01*
X168868842Y-87036849D01*
X168761353Y-87060273D01*
X168704609Y-87092738D01*
X168701513Y-87096830D01*
X168669527Y-87123965D01*
X168617188Y-87138874D01*
X168529869Y-87143825D01*
X168392940Y-87141089D01*
X168294966Y-87137177D01*
X168200080Y-87129769D01*
X168147012Y-87116658D01*
X168122422Y-87093855D01*
X168112970Y-87057370D01*
X168114891Y-87003885D01*
X168144579Y-86932293D01*
X168183257Y-86897654D01*
X168288250Y-86835677D01*
X168433238Y-86771016D01*
X168603776Y-86709237D01*
X168785420Y-86655907D01*
X168963725Y-86616593D01*
X169127811Y-86586642D01*
X169363279Y-86539193D01*
X169537829Y-86497068D01*
X169653528Y-86459741D01*
X169712441Y-86426690D01*
X169724820Y-86405307D01*
X169710633Y-86373108D01*
X169655469Y-86327573D01*
X169551274Y-86260394D01*
X169527662Y-86245051D01*
X169419461Y-86163196D01*
X169280356Y-86045489D01*
X169120050Y-85901189D01*
X168948244Y-85739553D01*
X168774640Y-85569836D01*
X168608942Y-85401297D01*
X168460851Y-85243192D01*
X168340070Y-85104779D01*
X168259149Y-85009332D01*
X168056588Y-84790994D01*
X167865867Y-84614799D01*
X167691651Y-84484411D01*
X167538606Y-84403492D01*
X167411397Y-84375705D01*
X167387289Y-84380229D01*
X167314683Y-84434890D01*
X167229754Y-84550182D01*
X167133618Y-84724417D01*
X167027392Y-84955908D01*
X166967980Y-85089484D01*
X166833779Y-85361154D01*
X166691283Y-85615354D01*
X166552703Y-85829611D01*
X166517646Y-85879020D01*
X166428306Y-86004965D01*
X166346934Y-86119713D01*
X166302261Y-86186020D01*
X166222380Y-86314982D01*
X166150760Y-86441342D01*
X166103019Y-86528375D01*
X165999602Y-86701481D01*
X165897009Y-86855043D01*
X165804142Y-86976145D01*
X165729905Y-87051871D01*
X165711842Y-87065333D01*
X165631695Y-87100181D01*
X165531755Y-87094783D01*
X165512961Y-87091509D01*
X165395473Y-87077332D01*
X165274372Y-87070087D01*
X165252684Y-87069245D01*
X165140135Y-87045944D01*
X165082853Y-86998273D01*
X165081622Y-86935170D01*
X165137230Y-86865574D01*
X165250463Y-86798423D01*
X165299541Y-86773557D01*
X165421383Y-86675002D01*
X165523077Y-86528417D01*
X165610699Y-86325832D01*
X165631600Y-86272148D01*
X165662511Y-86206248D01*
X165705554Y-86127208D01*
X165764850Y-86028402D01*
X165844520Y-85903207D01*
X165948687Y-85744996D01*
X166081471Y-85547146D01*
X166246993Y-85303031D01*
X166297943Y-85226059D01*
X166387951Y-85077236D01*
X166451058Y-84953670D01*
X166480547Y-84867879D01*
X166493949Y-84802708D01*
X166525149Y-84680821D01*
X166562707Y-84554789D01*
X166587143Y-84467679D01*
X166614146Y-84332883D01*
X166624645Y-84222003D01*
X166624461Y-84201718D01*
X166617098Y-84129358D01*
X166591885Y-84066379D01*
X166539167Y-83994884D01*
X166449285Y-83896971D01*
X166446209Y-83893733D01*
X166349880Y-83780648D01*
X166264361Y-83660567D01*
X166207839Y-83558953D01*
X166187810Y-83507957D01*
X166139751Y-83344542D01*
X166105348Y-83166828D01*
X166088634Y-82999280D01*
X166093644Y-82866365D01*
X166104323Y-82801954D01*
X166128627Y-82687504D01*
X166160688Y-82604381D01*
X166211082Y-82529693D01*
X166290387Y-82440547D01*
X166437005Y-82283800D01*
X166329366Y-82239356D01*
X166295640Y-82227091D01*
X166178323Y-82194376D01*
X166021393Y-82158942D01*
X165841966Y-82124207D01*
X165657159Y-82093591D01*
X165484089Y-82070513D01*
X165365309Y-82048020D01*
X165238867Y-81991417D01*
X165164821Y-81909070D01*
X165147881Y-81804703D01*
X165149901Y-81789565D01*
X165167687Y-81740610D01*
X165213258Y-81713663D01*
X165304911Y-81696063D01*
X165349061Y-81688446D01*
X165490486Y-81654731D01*
X165660567Y-81605395D01*
X165837532Y-81547410D01*
X165999609Y-81487751D01*
X166125026Y-81433389D01*
X166130999Y-81430426D01*
X166207218Y-81388809D01*
X166261368Y-81344442D01*
X166310817Y-81279227D01*
X166372934Y-81175068D01*
X166419505Y-81106242D01*
X166504834Y-81002606D01*
X166609335Y-80889901D01*
X166720970Y-80779889D01*
X166827702Y-80684330D01*
X166917492Y-80614986D01*
X166978304Y-80583616D01*
X166994922Y-80579972D01*
X167044143Y-80557615D01*
X167070458Y-80509294D01*
X167086237Y-80415771D01*
X167093433Y-80355760D01*
X167110189Y-80216970D01*
X167126767Y-80080591D01*
X167140213Y-79999897D01*
X167162420Y-79924393D01*
X167185183Y-79895242D01*
X167201869Y-79903372D01*
X167257268Y-79949783D01*
X167337182Y-80028130D01*
X167430483Y-80127859D01*
X167458498Y-80158754D01*
X167591042Y-80301326D01*
X167736541Y-80453502D01*
X167868225Y-80587193D01*
X167924160Y-80644799D01*
X168021756Y-80755449D01*
X168097886Y-80854829D01*
X168139588Y-80926721D01*
X168146559Y-80943002D01*
X168195706Y-81030747D01*
X168270042Y-81142331D01*
X168356394Y-81257647D01*
X168371912Y-81277347D01*
X168465697Y-81404119D01*
X168551496Y-81531458D01*
X168612430Y-81634518D01*
X168659462Y-81740373D01*
X168722062Y-81936353D01*
X168765876Y-82144287D01*
X168783158Y-82332504D01*
X168784131Y-82359637D01*
X168794942Y-82427492D01*
X168821387Y-82495920D01*
X168868081Y-82569518D01*
X168939638Y-82652882D01*
X169040672Y-82750608D01*
X169175800Y-82867293D01*
X169349633Y-83007532D01*
X169566788Y-83175921D01*
X169831879Y-83377057D01*
X170106373Y-83587109D01*
X170517543Y-83916584D01*
X170876078Y-84225099D01*
X171185676Y-84516401D01*
X171450033Y-84794240D01*
X171672845Y-85062364D01*
X171857808Y-85324522D01*
X172008620Y-85584462D01*
X172035099Y-85634757D01*
X172098709Y-85750006D01*
X172152386Y-85839918D01*
X172186667Y-85888338D01*
X172249210Y-85917401D01*
X172324505Y-85889669D01*
X172405429Y-85807322D01*
X172486496Y-85674276D01*
X172501377Y-85646434D01*
X172519560Y-85617829D01*
X173039112Y-85617829D01*
X173041348Y-85628662D01*
X173064091Y-85624954D01*
X173121594Y-85582684D01*
X173155558Y-85554963D01*
X173161111Y-85544958D01*
X173111638Y-85567701D01*
X173064428Y-85594210D01*
X173039112Y-85617829D01*
X172519560Y-85617829D01*
X172581748Y-85519995D01*
X173200280Y-85519995D01*
X173216396Y-85536112D01*
X173232513Y-85519995D01*
X173216396Y-85503878D01*
X173200280Y-85519995D01*
X172581748Y-85519995D01*
X172583680Y-85516956D01*
X172604995Y-85487761D01*
X173264747Y-85487761D01*
X173280863Y-85503878D01*
X173296980Y-85487761D01*
X173280863Y-85471644D01*
X173264747Y-85487761D01*
X172604995Y-85487761D01*
X172628528Y-85455528D01*
X173329214Y-85455528D01*
X173345330Y-85471644D01*
X173361447Y-85455528D01*
X173345330Y-85439411D01*
X173329214Y-85455528D01*
X172628528Y-85455528D01*
X172698881Y-85359168D01*
X172836176Y-85185955D01*
X172984762Y-85010200D01*
X173133835Y-84844789D01*
X173272591Y-84702603D01*
X173390227Y-84596528D01*
X173425218Y-84567428D01*
X173586273Y-84415528D01*
X173741344Y-84243301D01*
X173874560Y-84069463D01*
X173970049Y-83912731D01*
X173986284Y-83879478D01*
X174058973Y-83680013D01*
X174079713Y-83487437D01*
X174051418Y-83279075D01*
X174024935Y-83165502D01*
X173995589Y-83036564D01*
X173981000Y-82954801D01*
X173982180Y-82910543D01*
X174000141Y-82894120D01*
X174035896Y-82895862D01*
X174090456Y-82906100D01*
X174122736Y-82912732D01*
X174284716Y-82966382D01*
X174461744Y-83050528D01*
X174629453Y-83152386D01*
X174763476Y-83259172D01*
X174779562Y-83275193D01*
X174902319Y-83446304D01*
X174978926Y-83654932D01*
X175005356Y-83890571D01*
X174998687Y-83970167D01*
X174965502Y-84082934D01*
X174901221Y-84201531D01*
X174802229Y-84329584D01*
X174664906Y-84470716D01*
X174485637Y-84628551D01*
X174260804Y-84806713D01*
X173986790Y-85008825D01*
X173659979Y-85238513D01*
X173594364Y-85283861D01*
X173490011Y-85356677D01*
X173427454Y-85402333D01*
X173398942Y-85427137D01*
X173396723Y-85437394D01*
X173413044Y-85439411D01*
X173415010Y-85439143D01*
X173458830Y-85419632D01*
X173544779Y-85373713D01*
X173661382Y-85307707D01*
X173797160Y-85227930D01*
X173983120Y-85118590D01*
X174331131Y-84925819D01*
X174654300Y-84765350D01*
X174968287Y-84630183D01*
X175288749Y-84513315D01*
X175631346Y-84407743D01*
X175837402Y-84361505D01*
X176091492Y-84347489D01*
X176338618Y-84388893D01*
X176595774Y-84487117D01*
X176725159Y-84553663D01*
X176813555Y-84613962D01*
X176842665Y-84659771D01*
X176836060Y-84693213D01*
X176785197Y-84780462D01*
X176691782Y-84886155D01*
X176564997Y-85001540D01*
X176414029Y-85117866D01*
X176248060Y-85226380D01*
X176223976Y-85240706D01*
X176124356Y-85298091D01*
X176032050Y-85345905D01*
X175939121Y-85385957D01*
X175837631Y-85420055D01*
X175719645Y-85450007D01*
X175691172Y-85455528D01*
X175577226Y-85477623D01*
G37*
D11*
X127635000Y-68230000D03*
D12*
X127635000Y-62230000D03*
D13*
X122935000Y-65230000D03*
D14*
X185270000Y-85870000D03*
X185270000Y-60870000D03*
D15*
X183850000Y-67830000D03*
D16*
X183850000Y-70600000D03*
X183850000Y-73370000D03*
X183850000Y-76140000D03*
X183850000Y-78910000D03*
X186690000Y-69215000D03*
X186690000Y-71985000D03*
X186690000Y-74755000D03*
X186690000Y-77525000D03*
D17*
X156257500Y-85090000D03*
X161137500Y-85090000D03*
D18*
X171450000Y-82550000D03*
D19*
X146685000Y-85725000D03*
D20*
X144145000Y-85725000D03*
D21*
X130175000Y-76145000D03*
D16*
X130175000Y-78645000D03*
X130175000Y-80645000D03*
X130175000Y-83145000D03*
D22*
X127465000Y-73075000D03*
X127465000Y-86215000D03*
D23*
X175895000Y-78740000D03*
X180340000Y-69215000D03*
X149860000Y-60325000D03*
X180340000Y-73025000D03*
X167640000Y-65405000D03*
D24*
X140970000Y-76865000D03*
D25*
X140970000Y-75565000D03*
D23*
X170815000Y-78740000D03*
D26*
X177389000Y-75565000D03*
D27*
X178689000Y-75565000D03*
D24*
X146685000Y-80025000D03*
D25*
X146685000Y-78725000D03*
M02*
